<svg width="202" height="202" viewBox="0 0 202 202" fill="none" xmlns="http://www.w3.org/2000/svg">
<path d="M29.3708 74.8209C33.8956 110.292 51.5908 135.542 103.586 145.238C132.512 150.652 185.234 133.401 181.76 101.929C177.881 66.9833 141.481 81.6081 111.464 70.3365C93.4856 63.5897 83.9108 26.9065 54.742 29.0881C31.714 30.8253 26.9468 55.8329 29.3708 74.8209Z" fill="#F0F0F0"/>
<path d="M157.964 74.6998C157.964 74.6998 155.257 73.5686 153.439 79.9114C151.621 86.2542 151.136 89.769 151.136 89.769C151.136 89.769 150.611 91.1426 149.601 90.4962C148.591 89.8498 147.056 87.8702 145.723 88.5166C144.39 89.163 144.188 90.9406 144.915 93.2838C145.642 95.627 147.096 100.798 147.218 101.283C147.339 101.768 147.218 102.495 146.49 102.172C145.763 101.849 141.198 98.4146 139.703 100.677C138.208 102.939 141.319 109.121 141.683 109.807C142.046 110.494 141.925 110.817 141.642 111.06C141.36 111.302 139.905 110.009 138.572 109.08C137.239 108.151 135.542 107.303 134.774 108.676C134.007 110.05 134.653 115.019 140.875 122.089L143.945 125.159L148.187 124.109C157.156 121.281 160.267 117.322 160.307 115.787C160.348 114.251 158.489 114.049 156.873 114.171C155.257 114.292 153.358 114.655 153.237 114.292C153.116 113.928 153.197 113.605 153.843 113.161C154.49 112.716 160.348 109.08 160.226 106.373C160.105 103.667 154.449 104.273 153.641 104.151C152.833 104.03 153.116 103.343 153.439 103.02C153.762 102.697 157.681 98.9802 159.54 97.3642C161.398 95.7482 162.125 94.1726 161.317 92.8798C160.509 91.587 158.126 92.5162 156.994 92.5566C155.863 92.597 156.065 91.1426 156.065 91.1426C156.065 91.1426 157.479 87.8702 159.176 81.5274C160.873 75.1846 157.924 74.7402 157.924 74.7402" fill="#90CAF9"/>
<path d="M156.307 80.356C156.307 80.3964 156.307 80.4368 156.267 80.4772L156.186 80.8812C156.105 81.2448 155.984 81.7296 155.782 82.376C155.459 83.6688 154.934 85.5676 154.328 87.9108C153.075 92.5568 151.257 98.9804 149.237 106.091C147.217 113.201 145.44 119.544 144.107 124.23L142.571 129.725C142.41 130.371 142.248 130.856 142.167 131.22C142.127 131.381 142.087 131.502 142.046 131.624C142.046 131.664 142.006 131.704 142.006 131.745C142.006 131.704 142.006 131.664 142.046 131.624L142.127 131.22C142.208 130.856 142.329 130.371 142.531 129.725C142.854 128.432 143.379 126.533 143.985 124.19C145.238 119.544 147.056 113.12 149.076 106.01C151.096 98.8996 152.914 92.5164 154.207 87.8704L155.742 82.376C155.903 81.7296 156.065 81.2448 156.146 80.8812C156.186 80.7196 156.227 80.5984 156.267 80.4772C156.267 80.4368 156.307 80.3964 156.307 80.356Z" fill="#263238"/>
<path d="M147.823 91.4253C148.066 91.7485 148.268 92.0717 148.429 92.4353C148.753 93.0817 149.197 93.9705 149.641 94.9805L150.773 97.5661C150.934 97.9297 151.096 98.2933 151.217 98.6569C150.975 98.3337 150.773 98.0105 150.611 97.6469C150.288 97.0005 149.843 96.0713 149.399 95.0613L148.268 92.5161C148.106 92.1525 147.945 91.7889 147.823 91.4253Z" fill="#263238"/>
<path d="M151.621 98.657C151.581 98.6166 153.399 97.6066 155.702 96.4754C158.004 95.3442 159.822 94.415 159.863 94.4554C159.903 94.4958 158.045 95.5058 155.782 96.637C153.52 97.7682 151.662 98.7378 151.621 98.657Z" fill="#263238"/>
<path d="M148.026 109.403C148.389 109.282 148.793 109.201 149.197 109.161C149.924 108.999 150.934 108.797 152.025 108.555C153.116 108.313 154.126 108.03 154.813 107.828C155.176 107.707 155.58 107.626 155.984 107.545C155.621 107.707 155.257 107.868 154.853 107.949C154.166 108.191 153.156 108.474 152.066 108.717C150.975 108.959 149.965 109.161 149.238 109.282C148.834 109.363 148.43 109.403 148.026 109.403Z" fill="#263238"/>
<path d="M143.137 103.626C143.42 103.868 143.662 104.151 143.905 104.434C144.349 104.919 144.996 105.646 145.682 106.454C146.369 107.262 146.975 107.949 147.42 108.514C147.662 108.797 147.904 109.08 148.066 109.403C147.783 109.161 147.541 108.918 147.298 108.595C146.854 108.11 146.208 107.383 145.521 106.575C144.834 105.767 144.228 105.08 143.784 104.555C143.582 104.232 143.339 103.909 143.137 103.626Z" fill="#263238"/>
<path d="M138.774 112.676C139.138 112.999 139.461 113.322 139.784 113.686C140.39 114.332 141.198 115.221 142.087 116.231C142.976 117.241 143.743 118.17 144.309 118.817C144.632 119.18 144.915 119.544 145.198 119.948C144.834 119.625 144.511 119.301 144.188 118.938C143.582 118.291 142.774 117.403 141.885 116.393C140.996 115.383 140.228 114.453 139.663 113.807C139.34 113.443 139.057 113.08 138.774 112.676Z" fill="#263238"/>
<path d="M145.076 119.746C145.561 119.585 146.046 119.463 146.531 119.383C147.46 119.181 148.712 118.857 150.086 118.494C151.46 118.13 152.712 117.767 153.601 117.524L154.651 117.201C154.772 117.161 154.934 117.12 155.055 117.12C154.934 117.201 154.813 117.241 154.692 117.282C154.449 117.363 154.086 117.484 153.641 117.645C152.752 117.928 151.5 118.332 150.126 118.696C148.753 119.059 147.46 119.342 146.531 119.504C146.086 119.585 145.682 119.665 145.44 119.706C145.359 119.706 145.198 119.746 145.076 119.746Z" fill="#263238"/>
<path opacity="0.19" d="M174.083 181.437H16.2002L28.6838 155.258H161.64L174.083 181.437Z" fill="#0A0E0F"/>
<path d="M53.4089 163.822C54.0553 163.701 54.7825 163.701 55.4289 163.822C54.7825 163.984 54.0957 163.984 53.4089 163.822Z" fill="#263238"/>
<path d="M49.3689 163.822C49.6921 163.701 50.0557 163.701 50.3789 163.701C50.7021 163.661 51.0657 163.701 51.3889 163.822C50.7425 163.984 50.0557 163.984 49.3689 163.822Z" fill="#263238"/>
<path d="M45.3289 163.822C45.6521 163.701 46.0157 163.701 46.3389 163.701C46.6621 163.661 47.0256 163.701 47.3488 163.822C47.0256 163.944 46.6621 163.944 46.3389 163.944C46.0157 163.984 45.6521 163.944 45.3289 163.822Z" fill="#263238"/>
<path d="M41.2888 163.822C41.612 163.701 41.9756 163.701 42.2988 163.701C42.622 163.661 42.9856 163.701 43.3088 163.822C42.9856 163.944 42.622 163.944 42.2988 163.944C41.9756 163.984 41.612 163.944 41.2888 163.822Z" fill="#263238"/>
<path d="M37.2488 163.822C37.572 163.701 37.9356 163.701 38.2588 163.701C38.582 163.661 38.9456 163.701 39.2688 163.822C38.9456 163.944 38.582 163.944 38.2588 163.944C37.9356 163.984 37.572 163.944 37.2488 163.822Z" fill="#263238"/>
<path d="M37.0872 159.944C37.2084 160.59 37.2084 161.317 37.0872 161.964C36.966 161.317 36.966 160.631 37.0872 159.944Z" fill="#263238"/>
<path d="M37.0872 155.904C37.2084 156.55 37.2084 157.277 37.0872 157.924C36.966 157.277 36.966 156.591 37.0872 155.904Z" fill="#263238"/>
<path d="M37.0872 151.864C37.2084 152.51 37.2084 153.237 37.0872 153.884C36.966 153.237 36.966 152.551 37.0872 151.864Z" fill="#263238"/>
<path d="M37.0872 147.824C37.2084 148.47 37.2084 149.197 37.0872 149.844C36.966 149.197 36.966 148.511 37.0872 147.824Z" fill="#263238"/>
<path d="M37.0872 143.784C37.2084 144.43 37.2084 145.157 37.0872 145.804C36.966 145.157 36.966 144.47 37.0872 143.784Z" fill="#263238"/>
<path d="M37.0872 139.744C37.2084 140.391 37.2084 141.118 37.0872 141.764C36.966 141.118 36.966 140.431 37.0872 139.744Z" fill="#263238"/>
<path d="M37.0872 135.704C37.2084 136.351 37.2084 137.078 37.0872 137.724C36.966 137.078 36.966 136.391 37.0872 135.704Z" fill="#263238"/>
<path d="M37.0872 131.664C37.2084 132.31 37.2084 133.038 37.0872 133.684C36.966 133.038 36.966 132.351 37.0872 131.664Z" fill="#263238"/>
<path d="M37.0872 127.624C37.2084 128.27 37.2084 128.998 37.0872 129.644C36.966 128.998 36.966 128.311 37.0872 127.624Z" fill="#263238"/>
<path d="M37.0872 123.584C37.2084 124.23 37.2084 124.958 37.0872 125.604C36.966 124.958 36.966 124.271 37.0872 123.584Z" fill="#263238"/>
<path d="M37.0872 119.544C37.2084 120.19 37.2084 120.918 37.0872 121.564C36.966 120.918 36.966 120.231 37.0872 119.544Z" fill="#263238"/>
<path d="M37.0872 115.504C37.2084 116.15 37.2084 116.878 37.0872 117.524C36.966 116.878 36.966 116.191 37.0872 115.504Z" fill="#263238"/>
<path d="M37.0872 111.464C37.2084 112.11 37.2084 112.837 37.0872 113.484C36.966 112.837 36.966 112.151 37.0872 111.464Z" fill="#263238"/>
<path d="M37.0872 107.424C37.2084 108.07 37.2084 108.797 37.0872 109.444C36.966 108.797 36.966 108.111 37.0872 107.424Z" fill="#263238"/>
<path d="M37.0872 103.384C37.2084 104.03 37.2084 104.757 37.0872 105.404C36.966 104.757 36.966 104.071 37.0872 103.384Z" fill="#263238"/>
<path d="M37.0872 99.3438C37.2084 99.9901 37.2084 100.717 37.0872 101.364C36.966 100.717 36.966 100.031 37.0872 99.3438Z" fill="#263238"/>
<path d="M37.0872 95.3037C37.2084 95.9501 37.2084 96.6773 37.0872 97.3237C36.966 96.6773 36.966 95.9905 37.0872 95.3037Z" fill="#263238"/>
<path d="M37.0872 91.2637C37.2084 91.9101 37.2084 92.6373 37.0872 93.2837C36.966 92.6373 36.966 91.9505 37.0872 91.2637Z" fill="#263238"/>
<path d="M37.0872 87.2241C37.2084 87.8705 37.2084 88.5977 37.0872 89.2441C36.966 88.5977 36.966 87.9109 37.0872 87.2241Z" fill="#263238"/>
<path d="M37.0872 83.1841C37.2084 83.8305 37.2084 84.5577 37.0872 85.2041C36.966 84.5577 36.966 83.8709 37.0872 83.1841Z" fill="#263238"/>
<path d="M37.0872 79.144C37.2084 79.7904 37.2084 80.5176 37.0872 81.164C36.966 80.5176 36.966 79.8308 37.0872 79.144Z" fill="#263238"/>
<path d="M39.875 77.8917C39.5518 78.0129 39.1882 78.0129 38.865 78.0129C38.5418 78.0533 38.1782 78.0129 37.855 77.8917C38.1782 77.7705 38.5418 77.7705 38.865 77.7705C39.1882 77.7301 39.5518 77.7705 39.875 77.8917Z" fill="#263238"/>
<path d="M43.9148 77.8917C43.5916 78.0129 43.228 78.0129 42.9048 78.0129C42.5816 78.0533 42.218 78.0129 41.8948 77.8917C42.218 77.7705 42.5816 77.7705 42.9048 77.7705C43.228 77.7301 43.5916 77.7705 43.9148 77.8917Z" fill="#263238"/>
<path d="M47.9548 77.8917C47.6316 78.0129 47.268 78.0129 46.9448 78.0129C46.6216 78.0533 46.258 78.0129 45.9348 77.8917C46.258 77.7705 46.6216 77.7705 46.9448 77.7705C47.268 77.7301 47.6316 77.7705 47.9548 77.8917Z" fill="#263238"/>
<path d="M51.9949 77.8912C51.3485 78.0124 50.6213 78.0124 49.9749 77.8912C50.6213 77.7296 51.3081 77.7296 51.9949 77.8912Z" fill="#263238"/>
<path d="M55.4289 78.4571C55.3885 78.4571 55.3481 78.2147 55.3481 77.8511L55.4289 77.9319H55.0249C54.7017 77.9723 54.3381 77.9319 54.0149 77.8107C54.3381 77.6895 54.7017 77.6895 55.0249 77.6895H55.4289C55.4693 77.6895 55.5097 77.7299 55.5097 77.7703C55.5097 78.2147 55.4693 78.4571 55.4289 78.4571Z" fill="#263238"/>
<path d="M55.4288 82.497C55.3076 81.8506 55.3076 81.1234 55.4288 80.4771C55.5904 81.1638 55.5904 81.8506 55.4288 82.497Z" fill="#263238"/>
<path d="M55.4288 86.5371C55.3076 85.8907 55.3076 85.1635 55.4288 84.5171C55.5904 85.2039 55.5904 85.8907 55.4288 86.5371Z" fill="#263238"/>
<path d="M55.4288 90.5771C55.3076 89.9307 55.3076 89.2035 55.4288 88.5571C55.5904 89.2439 55.5904 89.9307 55.4288 90.5771Z" fill="#263238"/>
<path d="M55.4288 94.6172C55.3076 93.9708 55.3076 93.2436 55.4288 92.5972C55.5904 93.284 55.5904 93.9708 55.4288 94.6172Z" fill="#263238"/>
<path d="M55.4288 98.6567C55.3076 98.0103 55.3076 97.2831 55.4288 96.6367C55.5904 97.3235 55.5904 98.0103 55.4288 98.6567Z" fill="#263238"/>
<path d="M55.4288 102.697C55.3076 102.05 55.3076 101.323 55.4288 100.677C55.5904 101.364 55.5904 102.05 55.4288 102.697Z" fill="#263238"/>
<path d="M55.4288 106.737C55.3076 106.09 55.3076 105.363 55.4288 104.717C55.5904 105.404 55.5904 106.09 55.4288 106.737Z" fill="#263238"/>
<path d="M55.4288 110.777C55.3076 110.13 55.3076 109.403 55.4288 108.757C55.5904 109.444 55.5904 110.13 55.4288 110.777Z" fill="#263238"/>
<path d="M55.4288 114.817C55.3076 114.17 55.3076 113.443 55.4288 112.797C55.5904 113.484 55.5904 114.17 55.4288 114.817Z" fill="#263238"/>
<path d="M55.4288 118.857C55.3076 118.211 55.3076 117.483 55.4288 116.837C55.5904 117.524 55.5904 118.211 55.4288 118.857Z" fill="#263238"/>
<path d="M55.4288 122.897C55.3076 122.251 55.3076 121.523 55.4288 120.877C55.5904 121.564 55.5904 122.251 55.4288 122.897Z" fill="#263238"/>
<path d="M55.4288 126.937C55.3076 126.291 55.3076 125.563 55.4288 124.917C55.5904 125.604 55.5904 126.291 55.4288 126.937Z" fill="#263238"/>
<path d="M55.4288 130.977C55.3076 130.331 55.3076 129.603 55.4288 128.957C55.5904 129.644 55.5904 130.331 55.4288 130.977Z" fill="#263238"/>
<path d="M55.4288 135.017C55.3076 134.371 55.3076 133.643 55.4288 132.997C55.5904 133.684 55.5904 134.371 55.4288 135.017Z" fill="#263238"/>
<path d="M55.4288 139.057C55.3076 138.411 55.3076 137.684 55.4288 137.037C55.5904 137.724 55.5904 138.411 55.4288 139.057Z" fill="#263238"/>
<path d="M55.4288 143.097C55.3076 142.451 55.3076 141.724 55.4288 141.077C55.5904 141.764 55.5904 142.451 55.4288 143.097Z" fill="#263238"/>
<path d="M55.4288 147.137C55.3076 146.491 55.3076 145.764 55.4288 145.117C55.5904 145.804 55.5904 146.491 55.4288 147.137Z" fill="#263238"/>
<path d="M55.4288 151.177C55.3076 150.531 55.3076 149.804 55.4288 149.157C55.5904 149.844 55.5904 150.531 55.4288 151.177Z" fill="#263238"/>
<path d="M55.4288 155.217C55.3076 154.57 55.3076 153.843 55.4288 153.197C55.5904 153.884 55.5904 154.57 55.4288 155.217Z" fill="#263238"/>
<path d="M55.4288 159.257C55.3076 158.61 55.3076 157.883 55.4288 157.237C55.5904 157.924 55.5904 158.61 55.4288 159.257Z" fill="#263238"/>
<path d="M55.4288 163.297C55.3076 162.65 55.3076 161.923 55.4288 161.277C55.5904 161.964 55.5904 162.65 55.4288 163.297Z" fill="#263238"/>
<path d="M123.462 44.5211C123.422 44.5615 123.058 44.2787 122.654 43.8747C122.25 43.4707 121.968 43.1475 122.008 43.0667C122.048 42.9859 122.412 43.3091 122.816 43.7131C123.22 44.1171 123.503 44.4807 123.462 44.5211Z" fill="#263238"/>
<path d="M126.291 47.3492C126.25 47.3896 125.887 47.1068 125.483 46.7028C125.079 46.2988 124.796 45.9756 124.836 45.8948C124.877 45.814 125.24 46.1372 125.644 46.5412C126.048 46.9452 126.331 47.3492 126.291 47.3492Z" fill="#263238"/>
<path d="M129.159 50.2174C129.118 50.2578 128.755 49.975 128.351 49.571C127.947 49.167 127.664 48.8438 127.704 48.763C127.745 48.6822 128.108 49.0054 128.512 49.4094C128.916 49.8134 129.199 50.177 129.159 50.2174Z" fill="#263238"/>
<path d="M130.977 53.49C130.896 53.1668 130.856 52.8436 130.896 52.5204C130.896 52.3588 130.896 52.1972 130.896 52.076L130.936 52.1568C130.734 51.9144 130.573 51.7124 130.613 51.7124C130.654 51.7124 130.815 51.8336 131.058 52.0356L131.098 52.076C131.098 52.1972 131.098 52.3588 131.098 52.5204C131.098 52.8436 131.098 53.1668 130.977 53.49Z" fill="#263238"/>
<path d="M122.008 51.793C122.129 52.4394 122.129 53.1666 122.008 53.813C121.887 53.1262 121.887 52.4394 122.008 51.793Z" fill="#263238"/>
<path d="M122.008 47.7529C122.129 48.0761 122.129 48.4397 122.129 48.7629C122.17 49.0861 122.129 49.4497 122.008 49.7729C121.887 49.4497 121.887 49.0861 121.887 48.7629C121.887 48.3993 121.887 48.0761 122.008 47.7529Z" fill="#263238"/>
<path d="M122.008 43.7129C122.129 44.0361 122.129 44.3997 122.129 44.7229C122.17 45.0461 122.129 45.4097 122.008 45.7329C121.887 45.4097 121.887 45.0461 121.887 44.7229C121.887 44.3593 121.887 44.0361 122.008 43.7129Z" fill="#263238"/>
<path d="M93.8087 101.889C93.9299 102.536 93.9299 103.263 93.8087 103.909C93.6875 103.222 93.6875 102.536 93.8087 101.889Z" fill="#263238"/>
<path d="M93.8087 97.8491C93.9299 98.4955 93.9299 99.2227 93.8087 99.8691C93.6875 99.2227 93.6875 98.5359 93.8087 97.8491Z" fill="#263238"/>
<path d="M93.8087 93.8091C93.9299 94.4555 93.9299 95.1827 93.8087 95.8291C93.6875 95.1827 93.6875 94.4959 93.8087 93.8091Z" fill="#263238"/>
<path d="M93.8087 89.8096C93.9299 90.456 93.9299 91.1832 93.8087 91.8296C93.6875 91.1428 93.6875 90.456 93.8087 89.8096Z" fill="#263238"/>
<path d="M93.8087 85.7695C93.9299 86.4159 93.9299 87.1431 93.8087 87.7895C93.6875 87.1431 93.6875 86.4563 93.8087 85.7695Z" fill="#263238"/>
<path d="M93.8087 81.77C93.9299 82.4164 93.9299 83.1436 93.8087 83.79C93.6875 83.1032 93.6875 82.4164 93.8087 81.77Z" fill="#263238"/>
<path d="M93.8087 77.73C93.9299 78.3764 93.9299 79.1036 93.8087 79.75C93.6875 79.0632 93.6875 78.3764 93.8087 77.73Z" fill="#263238"/>
<path d="M93.8087 73.6899C93.9299 74.3363 93.9299 75.0635 93.8087 75.7099C93.6875 75.0635 93.6875 74.3767 93.8087 73.6899Z" fill="#263238"/>
<path d="M93.8087 69.6499C93.9299 70.2963 93.9299 71.0235 93.8087 71.6699C93.6875 71.0235 93.6875 70.3367 93.8087 69.6499Z" fill="#263238"/>
<path d="M93.8087 65.6504C93.9299 66.2968 93.9299 67.024 93.8087 67.6704C93.6875 66.9836 93.6875 66.2968 93.8087 65.6504Z" fill="#263238"/>
<path d="M93.8087 61.6104C93.9299 62.2567 93.9299 62.9839 93.8087 63.6303C93.6875 62.9839 93.6875 62.2567 93.8087 61.6104Z" fill="#263238"/>
<path d="M93.8087 57.5703C93.9299 58.2167 93.9299 58.9439 93.8087 59.5903C93.6875 58.9439 93.6875 58.2571 93.8087 57.5703Z" fill="#263238"/>
<path d="M93.8087 53.5708C93.9299 54.2172 93.9299 54.9444 93.8087 55.5908C93.6875 54.904 93.6875 54.2172 93.8087 53.5708Z" fill="#263238"/>
<path d="M93.8087 49.5308C93.9299 49.854 93.9299 50.2176 93.9299 50.5408C93.9703 50.864 93.9299 51.2276 93.8087 51.5508C93.6875 50.864 93.6875 50.1772 93.8087 49.5308Z" fill="#263238"/>
<path d="M93.8087 45.4907C93.9299 45.8139 93.9299 46.1775 93.9299 46.5007C93.9703 46.8239 93.9299 47.1875 93.8087 47.5107C93.6875 47.1875 93.6875 46.8239 93.6875 46.5007C93.6875 46.1775 93.7279 45.8139 93.8087 45.4907Z" fill="#263238"/>
<path d="M93.8087 41.4907C93.9299 41.8139 93.9299 42.1775 93.9299 42.5007C93.9703 42.8239 93.9299 43.1875 93.8087 43.5107C93.6875 43.1875 93.6875 42.8239 93.6875 42.5007C93.6875 42.1371 93.7279 41.8139 93.8087 41.4907Z" fill="#263238"/>
<path d="M93.8087 37.4512C93.9299 37.7744 93.9299 38.138 93.9299 38.4612C93.9703 38.7844 93.9299 39.148 93.8087 39.4712C93.6875 39.148 93.6875 38.7844 93.6875 38.4612C93.6875 38.0976 93.7279 37.7744 93.8087 37.4512Z" fill="#263238"/>
<path d="M93.8087 33.4111C93.9299 33.7343 93.9299 34.0979 93.9299 34.4211C93.9703 34.7443 93.9299 35.1079 93.8087 35.4311C93.6875 35.1079 93.6875 34.7443 93.6875 34.4211C93.6875 34.0979 93.7279 33.7343 93.8087 33.4111Z" fill="#263238"/>
<path d="M93.8087 29.4116C93.9299 29.7348 93.9299 30.0984 93.9299 30.4216C93.9703 30.7448 93.9299 31.1084 93.8087 31.4316C93.6875 31.1084 93.6875 30.7448 93.6875 30.4216C93.6875 30.058 93.7279 29.7348 93.8087 29.4116Z" fill="#263238"/>
<path d="M93.8087 25.3716C93.9299 25.6948 93.9299 26.0584 93.9299 26.3816C93.9703 26.7048 93.9299 27.0684 93.8087 27.3916C93.6875 27.0684 93.6875 26.7048 93.6875 26.3816C93.6875 26.018 93.7279 25.6948 93.8087 25.3716Z" fill="#263238"/>
<path d="M93.8087 21.3315C93.9299 21.6547 93.9299 22.0183 93.9299 22.3415C93.9703 22.6647 93.9299 23.0283 93.8087 23.3515C93.6875 23.0283 93.6875 22.6647 93.6875 22.3415C93.6875 22.0183 93.7279 21.6547 93.8087 21.3315Z" fill="#263238"/>
<path d="M94.5763 18.9883C94.5359 19.0287 94.1723 18.7863 93.7279 18.3823C94.0915 18.2207 93.8087 18.3419 93.8895 18.3015V18.5035V18.7055C93.8895 18.8267 93.8895 18.9479 93.8491 19.0287C93.8491 19.2307 93.8087 19.3115 93.7683 19.3115C93.7279 19.3115 93.7279 19.1903 93.6875 19.0287C93.6875 18.9479 93.6875 18.8267 93.6471 18.7055C93.6067 18.5843 93.6471 18.5843 93.6471 18.5035V18.3015C93.7279 18.2611 93.4855 18.3823 93.8087 18.2207C94.2935 18.5843 94.6167 18.9479 94.5763 18.9883Z" fill="#263238"/>
<path d="M97.7274 21.7354C97.4042 21.5738 97.1214 21.3718 96.879 21.1294C96.4346 20.7254 96.1114 20.4022 96.1518 20.3618C96.475 20.5234 96.7578 20.7254 97.0002 20.9678C97.4446 21.3314 97.7678 21.695 97.7274 21.7354Z" fill="#263238"/>
<path d="M100.838 24.4825C100.515 24.3209 100.232 24.1189 99.9899 23.8765C99.5455 23.5129 99.2223 23.1493 99.2627 23.1089C99.5859 23.2705 99.8687 23.4725 100.111 23.7149C100.596 24.1189 100.919 24.4421 100.838 24.4825Z" fill="#263238"/>
<path d="M103.989 27.2701C103.666 27.1085 103.383 26.9469 103.141 26.6641C102.697 26.2601 102.373 25.9369 102.414 25.8965C102.737 26.0581 103.02 26.2601 103.262 26.5025C103.707 26.8661 104.03 27.1893 103.989 27.2701Z" fill="#263238"/>
<path d="M107.141 30.0176C106.818 29.856 106.535 29.654 106.292 29.4116C105.848 29.048 105.525 28.6844 105.565 28.644C105.888 28.8056 106.171 29.0076 106.414 29.25C106.858 29.6136 107.181 29.9772 107.141 30.0176Z" fill="#263238"/>
<path d="M110.292 32.7647C109.969 32.6031 109.686 32.4011 109.444 32.1587C108.999 31.7951 108.676 31.4315 108.717 31.3911C109.04 31.5527 109.323 31.7547 109.565 31.9971C110.009 32.4011 110.333 32.7243 110.292 32.7647Z" fill="#263238"/>
<path d="M113.403 35.5118C113.08 35.3502 112.797 35.1482 112.554 34.9058C112.11 34.5422 111.787 34.1786 111.827 34.1382C112.15 34.2594 112.433 34.5018 112.676 34.7442C113.12 35.1482 113.443 35.4714 113.403 35.5118Z" fill="#263238"/>
<path d="M116.554 38.2994C116.231 38.1378 115.948 37.9358 115.706 37.6934C115.261 37.3298 114.938 36.9662 114.979 36.9258C115.302 37.0874 115.585 37.2894 115.827 37.5318C116.271 37.8954 116.595 38.259 116.554 38.2994Z" fill="#263238"/>
<path d="M119.705 41.0465C119.382 40.8849 119.099 40.6829 118.857 40.4405C118.412 40.0769 118.089 39.7133 118.129 39.6729C118.453 39.8345 118.735 40.0365 118.978 40.2789C119.422 40.6425 119.745 41.0061 119.705 41.0465Z" fill="#263238"/>
<path d="M122.008 44.0768C121.887 43.7536 121.887 43.39 121.887 43.0668L121.927 43.1476L121.887 43.1072L121.806 43.0264L121.644 42.9052L121.402 42.6628C121.281 42.5416 121.2 42.4204 121.24 42.4204C121.281 42.4204 121.362 42.4608 121.523 42.5416C121.604 42.582 121.685 42.6628 121.766 42.7436L121.927 42.8648L122.008 42.9456L122.048 42.986C122.048 43.0264 122.008 42.9052 122.089 43.0668C122.17 43.4304 122.129 43.7536 122.008 44.0768Z" fill="#263238"/>
<path d="M122.008 48.1167C121.887 47.7935 121.887 47.4703 121.887 47.1067C121.846 46.7835 121.887 46.4199 122.008 46.0967C122.129 46.4199 122.129 46.7431 122.129 47.1067C122.129 47.4299 122.129 47.7935 122.008 48.1167Z" fill="#263238"/>
<path d="M122.008 52.1162C121.847 51.4698 121.847 50.7426 122.008 50.0962C122.17 50.7426 122.17 51.4698 122.008 52.1162Z" fill="#263238"/>
<path d="M101.525 36.9663H98.5356V43.2687H101.525V36.9663Z" fill="#90CAF9"/>
<path d="M101.161 49.6113H98.1719V55.9137H101.161V49.6113Z" fill="#90CAF9"/>
<path d="M109.363 49.6113H106.373V55.9137H109.363V49.6113Z" fill="#90CAF9"/>
<path d="M101.161 61.8125H98.1719V68.1149H101.161V61.8125Z" fill="#90CAF9"/>
<path d="M109.363 61.8125H106.373V68.1149H109.363V61.8125Z" fill="#90CAF9"/>
<path d="M101.161 74.0537H98.1719V80.3561H101.161V74.0537Z" fill="#90CAF9"/>
<path d="M109.363 74.0537H106.373V80.3561H109.363V74.0537Z" fill="#90CAF9"/>
<path d="M101.161 86.2544H98.1719V92.5568H101.161V86.2544Z" fill="#90CAF9"/>
<path d="M109.363 86.2544H106.373V92.5568H109.363V86.2544Z" fill="#90CAF9"/>
<path d="M101.161 98.4956H98.1719V104.798H101.161V98.4956Z" fill="#90CAF9"/>
<path d="M109.363 98.4956H106.373V104.798H109.363V98.4956Z" fill="#90CAF9"/>
<path d="M109.888 36.9663H106.898V43.2687H109.888V36.9663Z" fill="#90CAF9"/>
<path d="M95.1015 19.5135H92.5159V16.9683H95.1015V19.5135ZM92.9603 19.1095H94.7379V17.3723H92.9603V19.1095Z" fill="#263238"/>
<path d="M132.229 53.3282H129.765V50.8638H132.229V53.3282ZM130.169 52.9242H131.825V51.2678H130.169V52.9242Z" fill="#263238"/>
<path d="M123.382 41.9355H121.119V44.1979H123.382V41.9355Z" fill="#263238"/>
<path d="M42.2986 156.187H28.6838V194.527H42.2986V156.187Z" fill="#90CAF9"/>
<path d="M21.9776 161.358H19.3516V167.701H21.9776V161.358Z" fill="#90CAF9"/>
<path d="M21.9776 186.204H19.3516V192.547H21.9776V186.204Z" fill="#90CAF9"/>
<path d="M28.684 170.206C28.684 170.246 25.2096 170.327 20.9676 170.327C16.7256 170.327 13.2512 170.286 13.2512 170.206C13.2512 170.125 16.7256 170.084 20.9676 170.084C25.2096 170.084 28.684 170.165 28.684 170.206Z" fill="#90CAF9"/>
<path d="M21.9776 173.882H19.3516V180.225H21.9776V173.882Z" fill="#90CAF9"/>
<path d="M28.684 182.73C28.684 182.77 25.2096 182.851 20.9676 182.851C16.7256 182.851 13.2512 182.81 13.2512 182.73C13.2512 182.649 16.7256 182.608 20.9676 182.608C25.2096 182.608 28.684 182.689 28.684 182.73Z" fill="#90CAF9"/>
<path d="M42.5411 156.349C42.5411 156.389 36.0367 156.47 28.0375 156.47C20.0383 156.47 13.5339 156.43 13.5339 156.349C13.5339 156.268 20.0383 156.228 28.0375 156.228C36.0367 156.228 42.5411 156.308 42.5411 156.349Z" fill="#90CAF9"/>
<path d="M42.2988 156.187H13.2512V194.527H42.2988V156.187Z" fill="#90CAF9"/>
<path opacity="0.3" d="M42.3392 156.187H28.7244V194.527H42.3392V156.187Z" fill="black"/>
<path d="M34.2188 161.358H31.5928V167.701H34.2188V161.358Z" fill="#90CAF9"/>
<path d="M39.8748 161.358H37.2488V167.701H39.8748V161.358Z" fill="#90CAF9"/>
<path d="M34.2188 173.438H31.5928V179.78H34.2188V173.438Z" fill="#90CAF9"/>
<path d="M39.8748 173.438H37.2488V179.78H39.8748V173.438Z" fill="#90CAF9"/>
<path d="M34.2188 185.477H31.5928V191.82H34.2188V185.477Z" fill="#90CAF9"/>
<path d="M39.8748 185.477H37.2488V191.82H39.8748V185.477Z" fill="#90CAF9"/>
<path d="M44.4804 154.854H11.0696V156.227H44.4804V154.854Z" fill="#90CAF9"/>
<path d="M42.5411 156.348C42.5411 156.389 36.0367 156.469 28.0375 156.469C20.0383 156.469 13.5339 156.429 13.5339 156.348C13.5339 156.267 20.0383 156.227 28.0375 156.227C36.0367 156.227 42.5411 156.308 42.5411 156.348Z" fill="black"/>
<path opacity="0.1" d="M42.3391 156.187H13.2915V194.527H42.3391V156.187Z" fill="black"/>
<g opacity="0.3">
<path opacity="0.3" d="M21.9776 161.358H19.3516V167.701H21.9776V161.358Z" fill="black"/>
<path opacity="0.3" d="M21.9776 186.204H19.3516V192.547H21.9776V186.204Z" fill="black"/>
<path opacity="0.3" d="M28.7243 170.206C28.7243 170.246 25.2499 170.327 21.0079 170.327C16.7659 170.327 13.2915 170.286 13.2915 170.206C13.2915 170.125 16.7659 170.084 21.0079 170.084C25.2499 170.084 28.7243 170.165 28.7243 170.206Z" fill="black"/>
<path opacity="0.3" d="M21.9776 173.882H19.3516V180.225H21.9776V173.882Z" fill="black"/>
<path opacity="0.3" d="M28.7243 182.73C28.7243 182.77 25.2499 182.851 21.0079 182.851C16.7659 182.851 13.2915 182.81 13.2915 182.73C13.2915 182.649 16.7659 182.608 21.0079 182.608C25.2499 182.608 28.7243 182.689 28.7243 182.73Z" fill="black"/>
</g>
<g opacity="0.7">
<path opacity="0.7" d="M34.2185 161.358H31.5925V167.701H34.2185V161.358Z" fill="black"/>
<path opacity="0.7" d="M39.8745 161.358H37.2485V167.701H39.8745V161.358Z" fill="black"/>
<path opacity="0.7" d="M34.2185 173.438H31.5925V179.78H34.2185V173.438Z" fill="black"/>
<path opacity="0.7" d="M39.8745 173.438H37.2485V179.78H39.8745V173.438Z" fill="black"/>
<path opacity="0.7" d="M34.2185 185.477H31.5925V191.819H34.2185V185.477Z" fill="black"/>
<path opacity="0.7" d="M39.8745 185.477H37.2485V191.819H39.8745V185.477Z" fill="black"/>
</g>
<path opacity="0.3" d="M44.5209 154.854H11.1101V156.227H44.5209V154.854Z" fill="black"/>
<path d="M140.471 65.6499C140.35 65.0035 140.35 64.2763 140.471 63.6299C140.592 64.3167 140.592 65.0035 140.471 65.6499Z" fill="#263238"/>
<path d="M140.471 69.6899C140.35 69.0435 140.35 68.3163 140.471 67.6699C140.592 68.3567 140.592 69.0435 140.471 69.6899Z" fill="#263238"/>
<path d="M140.471 73.73C140.35 73.0836 140.35 72.3564 140.471 71.71C140.592 72.3968 140.592 73.0836 140.471 73.73Z" fill="#263238"/>
<path d="M140.471 77.77C140.35 77.1236 140.35 76.3964 140.471 75.75C140.592 76.4368 140.592 77.1236 140.471 77.77Z" fill="#263238"/>
<path d="M140.471 81.81C140.35 81.1636 140.35 80.4364 140.471 79.79C140.592 80.4768 140.592 81.1636 140.471 81.81Z" fill="#263238"/>
<path d="M140.471 85.8501C140.35 85.2037 140.35 84.4765 140.471 83.8301C140.592 84.5169 140.592 85.2037 140.471 85.8501Z" fill="#263238"/>
<path d="M140.471 89.8901C140.35 89.2437 140.35 88.5165 140.471 87.8701C140.592 88.5569 140.592 89.2437 140.471 89.8901Z" fill="#263238"/>
<path d="M140.471 93.9302C140.35 93.2838 140.35 92.5566 140.471 91.9102C140.592 92.597 140.592 93.2838 140.471 93.9302Z" fill="#263238"/>
<path d="M140.471 97.9702C140.35 97.3238 140.35 96.5966 140.471 95.9502C140.592 96.637 140.592 97.3238 140.471 97.9702Z" fill="#263238"/>
<path d="M140.471 102.01C140.35 101.364 140.35 100.637 140.471 99.9902C140.592 100.677 140.592 101.364 140.471 102.01Z" fill="#263238"/>
<path d="M140.471 106.05C140.35 105.404 140.35 104.677 140.471 104.03C140.592 104.717 140.592 105.404 140.471 106.05Z" fill="#263238"/>
<path d="M140.471 110.09C140.35 109.443 140.35 108.716 140.471 108.07C140.592 108.757 140.592 109.443 140.471 110.09Z" fill="#263238"/>
<path d="M140.471 114.13C140.35 113.483 140.35 112.756 140.471 112.11C140.592 112.797 140.592 113.483 140.471 114.13Z" fill="#263238"/>
<path d="M140.471 118.17C140.35 117.524 140.35 116.796 140.471 116.15C140.592 116.837 140.592 117.524 140.471 118.17Z" fill="#263238"/>
<path d="M140.471 122.21C140.35 121.564 140.35 120.836 140.471 120.19C140.592 120.877 140.592 121.564 140.471 122.21Z" fill="#263238"/>
<path d="M140.471 126.25C140.35 125.604 140.35 124.876 140.471 124.23C140.592 124.917 140.592 125.604 140.471 126.25Z" fill="#263238"/>
<path d="M140.471 130.29C140.35 129.644 140.35 128.916 140.471 128.27C140.592 128.957 140.592 129.644 140.471 130.29Z" fill="#263238"/>
<path d="M140.471 134.33C140.35 133.684 140.35 132.956 140.471 132.31C140.592 132.997 140.592 133.684 140.471 134.33Z" fill="#263238"/>
<path d="M140.471 138.37C140.35 137.724 140.35 136.996 140.471 136.35C140.592 137.037 140.592 137.724 140.471 138.37Z" fill="#263238"/>
<path d="M140.471 142.41C140.35 141.764 140.35 141.037 140.471 140.39C140.592 141.077 140.592 141.764 140.471 142.41Z" fill="#263238"/>
<path d="M140.471 146.45C140.35 145.804 140.35 145.077 140.471 144.43C140.592 145.117 140.592 145.804 140.471 146.45Z" fill="#263238"/>
<path d="M140.471 150.49C140.35 149.844 140.35 149.117 140.471 148.47C140.592 149.157 140.592 149.844 140.471 150.49Z" fill="#263238"/>
<path d="M140.471 154.53C140.35 153.883 140.35 153.156 140.471 152.51C140.592 153.197 140.592 153.883 140.471 154.53Z" fill="#263238"/>
<path d="M137.118 155.257C137.764 155.136 138.491 155.136 139.138 155.257C138.491 155.378 137.804 155.378 137.118 155.257Z" fill="#263238"/>
<path d="M133.078 155.257C133.724 155.136 134.451 155.136 135.098 155.257C134.451 155.378 133.764 155.378 133.078 155.257Z" fill="#263238"/>
<path d="M131.462 152.833C131.583 153.48 131.583 154.207 131.462 154.854C131.341 154.167 131.341 153.48 131.462 152.833Z" fill="#263238"/>
<path d="M131.462 148.793C131.583 149.44 131.583 150.167 131.462 150.813C131.341 150.127 131.341 149.44 131.462 148.793Z" fill="#263238"/>
<path d="M131.462 144.753C131.583 145.4 131.583 146.127 131.462 146.773C131.341 146.087 131.341 145.4 131.462 144.753Z" fill="#263238"/>
<path d="M131.462 140.713C131.583 141.36 131.583 142.087 131.462 142.733C131.341 142.047 131.341 141.36 131.462 140.713Z" fill="#263238"/>
<path d="M131.462 136.673C131.583 137.32 131.583 138.047 131.462 138.693C131.341 138.007 131.341 137.32 131.462 136.673Z" fill="#263238"/>
<path d="M131.462 132.633C131.583 133.28 131.583 134.007 131.462 134.653C131.341 133.967 131.341 133.28 131.462 132.633Z" fill="#263238"/>
<path d="M131.462 128.593C131.583 129.24 131.583 129.967 131.462 130.613C131.341 129.926 131.341 129.24 131.462 128.593Z" fill="#263238"/>
<path d="M131.462 124.553C131.583 125.2 131.583 125.927 131.462 126.573C131.341 125.886 131.341 125.2 131.462 124.553Z" fill="#263238"/>
<path d="M131.462 120.513C131.583 121.16 131.583 121.887 131.462 122.533C131.341 121.846 131.341 121.16 131.462 120.513Z" fill="#263238"/>
<path d="M131.462 116.473C131.583 117.12 131.583 117.847 131.462 118.493C131.341 117.806 131.341 117.12 131.462 116.473Z" fill="#263238"/>
<path d="M131.462 112.433C131.583 113.08 131.583 113.807 131.462 114.453C131.341 113.766 131.341 113.08 131.462 112.433Z" fill="#263238"/>
<path d="M131.462 108.393C131.583 109.039 131.583 109.767 131.462 110.413C131.341 109.726 131.341 109.039 131.462 108.393Z" fill="#263238"/>
<path d="M131.462 104.354C131.583 105 131.583 105.727 131.462 106.374C131.341 105.687 131.341 105 131.462 104.354Z" fill="#263238"/>
<path d="M131.462 100.313C131.583 100.96 131.583 101.687 131.462 102.333C131.341 101.647 131.341 100.96 131.462 100.313Z" fill="#263238"/>
<path d="M131.462 96.2734C131.583 96.9198 131.583 97.647 131.462 98.2934C131.341 97.6066 131.341 96.9198 131.462 96.2734Z" fill="#263238"/>
<path d="M131.462 92.2334C131.583 92.8798 131.583 93.607 131.462 94.2534C131.341 93.5666 131.341 92.8798 131.462 92.2334Z" fill="#263238"/>
<path d="M131.462 88.1934C131.583 88.8398 131.583 89.567 131.462 90.2134C131.341 89.5266 131.341 88.8398 131.462 88.1934Z" fill="#263238"/>
<path d="M131.462 84.1533C131.583 84.7997 131.583 85.5269 131.462 86.1733C131.341 85.4865 131.341 84.7997 131.462 84.1533Z" fill="#263238"/>
<path d="M131.462 80.1133C131.583 80.7597 131.583 81.4869 131.462 82.1333C131.341 81.4465 131.341 80.7597 131.462 80.1133Z" fill="#263238"/>
<path d="M131.462 76.0732C131.583 76.7196 131.583 77.4468 131.462 78.0932C131.341 77.4064 131.341 76.7196 131.462 76.0732Z" fill="#263238"/>
<path d="M131.462 72.0332C131.583 72.6796 131.583 73.4068 131.462 74.0532C131.341 73.3664 131.341 72.6796 131.462 72.0332Z" fill="#263238"/>
<path d="M131.462 67.9932C131.583 68.6396 131.583 69.3668 131.462 70.0132C131.341 69.3264 131.341 68.6396 131.462 67.9932Z" fill="#263238"/>
<path d="M131.462 63.9531C131.583 64.5995 131.583 65.3267 131.462 65.9731C131.341 65.2863 131.341 64.5995 131.462 63.9531Z" fill="#263238"/>
<path d="M131.462 59.9131C131.583 60.5595 131.583 61.2867 131.462 61.9331C131.341 61.2463 131.341 60.5595 131.462 59.9131Z" fill="#263238"/>
<path d="M131.462 55.8735C131.583 56.5199 131.583 57.2471 131.462 57.8935C131.341 57.2067 131.341 56.5199 131.462 55.8735Z" fill="#263238"/>
<path d="M131.462 56.0752C131.3 55.4288 131.3 54.7016 131.462 54.0552C131.623 54.742 131.623 55.4288 131.462 56.0752Z" fill="#263238"/>
<path d="M131.462 60.0747C131.3 59.4283 131.3 58.7011 131.462 58.0547C131.623 58.7415 131.623 59.4283 131.462 60.0747Z" fill="#263238"/>
<path d="M131.462 64.1147C131.3 63.4683 131.3 62.7411 131.462 62.0947C131.623 62.7411 131.623 63.4279 131.462 64.1147Z" fill="#263238"/>
<path d="M131.462 68.1142C131.3 67.4678 131.3 66.7406 131.462 66.0942C131.623 66.7406 131.623 67.4274 131.462 68.1142Z" fill="#263238"/>
<path d="M131.462 72.1142C131.3 71.4678 131.3 70.7406 131.462 70.0942C131.623 70.7406 131.623 71.4274 131.462 72.1142Z" fill="#263238"/>
<path d="M131.462 76.1137C131.3 75.4673 131.3 74.7401 131.462 74.0938C131.623 74.7805 131.623 75.4673 131.462 76.1137Z" fill="#263238"/>
<path d="M131.462 80.1133C131.3 79.4669 131.3 78.7397 131.462 78.0933C131.623 78.7801 131.623 79.4669 131.462 80.1133Z" fill="#263238"/>
<path d="M131.462 84.1128C131.3 83.4664 131.3 82.7392 131.462 82.0928C131.623 82.7796 131.623 83.4664 131.462 84.1128Z" fill="#263238"/>
<path d="M131.462 88.1529C131.341 87.5065 131.341 86.8197 131.462 86.1733C131.623 86.7793 131.623 87.4661 131.462 88.1529Z" fill="#263238"/>
<path d="M131.462 92.1523C131.3 91.5059 131.3 90.7787 131.462 90.1323C131.623 90.7787 131.623 91.4655 131.462 92.1523Z" fill="#263238"/>
<path d="M131.462 96.1518C131.3 95.5054 131.3 94.7782 131.462 94.1318C131.623 94.7782 131.623 95.465 131.462 96.1518Z" fill="#263238"/>
<path d="M131.462 100.152C131.3 99.5054 131.3 98.7782 131.462 98.1318C131.623 98.8186 131.623 99.5054 131.462 100.152Z" fill="#263238"/>
<path d="M131.462 104.151C131.3 103.505 131.3 102.778 131.462 102.131C131.623 102.818 131.623 103.505 131.462 104.151Z" fill="#263238"/>
<path d="M131.462 108.151C131.3 107.504 131.3 106.777 131.462 106.131C131.623 106.818 131.623 107.504 131.462 108.151Z" fill="#263238"/>
<path d="M131.462 112.191C131.3 111.544 131.3 110.817 131.462 110.171C131.623 110.817 131.623 111.504 131.462 112.191Z" fill="#263238"/>
<path d="M131.462 116.19C131.3 115.544 131.3 114.817 131.462 114.17C131.623 114.817 131.623 115.504 131.462 116.19Z" fill="#263238"/>
<path d="M131.462 120.19C131.3 119.544 131.3 118.816 131.462 118.17C131.623 118.857 131.623 119.544 131.462 120.19Z" fill="#263238"/>
<path d="M131.462 124.189C131.341 123.543 131.341 122.856 131.462 122.169C131.623 122.856 131.623 123.543 131.462 124.189Z" fill="#263238"/>
<path d="M131.462 128.189C131.3 127.543 131.3 126.816 131.462 126.169C131.623 126.856 131.623 127.543 131.462 128.189Z" fill="#263238"/>
<path d="M131.462 132.229C131.3 131.583 131.3 130.856 131.462 130.209C131.623 130.856 131.623 131.543 131.462 132.229Z" fill="#263238"/>
<path d="M131.462 136.229C131.3 135.583 131.3 134.855 131.462 134.209C131.623 134.855 131.623 135.542 131.462 136.229Z" fill="#263238"/>
<path d="M131.462 140.229C131.3 139.582 131.3 138.855 131.462 138.208C131.623 138.855 131.623 139.542 131.462 140.229Z" fill="#263238"/>
<path d="M131.462 144.228C131.3 143.582 131.3 142.854 131.462 142.208C131.623 142.895 131.623 143.582 131.462 144.228Z" fill="#263238"/>
<path d="M131.462 148.228C131.3 147.581 131.3 146.854 131.462 146.208C131.623 146.894 131.623 147.581 131.462 148.228Z" fill="#263238"/>
<path d="M131.462 152.228C131.3 151.581 131.3 150.854 131.462 150.208C131.623 150.894 131.623 151.581 131.462 152.228Z" fill="#263238"/>
<path d="M130.492 155.257C130.815 155.177 131.138 155.136 131.502 155.177L131.381 155.298V154.934C131.381 154.813 131.381 154.692 131.421 154.611C131.421 154.409 131.462 154.328 131.502 154.328C131.542 154.328 131.542 154.449 131.583 154.611C131.583 154.692 131.583 154.813 131.583 154.934C131.583 155.055 131.583 155.055 131.583 155.136V155.338L131.462 155.459C131.098 155.419 130.775 155.379 130.492 155.257Z" fill="#263238"/>
<path d="M126.452 155.257C127.098 155.136 127.825 155.136 128.472 155.257C127.785 155.378 127.098 155.378 126.452 155.257Z" fill="#263238"/>
<path d="M122.412 155.257C123.058 155.136 123.785 155.136 124.432 155.257C123.785 155.419 123.099 155.419 122.412 155.257Z" fill="#263238"/>
<path d="M127.058 53.7725H124.068V60.0749H127.058V53.7725Z" fill="#90CAF9"/>
<path d="M127.058 65.9731H124.068V72.2755H127.058V65.9731Z" fill="#90CAF9"/>
<path d="M127.058 78.2144H124.068V84.5167H127.058V78.2144Z" fill="#90CAF9"/>
<path d="M127.058 90.4155H124.068V96.7179H127.058V90.4155Z" fill="#90CAF9"/>
<path d="M127.058 102.656H124.068V108.959H127.058V102.656Z" fill="#90CAF9"/>
<path d="M127.058 114.857H124.068V121.16H127.058V114.857Z" fill="#90CAF9"/>
<path d="M127.058 127.099H124.068V133.401H127.058V127.099Z" fill="#90CAF9"/>
<path d="M127.058 139.299H124.068V145.561H127.058V139.299Z" fill="#90CAF9"/>
<path d="M137.764 59.7515H134.774V66.0539H137.764V59.7515Z" fill="#263238"/>
<path d="M137.764 73.2856H134.774V79.588H137.764V73.2856Z" fill="#263238"/>
<path d="M137.764 86.8198H134.774V93.1222H137.764V86.8198Z" fill="#263238"/>
<path d="M137.764 100.354H134.774V106.616H137.764V100.354Z" fill="#263238"/>
<path d="M137.764 113.888H134.774V120.19H137.764V113.888Z" fill="#263238"/>
<path d="M137.764 127.422H134.774V133.684H137.764V127.422Z" fill="#263238"/>
<path d="M137.764 140.956H134.774V147.218H137.764V140.956Z" fill="#263238"/>
<path d="M130.33 100.313H121.685V155.783H130.33V100.313Z" fill="#90CAF9"/>
<path opacity="0.8" d="M130.33 100.313H121.685V155.783H130.33V100.313Z" fill="black"/>
<path d="M127.664 107.625H124.674V113.928H127.664V107.625Z" fill="#263238"/>
<path d="M127.664 119.584H124.674V125.846H127.664V119.584Z" fill="#263238"/>
<path d="M127.664 131.542H124.674V137.845H127.664V131.542Z" fill="#263238"/>
<path d="M127.664 143.501H124.674V149.803H127.664V143.501Z" fill="#263238"/>
<path d="M153.035 63.4683H117.847V155.621H153.035V63.4683Z" fill="#455A64"/>
<path d="M153.48 63.8726H135.865V156.025H153.48V63.8726Z" fill="#263238"/>
<path d="M134.33 52.52H121.887V63.4684H134.33V52.52Z" fill="#455A64"/>
<path d="M134.29 52.52H131.34V63.4684H134.29V52.52Z" fill="#263238"/>
<path d="M145.561 68.2759H142.572V74.5783H145.561V68.2759Z" fill="#455A64"/>
<path d="M153.197 77.0025C153.197 77.0429 149.237 77.1237 144.389 77.1237C139.541 77.1237 135.582 77.0833 135.582 77.0025C135.582 76.9217 139.541 76.8813 144.389 76.8813C149.237 76.8813 153.197 76.9621 153.197 77.0025Z" fill="#455A64"/>
<path d="M145.561 80.7192H142.572V87.0216H145.561V80.7192Z" fill="#455A64"/>
<path d="M153.197 89.486C153.197 89.5264 149.237 89.6072 144.389 89.6072C139.541 89.6072 135.582 89.5668 135.582 89.486C135.582 89.4051 139.541 89.3647 144.389 89.3647C149.237 89.3647 153.197 89.4455 153.197 89.486Z" fill="#455A64"/>
<path d="M145.561 93.6069H142.572V99.9093H145.561V93.6069Z" fill="#455A64"/>
<path d="M153.197 102.333C153.197 102.374 149.237 102.454 144.389 102.454C139.541 102.454 135.582 102.414 135.582 102.333C135.582 102.252 139.541 102.252 144.389 102.252C149.237 102.252 153.197 102.293 153.197 102.333Z" fill="#455A64"/>
<path d="M145.561 106.454H142.572V112.757H145.561V106.454Z" fill="#455A64"/>
<path d="M153.197 115.181C153.197 115.221 149.237 115.302 144.389 115.302C139.541 115.302 135.582 115.262 135.582 115.181C135.582 115.1 139.541 115.06 144.389 115.06C149.237 115.06 153.197 115.14 153.197 115.181Z" fill="#455A64"/>
<path d="M145.561 118.938H142.572V125.199H145.561V118.938Z" fill="#455A64"/>
<path d="M153.197 127.705C153.197 127.745 149.237 127.826 144.389 127.826C139.541 127.826 135.582 127.786 135.582 127.705C135.582 127.624 139.541 127.583 144.389 127.583C149.237 127.583 153.197 127.624 153.197 127.705Z" fill="#455A64"/>
<path d="M145.561 131.462H142.572V137.724H145.561V131.462Z" fill="#455A64"/>
<path d="M145.561 144.147H142.572V150.45H145.561V144.147Z" fill="#455A64"/>
<path d="M153.197 140.229C153.197 140.269 149.237 140.35 144.389 140.35C139.541 140.35 135.582 140.309 135.582 140.229C135.582 140.148 139.541 140.107 144.389 140.107C149.237 140.107 153.197 140.148 153.197 140.229Z" fill="#455A64"/>
<path d="M154.126 62.8218H114.938V63.4682H154.126V62.8218Z" fill="#263238"/>
<path d="M127.785 68.2759H124.796V74.5783H127.785V68.2759Z" fill="#E6E6E6"/>
<path d="M135.461 77.0025C135.461 77.0429 131.502 77.1237 126.654 77.1237C121.806 77.1237 117.847 77.0833 117.847 77.0025C117.847 76.9217 121.806 76.8813 126.654 76.8813C131.502 76.8813 135.461 76.9621 135.461 77.0025Z" fill="#E6E6E6"/>
<path d="M127.785 80.9214H124.796V87.2238H127.785V80.9214Z" fill="#E6E6E6"/>
<path d="M135.461 89.6881C135.461 89.7285 131.502 89.8093 126.654 89.8093C121.806 89.8093 117.847 89.7689 117.847 89.6881C117.847 89.6073 121.806 89.5669 126.654 89.5669C131.502 89.5669 135.461 89.6073 135.461 89.6881Z" fill="#E6E6E6"/>
<path d="M127.785 93.6069H124.796V99.9093H127.785V93.6069Z" fill="#E6E6E6"/>
<path d="M135.461 102.333C135.461 102.374 131.502 102.454 126.654 102.454C121.806 102.454 117.847 102.414 117.847 102.333C117.847 102.252 121.765 102.252 126.654 102.252C131.542 102.252 135.461 102.293 135.461 102.333Z" fill="#E6E6E6"/>
<path d="M127.785 106.252H124.796V112.554H127.785V106.252Z" fill="#E6E6E6"/>
<path d="M135.461 115.019C135.461 115.059 131.502 115.14 126.654 115.14C121.806 115.14 117.847 115.099 117.847 115.019C117.847 114.938 121.806 114.897 126.654 114.897C131.502 114.897 135.461 114.938 135.461 115.019Z" fill="#E6E6E6"/>
<path d="M127.785 118.938H124.796V125.199H127.785V118.938Z" fill="#E6E6E6"/>
<path d="M135.461 127.705C135.461 127.745 131.502 127.826 126.654 127.826C121.806 127.826 117.847 127.786 117.847 127.705C117.847 127.624 121.806 127.583 126.654 127.583C131.502 127.583 135.461 127.624 135.461 127.705Z" fill="#E6E6E6"/>
<path d="M127.785 131.583H124.796V137.885H127.785V131.583Z" fill="#E6E6E6"/>
<path d="M135.461 140.35C135.461 140.39 131.502 140.471 126.654 140.471C121.806 140.471 117.847 140.431 117.847 140.35C117.847 140.269 121.765 140.229 126.654 140.229C131.542 140.229 135.461 140.269 135.461 140.35Z" fill="#E6E6E6"/>
<path d="M127.785 144.269H124.796V150.571H127.785V144.269Z" fill="#E6E6E6"/>
<path d="M154.732 154.49H125.967V192.426H154.732V154.49Z" fill="#263238"/>
<path d="M154.732 154.49H141.239V192.426H154.732V154.49Z" fill="#455A64"/>
<path d="M134.573 159.621H131.987V165.923H134.573V159.621Z" fill="#455A64"/>
<path d="M134.573 184.225H131.987V190.527H134.573V184.225Z" fill="#455A64"/>
<path d="M141.239 168.388C141.239 168.428 137.805 168.509 133.603 168.509C129.401 168.509 125.967 168.469 125.967 168.388C125.967 168.307 129.401 168.267 133.603 168.267C137.805 168.267 141.239 168.307 141.239 168.388Z" fill="#455A64"/>
<path d="M134.573 172.023H131.987V178.285H134.573V172.023Z" fill="#455A64"/>
<path d="M141.239 180.75C141.239 180.791 137.805 180.871 133.603 180.871C129.401 180.871 125.967 180.831 125.967 180.75C125.967 180.669 129.401 180.629 133.603 180.629C137.805 180.629 141.239 180.71 141.239 180.75Z" fill="#455A64"/>
<path d="M146.693 159.621H144.107V165.923H146.693V159.621Z" fill="#263238"/>
<path d="M152.308 159.621H149.722V165.923H152.308V159.621Z" fill="#263238"/>
<path d="M146.693 171.539H144.107V177.841H146.693V171.539Z" fill="#263238"/>
<path d="M152.308 171.539H149.722V177.841H152.308V171.539Z" fill="#263238"/>
<path d="M146.693 183.457H144.107V189.719H146.693V183.457Z" fill="#263238"/>
<path d="M152.308 183.457H149.722V189.719H152.308V183.457Z" fill="#263238"/>
<path d="M156.873 153.157H123.786V154.53H156.873V153.157Z" fill="#263238"/>
<path d="M154.934 154.651C154.934 154.692 148.51 154.773 140.592 154.773C132.674 154.773 126.25 154.732 126.25 154.651C126.25 154.571 132.674 154.53 140.592 154.53C148.51 154.53 154.934 154.611 154.934 154.651Z" fill="#E0E0E0"/>
<path d="M38.2994 78.7398H35.835V76.2754H38.2994V78.7398ZM36.239 78.3358H37.8954V76.6794H36.239V78.3358Z" fill="#263238"/>
<path d="M38.0973 107.626H36.0369V109.686H38.0973V107.626Z" fill="#263238"/>
<path d="M93.0009 51.4292H53.7725V155.58H93.0009V51.4292Z" fill="#455A64"/>
<path d="M93.001 51.4292H77.9722V155.58H93.001V51.4292Z" fill="#263238"/>
<path d="M62.3778 59.3882H59.3882V65.6906H62.3778V59.3882Z" fill="#263238"/>
<path d="M70.2962 59.3882H67.3066V65.6906H70.2962V59.3882Z" fill="#263238"/>
<path d="M62.3778 71.3872H59.3882V77.6896H62.3778V71.3872Z" fill="#263238"/>
<path d="M70.2962 71.3872H67.3066V77.6896H70.2962V71.3872Z" fill="#263238"/>
<path d="M62.3778 83.3452H59.3882V89.6476H62.3778V83.3452Z" fill="#263238"/>
<path d="M70.2962 83.3452H67.3066V89.6476H70.2962V83.3452Z" fill="#263238"/>
<path d="M62.3778 95.3042H59.3882V101.566H62.3778V95.3042Z" fill="#263238"/>
<path d="M70.2962 95.3042H67.3066V101.566H70.2962V95.3042Z" fill="#263238"/>
<path d="M62.3778 107.303H59.3882V113.605H62.3778V107.303Z" fill="#263238"/>
<path d="M70.2962 107.303H67.3066V113.605H70.2962V107.303Z" fill="#263238"/>
<path d="M62.3778 119.261H59.3882V125.564H62.3778V119.261Z" fill="#263238"/>
<path d="M70.2962 119.261H67.3066V125.564H70.2962V119.261Z" fill="#263238"/>
<path d="M62.3778 131.219H59.3882V137.481H62.3778V131.219Z" fill="#263238"/>
<path d="M70.2962 131.219H67.3066V137.481H70.2962V131.219Z" fill="#263238"/>
<path d="M62.3778 143.178H59.3882V149.48H62.3778V143.178Z" fill="#263238"/>
<path d="M70.2962 143.178H67.3066V149.48H70.2962V143.178Z" fill="#263238"/>
<path d="M86.9813 59.6709H83.9917V65.9733H86.9813V59.6709Z" fill="#455A64"/>
<path d="M86.9813 70.7002H83.9917V77.0026H86.9813V70.7002Z" fill="#455A64"/>
<path d="M86.9813 83.0225H83.9917V89.3249H86.9813V83.0225Z" fill="#455A64"/>
<path d="M86.9813 94.8188H83.9917V101.121H86.9813V94.8188Z" fill="#455A64"/>
<path d="M86.9813 106.616H83.9917V112.919H86.9813V106.616Z" fill="#455A64"/>
<path d="M86.9813 118.413H83.9917V124.715H86.9813V118.413Z" fill="#455A64"/>
<path d="M86.9813 130.209H83.9917V136.471H86.9813V130.209Z" fill="#455A64"/>
<path d="M86.9813 143.178H83.9917V149.48H86.9813V143.178Z" fill="#455A64"/>
<path d="M94.9401 50.7832H50.3789V51.9952H94.9401V50.7832Z" fill="#263238"/>
<path d="M85.4863 43.4707H69.6091V51.3891H85.4863V43.4707Z" fill="#263238"/>
<path d="M77.9719 43.4707H69.6091V50.7831H77.9719V43.4707Z" fill="#455A64"/>
<path d="M77.9722 68.1554C77.9722 68.1958 72.5586 68.2766 65.8926 68.2766C59.2266 68.2766 53.813 68.2362 53.813 68.1554C53.813 68.0746 59.2266 68.0342 65.8926 68.0342C72.5586 68.0342 77.9722 68.115 77.9722 68.1554Z" fill="#263238"/>
<path d="M77.9722 80.1539C77.9722 80.1943 72.5586 80.2751 65.8926 80.2751C59.2266 80.2751 53.813 80.2347 53.813 80.1539C53.813 80.0731 59.2266 80.0327 65.8926 80.0327C72.5586 80.0327 77.9722 80.1135 77.9722 80.1539Z" fill="#263238"/>
<path d="M77.9722 92.3141C77.9722 92.3545 72.5586 92.4353 65.8926 92.4353C59.2266 92.4353 53.813 92.3949 53.813 92.3141C53.813 92.2333 59.2266 92.1929 65.8926 92.1929C72.5586 92.1929 77.9722 92.2737 77.9722 92.3141Z" fill="#263238"/>
<path d="M77.9722 104.394C77.9722 104.434 72.5586 104.515 65.8926 104.515C59.2266 104.515 53.813 104.474 53.813 104.394C53.813 104.313 59.2266 104.272 65.8926 104.272C72.5586 104.272 77.9722 104.313 77.9722 104.394Z" fill="#263238"/>
<path d="M77.9722 116.272C77.9722 116.312 72.5586 116.393 65.8926 116.393C59.2266 116.393 53.813 116.352 53.813 116.272C53.813 116.191 59.2266 116.15 65.8926 116.15C72.5586 116.15 77.9722 116.231 77.9722 116.272Z" fill="#263238"/>
<path d="M77.9722 127.866C77.9722 127.907 72.5586 127.988 65.8926 127.988C59.2266 127.988 53.813 127.947 53.813 127.866C53.813 127.786 59.2266 127.745 65.8926 127.745C72.5586 127.745 77.9722 127.786 77.9722 127.866Z" fill="#263238"/>
<path d="M77.9722 140.673C77.9722 140.713 72.5586 140.794 65.8926 140.794C59.2266 140.794 53.813 140.754 53.813 140.673C53.813 140.592 59.2266 140.552 65.8926 140.552C72.5586 140.552 77.9722 140.633 77.9722 140.673Z" fill="#263238"/>
<path d="M92.8394 52.4801C92.8394 52.5205 89.6074 52.6013 85.6482 52.6013C81.689 52.6013 78.457 52.5609 78.457 52.4801C78.457 52.3993 81.689 52.3589 85.6482 52.3589C89.6074 52.3589 92.8394 52.4397 92.8394 52.4801Z" fill="#455A64"/>
<path d="M92.8394 68.1554C92.8394 68.1958 89.6074 68.2766 85.6482 68.2766C81.689 68.2766 78.457 68.2362 78.457 68.1554C78.457 68.0746 81.689 68.0342 85.6482 68.0342C89.6074 68.0342 92.8394 68.115 92.8394 68.1554Z" fill="#455A64"/>
<path d="M92.8394 80.1539C92.8394 80.1943 89.6074 80.2751 85.6482 80.2751C81.689 80.2751 78.457 80.2347 78.457 80.1539C78.457 80.0731 81.689 80.0327 85.6482 80.0327C89.6074 80.0327 92.8394 80.1135 92.8394 80.1539Z" fill="#455A64"/>
<path d="M92.8394 92.1935C92.8394 92.2339 89.6074 92.3147 85.6482 92.3147C81.689 92.3147 78.457 92.2743 78.457 92.1935C78.457 92.1127 81.689 92.0723 85.6482 92.0723C89.6074 92.0723 92.8394 92.1127 92.8394 92.1935Z" fill="#455A64"/>
<path d="M92.6776 104.394C92.6776 104.434 89.4456 104.515 85.4864 104.515C81.5272 104.515 78.2952 104.474 78.2952 104.394C78.2952 104.313 81.5272 104.272 85.4864 104.272C89.4456 104.272 92.6776 104.313 92.6776 104.394Z" fill="#455A64"/>
<path d="M92.6776 116.272C92.6776 116.312 89.4456 116.393 85.4864 116.393C81.5272 116.393 78.2952 116.352 78.2952 116.272C78.2952 116.191 81.5272 116.15 85.4864 116.15C89.4456 116.15 92.6776 116.231 92.6776 116.272Z" fill="#455A64"/>
<path d="M92.6776 128.19C92.6776 128.23 89.4456 128.311 85.4864 128.311C81.5272 128.311 78.2952 128.27 78.2952 128.19C78.2952 128.109 81.5272 128.068 85.4864 128.068C89.4456 128.068 92.6776 128.109 92.6776 128.19Z" fill="#455A64"/>
<path d="M92.6776 140.673C92.6776 140.713 89.4456 140.794 85.4864 140.794C81.5272 140.794 78.2952 140.754 78.2952 140.673C78.2952 140.592 81.5272 140.552 85.4864 140.552C89.4456 140.552 92.6776 140.633 92.6776 140.673Z" fill="#455A64"/>
<path d="M73.8917 194.93C74.0129 195.253 74.0129 195.617 74.0129 195.94L73.8917 195.819H74.0937H74.2957H74.6189C74.7805 195.819 74.9017 195.859 74.9017 195.9C74.9017 195.94 74.7805 195.94 74.6189 195.981C74.5381 195.981 74.4169 195.981 74.2957 196.021H73.8917L73.7705 195.9C73.7705 195.577 73.8109 195.253 73.8917 194.93Z" fill="#263238"/>
<path d="M73.8914 190.931C74.0126 191.577 74.0126 192.304 73.8914 192.951C73.7702 192.264 73.7702 191.577 73.8914 190.931Z" fill="#263238"/>
<path d="M73.8914 186.891C74.0126 187.537 74.0126 188.264 73.8914 188.911C73.7702 188.224 73.7702 187.537 73.8914 186.891Z" fill="#263238"/>
<path d="M73.8914 182.851C74.0126 183.497 74.0126 184.224 73.8914 184.871C73.7702 184.224 73.7702 183.537 73.8914 182.851Z" fill="#263238"/>
<path d="M73.8914 178.811C74.0126 179.457 74.0126 180.184 73.8914 180.831C73.7702 180.184 73.7702 179.497 73.8914 178.811Z" fill="#263238"/>
<path d="M73.8914 174.811C74.0126 175.457 74.0126 176.185 73.8914 176.831C73.7702 176.144 73.7702 175.457 73.8914 174.811Z" fill="#263238"/>
<path d="M73.8914 170.771C74.0126 171.417 74.0126 172.145 73.8914 172.791C73.7702 172.145 73.7702 171.458 73.8914 170.771Z" fill="#263238"/>
<path d="M73.8914 166.731C74.0126 167.377 74.0126 168.105 73.8914 168.751C73.7702 168.105 73.7702 167.418 73.8914 166.731Z" fill="#263238"/>
<path d="M73.8914 162.731C74.0126 163.378 74.0126 164.105 73.8914 164.751C73.7702 164.105 73.7702 163.378 73.8914 162.731Z" fill="#263238"/>
<path d="M73.8914 158.691C74.0126 159.338 74.0126 160.065 73.8914 160.711C73.7702 160.065 73.7702 159.338 73.8914 158.691Z" fill="#263238"/>
<path d="M73.8914 154.651C74.0126 155.298 74.0126 156.025 73.8914 156.671C73.7702 156.025 73.7702 155.298 73.8914 154.651Z" fill="#263238"/>
<path d="M73.8914 150.652C74.0126 151.298 74.0126 152.025 73.8914 152.672C73.7702 151.985 73.7702 151.298 73.8914 150.652Z" fill="#263238"/>
<path d="M73.8914 146.612C74.0126 147.258 74.0126 147.985 73.8914 148.632C73.7702 147.945 73.7702 147.258 73.8914 146.612Z" fill="#263238"/>
<path d="M73.8914 142.572C74.0126 143.218 74.0126 143.945 73.8914 144.592C73.7702 143.945 73.7702 143.259 73.8914 142.572Z" fill="#263238"/>
<path d="M73.8914 138.572C74.0126 139.219 74.0126 139.946 73.8914 140.592C73.7702 139.905 73.7702 139.219 73.8914 138.572Z" fill="#263238"/>
<path d="M89.0012 195.941C89.6476 195.819 90.3748 195.819 91.0212 195.941C90.3748 196.102 89.688 196.102 89.0012 195.941Z" fill="#263238"/>
<path d="M84.9612 195.941C85.6076 195.819 86.3348 195.819 86.9812 195.941C86.3348 196.102 85.648 196.102 84.9612 195.941Z" fill="#263238"/>
<path d="M80.9617 195.941C81.6081 195.819 82.3353 195.819 82.9817 195.941C82.2949 196.102 81.6081 196.102 80.9617 195.941Z" fill="#263238"/>
<path d="M76.9216 195.941C77.568 195.819 78.2952 195.819 78.9416 195.941C78.2548 196.102 77.568 196.102 76.9216 195.941Z" fill="#263238"/>
<path d="M81.2442 143.339H78.2546V149.642H81.2442V143.339Z" fill="#90CAF9"/>
<path d="M89.4457 143.339H86.4561V149.642H89.4457V143.339Z" fill="#90CAF9"/>
<path d="M81.2442 155.54H78.2546V161.842H81.2442V155.54Z" fill="#90CAF9"/>
<path d="M89.4457 155.54H86.4561V161.842H89.4457V155.54Z" fill="#90CAF9"/>
<path d="M81.2442 167.782H78.2546V174.084H81.2442V167.782Z" fill="#90CAF9"/>
<path d="M89.4457 167.782H86.4561V174.084H89.4457V167.782Z" fill="#90CAF9"/>
<path d="M81.2442 179.982H78.2546V186.244H81.2442V179.982Z" fill="#90CAF9"/>
<path d="M89.4457 179.982H86.4561V186.244H89.4457V179.982Z" fill="#90CAF9"/>
<path d="M100.919 140.996H70.3364V196.465H100.919V140.996Z" fill="#90CAF9"/>
<path opacity="0.7" d="M100.919 140.996H70.3364V196.465H100.919V140.996Z" fill="black"/>
<path d="M79.1839 148.147H76.1943V154.409H79.1839V148.147Z" fill="#90CAF9"/>
<path d="M87.4662 148.147H84.4766V154.409H87.4662V148.147Z" fill="#90CAF9"/>
<path d="M79.1839 159.742H76.1943V166.044H79.1839V159.742Z" fill="#90CAF9"/>
<path d="M87.4662 159.742H84.4766V166.044H87.4662V159.742Z" fill="#90CAF9"/>
<path d="M79.1839 171.377H76.1943V177.679H79.1839V171.377Z" fill="#90CAF9"/>
<path d="M87.4662 171.377H84.4766V177.679H87.4662V171.377Z" fill="#90CAF9"/>
<path d="M79.1839 184.062H76.1943V190.324H79.1839V184.062Z" fill="#90CAF9"/>
<path d="M87.4662 184.386H84.4766V190.648H87.4662V184.386Z" fill="#90CAF9"/>
<g opacity="0.4">
<path opacity="0.4" d="M79.1839 148.147H76.1943V154.409H79.1839V148.147Z" fill="black"/>
<path opacity="0.4" d="M87.4659 148.147H84.4763V154.409H87.4659V148.147Z" fill="black"/>
<path opacity="0.4" d="M79.1839 159.742H76.1943V166.044H79.1839V159.742Z" fill="black"/>
<path opacity="0.4" d="M87.4659 159.742H84.4763V166.044H87.4659V159.742Z" fill="black"/>
<path opacity="0.4" d="M79.1839 171.377H76.1943V177.679H79.1839V171.377Z" fill="black"/>
<path opacity="0.4" d="M87.4659 171.377H84.4763V177.679H87.4659V171.377Z" fill="black"/>
<path opacity="0.4" d="M79.1839 184.062H76.1943V190.324H79.1839V184.062Z" fill="black"/>
<path opacity="0.4" d="M87.4659 184.386H84.4763V190.648H87.4659V184.386Z" fill="black"/>
</g>
<path d="M92.3141 181.518C92.3141 181.558 87.4661 181.639 81.4869 181.639C75.5077 181.639 70.6597 181.598 70.6597 181.518C70.6597 181.437 75.5077 181.396 81.4869 181.396C87.4661 181.396 92.3141 181.477 92.3141 181.518Z" fill="#90CAF9"/>
<path d="M92.3141 169.074C92.3141 169.115 87.4661 169.196 81.4869 169.196C75.5077 169.196 70.6597 169.155 70.6597 169.074C70.6597 168.994 75.5077 168.953 81.4869 168.953C87.4661 168.953 92.3141 168.994 92.3141 169.074Z" fill="#90CAF9"/>
<path d="M92.3141 157.075C92.3141 157.116 87.4661 157.197 81.4869 157.197C75.5077 157.197 70.6597 157.156 70.6597 157.075C70.6597 156.994 75.5077 156.954 81.4869 156.954C87.4661 156.954 92.3141 156.994 92.3141 157.075Z" fill="#90CAF9"/>
<g opacity="0.8">
<path opacity="0.8" d="M92.3141 181.517C92.3141 181.558 87.4661 181.638 81.4869 181.638C75.5077 181.638 70.6597 181.598 70.6597 181.517C70.6597 181.436 75.5077 181.396 81.4869 181.396C87.4661 181.396 92.3141 181.477 92.3141 181.517Z" fill="black"/>
<path opacity="0.8" d="M92.3141 169.074C92.3141 169.114 87.4661 169.195 81.4869 169.195C75.5077 169.195 70.6597 169.155 70.6597 169.074C70.6597 168.993 75.5077 168.953 81.4869 168.953C87.4661 168.953 92.3141 168.993 92.3141 169.074Z" fill="black"/>
<path opacity="0.8" d="M92.3141 157.075C92.3141 157.116 87.4661 157.197 81.4869 157.197C75.5077 157.197 70.6597 157.156 70.6597 157.075C70.6597 156.994 75.5077 156.954 81.4869 156.954C87.4661 156.954 92.3141 156.994 92.3141 157.075Z" fill="black"/>
</g>
<path d="M78.4568 35.229H76.9216V41.9354H78.4568V35.229Z" fill="#90CAF9"/>
<path d="M74.3015 37.8237V39.3589H81.0079V37.8237H74.3015Z" fill="#90CAF9"/>
<path d="M138.532 44.1577H136.996V50.8641H138.532V44.1577Z" fill="#90CAF9"/>
<path d="M134.392 46.7324V48.2676H141.098V46.7324H134.392Z" fill="#90CAF9"/>
<path d="M28.2798 144.794H26.7446V151.5H28.2798V144.794Z" fill="#90CAF9"/>
<path d="M24.155 147.384V148.919H30.8614V147.384H24.155Z" fill="#90CAF9"/>
<path d="M89.7689 131.341H88.2336V138.047H89.7689V131.341Z" fill="#90CAF9"/>
<path d="M85.6521 133.924V135.459H92.3585V133.924H85.6521Z" fill="#90CAF9"/>
<path d="M142.733 145.117H141.198V151.824H142.733V145.117Z" fill="#90CAF9"/>
<path d="M138.61 147.726V149.261H145.316V147.726H138.61Z" fill="#90CAF9"/>
<path d="M182.406 155.54C182.406 155.581 147.702 155.661 104.959 155.661C62.216 155.661 27.5125 155.621 27.5125 155.54C27.5125 155.459 62.1756 155.419 104.959 155.419C147.743 155.419 182.406 155.5 182.406 155.54Z" fill="#263238"/>
</svg>
