<svg width="204" height="204" viewBox="0 0 204 204" fill="none" xmlns="http://www.w3.org/2000/svg">
<path d="M190.814 85.158C190.198 67.3243 177.325 49.5763 162.445 39.7231C147.566 29.8699 125.791 29.4334 112.959 41.8325C101.368 53.0403 97.9978 72.6243 83.2323 79.0788C74.142 83.0487 63.6483 80.5272 53.7828 81.4085C37.52 82.861 22.7096 94.4849 17.0628 109.801C11.4161 125.118 14.9698 143.355 25.6676 155.689C33.2237 164.404 47.2916 171.642 58.7156 173.311C84.2237 178.635 123.18 177.799 137.594 173.311C155.66 167.66 165.399 160.663 177.003 141.593C188.309 123 191.609 108.141 190.814 85.158Z" fill="#EBEBEB"/>
<path d="M190.577 191.691C190.577 191.748 151.221 191.797 102.685 191.797C54.1495 191.797 14.7856 191.76 14.7856 191.691C14.7856 191.621 54.1332 191.584 102.685 191.584C151.237 191.584 190.577 191.633 190.577 191.691Z" fill="#263238"/>
<path d="M79.0089 139.307C79.0089 139.307 67.4054 147.19 66.7689 165.591C66.5568 171.764 69.5882 191.417 69.5882 191.417L137.451 191.691L124.758 139.014L103.407 134.118L79.0089 139.307Z" fill="#ED893E"/>
<path d="M104.934 152.968L95.6885 191.536L118.798 191.691L104.934 152.968Z" fill="#263238"/>
<path d="M104.583 144.616C104.656 145.032 104.697 145.454 104.705 145.876C104.758 146.725 104.823 147.77 104.897 148.928C104.97 150.087 105.011 151.201 105.027 151.98C105.055 152.403 105.045 152.828 104.999 153.249C104.926 152.832 104.885 152.411 104.876 151.988C104.823 151.144 104.758 150.095 104.685 148.941C104.611 147.786 104.57 146.668 104.558 145.885C104.528 145.462 104.536 145.037 104.583 144.616Z" fill="#263238"/>
<path d="M108.769 148.867C108.769 148.887 108.618 148.92 108.361 149.063C108.024 149.265 107.755 149.563 107.59 149.919C107.461 150.175 107.401 150.46 107.416 150.746C107.43 151.032 107.518 151.31 107.671 151.551C107.846 151.855 108.11 152.097 108.426 152.248C108.742 152.398 109.096 152.449 109.442 152.394C109.788 152.339 110.108 152.18 110.362 151.938C110.615 151.697 110.79 151.384 110.862 151.041C110.934 150.767 110.934 150.479 110.863 150.205C110.791 149.93 110.651 149.679 110.454 149.475C110.186 149.187 109.838 148.987 109.454 148.899C109.185 148.838 109.046 148.855 109.022 148.834C108.997 148.814 109.062 148.834 109.136 148.81C109.247 148.794 109.36 148.794 109.471 148.81C109.884 148.87 110.266 149.063 110.56 149.361C110.767 149.565 110.926 149.813 111.025 150.087C111.134 150.408 111.15 150.753 111.07 151.082C110.991 151.464 110.797 151.813 110.515 152.082C110.232 152.351 109.875 152.528 109.489 152.589C109.104 152.65 108.709 152.593 108.358 152.424C108.006 152.256 107.714 151.984 107.52 151.645C107.342 151.357 107.25 151.025 107.255 150.687C107.267 150.402 107.341 150.124 107.471 149.871C107.658 149.496 107.962 149.192 108.336 149.006C108.435 148.954 108.541 148.917 108.65 148.895C108.728 148.863 108.765 148.859 108.769 148.867Z" fill="#263238"/>
<path d="M116.166 169.924C116.166 169.924 116.015 169.981 115.758 170.12C115.422 170.322 115.155 170.621 114.991 170.977C114.862 171.233 114.803 171.517 114.817 171.803C114.831 172.089 114.919 172.367 115.072 172.609C115.248 172.912 115.511 173.154 115.827 173.305C116.143 173.455 116.497 173.506 116.843 173.451C117.189 173.396 117.51 173.237 117.763 172.995C118.017 172.754 118.191 172.441 118.263 172.099C118.335 171.824 118.335 171.536 118.263 171.262C118.192 170.988 118.051 170.736 117.855 170.532C117.588 170.244 117.241 170.044 116.859 169.957C116.586 169.895 116.427 169.912 116.427 169.891C116.463 169.875 116.502 169.867 116.541 169.867C116.651 169.853 116.762 169.853 116.872 169.867C117.287 169.928 117.671 170.123 117.965 170.422C118.172 170.624 118.329 170.871 118.426 171.144C118.54 171.464 118.555 171.81 118.471 172.139C118.395 172.523 118.203 172.874 117.921 173.145C117.639 173.416 117.281 173.595 116.894 173.656C116.508 173.717 116.112 173.659 115.76 173.488C115.408 173.318 115.117 173.043 114.925 172.702C114.744 172.416 114.652 172.082 114.66 171.744C114.67 171.459 114.744 171.18 114.876 170.928C115.063 170.553 115.367 170.249 115.741 170.063C115.841 170.012 115.946 169.975 116.056 169.952C116.091 169.938 116.128 169.928 116.166 169.924Z" fill="#263238"/>
<path d="M92.1714 154.632C92.1288 154.697 92.0796 154.757 92.0245 154.812C91.9266 154.926 91.7797 155.093 91.5798 155.301C91.0075 155.886 90.3969 156.431 89.7519 156.933C87.6043 158.58 85.1274 159.744 82.4895 160.348C81.0413 160.696 79.548 160.817 78.0627 160.707C76.8378 160.619 75.6607 160.195 74.66 159.483C73.9917 158.995 73.4548 158.349 73.0974 157.603C73.0076 157.399 72.9339 157.189 72.8771 156.974C72.854 156.9 72.8417 156.823 72.8403 156.746C72.8607 156.746 72.9219 157.056 73.1749 157.562C73.5496 158.276 74.0896 158.89 74.7498 159.353C75.7358 160.031 76.8854 160.432 78.079 160.516C79.5448 160.609 81.0163 160.482 82.4447 160.14C85.055 159.542 87.5127 158.408 89.6622 156.811C90.3097 156.325 90.9294 155.804 91.5186 155.248L91.9959 154.787C92.1061 154.677 92.1632 154.632 92.1714 154.632Z" fill="#263238"/>
<path d="M92.1714 158.451C92.1288 158.516 92.0796 158.576 92.0245 158.631C91.9266 158.745 91.7797 158.916 91.5798 159.124C89.0983 161.644 85.9417 163.394 82.4895 164.163C81.0415 164.512 79.5482 164.634 78.0627 164.526C76.8382 164.436 75.6616 164.013 74.66 163.302C73.9911 162.816 73.454 162.171 73.0974 161.426C73.0068 161.221 72.9332 161.01 72.8771 160.793C72.8536 160.719 72.8413 160.642 72.8403 160.565C72.8607 160.565 72.9219 160.875 73.1749 161.381C73.5493 162.096 74.0893 162.711 74.7498 163.176C75.7362 163.852 76.8857 164.252 78.079 164.335C79.5448 164.43 81.0166 164.303 82.4447 163.959C85.054 163.36 87.5114 162.228 89.6622 160.634C90.3099 160.147 90.9297 159.624 91.5186 159.067L91.9959 158.606C92.0481 158.548 92.107 158.496 92.1714 158.451Z" fill="#263238"/>
<path d="M92.7709 157.296C92.7856 157.35 92.7951 157.404 92.7995 157.46C92.7995 157.578 92.828 157.741 92.8525 157.945C92.9015 158.386 92.9708 159.014 93.0565 159.818C93.2279 161.45 93.5543 163.788 93.7012 166.713C93.785 168.309 93.7509 169.908 93.5992 171.499C93.4321 173.331 93.0204 175.133 92.3752 176.856C91.6638 178.772 90.5365 180.507 89.0744 181.936C88.2984 182.687 87.4257 183.332 86.4796 183.853C85.5007 184.386 84.4429 184.76 83.3461 184.959C81.159 185.314 78.9164 184.899 77.0017 183.784C75.2161 182.772 73.7113 181.33 72.6239 179.59C71.665 178.016 70.9755 176.294 70.5839 174.494C70.2352 172.928 70.0466 171.332 70.0208 169.728C70.0122 167.417 70.1758 165.108 70.5104 162.821C70.6288 162.005 70.7185 161.393 70.7797 160.956C70.8124 160.752 70.8409 160.593 70.8572 160.471C70.8648 160.415 70.8771 160.361 70.894 160.307C70.8994 160.363 70.8994 160.419 70.894 160.475C70.894 160.597 70.8613 160.756 70.8368 160.96C70.7838 161.401 70.7063 162.029 70.6043 162.829C70.306 165.115 70.1697 167.419 70.1963 169.724C70.2307 171.313 70.4248 172.895 70.7756 174.445C71.1736 176.221 71.8629 177.92 72.8156 179.471C73.8815 181.184 75.3582 182.603 77.1119 183.6C78.9849 184.69 81.1786 185.096 83.3176 184.747C84.3921 184.555 85.4284 184.19 86.3857 183.665C87.3167 183.154 88.1756 182.522 88.9398 181.785C90.3832 180.38 91.4978 178.673 92.2038 176.787C92.8454 175.081 93.257 173.297 93.4278 171.483C93.5871 169.901 93.6293 168.309 93.5543 166.721C93.4278 163.804 93.1463 161.454 92.979 159.826C92.8974 159.01 92.8444 158.378 92.8117 157.949C92.8117 157.745 92.7872 157.582 92.7791 157.46C92.7709 157.337 92.7709 157.296 92.7709 157.296Z" fill="#263238"/>
<g opacity="0.2">
<path opacity="0.2" d="M71.5386 177.505C72.273 179.994 72.5872 180.638 73.9621 182.625C75.2318 184.508 77.0899 185.917 79.2457 186.632C80.7869 187.164 82.4385 187.293 84.0437 187.008C85.6489 186.722 87.1545 186.031 88.4176 185C90.9105 182.915 91.7917 179.696 92.2242 177.513C91.1389 178.974 89.9843 181.05 88.6175 182.254C87.2507 183.458 85.4433 184.51 83.6399 184.824C81.1919 185.232 78.2747 184.498 76.1817 183.168C74.0886 181.838 72.8238 179.455 71.5264 177.509" fill="black"/>
</g>
<g opacity="0.2">
<path opacity="0.2" d="M73.2852 161.678C73.7505 162.716 74.4613 163.625 75.3562 164.326C76.2511 165.028 77.3033 165.501 78.4219 165.705C80.6292 166.113 83.4892 165.416 84.8683 163.343C80.0131 165.048 75.1864 165.089 73.2852 161.678Z" fill="black"/>
</g>
<path d="M113.184 155.661C113.08 155.678 112.973 155.678 112.869 155.661C112.593 155.622 112.32 155.562 112.053 155.481C110.235 154.942 108.676 153.758 107.667 152.152C107.514 151.912 107.377 151.661 107.259 151.401C107.182 151.213 107.145 151.111 107.162 151.103C107.178 151.095 107.382 151.487 107.782 152.07C108.308 152.822 108.947 153.49 109.675 154.049C110.408 154.601 111.223 155.036 112.09 155.338C112.755 155.546 113.188 155.624 113.184 155.661Z" fill="#263238"/>
<g opacity="0.2">
<path opacity="0.2" d="M107.537 151.368C108.038 153.074 109.932 154.665 111.617 155.224C111.946 155.347 112.298 155.398 112.649 155.375C112.824 155.363 112.995 155.312 113.148 155.227C113.302 155.142 113.435 155.023 113.538 154.881C113.893 154.338 113.587 153.567 113.065 153.184C112.509 152.845 111.89 152.624 111.245 152.535C109.944 152.233 108.769 152.89 107.692 151.797" fill="black"/>
</g>
<g opacity="0.2">
<path opacity="0.2" d="M71.4531 148.21C74.4968 150.871 78.7971 150.985 82.669 149.842C86.541 148.7 89.9151 146.55 93.2036 144.2C89.6173 144.914 86.5573 146.55 82.9383 147.084C79.4826 147.594 75.8881 147.647 72.4894 146.493" fill="black"/>
</g>
<path d="M129.821 189.075C129.799 189.095 129.772 189.11 129.744 189.12C129.666 189.162 129.586 189.199 129.503 189.23C129.186 189.359 128.852 189.441 128.512 189.475C127.25 189.58 125.99 189.242 124.95 188.52C123.595 187.66 122.363 186.211 121.045 184.604C119.632 182.839 118.361 180.965 117.247 178.998C115.224 175.419 113.676 171.593 112.641 167.615C112.233 166.089 111.996 164.84 111.845 163.971C111.78 163.563 111.727 163.216 111.686 162.971C111.666 162.855 111.652 162.738 111.645 162.621C111.684 162.732 111.713 162.847 111.731 162.963L111.927 163.955C112.102 164.816 112.375 166.06 112.783 167.574C113.858 171.524 115.419 175.326 117.43 178.892C118.541 180.849 119.802 182.718 121.2 184.481C122.502 186.089 123.718 187.537 125.031 188.394C126.047 189.115 127.277 189.467 128.52 189.394C128.966 189.347 129.404 189.24 129.821 189.075Z" fill="#263238"/>
<g opacity="0.2">
<path opacity="0.2" d="M115.15 174.021C115.15 174.021 121.172 181.593 125.566 183.449C127.055 184.082 128.695 184.596 129.711 185.853C129.965 186.14 130.153 186.48 130.263 186.848C130.372 187.215 130.399 187.603 130.344 187.982C130.327 188.072 130.299 188.16 130.262 188.243C129.63 189.855 126.59 189.631 125.199 188.611C124.591 188.166 124.95 188.451 124.46 188.084C123.053 187.023 115.517 178.296 115.15 174.021Z" fill="black"/>
</g>
<path d="M88.5646 71.8167L92.4079 71.0537L111.417 71.2781L121.074 73.3997L124.758 127.329L82.061 129.324L88.5646 71.8167Z" fill="#E0E0E0"/>
<path d="M116.215 124.849L117.125 100.32L115.611 71.8779C121.617 73.4242 129.83 75.1419 134.379 80.3276C137.329 83.6936 140.221 87.998 141.315 94.9299C142.572 103.09 144.228 118.696 145.264 127.427" fill="#ED893E"/>
<path d="M122.253 120.826L92.7344 125.62L91.6899 107.39L90.0579 71.3516C81.4899 71.7024 71.7387 78.7812 68.8134 84.2974C66.7734 88.1244 65.0639 92.5716 64.5294 96.876C63.5053 105.036 61.7713 119.018 60.735 127.753C60.4215 130.408 60.7034 133.1 61.5602 135.632C62.417 138.164 63.8271 140.473 65.6881 142.393C69.9721 146.811 76.6796 148.341 82.7099 147.093L127.655 134.445L122.253 120.826Z" fill="#ED893E"/>
<path d="M119.136 120.499C119.138 120.464 119.145 120.43 119.156 120.397C119.181 120.324 119.209 120.226 119.242 120.103C119.328 119.83 119.442 119.451 119.593 118.965C119.911 117.961 120.364 116.517 120.927 114.73L125.558 100.27L125.619 100.397L120.833 98.4181L120.645 98.3406L120.813 98.2304L121.918 97.5042L125.529 95.146L125.488 95.2602C123.652 88.8872 122.037 83.265 120.874 79.2217C120.307 77.2144 119.85 75.5987 119.527 74.4726C119.381 73.9218 119.262 73.4934 119.177 73.1874C119.141 73.0541 119.113 72.944 119.091 72.8569C119.078 72.8201 119.069 72.7817 119.066 72.7427C119.066 72.7427 119.066 72.7753 119.107 72.8488L119.213 73.1792C119.307 73.4812 119.438 73.9055 119.601 74.4522L121.008 79.1809L125.688 95.2031L125.709 95.2765L125.643 95.3214L122.037 97.6837L120.931 98.4059V98.2182L125.713 100.205L125.802 100.242L125.774 100.332C123.889 106.121 122.245 111.16 121.07 114.771C120.478 116.558 120.009 117.99 119.678 118.985C119.515 119.467 119.385 119.846 119.295 120.116C119.254 120.234 119.217 120.328 119.193 120.405C119.178 120.439 119.158 120.47 119.136 120.499Z" fill="#263238"/>
<g opacity="0.2">
<path opacity="0.2" d="M125.664 95.2925C125.423 96.1773 124.902 96.9604 124.179 97.5242C123.616 97.8466 123.938 98.275 124.404 98.7238C124.963 99.2623 125.86 99.4092 126.272 100.062C126.684 100.715 126.452 101.461 126.24 102.147C124.196 108.65 121.715 115.007 118.814 121.176L125.664 100.299L120.887 98.328L125.664 95.2925Z" fill="black"/>
</g>
<path d="M90.2783 121.005C90.2582 120.978 90.2417 120.95 90.2294 120.919C90.2008 120.854 90.16 120.772 90.1151 120.666L89.6745 119.67C89.291 118.789 88.7443 117.52 88.0425 115.937L82.5386 103.036L82.5059 102.963L82.5753 102.914L86.3493 100.213V100.368L83.8483 98.3851L82.7385 97.512L82.1877 97.104L82.0531 96.9938C82.0247 96.9737 81.9987 96.9504 81.9755 96.9245C81.9493 96.8905 81.9298 96.8517 81.9184 96.8102C81.8884 96.6888 81.8733 96.5641 81.8735 96.4389C81.8987 95.5259 81.9832 94.6155 82.1265 93.7135C82.3754 91.9469 82.6691 90.2496 82.9425 88.6339C83.5219 85.4066 84.0971 82.5139 84.5745 80.0659C85.0519 77.6179 85.4803 75.6717 85.7699 74.3172C85.9168 73.6481 86.0351 73.1258 86.1167 72.7546L86.2106 72.3466C86.2176 72.2999 86.2314 72.2546 86.2514 72.2119C86.2492 72.2601 86.2423 72.3079 86.231 72.3547C86.231 72.4567 86.1861 72.5914 86.1575 72.7627C86.0841 73.1354 85.9821 73.6576 85.8515 74.3294C85.5823 75.7003 85.1987 77.6669 84.7255 80.0904C84.2522 82.5139 83.6973 85.423 83.1261 88.6584C82.8446 90.27 82.5549 91.9673 82.3101 93.7298C82.1695 94.6212 82.0863 95.5206 82.0612 96.4226C82.0602 96.5271 82.0725 96.6313 82.0979 96.7327C82.0979 96.7817 82.2163 96.8551 82.3019 96.9286L82.8487 97.361L83.9543 98.2382L86.4513 100.217L86.5615 100.307L86.4472 100.388L82.6691 103.081L82.7018 102.955L88.1731 115.872C88.8381 117.467 89.3685 118.728 89.7357 119.63C89.9111 120.058 90.0499 120.393 90.1437 120.637L90.2416 120.899C90.2568 120.933 90.2691 120.968 90.2783 121.005Z" fill="#263238"/>
<path d="M125.969 103.303L96.2272 98.7149C95.6905 98.6321 95.1883 99 95.1055 99.5367L88.6907 141.118C88.6079 141.654 88.9758 142.157 89.5125 142.239L119.255 146.828C119.791 146.911 120.294 146.543 120.376 146.006L126.791 104.425C126.874 103.888 126.506 103.386 125.969 103.303Z" fill="#ED893E"/>
<g opacity="0.2">
<path opacity="0.2" d="M125.969 103.303L96.2267 98.7149C95.69 98.6321 95.1878 99 95.105 99.5367L88.6902 141.118C88.6074 141.654 88.9753 142.157 89.512 142.239L119.254 146.828C119.791 146.911 120.293 146.543 120.376 146.006L126.791 104.425C126.874 103.888 126.506 103.386 125.969 103.303Z" fill="black"/>
</g>
<path d="M125.03 104.105L96.8809 99.7627L90.6303 140.279L118.78 144.622L125.03 104.105Z" fill="#EBEBEB"/>
<path d="M116.574 103.44C116.374 102.824 116.007 102.275 115.514 101.855C115.02 101.435 114.42 101.16 113.779 101.062L114.016 99.3278C114.112 98.6997 113.955 98.0592 113.579 97.5467C113.204 97.0342 112.64 96.6917 112.012 96.5942C111.384 96.4969 110.742 96.6532 110.229 97.0289C109.715 97.4046 109.372 97.9688 109.275 98.5974L108.997 100.393L108.394 100.311C107.76 100.223 107.115 100.311 106.528 100.566C105.941 100.821 105.436 101.232 105.068 101.755L104.599 102.408L116.839 104.301L116.574 103.44ZM111.515 100.274C111.263 100.236 111.027 100.123 110.839 99.9511C110.651 99.7789 110.518 99.5548 110.457 99.307C110.397 99.0592 110.411 98.799 110.498 98.5593C110.585 98.3195 110.741 98.111 110.947 97.9601C111.153 97.8093 111.399 97.7228 111.653 97.7118C111.908 97.7007 112.161 97.7655 112.379 97.8979C112.597 98.0304 112.771 98.2245 112.878 98.4558C112.986 98.6871 113.023 98.9451 112.984 99.1972C112.93 99.5342 112.746 99.8364 112.471 100.038C112.196 100.24 111.852 100.325 111.515 100.274Z" fill="#263238"/>
<path d="M106.419 107.121C105.132 107.032 103.852 106.871 102.584 106.639C101.306 106.476 100.038 106.245 98.7852 105.946C100.07 106.035 101.349 106.196 102.616 106.427C103.895 106.59 105.165 106.822 106.419 107.121Z" fill="#263238"/>
<path d="M102.265 107.798C101.641 107.812 101.018 107.751 100.409 107.618C99.7881 107.559 99.1763 107.428 98.585 107.231C99.2085 107.222 99.8311 107.282 100.441 107.41C101.062 107.47 101.674 107.6 102.265 107.798Z" fill="#263238"/>
<path d="M119.642 114.155C119.642 114.212 114.868 113.522 109.005 112.621C103.143 111.719 98.3975 110.932 98.3975 110.874C98.3975 110.817 103.167 111.503 109.034 112.409C114.901 113.314 119.65 114.094 119.642 114.155Z" fill="#263238"/>
<path d="M119.328 116.178C119.328 116.235 114.559 115.55 108.692 114.644C102.824 113.738 98.0835 112.959 98.0835 112.902C98.0835 112.845 102.853 113.53 108.72 114.436C114.587 115.342 119.336 116.121 119.328 116.178Z" fill="#263238"/>
<path d="M119.017 118.206C119.017 118.263 114.244 117.574 108.381 116.672C102.518 115.77 97.7729 114.983 97.7729 114.926C97.7729 114.869 102.547 115.554 108.414 116.46C114.281 117.366 119.026 118.145 119.017 118.206Z" fill="#263238"/>
<path d="M118.704 120.23C118.704 120.287 113.934 119.602 108.067 118.696C102.2 117.79 97.459 117.011 97.459 116.95C97.459 116.888 102.229 117.582 108.096 118.488C113.963 119.393 118.728 120.173 118.704 120.23Z" fill="#263238"/>
<path d="M118.39 122.253C118.39 122.314 113.62 121.625 107.753 120.719C101.886 119.813 97.145 119.034 97.145 118.977C97.145 118.92 101.915 119.605 107.782 120.511C113.649 121.417 118.402 122.196 118.39 122.253Z" fill="#263238"/>
<path d="M118.08 124.281C118.08 124.338 113.306 123.653 107.443 122.747C101.58 121.841 96.835 121.062 96.835 121.001C96.835 120.94 101.604 121.629 107.472 122.535C113.339 123.441 118.088 124.224 118.08 124.281Z" fill="#263238"/>
<path d="M107.178 124.469C107.041 124.476 106.904 124.467 106.77 124.444C106.496 124.416 106.109 124.367 105.627 124.301C104.66 124.171 103.33 123.979 101.866 123.755C100.401 123.53 99.0748 123.31 98.116 123.143C97.6345 123.061 97.251 122.988 96.9817 122.935C96.8415 122.918 96.7043 122.882 96.5737 122.828C96.7102 122.819 96.8473 122.827 96.9817 122.853C97.2551 122.881 97.6427 122.93 98.1241 122.996C99.0911 123.122 100.421 123.318 101.886 123.542C103.351 123.767 104.677 123.987 105.635 124.154C106.117 124.236 106.5 124.31 106.77 124.363C106.91 124.379 107.047 124.415 107.178 124.469Z" fill="#263238"/>
<path d="M121.344 109.238C120.767 109.256 120.19 109.202 119.626 109.079C119.051 109.027 118.485 108.904 117.941 108.712C119.092 108.748 120.235 108.925 121.344 109.238Z" fill="#263238"/>
<path d="M101.666 128.136C100.734 128.099 99.8065 127.991 98.8912 127.814C97.9651 127.708 97.0485 127.53 96.1494 127.284C97.081 127.321 98.0085 127.429 98.9238 127.606C99.8497 127.714 100.766 127.891 101.666 128.136Z" fill="#263238"/>
<path d="M101.568 130.005C100.62 129.965 99.6758 129.855 98.7442 129.675C97.8027 129.568 96.871 129.388 95.9575 129.136C96.9042 129.176 97.8465 129.287 98.7768 129.467C99.7197 129.573 100.653 129.753 101.568 130.005Z" fill="#263238"/>
<path d="M117.708 130.332C116.804 130.335 115.905 130.197 115.044 129.924C115.496 129.888 115.952 129.921 116.394 130.022C116.846 130.053 117.29 130.158 117.708 130.332Z" fill="#263238"/>
<path d="M117.545 132C116.641 132.003 115.742 131.866 114.881 131.592C115.785 131.589 116.684 131.727 117.545 132Z" fill="#263238"/>
<path d="M98.6956 131.539C98.2581 131.576 97.8177 131.544 97.39 131.446C96.9532 131.413 96.5247 131.31 96.1211 131.14C96.5572 131.101 96.9966 131.132 97.4226 131.233C97.8609 131.265 98.2909 131.368 98.6956 131.539Z" fill="#263238"/>
<path d="M117.341 133.947C117.014 134 116.679 133.985 116.358 133.902C116.027 133.885 115.703 133.799 115.407 133.649C115.734 133.59 116.07 133.604 116.391 133.69C116.722 133.706 117.046 133.794 117.341 133.947Z" fill="#263238"/>
<path d="M95.2764 135.476C95.4365 135.462 95.5976 135.462 95.7578 135.476L97.1124 135.517L101.951 135.709H102.061L102.037 135.815C101.916 136.339 101.616 136.805 101.188 137.133C100.962 137.314 100.697 137.441 100.415 137.505C100.132 137.57 99.8387 137.569 99.5563 137.504C99.2548 137.434 98.975 137.292 98.741 137.089C98.5071 136.886 98.3262 136.63 98.214 136.341C98.1111 136.031 98.1036 135.698 98.1923 135.384C98.281 135.069 98.462 134.789 98.7117 134.579C98.895 134.413 99.1165 134.295 99.3564 134.236C99.4165 134.22 99.478 134.211 99.54 134.207C99.6064 134.199 99.6735 134.199 99.7399 134.207C99.7845 134.215 99.8266 134.233 99.8629 134.26C99.8991 134.286 99.9283 134.322 99.948 134.362C99.975 134.433 99.9834 134.508 99.9725 134.583C99.9187 135.04 99.7671 135.479 99.5277 135.872C99.295 136.248 98.9882 136.573 98.6261 136.827C98.2729 137.092 97.8434 137.235 97.402 137.235C97.1893 137.22 96.985 137.146 96.812 137.021C96.6391 136.896 96.5043 136.726 96.4228 136.529C96.2667 136.17 96.2379 135.768 96.3412 135.391C96.5828 134.761 96.9751 134.201 97.4836 133.759L97.5938 133.648V133.803C97.659 134.366 97.5509 134.936 97.2837 135.435C97.0851 135.813 96.8066 136.143 96.4677 136.402C96.2566 136.566 96.0212 136.695 95.77 136.786C95.6838 136.82 95.5932 136.842 95.5008 136.851C95.8324 136.73 96.1423 136.557 96.4188 136.337C96.7336 136.074 96.9906 135.749 97.1736 135.382C97.419 134.899 97.5115 134.353 97.4388 133.816L97.5693 133.857C97.0868 134.289 96.7158 134.833 96.4881 135.44C96.3991 135.778 96.4279 136.136 96.5697 136.455C96.6376 136.62 96.75 136.762 96.8941 136.865C97.0383 136.969 97.2085 137.031 97.3857 137.043C97.7755 137.039 98.1534 136.909 98.4629 136.672C98.8078 136.43 99.0978 136.119 99.3137 135.757C99.5296 135.396 99.6665 134.993 99.7154 134.575C99.7246 134.538 99.7246 134.501 99.7154 134.464C99.7154 134.444 99.7154 134.436 99.6583 134.428C99.5595 134.422 99.4604 134.432 99.3645 134.456C99.1588 134.509 98.9685 134.609 98.8096 134.75C98.5938 134.934 98.4373 135.178 98.3596 135.451C98.282 135.724 98.2866 136.014 98.3731 136.284C98.4713 136.533 98.6266 136.755 98.8265 136.933C99.0263 137.11 99.2652 137.238 99.5237 137.307C99.7822 137.375 100.053 137.381 100.315 137.326C100.576 137.27 100.821 137.154 101.029 136.986C101.424 136.69 101.702 136.266 101.817 135.786L101.902 135.896L97.1042 135.615L95.7496 135.525C95.591 135.519 95.433 135.502 95.2764 135.476Z" fill="#263238"/>
<path d="M115.44 138.516C115.375 138.609 115.296 138.691 115.207 138.761C115.102 138.85 114.986 138.924 114.86 138.981C114.684 139.059 114.485 139.069 114.301 139.01C114.185 138.974 114.085 138.901 114.016 138.802C113.947 138.694 113.907 138.57 113.901 138.442C113.905 138.182 113.924 137.922 113.958 137.663C114.012 137.108 114.073 136.5 114.138 135.844L114.313 135.913L112.755 138.022L112.367 138.544L112.114 138.887L112.176 138.479C112.343 137.39 112.494 136.374 112.628 135.48L112.779 135.562C112.143 136.098 111.579 136.716 111.102 137.398C110.76 137.892 110.597 138.214 110.576 138.19C110.596 138.108 110.628 138.03 110.67 137.957C110.775 137.746 110.891 137.54 111.017 137.341C111.465 136.626 112.014 135.98 112.649 135.423L112.832 135.264L112.796 135.509C112.673 136.398 112.526 137.418 112.388 138.512L112.196 138.43L112.604 137.908C113.159 137.165 113.685 136.456 114.175 135.807L114.391 135.513L114.35 135.876C114.273 136.533 114.203 137.141 114.138 137.692C114.1 137.942 114.075 138.194 114.065 138.447C114.058 138.545 114.083 138.642 114.136 138.725C114.189 138.808 114.267 138.872 114.358 138.908C114.499 138.946 114.647 138.949 114.79 138.916C114.932 138.883 115.064 138.816 115.174 138.72C115.257 138.645 115.346 138.577 115.44 138.516Z" fill="#263238"/>
<path d="M116.158 137.406C114.826 137.505 113.49 137.534 112.155 137.492C110.821 137.522 109.486 137.481 108.157 137.37C109.487 137.268 110.822 137.238 112.155 137.28C113.491 137.25 114.827 137.293 116.158 137.406Z" fill="#263238"/>
<path d="M117.459 138.675C116.403 138.895 115.335 139.046 114.26 139.128C113.193 139.278 112.118 139.36 111.041 139.373C112.096 139.147 113.164 138.995 114.24 138.916C115.306 138.763 116.382 138.683 117.459 138.675Z" fill="#263238"/>
<g opacity="0.2">
<path opacity="0.2" d="M81.9793 96.6675C81.9304 97.8915 82.2609 99.14 83.2809 99.8295C82.0038 100.45 81.3225 101.935 81.2817 103.355C81.2409 104.774 81.7345 106.153 82.269 107.471C83.9214 111.523 87.4465 117.227 90.1353 120.678C90.1353 120.678 88.7725 117.006 88.3809 116.145C86.6101 112.273 85.0475 108.393 83.2727 104.509C83.0769 104.101 82.726 102.91 82.726 102.91C82.9191 102.815 83.0977 102.692 83.2564 102.547C84.2519 101.731 86.4102 100.299 86.4102 100.299C86.4102 100.299 81.9793 96.7899 81.9793 96.6675Z" fill="black"/>
</g>
<path d="M81.9184 104.991C81.9756 104.991 81.8736 109.703 81.6859 115.509C81.4982 121.315 81.3023 126.023 81.2452 126.019C81.1881 126.015 81.286 121.311 81.4737 115.501C81.6614 109.691 81.8572 104.987 81.9184 104.991Z" fill="#263238"/>
<path d="M88.9441 92.6164H88.5361C88.5361 92.4614 89.1277 77.0268 89.5888 70.8823C89.6038 70.451 89.7068 70.0274 89.8913 69.6374C90.0758 69.2473 90.338 68.899 90.6618 68.6138C91.9348 67.5245 93.8401 67.6673 93.9258 67.6713L93.8932 68.0793C93.8728 68.0793 92.0735 67.9488 90.9311 68.9239C90.649 69.1755 90.4208 69.4816 90.2602 69.8238C90.0996 70.166 90.01 70.5372 89.9968 70.9149C89.548 77.0145 88.9645 92.4451 88.9441 92.6164Z" fill="#263238"/>
<path d="M92.7671 118.435H92.0449V117.619H92.7671C93.5245 117.619 94.251 117.318 94.7866 116.782C95.3222 116.246 95.6231 115.52 95.6231 114.763V106.121H96.4391V114.763C96.4391 115.736 96.0522 116.67 95.3636 117.359C94.6749 118.048 93.741 118.435 92.7671 118.435Z" fill="#455A64"/>
<path d="M93.0607 118.125C93.0438 118.297 92.976 118.461 92.866 118.595C92.7559 118.729 92.6086 118.828 92.4426 118.878C92.2766 118.929 92.0994 118.929 91.9334 118.878C91.7673 118.828 91.62 118.73 91.5099 118.596C91.3998 118.461 91.3319 118.298 91.3148 118.125C91.2977 117.952 91.3322 117.779 91.4139 117.626C91.4957 117.473 91.6209 117.347 91.7739 117.265C91.9268 117.184 92.1006 117.149 92.2733 117.166C92.5044 117.19 92.7169 117.304 92.8643 117.483C93.0118 117.663 93.0824 117.893 93.0607 118.125Z" fill="#263238"/>
<path d="M85.7086 118.414H84.9865C84.0126 118.414 83.0786 118.027 82.39 117.339C81.7013 116.65 81.3145 115.716 81.3145 114.742L81.3471 106.101H82.1631L82.1305 114.742C82.1305 115.5 82.4314 116.226 82.967 116.762C83.5026 117.297 84.229 117.598 84.9865 117.598H85.7086V118.414Z" fill="#455A64"/>
<path d="M84.6971 118.1C84.7139 118.271 84.7813 118.434 84.8906 118.568C85 118.701 85.1464 118.799 85.3114 118.849C85.4765 118.9 85.6527 118.9 85.8179 118.85C85.9831 118.8 86.1298 118.703 86.2396 118.57C86.3493 118.437 86.4172 118.274 86.4346 118.102C86.4521 117.931 86.4183 117.758 86.3375 117.605C86.2567 117.453 86.1326 117.328 85.9808 117.246C85.829 117.164 85.6563 117.129 85.4845 117.145C85.37 117.156 85.2588 117.189 85.1572 117.243C85.0556 117.297 84.9656 117.37 84.8924 117.459C84.8192 117.547 84.7643 117.65 84.7308 117.76C84.6973 117.87 84.6858 117.985 84.6971 118.1Z" fill="#263238"/>
<path d="M81.1067 107.096L81.0047 100.935C80.9272 96.2393 84.3585 92.3674 88.6547 92.2898C89.7011 92.2805 90.7377 92.4915 91.6972 92.909C92.6567 93.3266 93.5176 93.9413 94.2239 94.7134C95.7251 96.3375 96.5673 98.4627 96.5862 100.674L96.6882 106.839L95.4642 106.86L95.3622 100.695C95.3474 98.7853 94.6198 96.9504 93.3222 95.5498C92.7344 94.9002 92.0156 94.3826 91.2132 94.0309C90.4108 93.6793 89.543 93.5017 88.667 93.5098C85.0439 93.571 82.139 96.888 82.2206 100.911L82.3226 107.072L81.1067 107.096Z" fill="#263238"/>
<path d="M115.958 92.8446C115.958 92.6814 114.085 76.6429 113.546 71.5021L113.51 71.1268C113.342 69.3805 113.147 67.4058 111.217 66.8836L111.323 66.4756C113.526 67.0713 113.742 69.2908 113.918 71.0737L113.954 71.445C114.489 76.5858 116.345 92.6243 116.362 92.7875L115.958 92.8446Z" fill="#263238"/>
<path d="M119.259 93.1913C120.969 91.4817 120.969 88.7098 119.259 87.0001C117.549 85.2905 114.777 85.2905 113.068 87.0001C111.358 88.7098 111.358 91.4817 113.068 93.1913C114.777 94.901 117.549 94.901 119.259 93.1913Z" fill="#263238"/>
<path d="M118.276 90.0951C118.276 90.5141 118.151 90.9236 117.918 91.2719C117.686 91.6202 117.355 91.8917 116.967 92.0518C116.58 92.212 116.154 92.2536 115.743 92.1716C115.333 92.0896 114.955 91.8875 114.659 91.5909C114.363 91.2944 114.162 90.9167 114.081 90.5057C113.999 90.0946 114.042 89.6688 114.203 89.2819C114.364 88.895 114.636 88.5646 114.985 88.3324C115.333 88.1002 115.743 87.9767 116.162 87.9775C116.44 87.9775 116.715 88.0323 116.972 88.1388C117.229 88.2453 117.462 88.4013 117.658 88.598C117.854 88.7947 118.01 89.0281 118.116 89.285C118.222 89.5419 118.276 89.8172 118.276 90.0951Z" fill="#455A64"/>
<path d="M90.2785 121.005L84.7827 134.522L128.622 146.676C130.626 147.235 132.729 147.341 134.78 146.988C136.83 146.636 138.777 145.832 140.479 144.636C145.065 141.401 146.191 135.742 145.632 130.14L144.84 124.183L90.2785 121.005Z" fill="#ED893E"/>
<path d="M136.725 135.676C136.68 135.676 136.587 134.754 136.134 133.33C136.017 132.941 135.881 132.559 135.726 132.184C135.571 131.776 135.354 131.368 135.138 130.911C134.635 129.966 134.043 129.071 133.372 128.238C132.687 127.416 131.928 126.659 131.103 125.978C130.695 125.68 130.344 125.382 129.973 125.162C129.637 124.931 129.29 124.717 128.933 124.522C127.627 123.799 126.733 123.522 126.75 123.477C126.963 123.521 127.173 123.585 127.374 123.669C127.618 123.748 127.856 123.842 128.088 123.95C128.361 124.077 128.68 124.203 129.006 124.391C129.373 124.579 129.728 124.787 130.071 125.015C130.45 125.244 130.826 125.542 131.225 125.831C132.069 126.513 132.844 127.275 133.539 128.108C134.218 128.952 134.811 129.863 135.31 130.825C135.526 131.278 135.738 131.702 135.889 132.123C136.047 132.503 136.183 132.893 136.297 133.289C136.399 133.613 136.483 133.943 136.546 134.277C136.611 134.53 136.656 134.788 136.68 135.048C136.714 135.256 136.729 135.466 136.725 135.676Z" fill="#263238"/>
<g opacity="0.2">
<path opacity="0.2" d="M83.8032 126.758C80.4576 127.035 77.875 127.341 74.4192 127.766C72.2609 128.031 70.021 127.88 69.3151 125.828C68.6093 123.775 69.0581 121.425 70.2168 119.585C71.3755 117.745 73.1952 113.465 82.9382 116.729L83.8032 126.758Z" fill="black"/>
</g>
<path d="M88.3159 126.166L88.3404 126.076L88.4342 125.807L88.8014 124.779L90.209 120.98L90.2294 120.927H90.2825L105.195 122.278L119.622 123.649L123.991 124.085L125.179 124.216L125.485 124.257C125.521 124.258 125.557 124.264 125.591 124.277H125.485H125.175L123.983 124.187L119.605 123.812L105.174 122.506L90.2702 121.09L90.3437 121.041L88.8749 124.82L88.4669 125.831L88.3567 126.093C88.3363 126.141 88.32 126.17 88.3159 126.166Z" fill="#263238"/>
<g opacity="0.2">
<path opacity="0.2" d="M106.354 140.107C112.58 141.776 116.366 140.809 122.021 137.717C123.179 137.037 124.291 136.282 125.35 135.456C126.156 134.797 126.874 134.036 127.484 133.192C120.201 135.979 114.15 138.088 106.643 140.185" fill="black"/>
</g>
<path d="M88.336 126.019L89.7599 122.041L86.451 116.868C86.1646 116.42 85.7896 116.035 85.349 115.736C84.9084 115.438 84.4115 115.233 83.8888 115.134L71.7141 112.837C71.5627 113.293 71.5837 113.788 71.7732 114.23C71.9627 114.671 72.3074 115.028 72.7422 115.232C74.3375 116.142 81.5142 117.81 81.5142 117.81L70.4615 117.623C70.4615 117.623 70.1188 119.218 71.3713 119.789C72.6239 120.36 80.4983 120.65 80.4983 120.65L70.4166 122.07C70.4166 122.07 70.3595 123.669 72.6647 123.702C74.9349 123.675 77.2023 123.532 79.4579 123.274C79.5513 123.261 79.646 123.284 79.7222 123.34C79.7983 123.396 79.8499 123.479 79.8659 123.571C79.8797 123.661 79.8593 123.753 79.8087 123.829C79.758 123.904 79.6809 123.958 79.5925 123.979L72.8891 125.562C72.696 125.606 72.5226 125.712 72.3961 125.864C72.2695 126.017 72.1969 126.206 72.1894 126.404C72.182 126.602 72.2401 126.797 72.3549 126.958C72.4696 127.12 72.6345 127.239 72.8238 127.296C72.9453 127.326 73.0709 127.334 73.1951 127.321C74.3375 127.207 81.1593 126.342 81.1593 126.342L81.5142 127.137L88.336 126.028" fill="#B78876"/>
<path d="M83.33 124.791C83.2373 124.571 83.1106 124.368 82.9547 124.187C82.7744 124.003 82.5537 123.863 82.31 123.779C82.0091 123.687 81.6935 123.653 81.3798 123.677C80.7025 123.726 80.0905 123.922 79.6335 123.979C79.3869 124.039 79.1295 124.039 78.8828 123.979C79.1202 123.912 79.3613 123.859 79.605 123.82C80.1815 123.65 80.771 123.527 81.3675 123.453C81.7102 123.426 82.0547 123.471 82.3794 123.583C82.6436 123.686 82.8789 123.851 83.0648 124.065C83.1626 124.157 83.2375 124.27 83.2835 124.397C83.3296 124.523 83.3455 124.658 83.33 124.791Z" fill="#AA6550"/>
<path d="M84.4318 121.76C84.4114 121.76 84.3992 121.65 84.3094 121.474C84.177 121.231 83.9754 121.032 83.7301 120.903C83.114 120.544 82.0736 120.662 80.9802 120.736C79.8867 120.809 78.883 120.972 78.1609 121.066C77.7734 121.14 77.3802 121.179 76.9858 121.184C77.3596 121.058 77.745 120.969 78.1364 120.919C79.0701 120.736 80.0124 120.6 80.9598 120.511C81.4833 120.464 82.009 120.443 82.5346 120.45C82.9776 120.439 83.4154 120.546 83.8035 120.76C84.0661 120.912 84.2701 121.148 84.3829 121.429C84.4338 121.531 84.451 121.647 84.4318 121.76Z" fill="#AA6550"/>
<path d="M85.272 119.997C85.2626 119.674 85.1744 119.357 85.015 119.075C84.8331 118.78 84.5808 118.535 84.2806 118.361C83.9002 118.162 83.4843 118.04 83.0566 118.002C82.1427 117.916 81.2859 118.002 80.6616 117.953C80.3224 117.953 79.9882 117.872 79.6865 117.716C79.6865 117.684 80.0619 117.794 80.6698 117.806C81.2777 117.818 82.1223 117.704 83.0811 117.806C83.5372 117.844 83.9792 117.983 84.3745 118.214C84.6991 118.412 84.9642 118.694 85.1415 119.03C85.2646 119.252 85.3279 119.503 85.3251 119.756C85.3169 119.907 85.272 119.997 85.272 119.997Z" fill="#AA6550"/>
<path d="M124.795 119.985C124.796 119.763 124.816 119.542 124.856 119.324C124.909 118.916 125.011 118.287 125.154 117.537C125.435 116.035 125.933 113.983 126.46 111.719C126.925 109.79 127.281 107.837 127.524 105.868C127.573 105.489 127.594 105.146 127.622 104.844C127.651 104.542 127.667 104.285 127.675 104.069C127.673 103.847 127.693 103.626 127.733 103.408C127.759 103.628 127.767 103.851 127.757 104.073C127.757 104.285 127.757 104.55 127.757 104.852C127.757 105.154 127.733 105.501 127.688 105.88C127.489 107.863 127.154 109.831 126.684 111.768C126.154 114.036 125.635 116.076 125.317 117.569C125.158 118.312 125.032 118.92 124.954 119.336C124.919 119.556 124.865 119.773 124.795 119.985Z" fill="#263238"/>
<path d="M129.026 146.749C128.944 146.748 128.863 146.734 128.785 146.709L128.108 146.558L125.627 145.946C123.534 145.419 120.65 144.656 117.467 143.775C114.285 142.894 111.433 142.049 109.373 141.417L106.925 140.658L106.264 140.438C106.2 140.416 106.138 140.387 106.08 140.352C106.161 140.357 106.24 140.374 106.317 140.401L106.99 140.581L109.438 141.278L117.549 143.575L125.664 145.803L128.112 146.476L128.781 146.668C128.865 146.686 128.947 146.714 129.026 146.749Z" fill="#263238"/>
<path d="M87.0269 28.4093C87.9245 25.639 92.5226 23.138 95.0441 21.6855C98.8181 19.519 102.315 19.9515 104.469 21.8813C108.361 18.6173 113.49 15.4757 118.406 16.7609C123.323 18.0461 127.317 23.0809 126.419 28.087C125.893 31.0369 123.849 33.6807 123.971 36.655C124.053 38.695 125.134 40.5392 126.011 42.3915C126.888 44.2438 127.533 46.3981 126.766 48.2912C126.052 50.0497 124.269 51.1472 123.31 52.7792C122.527 54.1174 122.347 55.7086 121.846 57.1734C119.993 62.5998 113.588 65.6434 107.933 64.6887C102.278 63.734 97.5655 59.4786 94.8768 54.403C92.1881 49.3275 91.3231 43.5013 91.013 37.777" fill="#263238"/>
<path d="M91.1924 32.2322L92.3225 77.4794C92.7305 82.6651 97.5082 86.4555 103.057 85.974C108.659 85.4926 112.939 80.8536 112.616 75.6067C112.278 70.1028 112.025 64.297 112.025 64.297C112.025 64.297 119.038 62.665 119.912 53.3136C120.356 48.5237 119.581 40.6656 118.769 34.4395C118.61 33.1982 118.201 32.002 117.568 30.9227C116.934 29.8435 116.089 28.9036 115.083 28.1596C114.076 27.4155 112.93 26.8828 111.712 26.5934C110.495 26.3039 109.231 26.2638 107.998 26.4754" fill="#B78876"/>
<path d="M116.688 41.1267C116.712 41.4355 116.614 41.7414 116.415 41.9786C116.216 42.2158 115.932 42.3656 115.623 42.3956C115.473 42.418 115.32 42.41 115.173 42.3721C115.026 42.3343 114.888 42.2674 114.768 42.1753C114.647 42.0832 114.546 41.9679 114.471 41.8362C114.396 41.7044 114.348 41.5589 114.33 41.4082C114.307 41.0992 114.405 40.7935 114.604 40.5558C114.803 40.3182 115.087 40.1673 115.395 40.1353C115.545 40.1135 115.698 40.1221 115.845 40.1604C115.992 40.1987 116.13 40.266 116.25 40.3584C116.371 40.4508 116.472 40.5664 116.547 40.6983C116.622 40.8303 116.67 40.9759 116.688 41.1267Z" fill="#263238"/>
<path d="M117.868 39.919C117.729 40.0822 116.786 39.4742 115.509 39.5599C114.232 39.6456 113.339 40.3433 113.192 40.1964C113.118 40.1311 113.249 39.8455 113.637 39.5191C114.165 39.0998 114.811 38.8546 115.485 38.8174C116.148 38.7737 116.808 38.9408 117.37 39.2947C117.782 39.5762 117.933 39.8414 117.868 39.919Z" fill="#263238"/>
<path d="M104.448 42.4075C104.473 42.7169 104.375 43.0238 104.176 43.262C103.977 43.5001 103.692 43.6504 103.383 43.6804C103.233 43.7022 103.08 43.6937 102.933 43.6553C102.786 43.617 102.648 43.5497 102.527 43.4573C102.407 43.3649 102.306 43.2493 102.231 43.1174C102.156 42.9854 102.108 42.8398 102.09 42.689C102.067 42.38 102.165 42.0742 102.364 41.8366C102.563 41.5989 102.846 41.4481 103.155 41.416C103.305 41.3943 103.458 41.4028 103.605 41.4411C103.752 41.4795 103.89 41.5468 104.01 41.6392C104.131 41.7316 104.232 41.8472 104.307 41.9791C104.382 42.111 104.43 42.2567 104.448 42.4075Z" fill="#263238"/>
<path d="M105.329 40.9673C105.19 41.1305 104.248 40.5226 102.971 40.6083C101.694 40.6939 100.8 41.3916 100.653 41.2447C100.58 41.1795 100.71 40.8939 101.102 40.5675C101.63 40.1489 102.274 39.9038 102.946 39.8657C103.609 39.822 104.269 39.9891 104.831 40.3431C105.264 40.6205 105.394 40.8898 105.329 40.9673Z" fill="#263238"/>
<path d="M110.568 50.1355C110.568 50.0661 111.339 49.8785 112.608 49.6296C112.93 49.5765 113.236 49.4909 113.277 49.2624C113.283 48.9242 113.184 48.5923 112.995 48.3118C112.64 47.5406 112.265 46.7369 111.873 45.8923C110.307 42.4406 109.148 39.5969 109.287 39.5357C109.425 39.4745 110.809 42.2203 112.379 45.6557C112.755 46.5043 113.118 47.3162 113.461 48.1037C113.694 48.4829 113.783 48.933 113.713 49.3726C113.674 49.4905 113.607 49.5978 113.52 49.6862C113.432 49.7746 113.325 49.8418 113.208 49.8825C113.031 49.9441 112.847 49.9812 112.661 49.9927C111.384 50.1518 110.568 50.2089 110.568 50.1355Z" fill="#263238"/>
<path d="M112.029 64.2805C107.676 64.6285 103.311 63.7613 99.4219 61.7754C99.4219 61.7754 102.927 68.0055 112.131 66.5408L112.029 64.2805Z" fill="#AA6550"/>
<path d="M105.337 35.9406C105.231 36.2956 103.946 36.214 102.461 36.4914C100.976 36.7689 99.7887 37.2544 99.5684 36.9565C99.4704 36.8137 99.6622 36.471 100.127 36.1038C100.749 35.6439 101.47 35.3378 102.233 35.2103C102.994 35.0699 103.778 35.1105 104.521 35.3286C105.085 35.5163 105.378 35.7733 105.337 35.9406Z" fill="#263238"/>
<path d="M117.157 36.2511C116.953 36.5571 116.051 36.3123 114.995 36.3653C113.938 36.4183 113.053 36.6876 112.828 36.3979C112.726 36.2551 112.828 35.9573 113.236 35.6554C113.741 35.2925 114.342 35.0879 114.963 35.0676C115.584 35.0473 116.197 35.2121 116.725 35.5411C117.096 35.8145 117.247 36.1042 117.157 36.2511Z" fill="#263238"/>
<path d="M108.594 52.5384C109.593 52.5384 110.091 52.8322 110.94 53.3544C111.195 53.4891 111.405 53.6963 111.543 53.9501C111.609 54.1324 111.631 54.3273 111.609 54.5197C111.587 54.7121 111.522 54.8969 111.417 55.0599C111.208 55.4304 110.898 55.7336 110.523 55.9339C110.148 56.1341 109.723 56.223 109.299 56.19C108.877 56.1456 108.479 55.9704 108.16 55.6888C107.842 55.4072 107.62 55.0333 107.525 54.6192C107.446 54.2018 107.508 53.7699 107.701 53.3917C107.895 53.0134 108.209 52.7104 108.594 52.5303" fill="#AA6550"/>
<path d="M111.984 54.6723C111.984 54.7702 111.666 54.9171 111.107 54.8845C110.4 54.8189 109.717 54.5958 109.108 54.2317C108.493 53.8896 107.949 53.4342 107.504 52.8893C107.174 52.4814 107.072 52.1223 107.157 52.0734C107.325 51.9632 108.165 52.8445 109.487 53.5707C110.034 53.8862 110.609 54.1499 111.205 54.3581C111.662 54.5132 111.972 54.5662 111.984 54.6723Z" fill="#263238"/>
<path d="M105.68 46.708C105.867 46.708 106.019 46.5564 106.019 46.3694C106.019 46.1824 105.867 46.0308 105.68 46.0308C105.493 46.0308 105.342 46.1824 105.342 46.3694C105.342 46.5564 105.493 46.708 105.68 46.708Z" fill="#AA6550"/>
<path d="M115.607 44.7088C115.607 44.7757 115.587 44.8412 115.55 44.8969C115.513 44.9526 115.46 44.996 115.398 45.0216C115.336 45.0473 115.268 45.054 115.202 45.0409C115.137 45.0278 115.076 44.9956 115.029 44.9482C114.982 44.9009 114.949 44.8405 114.936 44.7748C114.923 44.7091 114.93 44.641 114.955 44.5792C114.981 44.5173 115.024 44.4644 115.08 44.4272C115.136 44.39 115.201 44.3701 115.268 44.3701C115.358 44.3701 115.444 44.4058 115.508 44.4693C115.571 44.5328 115.607 44.6189 115.607 44.7088Z" fill="#AA6550"/>
<path d="M117.479 45.5901C117.485 45.6379 117.48 45.6864 117.465 45.7322C117.45 45.7781 117.426 45.8203 117.394 45.8561C117.362 45.892 117.322 45.9207 117.278 45.9403C117.234 45.96 117.187 45.9701 117.139 45.9701C117.09 45.9701 117.043 45.96 116.999 45.9403C116.955 45.9207 116.916 45.892 116.883 45.8561C116.851 45.8203 116.827 45.7781 116.812 45.7322C116.798 45.6864 116.793 45.6379 116.798 45.5901C116.807 45.5061 116.847 45.4285 116.91 45.3722C116.973 45.3158 117.054 45.2847 117.139 45.2847C117.223 45.2847 117.305 45.3158 117.367 45.3722C117.43 45.4285 117.47 45.5061 117.479 45.5901Z" fill="#AA6550"/>
<path d="M118.047 44.1746C118.047 44.2416 118.027 44.307 117.99 44.3627C117.953 44.4184 117.9 44.4618 117.838 44.4874C117.776 44.5131 117.708 44.5198 117.642 44.5067C117.577 44.4936 117.516 44.4614 117.469 44.414C117.421 44.3667 117.389 44.3063 117.376 44.2406C117.363 44.175 117.37 44.1069 117.395 44.045C117.421 43.9831 117.464 43.9302 117.52 43.893C117.576 43.8558 117.641 43.8359 117.708 43.8359C117.798 43.8359 117.884 43.8716 117.948 43.9351C118.011 43.9986 118.047 44.0848 118.047 44.1746Z" fill="#AA6550"/>
<path d="M104.469 47.8665C104.469 47.9344 104.45 48.0011 104.413 48.058C104.376 48.1149 104.322 48.1594 104.26 48.186C104.197 48.2126 104.128 48.2199 104.062 48.2072C103.995 48.1944 103.933 48.1621 103.885 48.1143C103.837 48.0666 103.804 48.0055 103.79 47.9389C103.777 47.8723 103.783 47.8032 103.809 47.7404C103.835 47.6775 103.879 47.6237 103.935 47.5859C103.992 47.548 104.058 47.5278 104.126 47.5278C104.216 47.5278 104.303 47.5634 104.367 47.6268C104.431 47.6902 104.468 47.7763 104.469 47.8665Z" fill="#AA6550"/>
<path d="M103.195 46.5125C103.195 46.5794 103.175 46.6449 103.138 46.7006C103.101 46.7563 103.048 46.7997 102.986 46.8253C102.924 46.851 102.856 46.8577 102.791 46.8446C102.725 46.8315 102.665 46.7993 102.617 46.7519C102.57 46.7046 102.538 46.6442 102.525 46.5785C102.512 46.5128 102.518 46.4448 102.544 46.3829C102.569 46.321 102.613 46.2681 102.669 46.2309C102.724 46.1937 102.79 46.1738 102.857 46.1738C102.947 46.1738 103.033 46.2095 103.096 46.273C103.16 46.3365 103.195 46.4227 103.195 46.5125Z" fill="#AA6550"/>
<path d="M108.744 42.4079C108.706 41.9268 108.631 41.4494 108.52 40.9799C108.184 39.7038 107.428 38.5783 106.374 37.7852C105.654 37.2384 104.815 36.8694 103.926 36.7081C102.906 36.5216 101.856 36.6103 100.882 36.9651C100.357 37.1524 99.8647 37.4194 99.4214 37.7567C98.9519 38.0981 98.5388 38.5111 98.1974 38.9807C97.4686 39.9724 97.0755 41.171 97.0755 42.4017C97.0755 43.6325 97.4686 44.8311 98.1974 45.8228C98.8734 46.7509 99.8068 47.4601 100.882 47.8628C101.856 48.2177 102.906 48.3064 103.926 48.1199C104.815 47.9586 105.654 47.5895 106.374 47.0427C107.427 46.2503 108.183 45.1264 108.52 43.8522C108.631 43.3826 108.706 42.9052 108.744 42.4242C108.75 42.4552 108.75 42.487 108.744 42.518V42.7995C108.744 42.9526 108.732 43.1054 108.707 43.2565C108.687 43.463 108.65 43.6677 108.597 43.8685C108.469 44.4286 108.254 44.9654 107.961 45.4597C107.26 46.659 106.161 47.5746 104.855 48.0473C103.549 48.5199 102.119 48.5196 100.813 48.0464C100.268 47.8527 99.7567 47.5776 99.2949 47.2304C98.8064 46.8786 98.3779 46.4501 98.026 45.9615C97.2659 44.9365 96.8555 43.6942 96.8555 42.4181C96.8555 41.1419 97.2659 39.8996 98.026 38.8746C98.3779 38.386 98.8064 37.9576 99.2949 37.6057C99.7567 37.2585 100.268 36.9834 100.813 36.7897C101.819 36.4286 102.904 36.344 103.954 36.5449C104.785 36.7058 105.571 37.0415 106.262 37.5297C106.953 38.0179 107.532 38.6474 107.961 39.3764C108.253 39.8711 108.468 40.4077 108.597 40.9676C108.65 41.1697 108.687 41.3757 108.707 41.5837C108.732 41.7334 108.744 41.8849 108.744 42.0366V42.3181C108.749 42.3478 108.749 42.3782 108.744 42.4079Z" fill="white"/>
<path d="M111.302 40.6247C110.848 40.4998 110.378 40.4447 109.907 40.4615C109.443 40.5455 108.993 40.6967 108.573 40.9103C108.573 40.9103 108.658 40.7552 108.887 40.6002C109.187 40.4067 109.528 40.2865 109.882 40.2493C110.239 40.2089 110.601 40.2565 110.935 40.388C111.188 40.49 111.315 40.6002 111.302 40.6247Z" fill="white"/>
<path d="M107.573 25.1532C106.757 32.5257 101.274 39.1639 94.1988 41.3997C96.4795 44.6882 95.0434 50.9469 95.1005 56.1693C95.1576 61.0245 95.1535 62.4117 92.0079 64.8883C89.4089 65.5125 87.9279 58.3929 85.9776 56.4019C84.0274 54.4108 82.1955 51.9588 82.3383 49.1925C82.4076 47.8951 82.9135 46.6548 82.9829 45.3614C83.0645 43.9252 82.6035 42.5054 82.3505 41.106C81.2244 34.8432 84.4558 28.1071 89.9271 24.8308C95.3983 21.5546 102.665 21.7749 108.079 25.1246" fill="#263238"/>
<path d="M91.9592 55.4636C91.2811 53.082 90.1154 50.8673 88.5361 48.9601L88.6544 49.213C88.1665 48.1004 87.4318 47.1133 86.5061 46.3266C85.5803 45.5398 84.4877 44.974 83.3109 44.6719C82.1342 44.3698 80.9041 44.3394 79.7138 44.583C78.5236 44.8266 77.4044 45.3378 76.4409 46.0779C75.4774 46.8179 74.6949 47.7675 74.1526 48.8547C73.6103 49.9419 73.3225 51.1382 73.3109 52.353C73.2993 53.5679 73.5643 54.7695 74.0857 55.8668C74.6071 56.9642 75.3714 57.9285 76.3206 58.6868C75.4026 58.4828 74.4723 59.2743 74.2806 60.1923C74.2094 60.6593 74.2338 61.1359 74.3523 61.5932C74.4709 62.0504 74.681 62.4789 74.9701 62.8525C76.8836 65.6514 81.2206 66.3898 83.9461 64.3825C86.1085 65.8472 89.3031 64.9945 90.9066 62.9341C92.51 60.8737 92.6977 57.9687 91.9592 55.4636Z" fill="#263238"/>
<path d="M83.1992 44.6638C83.1142 44.5837 83.0364 44.4964 82.9666 44.4027C82.7767 44.1296 82.6385 43.824 82.5586 43.501C82.3097 42.6565 82.4281 41.3223 83.0972 39.9106C83.4608 39.1377 83.9612 38.4369 84.5741 37.8421C85.2454 37.136 85.9894 36.5028 86.7937 35.953C87.6835 35.34 88.6543 34.8539 89.6782 34.5087C90.7349 34.1456 91.8569 33.8641 92.9993 33.5785C94.1417 33.2929 95.2597 33.0113 96.3041 32.6441C97.3111 32.2971 98.2892 31.8715 99.2295 31.3712C100.82 30.5243 102.299 29.4827 103.632 28.2704C104.53 27.4489 105.36 26.5551 106.112 25.598C106.382 25.2593 106.578 24.986 106.712 24.782C106.776 24.6857 106.848 24.5956 106.928 24.5127C106.875 24.6146 106.816 24.7128 106.749 24.8065C106.622 24.9982 106.439 25.2797 106.178 25.6225C105.446 26.6058 104.627 27.5207 103.73 28.3561C102.395 29.5943 100.909 30.6582 99.307 31.5221C98.3592 32.03 97.3729 32.4625 96.3572 32.8155C95.3005 33.1868 94.1785 33.4724 93.0361 33.7621C91.8937 34.0517 90.7757 34.3251 89.7272 34.6801C88.7154 35.0167 87.7544 35.4903 86.8712 36.0877C86.0764 36.6295 85.3383 37.2501 84.668 37.94C84.0709 38.53 83.5844 39.2223 83.2318 39.9841C82.5586 41.359 82.4158 42.6605 82.6402 43.4888C82.7442 43.9146 82.9344 44.3145 83.1992 44.6638Z" fill="#455A64"/>
<path d="M106.921 24.5332C106.862 24.615 106.798 24.6927 106.729 24.7658C106.598 24.9167 106.398 25.1289 106.141 25.4022C105.401 26.1638 104.615 26.8792 103.787 27.5442C102.563 28.5507 101.2 29.3752 99.7398 29.9922C98.8632 30.3161 97.9592 30.5606 97.0388 30.7226C96.0882 30.9143 95.0968 31.0612 94.0849 31.2162C92.1786 31.4441 90.296 31.8387 88.4586 32.3954C86.9678 32.882 85.5832 33.6476 84.3786 34.6516C83.5687 35.3306 82.9005 36.1624 82.412 37.0996C82.2848 37.3571 82.1718 37.6213 82.0734 37.8911C82.0445 37.9878 82.0048 38.0808 81.9551 38.1686C81.9741 38.0703 82 37.9735 82.0326 37.8789C82.114 37.5996 82.2163 37.3268 82.3386 37.0629C82.8054 36.0976 83.4666 35.2392 84.2807 34.5414C85.4863 33.507 86.8818 32.7171 88.3892 32.2158C90.2338 31.6396 92.1264 31.2299 94.0441 30.9918C95.06 30.8409 96.0474 30.6899 96.9899 30.5063C97.8998 30.3488 98.7941 30.1112 99.6623 29.7964C101.108 29.1957 102.462 28.395 103.685 27.4178C104.52 26.7687 105.319 26.0755 106.08 25.341L106.696 24.7372C106.764 24.6618 106.839 24.5935 106.921 24.5332Z" fill="#455A64"/>
<path d="M117.28 16.463C117.28 16.5079 116.484 16.5364 115.24 16.871C114.903 16.9588 114.57 17.0651 114.244 17.1892C113.89 17.3076 113.53 17.483 113.143 17.6544C111.493 18.4512 110.041 19.6052 108.892 21.0326C108.639 21.3712 108.386 21.6813 108.19 22.0036C107.995 22.291 107.816 22.5893 107.655 22.8972C107.056 24.0232 106.839 24.7984 106.807 24.7821C106.834 24.5982 106.88 24.4177 106.945 24.2436C107.004 24.0319 107.078 23.8247 107.166 23.6234C107.269 23.3446 107.389 23.0721 107.525 22.8074C107.677 22.489 107.85 22.1809 108.043 21.8853C108.235 21.5589 108.484 21.2366 108.736 20.8898C109.32 20.1663 109.978 19.5059 110.699 18.9192C111.432 18.3497 112.224 17.86 113.061 17.4585C113.428 17.2863 113.804 17.1351 114.187 17.0056C114.794 16.7927 115.42 16.637 116.056 16.5405C116.271 16.4988 116.49 16.4729 116.709 16.463C116.899 16.4407 117.09 16.4407 117.28 16.463Z" fill="#455A64"/>
<path d="M123.853 51.6899C123.853 51.6899 123.853 51.6613 123.914 51.6083L124.106 51.3839C124.277 51.184 124.534 50.8943 124.824 50.4904C125.189 50.0144 125.465 49.4768 125.64 48.9033C125.739 48.5464 125.769 48.1737 125.726 47.8057C125.668 47.395 125.529 46.9998 125.318 46.6429C124.877 45.88 124.155 45.2149 123.494 44.3908C122.008 42.531 121.053 40.3033 120.732 37.9444C120.6 36.6227 120.568 35.293 120.634 33.9664C120.699 32.6515 120.577 31.334 120.271 30.0537C119.945 28.9371 119.38 27.9044 118.617 27.0268C117.853 26.1492 116.909 25.4475 115.848 24.97C114.968 24.5757 114.021 24.3568 113.057 24.3254C111.264 24.253 109.498 24.7735 108.031 25.8064L107.786 25.9777C107.733 26.0145 107.704 26.0349 107.7 26.0308C108.082 25.6791 108.508 25.38 108.969 25.1414C110.222 24.4691 111.628 24.1358 113.049 24.1744C114.033 24.1986 115.003 24.4134 115.905 24.8068C116.996 25.2888 117.969 26.0033 118.756 26.9004C119.542 27.7975 120.123 28.8556 120.458 30.0006C120.77 31.2995 120.895 32.6363 120.83 33.9705C120.764 35.2875 120.795 36.6075 120.923 37.9199C121.234 40.2449 122.167 42.4427 123.624 44.2806C124.269 45.0966 124.995 45.7739 125.444 46.5695C125.662 46.9457 125.8 47.3621 125.852 47.7935C125.893 48.1789 125.857 48.5686 125.746 48.94C125.558 49.5237 125.264 50.0674 124.877 50.5434C124.644 50.8485 124.393 51.1401 124.126 51.4165L123.914 51.6287C123.896 51.6515 123.876 51.6721 123.853 51.6899Z" fill="#455A64"/>
<path d="M122.906 40.9672C122.868 40.4862 122.793 40.0088 122.682 39.5392C122.346 38.2632 121.59 37.1376 120.536 36.3446C119.761 35.7617 118.853 35.3818 117.894 35.2393C116.935 35.0967 115.955 35.1962 115.044 35.5286C113.969 35.9312 113.036 36.6405 112.36 37.5686C111.63 38.5594 111.237 39.7574 111.237 40.9876C111.237 42.2178 111.63 43.4158 112.36 44.4066C112.699 44.8778 113.112 45.2911 113.584 45.6306C114.028 45.9652 114.52 46.2307 115.044 46.4181C115.807 46.6954 116.62 46.8103 117.43 46.7555C118.24 46.7007 119.03 46.4775 119.749 46.1C120.468 45.7224 121.1 45.199 121.605 44.5632C122.11 43.9274 122.477 43.1931 122.682 42.4074C122.793 41.9379 122.868 41.4605 122.906 40.9794C122.912 41.0118 122.912 41.045 122.906 41.0774C122.906 41.1508 122.906 41.2446 122.906 41.3548C122.906 41.5079 122.894 41.6607 122.87 41.8118C122.849 42.0196 122.812 42.2256 122.759 42.4278C122.63 42.9877 122.415 43.5244 122.123 44.019C121.737 44.6766 121.229 45.2541 120.626 45.7204C119.834 46.3309 118.901 46.7318 117.913 46.8858C116.925 47.0399 115.915 46.9421 114.975 46.6017C114.43 46.4101 113.918 46.1348 113.457 45.7857C112.97 45.431 112.541 45.0013 112.188 44.5127C111.428 43.4886 111.017 42.2469 111.017 40.9713C111.017 39.6957 111.428 38.454 112.188 37.4298C112.54 36.9413 112.968 36.5128 113.457 36.161C113.919 35.8138 114.431 35.5386 114.975 35.345C115.981 34.9827 117.066 34.8967 118.116 35.0961C118.949 35.2588 119.738 35.5978 120.429 36.0904C121.12 36.583 121.698 37.2178 122.123 37.9521C122.416 38.445 122.631 38.9804 122.759 39.5392C122.812 39.7415 122.849 39.9474 122.87 40.1553C122.894 40.3064 122.906 40.4592 122.906 40.6122C122.906 40.7224 122.906 40.8162 122.906 40.8938C122.91 40.9181 122.91 40.9429 122.906 40.9672Z" fill="white"/>
<path d="M91.951 65.0397C91.8786 65.0039 91.8114 64.9586 91.751 64.9051C91.6246 64.8112 91.445 64.6684 91.2084 64.4971C90.5488 63.9688 89.9296 63.3919 89.3561 62.7712C88.4709 61.8554 87.8651 60.7061 87.6098 59.4583C87.5252 58.7216 87.4925 57.98 87.5119 57.2388C87.5258 56.4622 87.3039 55.6997 86.8754 55.0519C86.3953 54.4297 85.8615 53.8508 85.2802 53.322C84.7411 52.7999 84.2966 52.1884 83.9664 51.5145C83.6741 50.9048 83.4603 50.2604 83.3299 49.5969C83.2071 49.0218 83.151 48.4345 83.1626 47.8466C83.1626 47.304 83.2891 46.8307 83.3381 46.4145C83.3859 46.0588 83.3941 45.699 83.3626 45.3415C83.2932 44.754 83.1789 44.4398 83.1993 44.4316C83.2369 44.5032 83.267 44.5784 83.2891 44.656C83.3572 44.8763 83.409 45.1014 83.4442 45.3292C83.488 45.6938 83.488 46.0622 83.4442 46.4268C83.4074 46.8348 83.3095 47.3244 83.2973 47.8507C83.3034 49.0888 83.582 50.3104 84.1133 51.4288C84.4379 52.0806 84.8727 52.6713 85.3985 53.1751C85.9946 53.7091 86.5408 54.2964 87.0305 54.9295C87.2675 55.2703 87.4429 55.6501 87.5486 56.0515C87.6422 56.4378 87.6928 56.8332 87.6996 57.2306C87.6794 57.9634 87.708 58.6967 87.7853 59.4256C88.022 60.6477 88.5974 61.7787 89.4458 62.6896C90.0061 63.3149 90.6071 63.9024 91.2451 64.4481L91.8 64.8724C91.8557 64.9231 91.9062 64.9792 91.951 65.0397Z" fill="#455A64"/>
<path d="M87.3121 55.5371C87.3192 55.5926 87.3192 55.6489 87.3121 55.7044C87.3121 55.8146 87.3121 55.9737 87.2795 56.1818C87.2105 56.7682 87.0736 57.3446 86.8715 57.8994C86.2268 59.7616 84.9468 61.3373 83.2561 62.3497C81.5654 63.3622 79.5722 63.7468 77.6262 63.436C77.0433 63.3479 76.4724 63.1932 75.9248 62.975C75.729 62.9015 75.5862 62.8199 75.4883 62.775C75.3903 62.7302 75.3414 62.6975 75.3455 62.6894C76.0909 62.9646 76.8617 63.1655 77.6466 63.2891C78.4996 63.3993 79.3642 63.3841 80.2129 63.2442C82.3146 62.9222 84.2068 61.7901 85.4843 60.0904C86.0074 59.4086 86.428 58.654 86.7327 57.8505C86.9988 57.0995 87.1928 56.3249 87.3121 55.5371Z" fill="#455A64"/>
<path d="M85.7412 53.6196C85.7242 53.81 85.6845 53.9977 85.6229 54.1786C85.4783 54.6788 85.2856 55.1639 85.0476 55.627C84.2536 57.1648 83.0507 58.4537 81.5714 59.352C80.0886 60.2403 78.4032 60.7347 76.6754 60.7882C76.1559 60.8041 75.636 60.7768 75.121 60.7066C74.931 60.6894 74.7435 60.6511 74.562 60.5923C75.2639 60.6428 75.9679 60.6578 76.6714 60.6372C78.3648 60.5436 80.0101 60.0396 81.4654 59.1684C82.9126 58.2865 84.1029 57.04 84.9171 55.5536C85.2338 54.9276 85.5091 54.2816 85.7412 53.6196Z" fill="#455A64"/>
<path d="M73.8071 49.556C73.9191 49.4686 74.0427 49.3972 74.1743 49.3438C74.3203 49.2651 74.4716 49.197 74.6272 49.1398C74.8309 49.0545 75.0393 48.9809 75.2515 48.9195C75.8008 48.7546 76.3653 48.6452 76.9365 48.5931C77.6364 48.532 78.3407 48.5457 79.0377 48.6339C79.7337 48.7321 80.4174 48.9031 81.0777 49.1439C81.6139 49.3498 82.1279 49.6095 82.6118 49.9191C82.7976 50.0359 82.9761 50.164 83.1462 50.3026C83.2814 50.3994 83.4083 50.5072 83.5257 50.6249C83.6344 50.7162 83.7317 50.8203 83.8154 50.935C83.7868 50.9677 83.3584 50.527 82.5302 50.0456C82.0459 49.7603 81.5365 49.5199 81.0083 49.3275C80.3584 49.1052 79.6891 48.944 79.0091 48.8461C78.3326 48.7611 77.6495 48.7406 76.9691 48.7849C76.4083 48.8284 75.8525 48.9227 75.3086 49.0664C74.362 49.3112 73.8479 49.5927 73.8071 49.556Z" fill="#455A64"/>
<path d="M83.1998 48.8012C83.163 48.8461 80.5886 46.6592 77.4551 43.9052C74.3217 41.1512 71.8084 38.9113 71.8451 38.8664C71.8818 38.8215 74.4563 41.0125 77.5938 43.7624C80.7314 46.5123 83.2324 48.7604 83.1998 48.8012Z" fill="#ED893E"/>
<path d="M94.9541 44.3335C95.1489 43.9514 95.4382 43.6255 95.7946 43.3869C96.1055 43.0906 96.4878 42.8797 96.9043 42.7749C96.6001 43.0602 96.2726 43.3195 95.9251 43.5501C95.6221 43.8359 95.2975 44.0978 94.9541 44.3335Z" fill="white"/>
<path d="M83.497 46.6306C83.4767 46.6052 83.459 46.5779 83.444 46.549C83.4073 46.4796 83.3624 46.398 83.3053 46.3001C83.147 45.97 83.0397 45.6179 82.987 45.2556C82.8363 43.8987 83.2229 42.5366 84.0642 41.4612C84.3298 41.1006 84.635 40.7708 84.974 40.478C85.3456 40.1666 85.7475 39.8933 86.1735 39.662C87.1192 39.1666 88.1343 38.8172 89.1846 38.6256C91.3918 38.1646 93.8766 38.2748 96.4062 37.8994C97.6439 37.7357 98.8453 37.3647 99.9598 36.8019C100.978 36.2483 101.899 35.5316 102.685 34.6803C104.02 33.2302 105.089 31.5563 105.843 29.7353C106.512 28.189 106.933 26.8793 107.239 25.998L107.585 24.9658L107.679 24.7006C107.689 24.6697 107.701 24.6396 107.716 24.6108C107.716 24.6108 107.716 24.6435 107.716 24.7047L107.642 24.978L107.304 26.0388C106.926 27.3182 106.481 28.5766 105.97 29.8088C105.227 31.658 104.159 33.359 102.816 34.8312C102.014 35.698 101.073 36.4259 100.033 36.9855C98.9036 37.5626 97.6839 37.9434 96.4266 38.1116C93.8643 38.4951 91.3918 38.3727 89.209 38.8215C87.0262 39.2703 85.1535 40.1801 84.1702 41.551C83.3449 42.5883 82.9479 43.9022 83.0605 45.223C83.1309 45.7123 83.2782 46.1874 83.497 46.6306Z" fill="#FAFAFA"/>
<path d="M86.0881 62.832C86.0027 63.3964 85.8378 63.9459 85.5985 64.464C85.3228 65.0871 84.9646 65.6704 84.5336 66.198C83.9619 66.9031 83.2613 67.4929 82.4691 67.9361C81.4989 68.4619 80.4147 68.7421 79.3112 68.7521C78.0374 68.7814 76.7859 68.4151 75.7289 67.7036C74.5664 66.8991 73.7254 65.7099 73.3544 64.3457C73.1562 63.6272 73.1144 62.8745 73.232 62.1384C73.3612 61.3809 73.6521 60.6601 74.0847 60.025C74.7901 58.9546 75.8722 58.1886 77.1161 57.8789V58.0829C75.8542 57.8877 74.6554 57.4001 73.6155 56.659C72.6515 55.9789 71.8832 55.0573 71.3878 53.9866C70.9519 53.0243 70.7653 51.9678 70.8452 50.9144C70.9126 50.0042 71.2179 49.1276 71.7305 48.3725C72.1618 47.7597 72.718 47.2452 73.3625 46.8629C73.8414 46.5801 74.364 46.3788 74.9089 46.2672C75.2499 46.1996 75.5979 46.1735 75.9452 46.1897L76.2104 46.2183C76.2401 46.2138 76.2704 46.2138 76.3001 46.2183C75.8378 46.1944 75.3743 46.23 74.9211 46.3244C74.3902 46.4458 73.8829 46.6539 73.4197 46.9404C72.8015 47.3238 72.2705 47.8325 71.8611 48.4337C71.3707 49.172 71.0823 50.0259 71.0247 50.9103C70.9565 51.9344 71.1444 52.9594 71.5714 53.8928C72.0585 54.9298 72.8081 55.8215 73.7461 56.4795C74.7646 57.1967 75.9344 57.6699 77.1651 57.8626L77.6914 57.9442L77.1733 58.0666C75.98 58.3654 74.9429 59.1024 74.2683 60.1311C73.8525 60.7443 73.5741 61.4402 73.4523 62.1711C73.3405 62.8784 73.3795 63.6014 73.5665 64.2927C73.9203 65.6167 74.7311 66.7729 75.8554 67.5567C76.8777 68.2493 78.0888 68.6098 79.3234 68.5889C80.4011 68.585 81.4614 68.3175 82.412 67.8096C83.1915 67.3841 83.8836 66.8152 84.452 66.1328C84.885 65.6174 85.2498 65.0483 85.5373 64.4396C85.7156 64.0534 85.8669 63.6553 85.9901 63.2482C86.0269 63.1176 86.0554 63.0116 86.0758 62.9259L86.0881 62.832Z" fill="#263238"/>
<path d="M83.6852 45.1862C83.6506 45.176 83.6176 45.1609 83.5873 45.1413L83.3017 44.9903C82.9446 44.7858 82.6048 44.5525 82.2858 44.2926C81.1004 43.3246 80.1959 42.0566 79.6664 40.6206C79.0519 38.9185 78.9975 37.0645 79.5113 35.3293C80.0252 33.5941 81.0802 32.0686 82.5224 30.9755C83.6764 30.125 84.9742 29.4893 86.3535 29.0987C87.7326 28.7093 89.1473 28.4592 90.5763 28.3521C91.9472 28.2215 93.2691 28.1603 94.5258 28.0746C95.7152 27.9998 96.9 27.8636 98.0754 27.6666C99.0961 27.4912 100.098 27.2179 101.066 26.8506C102.472 26.332 103.753 25.5245 104.828 24.4802C105.111 24.1865 105.374 23.8744 105.615 23.5458L105.803 23.2888C105.822 23.2574 105.846 23.2286 105.872 23.2031C105.604 23.6896 105.272 24.1383 104.885 24.5373C103.819 25.6183 102.529 26.4537 101.107 26.9853C100.132 27.3644 99.1219 27.6472 98.0917 27.8298C96.9111 28.0286 95.7208 28.1648 94.5258 28.2378C92.0166 28.4378 89.2218 28.4582 86.427 29.2864C85.073 29.6709 83.798 30.2925 82.6611 31.1224C81.2476 32.1898 80.2094 33.6783 79.6961 35.3735C79.1829 37.0688 79.221 38.8832 79.8051 40.5554C80.3169 41.9681 81.1889 43.2227 82.3347 44.1947C82.6456 44.4607 82.9756 44.7034 83.3221 44.921L83.5914 45.0882C83.6269 45.1165 83.6585 45.1494 83.6852 45.1862Z" fill="#263238"/>
<path d="M129.152 39.1685C129.105 39.2243 129.048 39.2698 128.982 39.3021C128.917 39.3344 128.846 39.3528 128.773 39.3561C128.561 39.3603 128.353 39.3006 128.175 39.185C127.998 39.0693 127.859 38.9029 127.777 38.7074C127.714 38.5655 127.687 38.4106 127.697 38.2557C127.707 38.1008 127.754 37.9507 127.834 37.818C128.023 37.5043 128.31 37.2619 128.65 37.1285C129.066 36.9781 129.514 36.9366 129.95 37.0081C130.386 37.0795 130.797 37.2614 131.143 37.5365C131.561 37.8376 131.882 38.2527 132.07 38.7319C132.268 39.2528 132.307 39.8205 132.184 40.3639C132.059 40.9529 131.74 41.483 131.278 41.8694C130.789 42.2746 130.192 42.5272 129.56 42.5957C128.887 42.6445 128.211 42.5416 127.582 42.2944C126.954 42.0473 126.389 41.6622 125.929 41.1677C125.422 40.6664 125.026 40.0646 124.766 39.401C124.501 38.7113 124.43 37.9617 124.562 37.2345C124.703 36.5235 124.925 35.8309 125.223 35.1701C125.497 34.5173 125.75 33.8726 125.962 33.228C126.386 31.9896 126.66 30.7047 126.778 29.4009C126.887 28.2247 126.816 27.0386 126.566 25.884C126.343 24.8729 125.95 23.9071 125.403 23.028C124.615 21.7493 123.484 20.7174 122.139 20.0496C121.771 19.8828 121.39 19.7464 121 19.6416L120.69 19.5641C120.655 19.5569 120.62 19.5446 120.588 19.5273H120.694L121.009 19.5845C121.409 19.6756 121.8 19.8054 122.176 19.9721C123.551 20.6254 124.71 21.6589 125.517 22.9505C126.085 23.8258 126.499 24.7917 126.741 25.8065C127.004 26.9785 127.084 28.1841 126.978 29.3805C126.863 30.7007 126.589 32.0021 126.162 33.2565C125.95 33.9093 125.692 34.5621 125.419 35.2109C125.13 35.865 124.914 36.5492 124.774 37.2509C124.653 37.936 124.72 38.6414 124.97 39.2909C125.217 39.9293 125.597 40.5079 126.084 40.9881C126.521 41.4617 127.058 41.8316 127.655 42.0709C128.253 42.3102 128.897 42.4128 129.54 42.3713C130.138 42.3102 130.706 42.0747 131.172 41.694C131.606 41.3365 131.908 40.8437 132.029 40.2945C132.148 39.7823 132.116 39.2463 131.935 38.7523C131.759 38.2993 131.459 37.9048 131.07 37.614C130.745 37.3498 130.357 37.1736 129.944 37.1022C129.531 37.0307 129.107 37.0665 128.712 37.206C128.392 37.324 128.121 37.545 127.941 37.8343C127.863 37.9541 127.816 38.091 127.803 38.2332C127.79 38.3754 127.812 38.5186 127.867 38.6503C127.941 38.8345 128.068 38.9929 128.231 39.106C128.394 39.2192 128.587 39.282 128.785 39.2868C128.916 39.2808 129.043 39.2399 129.152 39.1685Z" fill="#263238"/>
<g opacity="0.2">
<path opacity="0.2" d="M126.55 131.507C128.532 130.948 130.589 132.731 132.6 132.27C133.824 131.984 134.746 130.891 135.301 129.744C135.856 128.598 136.154 127.333 136.741 126.199C137.329 125.065 138.308 124.024 139.573 123.849C140.732 123.694 142.107 124.236 142.968 123.441C143.633 122.829 143.543 121.695 143.012 120.964C142.482 120.234 141.642 119.805 140.83 119.406C139.939 118.919 138.992 118.544 138.01 118.288C137.018 118.035 135.968 118.157 135.06 118.63C133.363 119.618 133.02 121.858 132.527 123.759C132.226 125.097 131.66 126.36 130.862 127.476C130.052 128.594 128.853 129.369 127.5 129.646C126.979 129.665 126.469 129.796 126.003 130.03C125.574 130.324 125.407 131.058 125.852 131.331" fill="black"/>
</g>
<path d="M116.215 124.175L123.649 121.584L130.311 111.168C130.636 110.66 131.062 110.224 131.561 109.885C132.061 109.547 132.624 109.315 133.216 109.202L145.167 106.945C145.318 107.401 145.298 107.896 145.109 108.337C144.92 108.779 144.576 109.135 144.142 109.34C142.547 110.25 135.37 111.923 135.37 111.923L146.423 111.735C146.423 111.735 146.762 113.331 145.509 113.902C144.257 114.473 136.382 114.759 136.382 114.759L146.472 116.195C146.472 116.195 146.529 117.798 144.224 117.827C141.954 117.806 139.687 117.67 137.431 117.419C137.337 117.405 137.242 117.428 137.166 117.484C137.089 117.539 137.038 117.623 137.023 117.717C137.008 117.807 137.028 117.899 137.079 117.975C137.13 118.05 137.207 118.104 137.296 118.125L144 119.708C144.193 119.751 144.367 119.856 144.494 120.008C144.621 120.16 144.694 120.35 144.702 120.548C144.71 120.746 144.652 120.941 144.537 121.102C144.423 121.264 144.258 121.383 144.069 121.442C143.946 121.473 143.819 121.481 143.694 121.466C142.555 121.352 135.729 120.487 135.729 120.487C135.729 120.487 133.322 128.924 131.764 129.606C130.205 130.287 126.937 130.475 126.937 130.475L120.001 133.221L116.215 124.175Z" fill="#B78876"/>
<path d="M145.656 111.702C145.466 111.742 145.271 111.762 145.077 111.759L143.494 111.837C142.159 111.894 140.311 111.959 138.275 112.012L135.399 112.086C134.625 112.053 133.852 112.164 133.118 112.412C132.635 112.602 132.225 112.941 131.947 113.379C131.858 113.548 131.78 113.722 131.715 113.901C131.706 113.851 131.706 113.8 131.715 113.75C131.746 113.609 131.795 113.472 131.861 113.342C132.127 112.865 132.545 112.49 133.049 112.278C133.795 112.001 134.587 111.871 135.383 111.894L138.239 111.804C140.279 111.751 142.127 111.71 143.461 111.69H145.044C145.248 111.677 145.453 111.681 145.656 111.702Z" fill="#AA6550"/>
<path d="M145.823 116.223C145.644 116.23 145.465 116.218 145.289 116.187L143.844 116.003C142.62 115.844 140.939 115.595 139.083 115.326C138.157 115.195 137.272 115.028 136.472 114.958C135.77 114.874 135.06 115.002 134.432 115.326C134.013 115.558 133.652 115.882 133.375 116.272C133.179 116.55 133.102 116.725 133.085 116.717C133.092 116.67 133.106 116.625 133.126 116.582C133.176 116.458 133.236 116.338 133.306 116.223C133.568 115.8 133.93 115.448 134.358 115.195C135.006 114.834 135.751 114.683 136.488 114.763C137.304 114.824 138.19 114.987 139.12 115.114C140.976 115.391 142.657 115.656 143.869 115.856L145.305 116.105C145.481 116.127 145.655 116.167 145.823 116.223Z" fill="#AA6550"/>
<path d="M140.213 118.79C139.819 118.734 139.429 118.649 139.046 118.537C138.328 118.361 137.341 118.1 136.248 117.876C135.987 117.815 135.723 117.775 135.456 117.757C135.217 117.767 134.984 117.836 134.779 117.957C134.413 118.159 134.106 118.452 133.885 118.806C133.703 119.152 133.582 119.528 133.53 119.916C133.496 119.81 133.488 119.699 133.506 119.589C133.527 119.29 133.611 118.998 133.751 118.733C133.97 118.339 134.291 118.012 134.681 117.786C134.915 117.646 135.18 117.565 135.452 117.549C135.733 117.564 136.013 117.603 136.288 117.664C137.398 117.896 138.377 118.178 139.083 118.39C139.472 118.485 139.851 118.619 140.213 118.79Z" fill="#AA6550"/>
<path d="M61.0327 129.777L83.3299 127.035L122.437 120.678L127.484 133.363C112.796 138.455 97.7241 143.049 82.9382 147.088C81.7298 147.329 80.498 147.433 79.2662 147.398C74.3294 147.419 62.1547 145.436 61.0327 129.777Z" fill="#ED893E"/>
<path d="M127.484 133.363C127.446 133.29 127.412 133.215 127.382 133.139C127.312 132.98 127.223 132.759 127.1 132.474C126.86 131.878 126.509 131.021 126.064 129.928L122.355 120.707L122.449 120.76L103.449 123.934C98.9605 124.705 94.6561 125.207 90.7556 125.725C88.8013 125.982 86.949 126.239 85.2231 126.541C84.3582 126.68 83.5259 126.816 82.7262 126.949C81.9599 127.072 81.2011 127.238 80.4536 127.447C78.2021 128.157 76.3054 129.697 75.1496 131.756C74.833 132.309 74.572 132.893 74.3703 133.498C74.301 133.706 74.2561 133.869 74.2275 133.975C74.2135 134.031 74.1943 134.086 74.1704 134.138C74.2084 133.917 74.2616 133.699 74.3295 133.486C74.5154 132.871 74.7656 132.277 75.0762 131.715C75.5668 130.822 76.1977 130.013 76.9448 129.32C77.9449 128.406 79.1306 127.718 80.421 127.304C81.1739 127.09 81.938 126.917 82.7099 126.786C83.5259 126.639 84.3419 126.488 85.2068 126.346C86.9367 126.06 88.7891 125.791 90.7393 125.53C94.6439 125.003 98.9442 124.497 103.424 123.722L122.433 120.593H122.502L122.527 120.658C124.044 124.51 125.293 127.684 126.166 129.903L127.161 132.466C127.272 132.755 127.353 132.98 127.419 133.139C127.484 133.298 127.484 133.363 127.484 133.363Z" fill="#263238"/>
<path d="M73.0322 146.725C73.0931 146.732 73.1532 146.744 73.2117 146.762L73.7299 146.888C74.1869 146.986 74.8601 147.141 75.7413 147.247C78.2311 147.554 80.7549 147.433 83.2037 146.888C83.9789 146.725 84.7785 146.505 85.6149 146.268L88.218 145.534L93.93 143.902C97.9651 142.727 102.392 141.409 107.023 139.969C114.775 137.562 121.898 135.203 127.423 133.298L127.374 133.408C125.848 129.532 124.595 126.362 123.726 124.147C123.298 123.049 122.967 122.188 122.735 121.592C122.625 121.307 122.543 121.087 122.482 120.923C122.421 120.76 122.404 120.695 122.404 120.695C122.404 120.695 122.441 120.768 122.506 120.915C122.572 121.062 122.661 121.295 122.78 121.576L123.812 124.11L127.529 133.347L127.561 133.429L127.48 133.457C121.947 135.391 114.832 137.761 107.08 140.173C102.449 141.613 98.0181 142.927 93.9789 144.094L88.2343 145.726L85.6272 146.444C84.8112 146.676 83.9952 146.897 83.2077 147.056C80.7416 147.59 78.2013 147.691 75.7005 147.354C74.793 147.231 73.8994 147.02 73.0322 146.725Z" fill="#263238"/>
<path d="M81.6735 127.035C81.4908 127.084 81.3034 127.112 81.1146 127.121L79.5846 127.272L74.5417 127.766L69.4988 128.304L67.9688 128.463C67.7829 128.495 67.5941 128.506 67.4058 128.496C67.5872 128.443 67.7728 128.404 67.9606 128.382C68.3197 128.325 68.8378 128.247 69.4825 128.157C70.7677 127.978 72.5466 127.749 74.5172 127.558C76.4878 127.366 78.279 127.211 79.5723 127.125C80.221 127.08 80.7474 127.052 81.1105 127.035C81.2978 127.019 81.4862 127.019 81.6735 127.035Z" fill="#263238"/>
<path d="M42.7133 167.937C41.5872 169.548 39.3921 169.014 38.3762 168.03C37.3603 167.047 36.9319 165.623 36.5402 164.265C35.6467 161.16 34.745 157.904 35.4101 154.742C35.5726 153.782 35.9961 152.886 36.6341 152.151C36.9559 151.789 37.3674 151.518 37.8272 151.365C38.2871 151.213 38.7789 151.184 39.2534 151.282C40.3591 151.572 41.0445 152.653 41.5423 153.685C43.0053 156.726 43.7719 160.054 43.7863 163.428C43.7863 164.995 43.6068 166.643 42.7214 167.937" fill="#ED893E"/>
<g opacity="0.2">
<path opacity="0.2" d="M42.7133 167.937C41.5872 169.548 39.3921 169.014 38.3762 168.03C37.3603 167.047 36.9319 165.623 36.5402 164.265C35.6467 161.16 34.745 157.904 35.4101 154.742C35.5726 153.782 35.9961 152.886 36.6341 152.151C36.9559 151.789 37.3674 151.518 37.8272 151.365C38.2871 151.213 38.7789 151.184 39.2534 151.282C40.3591 151.572 41.0445 152.653 41.5423 153.685C43.0053 156.726 43.7719 160.054 43.7863 163.428C43.7863 164.995 43.6068 166.643 42.7214 167.937" fill="black"/>
</g>
<path d="M38.4866 176.092C36.6424 175.142 34.4719 175.019 32.4237 175.358C31.3262 175.538 30.1756 175.868 29.429 176.696C28.6823 177.524 28.5395 178.977 29.3963 179.687C29.9517 180.06 30.6194 180.229 31.2854 180.164C32.8888 180.144 34.6677 179.862 35.9488 180.829C36.6791 181.376 37.1728 182.294 38.0378 182.563C38.4742 182.665 38.9319 182.623 39.3419 182.442C39.7519 182.26 40.0918 181.951 40.3103 181.56C40.7271 180.757 40.8191 179.825 40.5674 178.957C40.4655 178.351 40.2246 177.777 39.8635 177.28C39.5025 176.783 39.0312 176.377 38.4866 176.092Z" fill="#ED893E"/>
<path d="M45.81 170.25C44.586 168.793 44.3535 166.676 44.9002 164.856C45.4469 163.037 46.675 161.486 48.0908 160.221C49.7579 158.737 51.6979 157.591 53.8028 156.847C54.6172 156.515 55.4947 156.366 56.3732 156.411C56.8123 156.435 57.2387 156.567 57.6149 156.795C57.9912 157.022 58.306 157.339 58.5315 157.716C59.1353 158.863 58.556 160.258 57.9317 161.388C56.8321 163.389 55.5756 165.298 54.1741 167.1C53.048 168.553 51.7587 169.985 50.0451 170.642C48.3315 171.299 46.5444 171.221 45.6346 170.03" fill="#ED893E"/>
<path d="M42.7911 192.233C42.7302 191.994 42.696 191.749 42.6891 191.503C42.6361 190.972 42.5708 190.303 42.4933 189.508C42.3932 188.523 42.2434 187.544 42.0445 186.574C41.7827 185.396 41.4266 184.24 40.9796 183.118C40.5411 181.997 39.9463 180.944 39.2129 179.989C38.6156 179.213 37.8533 178.579 36.9812 178.133C36.3853 177.838 35.7462 177.642 35.0881 177.549C34.843 177.539 34.5996 177.503 34.3618 177.443C34.6073 177.417 34.8548 177.417 35.1003 177.443C35.7796 177.495 36.4443 177.667 37.0628 177.953C37.9813 178.388 38.787 179.029 39.4169 179.826C40.1823 180.793 40.7997 181.868 41.2489 183.016C41.7002 184.157 42.0537 185.333 42.3056 186.533C42.5015 187.513 42.6378 188.503 42.7136 189.5C42.7789 190.348 42.8033 191.034 42.8115 191.507C42.8303 191.749 42.8235 191.992 42.7911 192.233Z" fill="#263238"/>
<path d="M42.6522 190.699C42.6315 190.587 42.6247 190.473 42.6318 190.36C42.6318 190.103 42.6318 189.781 42.6318 189.385C42.6318 188.544 42.6318 187.324 42.587 185.819C42.5135 182.808 42.2524 178.646 41.771 174.077C41.2895 169.507 40.5837 165.394 39.9839 162.445C39.8371 161.702 39.6943 161.037 39.5759 160.454C39.4576 159.87 39.3352 159.368 39.2291 158.96C39.1231 158.552 39.0619 158.263 39.0007 158.014C38.9687 157.905 38.9481 157.793 38.9395 157.679C38.9925 157.78 39.0322 157.887 39.0578 157.997C39.1353 158.242 39.2251 158.552 39.3434 158.928C39.4617 159.303 39.5963 159.833 39.7514 160.417C39.9064 161 40.0655 161.661 40.2246 162.4C41.0564 166.245 41.6815 170.132 42.0974 174.044C42.5992 178.626 42.8277 182.796 42.8481 185.815C42.8481 187.324 42.8481 188.548 42.795 189.389C42.7706 189.797 42.7502 190.107 42.7338 190.36C42.7215 190.476 42.694 190.59 42.6522 190.699Z" fill="#263238"/>
<path d="M42.6317 182.653C42.6058 182.316 42.6058 181.978 42.6317 181.641C42.6684 180.988 42.7582 180.046 42.9418 178.891C43.1638 177.541 43.4621 176.205 43.8353 174.889C44.2809 173.271 44.8398 171.687 45.5081 170.148C46.6717 167.319 48.3388 164.724 50.4286 162.49C50.7899 162.107 51.1756 161.749 51.5832 161.417C51.7627 161.266 51.9178 161.115 52.0769 161.009L52.5257 160.699C52.7976 160.496 53.084 160.313 53.3825 160.152C53.4315 160.221 52.1585 160.968 50.5836 162.653C48.5616 164.904 46.9389 167.485 45.7855 170.282C45.1218 171.807 44.5603 173.375 44.1046 174.974C43.7202 176.28 43.4015 177.603 43.1499 178.94C42.9418 180.083 42.8194 181.017 42.7419 181.662C42.7321 181.995 42.6952 182.326 42.6317 182.653Z" fill="#263238"/>
<path d="M161.397 53.2849C160.989 50.0494 158.259 47.0343 154.999 47.0343C153.078 47.0343 151.246 48.038 149.932 49.4456C149.465 49.9188 149.035 50.4276 148.647 50.9674C148.37 50.3618 148.049 49.778 147.684 49.2212C146.672 47.5892 145.077 46.2387 143.196 45.8593C139.997 45.2228 136.725 47.6381 135.693 50.7308C134.66 53.8234 135.521 57.2914 137.214 60.074C138.908 62.8566 141.825 66.5 147.198 68.3034C150.899 67.8301 155.86 64.5457 158.067 62.1466C160.275 59.7476 161.797 56.5203 161.397 53.2849Z" fill="#ED893E"/>
<path d="M160.222 59.0908H160.116L159.801 59.0704L158.577 58.9684L154.147 58.5604L154.224 58.5114L152.38 63.3258L152.266 63.6155L152.192 63.3136C151.633 60.9757 151.001 58.3605 150.336 55.6024L149.736 53.0932L149.924 53.134L146.541 57.7852L146.509 57.826H146.472L138.683 57.01L136.48 56.7652L135.897 56.6917L135.697 56.655C135.765 56.6487 135.833 56.6487 135.901 56.655L136.484 56.6999L138.696 56.8917L146.488 57.6261L146.403 57.6669L149.769 53.0034L149.903 52.8198L149.956 53.0401C150.152 53.8561 150.364 54.7007 150.56 55.5575C151.217 58.3156 151.841 60.9349 152.4 63.2728H152.213L154.098 58.4706L154.118 58.4176H154.175L158.602 58.8909L159.806 59.0337L160.116 59.0745L160.222 59.0908Z" fill="#FAFAFA"/>
<path d="M38.5449 116.81L45.1444 118.765L44.0204 122.56C43.8837 123.021 43.5691 123.41 43.1459 123.64C42.7228 123.869 42.2256 123.922 41.7639 123.785L38.6344 122.858C38.1727 122.721 37.7842 122.406 37.5544 121.983C37.3247 121.56 37.2724 121.063 37.4092 120.601L38.5332 116.807L38.5449 116.81Z" fill="#ED893E"/>
<path opacity="0.3" d="M38.5454 116.811L45.1449 118.765L44.0197 122.564C43.8836 123.024 43.5704 123.41 43.1492 123.639C42.7279 123.868 42.233 123.92 41.7734 123.784L38.6438 122.857C38.4162 122.789 38.2042 122.678 38.0197 122.528C37.8352 122.379 37.682 122.195 37.5687 121.986C37.4555 121.777 37.3844 121.549 37.3596 121.313C37.3348 121.076 37.3567 120.838 37.4241 120.61L38.5493 116.812L38.5454 116.811Z" fill="black"/>
<path d="M44.113 122.559C42.9805 122.337 41.8631 122.044 40.7674 121.682C39.6583 121.387 38.5683 121.025 37.5034 120.597C38.6356 120.822 39.7529 121.116 40.849 121.478C41.9577 121.773 43.0476 122.134 44.113 122.559Z" fill="#263238"/>
<path d="M39.5762 121.176C39.604 121.072 39.6523 120.974 39.7182 120.889C39.7841 120.803 39.8662 120.732 39.96 120.678C40.0537 120.625 40.1571 120.59 40.2642 120.577C40.3713 120.564 40.48 120.572 40.5839 120.601L41.9058 121.009C42.0083 121.041 42.1034 121.094 42.1856 121.163C42.2678 121.232 42.3355 121.317 42.3847 121.413C42.434 121.508 42.464 121.613 42.4728 121.72C42.4816 121.827 42.4692 121.935 42.4362 122.037L39.5762 121.176Z" fill="#263238"/>
<path d="M44.8514 84.7539L37.5074 115.113C37.3393 115.754 37.4239 116.435 37.7435 117.015C38.0632 117.595 38.5936 118.03 39.225 118.23L44.0354 119.658C44.6565 119.83 45.3193 119.762 45.8932 119.469C46.4671 119.176 46.9106 118.679 47.1361 118.075L58.6703 88.8421L44.8514 84.7539Z" fill="#ED893E"/>
<path d="M57.7199 91.2493C57.7199 91.3064 54.6762 90.4578 50.9594 89.3562C47.2425 88.2546 44.2396 87.3162 44.2559 87.2591C44.2722 87.202 47.2996 88.0506 51.0206 89.1522C54.7415 90.2538 57.7363 91.1922 57.7199 91.2493Z" fill="#263238"/>
<path d="M45.3164 87.606C45.3371 87.1687 45.428 86.7375 45.5857 86.329C45.6777 85.8991 45.836 85.4862 46.0549 85.105C46.0369 85.5423 45.9473 85.9737 45.7897 86.382C45.6995 86.813 45.5396 87.2265 45.3164 87.606Z" fill="#263238"/>
<path d="M46.4141 87.9284C46.5199 87.0622 46.7695 86.2197 47.1525 85.4355C47.1319 85.8729 47.041 86.3041 46.8833 86.7126C46.7913 87.1399 46.633 87.5501 46.4141 87.9284Z" fill="#263238"/>
<path d="M47.5078 88.2545C47.5285 87.8171 47.6194 87.3859 47.7771 86.9774C47.867 86.547 48.0255 86.1337 48.2463 85.7534C48.2283 86.1907 48.1387 86.6221 47.9811 87.0305C47.8909 87.4615 47.731 87.8749 47.5078 88.2545Z" fill="#263238"/>
<path d="M48.605 88.5769C48.7108 87.7106 48.9604 86.8681 49.3435 86.084C49.2325 86.9492 48.9832 87.7909 48.605 88.5769Z" fill="#263238"/>
<path d="M49.6987 88.9034C49.7194 88.466 49.8103 88.0348 49.968 87.6263C50.058 87.1959 50.2164 86.7826 50.4372 86.4023C50.4192 86.8397 50.3296 87.2711 50.172 87.6794C50.0818 88.1104 49.922 88.5238 49.6987 88.9034Z" fill="#263238"/>
<path d="M50.7964 89.2258C50.9022 88.3595 51.1518 87.517 51.5349 86.7329C51.4239 87.5981 51.1746 88.4398 50.7964 89.2258Z" fill="#263238"/>
<path d="M51.8896 89.5523C51.9103 89.1149 52.0012 88.6837 52.1589 88.2753C52.2489 87.8448 52.4073 87.4316 52.6281 87.0513C52.6101 87.4886 52.5205 87.92 52.3629 88.3283C52.2727 88.7593 52.1129 89.1727 51.8896 89.5523Z" fill="#263238"/>
<path d="M52.9829 89.8746C53.006 89.4375 53.0969 89.0067 53.2522 88.5975C53.3415 88.1663 53.5014 87.7527 53.7255 87.3735C53.7024 87.8106 53.6115 88.2414 53.4562 88.6506C53.3669 89.0819 53.207 89.4954 52.9829 89.8746Z" fill="#263238"/>
<path d="M54.0806 90.2008C54.0983 89.7634 54.1878 89.3319 54.3458 88.9237C54.4381 88.4933 54.5978 88.0803 54.819 87.6997C54.7984 88.1371 54.7075 88.5683 54.5498 88.9768C54.4598 89.4072 54.3014 89.8205 54.0806 90.2008Z" fill="#263238"/>
<path d="M55.1738 90.5231C55.2848 89.658 55.5341 88.8163 55.9123 88.0303C55.8065 88.8965 55.5569 89.739 55.1738 90.5231Z" fill="#263238"/>
<path d="M56.2715 90.8492C56.2892 90.4118 56.3788 89.9804 56.5367 89.5721C56.6269 89.1411 56.7867 88.7277 57.01 88.3481C56.9893 88.7855 56.8984 89.2167 56.7407 89.6252C56.6507 90.0557 56.4923 90.4689 56.2715 90.8492Z" fill="#263238"/>
<path d="M57.3647 91.1716C57.4757 90.3064 57.725 89.4647 58.1032 88.6787C57.9974 89.545 57.7478 90.3875 57.3647 91.1716Z" fill="#263238"/>
<path d="M46.6262 100.625L47.1443 98.8867L48.862 99.3967L48.3806 101.025L49.7841 101.437L49.2782 103.146L47.7237 102.689L47.283 104.178L45.8469 103.75L46.3202 102.151L44.627 101.649L45.0758 100.135L46.6262 100.625Z" fill="white"/>
<path d="M50.7796 102.587C50.7552 102.587 50.8694 102.261 50.898 101.661C50.932 100.815 50.6884 99.9813 50.2044 99.2866C49.8748 98.8109 49.4354 98.4218 48.9232 98.1524C48.3334 97.8497 47.6705 97.7182 47.0097 97.773C46.2795 97.84 45.586 98.1242 45.0187 98.589C44.4084 99.0853 43.9623 99.7545 43.7388 100.509C43.5153 101.263 43.5248 102.067 43.7661 102.816C43.9879 103.513 44.4144 104.127 44.9901 104.578C45.5153 104.982 46.1425 105.232 46.8016 105.301C47.3778 105.354 47.9585 105.269 48.4948 105.052C49.2819 104.729 49.9402 104.155 50.3676 103.42C50.6736 102.902 50.7511 102.571 50.7756 102.579C50.7674 102.66 50.7481 102.74 50.7184 102.816C50.649 103.04 50.556 103.256 50.441 103.46C50.0226 104.229 49.357 104.835 48.552 105.178C47.9542 105.434 47.2993 105.526 46.6542 105.446C46.009 105.366 45.3968 105.116 44.88 104.721C44.2676 104.25 43.8124 103.604 43.5744 102.869C43.3151 102.083 43.3012 101.236 43.5344 100.442C43.7676 99.6476 44.2369 98.943 44.88 98.4217C45.4795 97.9325 46.2139 97.6379 46.9852 97.5771C47.6808 97.5205 48.3782 97.662 48.9967 97.9851C49.5288 98.2741 49.9836 98.6869 50.3227 99.1887C50.8069 99.9091 51.0354 100.771 50.9714 101.637C50.955 101.871 50.9154 102.104 50.8531 102.33C50.8423 102.419 50.8175 102.506 50.7796 102.587Z" fill="white"/>
</svg>
