<svg width="203" height="203" viewBox="0 0 203 203" fill="none" xmlns="http://www.w3.org/2000/svg">
<path d="M172.298 45.2326L171.393 43.7345C163.74 31.1241 149.903 23.5238 135.316 24.4454C133.439 24.5629 131.573 24.8194 129.733 25.2128C116.469 28.0548 104.931 38.0789 100.148 50.9248C97.3345 58.4804 96.5468 67.1648 91.2161 73.1736C84.2694 80.9769 72.4751 81.2205 62.1018 80.8876C51.7285 80.5546 39.9301 80.8388 33.016 88.6746C28.6839 93.5791 27.3076 100.558 27.6568 107.127C28.5824 124.524 40.7056 140.078 56.1214 147.813C71.5372 155.547 89.6895 156.237 106.563 152.835C130.196 148.068 152.676 134.971 166.188 114.776C179.7 94.5819 183.106 67.043 172.298 45.2326Z" fill="#EBEBEB"/>
<path d="M120.29 191.133L56.9538 191.165C54.5048 191.166 52.1557 190.195 50.4228 188.464C48.69 186.734 47.7154 184.386 47.7132 181.937L47.6401 39.2643C47.6391 37.882 47.9104 36.513 48.4385 35.2356C48.9666 33.9581 49.7412 32.7973 50.7181 31.8192C51.695 30.8412 52.855 30.0653 54.1318 29.5357C55.4086 29.0061 56.7773 28.7332 58.1596 28.7327L120.326 28.7002C122.803 28.7002 125.178 29.684 126.929 31.4352C128.681 33.1864 129.664 35.5616 129.664 38.0382L129.741 181.689C129.739 184.194 128.743 186.596 126.97 188.367C125.198 190.138 122.795 191.133 120.29 191.133Z" fill="#455A64"/>
<path d="M49.0001 178.64L48.927 41.2539C48.9324 38.2797 50.1173 35.4292 52.2219 33.3276C54.3265 31.2261 57.1787 30.0453 60.1529 30.0442L117.131 30.0117C118.606 30.0107 120.067 30.3002 121.43 30.8638C122.793 31.4275 124.032 32.2541 125.076 33.2966C126.119 34.3391 126.947 35.5769 127.512 36.9395C128.077 38.302 128.368 39.7625 128.369 41.2376L128.442 178.624C128.443 180.099 128.154 181.56 127.59 182.923C127.026 184.286 126.2 185.525 125.157 186.569C124.115 187.612 122.877 188.44 121.514 189.005C120.152 189.57 118.691 189.862 117.216 189.862L60.2382 189.895C58.7608 189.895 57.2979 189.604 55.9331 189.039C54.5684 188.473 53.3286 187.644 52.2847 186.598C51.2408 185.553 50.4134 184.312 49.8498 182.946C49.2862 181.581 48.9974 180.118 49.0001 178.64Z" fill="#263238"/>
<path d="M82.7551 35.1313C82.5128 35.1313 82.2804 35.035 82.1091 34.8637C81.9378 34.6924 81.8416 34.4601 81.8416 34.2178C81.8416 33.9755 81.9378 33.7432 82.1091 33.5718C82.2804 33.4005 82.5128 33.3043 82.7551 33.3043H94.4844C94.6092 33.2959 94.7344 33.3133 94.8522 33.3554C94.97 33.3974 95.078 33.4632 95.1693 33.5486C95.2607 33.6341 95.3335 33.7374 95.3833 33.8521C95.4331 33.9669 95.4588 34.0907 95.4588 34.2157C95.4588 34.3408 95.4331 34.4646 95.3833 34.5794C95.3335 34.6941 95.2607 34.7974 95.1693 34.8829C95.078 34.9683 94.97 35.0341 94.8522 35.0761C94.7344 35.1182 94.6092 35.1356 94.4844 35.1272L82.7551 35.1313Z" fill="#455A64"/>
<path d="M76.4659 35.1351C76.2851 35.1359 76.108 35.083 75.9573 34.9831C75.8065 34.8832 75.6888 34.7408 75.619 34.574C75.5493 34.4071 75.5306 34.2233 75.5654 34.0459C75.6002 33.8684 75.6869 33.7053 75.8145 33.5771C75.9421 33.4489 76.1048 33.3615 76.2821 33.326C76.4594 33.2904 76.6433 33.3082 76.8105 33.3773C76.9776 33.4463 77.1205 33.5634 77.2211 33.7137C77.3217 33.864 77.3753 34.0407 77.3753 34.2216C77.3753 34.4632 77.2797 34.6949 77.1092 34.8661C76.9388 35.0373 76.7075 35.134 76.4659 35.1351Z" fill="#455A64"/>
<path d="M79.8236 35.1312C79.6427 35.132 79.4657 35.0791 79.315 34.9792C79.1642 34.8793 79.0465 34.7369 78.9767 34.5701C78.907 34.4032 78.8883 34.2194 78.9231 34.042C78.9579 33.8645 79.0445 33.7014 79.1721 33.5732C79.2997 33.445 79.4625 33.3576 79.6398 33.3221C79.8171 33.2865 80.001 33.3043 80.1681 33.3733C80.3353 33.4424 80.4782 33.5594 80.5788 33.7098C80.6793 33.8601 80.733 34.0368 80.733 34.2177C80.733 34.4593 80.6373 34.691 80.4669 34.8622C80.2965 35.0334 80.0651 35.1301 79.8236 35.1312Z" fill="#455A64"/>
<path d="M100.826 35.119C100.645 35.119 100.468 35.0653 100.318 34.9648C100.168 34.8642 100.051 34.7213 99.9817 34.5541C99.9127 34.387 99.8949 34.2031 99.9304 34.0258C99.966 33.8485 100.053 33.6857 100.182 33.5581C100.31 33.4305 100.473 33.3438 100.65 33.3091C100.828 33.2743 101.012 33.2929 101.178 33.3627C101.345 33.4325 101.488 33.5502 101.588 33.7009C101.688 33.8517 101.74 34.0287 101.74 34.2096C101.74 34.3293 101.716 34.4479 101.67 34.5585C101.624 34.6691 101.557 34.7696 101.472 34.8541C101.387 34.9386 101.286 35.0055 101.175 35.0509C101.065 35.0964 100.946 35.1195 100.826 35.119Z" fill="#455A64"/>
<path d="M97.4684 35.1229C97.2878 35.1229 97.1111 35.0693 96.9609 34.969C96.8107 34.8686 96.6936 34.7259 96.6245 34.559C96.5553 34.3921 96.5372 34.2084 96.5725 34.0312C96.6077 33.854 96.6947 33.6912 96.8225 33.5635C96.9502 33.4357 97.113 33.3487 97.2902 33.3135C97.4674 33.2782 97.6511 33.2963 97.818 33.3654C97.9849 33.4346 98.1276 33.5517 98.228 33.7019C98.3284 33.8521 98.3819 34.0287 98.3819 34.2094C98.3825 34.3295 98.3592 34.4485 98.3135 34.5596C98.2678 34.6707 98.2005 34.7716 98.1156 34.8565C98.0306 34.9415 97.9297 35.0087 97.8186 35.0545C97.7076 35.1002 97.5885 35.1234 97.4684 35.1229Z" fill="#455A64"/>
<path d="M117.74 31.875H106.697C106.176 31.8748 105.669 32.0431 105.252 32.3549C104.835 32.6667 104.53 33.1051 104.383 33.6046L103.481 36.6983C103.319 37.2578 102.978 37.7493 102.512 38.0986C102.045 38.4479 101.478 38.6361 100.895 38.6349H76.4296C75.8472 38.6353 75.2803 38.4473 74.8134 38.099C74.3466 37.7507 74.0049 37.2608 73.8394 36.7024L72.934 33.6086C72.7871 33.1092 72.4821 32.6709 72.0648 32.3598C71.6474 32.0486 71.1404 31.8813 70.6198 31.8831H59.5685C57.2422 31.8788 55.0095 32.7985 53.3612 34.44C51.7129 36.0814 50.7839 38.3103 50.7786 40.6365L50.8516 178.928C50.8554 180.08 51.0859 181.219 51.5301 182.282C51.9742 183.345 52.6233 184.309 53.4403 185.121C54.2573 185.933 55.2261 186.575 56.2915 187.013C57.3569 187.45 58.498 187.673 59.6497 187.669L117.809 187.641C120.135 187.645 122.368 186.726 124.016 185.084C125.665 183.443 126.594 181.214 126.599 178.888L126.526 40.6C126.514 38.279 125.583 36.0575 123.936 34.422C122.289 32.7866 120.061 31.8707 117.74 31.875Z" fill="#FAFAFA"/>
<path d="M129.672 63.998C129.815 63.9991 129.952 64.0563 130.053 64.1574C130.154 64.2584 130.211 64.3951 130.212 64.538V82.13C130.212 82.2725 130.156 82.4092 130.056 82.5104C129.955 82.6115 129.819 82.6689 129.676 82.67L129.672 63.998Z" fill="#455A64"/>
<path d="M47.6522 75.5483C47.5047 75.5483 47.3632 75.6069 47.2589 75.7113C47.1545 75.8156 47.0959 75.957 47.0959 76.1046V86.8108C47.097 86.9587 47.1565 87.1001 47.2615 87.2043C47.3664 87.3085 47.5083 87.367 47.6562 87.367L47.6522 75.5483Z" fill="#455A64"/>
<path d="M47.6441 60.0879C47.5707 60.0879 47.4981 60.1024 47.4303 60.1306C47.3626 60.1588 47.3011 60.2002 47.2494 60.2522C47.1977 60.3043 47.1568 60.3661 47.1291 60.4341C47.1014 60.502 47.0874 60.5748 47.0879 60.6482V71.3503C47.089 71.4986 47.1483 71.6405 47.2532 71.7453C47.358 71.8502 47.4999 71.9095 47.6482 71.9106L47.6441 60.0879Z" fill="#455A64"/>
<path d="M47.6401 48.5132C47.512 48.5132 47.3891 48.5641 47.2985 48.6547C47.2079 48.7453 47.157 48.8682 47.157 48.9963V53.5314C47.157 53.5946 47.1695 53.6572 47.1938 53.7156C47.2182 53.774 47.2538 53.827 47.2987 53.8716C47.3437 53.9161 47.3969 53.9513 47.4555 53.9751C47.5141 53.999 47.5769 54.011 47.6401 54.0104V48.5132Z" fill="#455A64"/>
<path d="M108.694 36.3779H108.13V37.1696H108.694V36.3779Z" fill="white"/>
<path d="M109.612 36.0244H109.048V37.1653H109.612V36.0244Z" fill="white"/>
<path d="M110.529 35.7603H109.965V37.165H110.529V35.7603Z" fill="white"/>
<path d="M111.447 35.249H110.883V37.1653H111.447V35.249Z" fill="white"/>
<path d="M119.77 37.2019H116.928C116.902 37.2024 116.875 37.1977 116.851 37.1879C116.826 37.1782 116.804 37.1636 116.785 37.1451C116.766 37.1265 116.751 37.1044 116.741 37.08C116.73 37.0556 116.725 37.0294 116.725 37.0029V35.5941C116.725 35.541 116.746 35.4899 116.783 35.452C116.82 35.414 116.871 35.3922 116.924 35.3911H119.766C119.78 35.3921 119.793 35.3979 119.802 35.4076C119.812 35.4173 119.818 35.4302 119.819 35.4439V35.9067H120.123C120.13 35.9067 120.137 35.9081 120.143 35.9108C120.149 35.9135 120.155 35.9174 120.159 35.9224C120.164 35.9274 120.167 35.9332 120.17 35.9396C120.172 35.946 120.173 35.9528 120.172 35.9595V36.6335C120.172 36.6475 120.166 36.6609 120.157 36.6708C120.147 36.6807 120.133 36.6863 120.119 36.6863H119.815V37.1491C119.815 37.1555 119.815 37.1619 119.813 37.1681C119.811 37.1742 119.808 37.1799 119.803 37.1848C119.799 37.1897 119.794 37.1937 119.788 37.1967C119.783 37.1996 119.776 37.2014 119.77 37.2019ZM119.717 35.4926H116.928C116.902 35.4926 116.877 35.5029 116.859 35.5212C116.841 35.5394 116.831 35.5642 116.831 35.5901V36.9989C116.831 37.0247 116.841 37.0495 116.859 37.0678C116.877 37.086 116.902 37.0963 116.928 37.0963H119.705V36.6335C119.705 36.6206 119.71 36.6082 119.719 36.599C119.729 36.5899 119.741 36.5848 119.754 36.5848H120.058V36.0082H119.77C119.757 36.0082 119.745 36.0031 119.736 35.994C119.727 35.9848 119.721 35.9724 119.721 35.9595L119.717 35.4926Z" fill="white"/>
<path d="M117.066 36.869V35.7282L119.482 35.7241V36.2397V36.3534V36.869H117.066Z" fill="white"/>
<path d="M114.143 37.0962C114.143 37.0553 114.131 37.0152 114.108 36.9812C114.085 36.9471 114.053 36.9206 114.015 36.9049C113.977 36.8892 113.936 36.8851 113.895 36.8931C113.855 36.9011 113.818 36.9209 113.789 36.9498C113.76 36.9788 113.741 37.0157 113.733 37.0558C113.725 37.096 113.729 37.1376 113.745 37.1755C113.76 37.2133 113.787 37.2456 113.821 37.2684C113.855 37.2911 113.895 37.3033 113.936 37.3033C113.991 37.3033 114.043 37.2815 114.082 37.2426C114.121 37.2038 114.143 37.1511 114.143 37.0962Z" fill="white"/>
<path d="M113.229 36.6011L113.493 36.8609C113.611 36.7444 113.77 36.679 113.936 36.679C114.102 36.679 114.261 36.7444 114.378 36.8609L114.642 36.597C114.454 36.4105 114.201 36.3055 113.936 36.3047C113.804 36.3049 113.674 36.3313 113.553 36.3821C113.432 36.433 113.322 36.5074 113.229 36.6011Z" fill="white"/>
<path d="M113.936 35.728C113.516 35.7284 113.113 35.8948 112.815 36.1909L113.079 36.4548C113.307 36.2292 113.615 36.1026 113.936 36.1026C114.257 36.1026 114.564 36.2292 114.792 36.4548L115.056 36.1909C114.909 36.0435 114.735 35.9268 114.542 35.8473C114.35 35.7679 114.144 35.7273 113.936 35.728Z" fill="white"/>
<path d="M112.385 35.7567L112.649 36.0206C112.817 35.8501 113.017 35.7149 113.238 35.6229C113.459 35.5309 113.696 35.4839 113.936 35.4847C114.418 35.4851 114.881 35.6763 115.223 36.0166L115.487 35.7527C115.283 35.5489 115.041 35.3872 114.775 35.2769C114.509 35.1666 114.224 35.1099 113.936 35.1099C113.648 35.1099 113.362 35.1666 113.096 35.2769C112.83 35.3872 112.588 35.5489 112.385 35.7527V35.7567Z" fill="white"/>
<path d="M66.3688 70.5223C66.36 71.5573 66.0444 72.5665 65.462 73.4221C64.8796 74.2778 64.0566 74.9415 63.097 75.3294C62.1374 75.7173 61.0843 75.8119 60.0709 75.6013C59.0575 75.3908 58.1293 74.8844 57.4037 74.1463C56.6781 73.4082 56.1877 72.4715 55.9944 71.4547C55.8011 70.4378 55.9137 69.3865 56.3179 68.4337C56.7222 67.4808 57.3999 66.6692 58.2653 66.1015C59.1308 65.5339 60.1452 65.2355 61.1802 65.2443C61.8674 65.2502 62.5468 65.3913 63.1795 65.6597C63.8122 65.9281 64.3858 66.3186 64.8677 66.8087C65.3495 67.2988 65.73 67.879 65.9876 68.5162C66.2452 69.1534 66.3747 69.8351 66.3688 70.5223Z" fill="#B3E3C7"/>
<path d="M92.5272 66.4906C92.5272 66.5475 87.6552 66.5556 81.687 66.4906C75.7188 66.4257 70.8428 66.3566 70.8428 66.2957C70.8428 66.2348 75.7148 66.2308 81.687 66.2957C87.6593 66.3607 92.5313 66.4338 92.5272 66.4906Z" fill="#263238"/>
<path d="M110.225 71.456C110.225 71.5128 101.374 71.4884 90.4569 71.3991C79.5395 71.3098 70.6887 71.188 70.6887 71.1312C70.6887 71.0743 79.5395 71.0987 90.4609 71.188C101.382 71.2773 110.225 71.3951 110.225 71.456Z" fill="#E0E0E0"/>
<path d="M110.193 75.358C110.193 75.4149 101.342 75.3905 90.4244 75.3012C79.507 75.2119 70.644 75.1104 70.644 75.0332C70.644 74.9561 79.4908 75.0007 90.4122 75.0901C101.334 75.1794 110.193 75.2971 110.193 75.358Z" fill="#E0E0E0"/>
<path d="M121.861 65.7398C121.861 65.8007 119.944 65.8291 117.586 65.8129C115.227 65.7967 113.314 65.7276 113.314 65.6708C113.314 65.614 115.227 65.5815 117.59 65.6018C119.953 65.6221 121.861 65.683 121.861 65.7398Z" fill="#263238"/>
<path d="M118.552 71.1842L118.905 71.915C118.935 71.9776 118.979 72.0321 119.034 72.0738C119.089 72.1156 119.154 72.1433 119.222 72.1545L120.034 72.2763C120.117 72.2798 120.197 72.3088 120.264 72.3593C120.33 72.4098 120.379 72.4794 120.404 72.5587C120.429 72.6381 120.429 72.7232 120.405 72.8027C120.38 72.8822 120.331 72.9521 120.266 73.003L119.677 73.5674C119.627 73.6157 119.59 73.6752 119.568 73.7409C119.546 73.8066 119.54 73.8765 119.551 73.945L119.685 74.757C119.697 74.8357 119.687 74.9162 119.656 74.9896C119.625 75.063 119.575 75.1263 119.51 75.1726C119.445 75.2189 119.369 75.2463 119.289 75.2518C119.21 75.2572 119.13 75.2405 119.06 75.2036L118.345 74.8179C118.283 74.7844 118.213 74.767 118.142 74.767C118.071 74.767 118.002 74.7844 117.939 74.8179L117.217 75.1914C117.147 75.2374 117.065 75.2609 116.982 75.2586C116.898 75.2564 116.818 75.2285 116.751 75.1789C116.684 75.1292 116.634 75.0601 116.607 74.981C116.581 74.9019 116.58 74.8166 116.603 74.7367L116.746 73.9247C116.76 73.8569 116.756 73.7866 116.736 73.7206C116.715 73.6545 116.678 73.5948 116.628 73.5471L116.051 72.9746C115.994 72.9186 115.954 72.8477 115.936 72.77C115.917 72.6923 115.921 72.6109 115.946 72.5351C115.971 72.4593 116.018 72.3922 116.079 72.3414C116.141 72.2906 116.216 72.2582 116.295 72.2479L117.107 72.1383C117.176 72.1302 117.241 72.1047 117.297 72.0642C117.353 72.0237 117.398 71.9696 117.428 71.9068L117.793 71.1842C117.83 71.1154 117.884 71.0579 117.951 71.0178C118.018 70.9777 118.095 70.9565 118.173 70.9565C118.251 70.9565 118.327 70.9777 118.394 71.0178C118.461 71.0579 118.516 71.1154 118.552 71.1842Z" fill="#B3E3C7"/>
<path d="M98.3168 66.2553C98.3152 66.4496 98.256 66.6391 98.1467 66.7998C98.0374 66.9605 97.8829 67.0851 97.7028 67.158C97.5227 67.2309 97.325 67.2487 97.1347 67.2092C96.9444 67.1697 96.7701 67.0747 96.6339 66.9362C96.4976 66.7976 96.4055 66.6218 96.3691 66.4309C96.3328 66.24 96.3539 66.0426 96.4297 65.8637C96.5056 65.6848 96.6328 65.5324 96.7952 65.4258C96.9577 65.3191 97.1481 65.2631 97.3424 65.2647C97.4714 65.2657 97.599 65.2922 97.7178 65.3426C97.8366 65.3929 97.9443 65.4662 98.0348 65.5582C98.1253 65.6502 98.1967 65.7591 98.2451 65.8787C98.2935 65.9983 98.3179 66.1263 98.3168 66.2553Z" fill="#B3E3C7"/>
<path d="M126.225 56.7753C126.225 56.8322 109.316 56.7428 88.4675 56.5723C67.6194 56.4018 50.7095 56.215 50.7095 56.1663C50.7095 56.1176 67.6153 56.1988 88.4675 56.3693C109.32 56.5398 126.23 56.7185 126.225 56.7753Z" fill="#E0E0E0"/>
<path d="M126.006 83.8227C126.006 83.8836 109.092 83.7902 88.2482 83.6197C67.4042 83.4492 50.4902 83.2624 50.4902 83.2137C50.4902 83.165 67.4001 83.2462 88.2482 83.4167C109.096 83.5872 126.006 83.7658 126.006 83.8227Z" fill="#E0E0E0"/>
<path d="M64.3941 128.184C66.4378 126.141 66.4378 122.827 64.3941 120.783C62.3503 118.74 59.0368 118.74 56.993 120.783C54.9493 122.827 54.9493 126.141 56.993 128.184C59.0368 130.228 62.3503 130.228 64.3941 128.184Z" fill="#B3E3C7"/>
<path d="M92.0849 120.497C92.0849 120.554 87.2332 120.562 81.2447 120.497C75.2562 120.432 70.4004 120.363 70.4004 120.302C70.4004 120.241 75.2724 120.237 81.2447 120.302C87.2169 120.367 92.0889 120.44 92.0849 120.497Z" fill="#263238"/>
<path d="M109.782 125.454C109.782 125.511 100.932 125.486 90.0142 125.397C79.0969 125.308 70.2461 125.186 70.2461 125.129C70.2461 125.072 79.0969 125.097 90.0183 125.186C100.94 125.275 109.782 125.401 109.782 125.454Z" fill="#E0E0E0"/>
<path d="M109.75 129.364C109.75 129.421 100.899 129.396 89.9819 129.307C79.0645 129.218 70.2137 129.096 70.2178 129.039C70.2218 128.982 79.0645 129.006 89.9859 129.096C100.907 129.185 109.75 129.303 109.75 129.364Z" fill="#E0E0E0"/>
<path d="M121.418 119.746C121.418 119.807 119.506 119.835 117.143 119.819C114.78 119.802 112.872 119.733 112.872 119.677C112.872 119.62 114.784 119.587 117.147 119.608C119.51 119.628 121.418 119.689 121.418 119.746Z" fill="#263238"/>
<path d="M118.105 125.19L118.458 125.921C118.488 125.984 118.532 126.038 118.587 126.08C118.642 126.122 118.707 126.149 118.775 126.161L119.587 126.282C119.67 126.286 119.75 126.315 119.817 126.365C119.883 126.416 119.932 126.486 119.957 126.565C119.982 126.644 119.982 126.729 119.958 126.809C119.933 126.888 119.884 126.958 119.819 127.009L119.23 127.573C119.18 127.622 119.143 127.681 119.121 127.747C119.099 127.813 119.093 127.883 119.104 127.951L119.238 128.763C119.25 128.842 119.24 128.922 119.209 128.996C119.178 129.069 119.128 129.132 119.063 129.179C118.998 129.225 118.922 129.252 118.842 129.258C118.763 129.263 118.683 129.247 118.613 129.21L117.898 128.804C117.836 128.77 117.766 128.753 117.695 128.753C117.624 128.753 117.555 128.77 117.492 128.804L116.769 129.177C116.7 129.223 116.618 129.247 116.535 129.244C116.451 129.242 116.371 129.214 116.304 129.165C116.237 129.115 116.187 129.046 116.16 128.967C116.134 128.888 116.133 128.802 116.156 128.722L116.303 127.91C116.316 127.842 116.312 127.772 116.291 127.706C116.27 127.64 116.232 127.58 116.181 127.533L115.604 126.96C115.547 126.904 115.507 126.833 115.489 126.756C115.47 126.678 115.474 126.597 115.499 126.521C115.524 126.445 115.57 126.378 115.632 126.327C115.694 126.276 115.769 126.244 115.848 126.234L116.66 126.124C116.729 126.116 116.794 126.091 116.85 126.05C116.906 126.01 116.951 125.955 116.981 125.893L117.346 125.17C117.385 125.102 117.441 125.046 117.509 125.008C117.577 124.969 117.654 124.95 117.732 124.952C117.81 124.954 117.886 124.978 117.951 125.02C118.017 125.061 118.07 125.12 118.105 125.19Z" fill="#B3E3C7"/>
<path d="M97.8581 120.457C97.9639 119.925 97.6182 119.408 97.086 119.302C96.5537 119.196 96.0365 119.542 95.9308 120.074C95.825 120.606 96.1707 121.123 96.7029 121.229C97.2352 121.335 97.7523 120.989 97.8581 120.457Z" fill="#B3E3C7"/>
<path d="M125.783 110.781C125.783 110.838 108.873 110.749 88.0248 110.578C67.1767 110.408 50.2668 110.221 50.2668 110.172C50.2668 110.123 67.1727 110.205 88.0248 110.375C108.877 110.546 125.787 110.724 125.783 110.781Z" fill="#E0E0E0"/>
<path d="M125.564 137.829C125.564 137.89 108.918 137.78 88.3782 137.585C67.8386 137.39 51.1926 137.179 51.1926 137.131C51.1926 137.082 67.8386 137.179 88.3822 137.374C108.926 137.569 125.564 137.772 125.564 137.829Z" fill="#E0E0E0"/>
<path d="M65.5082 175.887C65.4994 176.922 65.1839 177.931 64.6017 178.786C64.0195 179.642 63.1967 180.306 62.2373 180.694C61.278 181.082 60.2251 181.177 59.2118 180.966C58.1985 180.756 57.2703 180.25 56.5446 179.512C55.8188 178.775 55.328 177.838 55.1343 176.822C54.9405 175.805 55.0526 174.754 55.4562 173.801C55.8597 172.848 56.5368 172.036 57.4017 171.468C58.2667 170.9 59.2807 170.601 60.3155 170.609C61.7038 170.621 63.0307 171.183 64.0044 172.173C64.9781 173.163 65.519 174.499 65.5082 175.887Z" fill="#E0E0E0"/>
<path d="M91.6666 171.86C91.6666 171.917 86.7946 171.925 80.8224 171.86C74.8501 171.795 69.9822 171.726 69.9822 171.665C69.9822 171.604 74.8542 171.6 80.8264 171.665C86.7987 171.73 91.6666 171.803 91.6666 171.86Z" fill="#263238"/>
<path d="M109.36 176.825C109.36 176.882 100.509 176.858 89.596 176.768C78.6827 176.679 69.8279 176.557 69.8279 176.5C69.8279 176.443 78.6787 176.468 89.596 176.557C100.513 176.646 109.36 176.764 109.36 176.825Z" fill="#E0E0E0"/>
<path d="M109.328 180.723C109.328 180.784 100.477 180.759 89.5636 180.67C78.6503 180.581 69.7954 180.459 69.7954 180.402C69.7954 180.345 78.6462 180.365 89.5636 180.455C100.481 180.544 109.332 180.67 109.328 180.723Z" fill="#E0E0E0"/>
<path d="M120.988 171.109C120.988 171.166 119.076 171.198 116.717 171.178C114.358 171.157 112.442 171.096 112.442 171.04C112.442 170.983 114.358 170.95 116.717 170.967C119.076 170.983 120.988 171.052 120.988 171.109Z" fill="#263238"/>
<path d="M97.4399 171.624C97.4383 171.819 97.3791 172.008 97.2698 172.169C97.1605 172.33 97.006 172.454 96.8258 172.527C96.6457 172.6 96.448 172.618 96.2577 172.578C96.0675 172.539 95.8932 172.444 95.7569 172.305C95.6206 172.167 95.5285 171.991 95.4922 171.8C95.4558 171.609 95.4769 171.412 95.5528 171.233C95.6286 171.054 95.7558 170.902 95.9183 170.795C96.0807 170.688 96.2712 170.632 96.4655 170.634C96.5945 170.635 96.7221 170.661 96.8409 170.712C96.9597 170.762 97.0674 170.835 97.1579 170.927C97.2483 171.019 97.3198 171.128 97.3682 171.248C97.4166 171.367 97.4409 171.495 97.4399 171.624Z" fill="#B3E3C7"/>
<path d="M126.425 83.829L51.135 83.2114L50.9131 110.258L126.203 110.876L126.425 83.829Z" fill="#F5F5F5"/>
<path d="M64.771 100.655C66.8148 98.6114 66.8148 95.2978 64.771 93.2541C62.7273 91.2103 59.4137 91.2103 57.37 93.2541C55.3262 95.2978 55.3262 98.6114 57.37 100.655C59.4137 102.699 62.7273 102.699 64.771 100.655Z" fill="#455A64"/>
<path d="M92.4623 92.9738C92.4623 93.0347 87.5903 93.0429 81.6221 92.9941C75.6539 92.9454 70.7778 92.8561 70.7778 92.7993C70.7778 92.7424 75.6498 92.7302 81.6221 92.7993C87.5944 92.8683 92.4623 92.9089 92.4623 92.9738Z" fill="#263238"/>
<path d="M110.16 97.9314C110.16 97.9923 101.309 97.9639 90.3919 97.8745C79.4746 97.7852 70.6238 97.6675 70.6238 97.6066C70.6238 97.5457 79.4746 97.5741 90.3919 97.6634C101.309 97.7527 110.16 97.8745 110.16 97.9314Z" fill="#E0E0E0"/>
<path d="M110.127 101.833C110.127 101.89 101.277 101.865 90.3592 101.776C79.4419 101.687 70.5911 101.569 70.5911 101.508C70.5911 101.447 79.4419 101.475 90.3633 101.565C101.285 101.654 110.127 101.776 110.127 101.833Z" fill="#E0E0E0"/>
<path d="M121.8 92.2191C121.8 92.2759 119.884 92.3084 117.525 92.2881C116.1 92.3125 114.674 92.2651 113.254 92.146C113.254 92.0892 115.166 92.0567 117.529 92.077C118.954 92.0526 120.38 92.1 121.8 92.2191Z" fill="#263238"/>
<path d="M118.483 97.6632C118.483 97.6632 118.45 97.6185 118.377 97.5536C118.326 97.5104 118.264 97.4808 118.198 97.4673C118.132 97.4539 118.064 97.457 118 97.4764C117.909 97.5014 117.832 97.5612 117.785 97.6429C117.732 97.7322 117.679 97.854 117.622 97.9717L117.435 98.3777C117.403 98.463 117.348 98.538 117.276 98.5951C117.205 98.6521 117.12 98.6892 117.029 98.7025L116.506 98.7837L116.23 98.8243C116.152 98.8375 116.081 98.8778 116.031 98.938C115.977 98.9994 115.948 99.078 115.948 99.1593C115.948 99.2406 115.977 99.3192 116.031 99.3806L116.493 99.8353L116.615 99.953C116.664 99.9993 116.704 100.054 116.733 100.115C116.79 100.243 116.8 100.387 116.761 100.521C116.721 100.751 116.68 100.987 116.64 101.228C116.627 101.275 116.625 101.324 116.633 101.372C116.642 101.42 116.662 101.465 116.691 101.504C116.72 101.543 116.757 101.575 116.801 101.598C116.844 101.62 116.891 101.633 116.94 101.634C117.033 101.634 117.119 101.585 117.241 101.524L117.586 101.35C117.703 101.279 117.829 101.221 117.959 101.179C118.033 101.165 118.109 101.165 118.183 101.18C118.257 101.196 118.327 101.226 118.39 101.268L119.039 101.618C119.08 101.638 119.124 101.649 119.17 101.651C119.215 101.653 119.26 101.645 119.303 101.629C119.345 101.613 119.383 101.588 119.416 101.556C119.448 101.524 119.473 101.485 119.49 101.443C119.518 101.349 119.518 101.249 119.49 101.155C119.49 101.041 119.457 100.931 119.437 100.822L119.388 100.493C119.364 100.364 119.388 100.231 119.457 100.119C119.526 100.031 119.604 99.9492 119.689 99.8759L119.912 99.6688L120.123 99.4699C120.18 99.4184 120.22 99.3502 120.237 99.275C120.25 99.2034 120.241 99.1294 120.21 99.0633C120.18 98.9971 120.129 98.942 120.066 98.9055C119.921 98.8585 119.771 98.8259 119.62 98.8081L119.214 98.735C119.145 98.7289 119.077 98.7084 119.017 98.6748C118.956 98.6413 118.903 98.5954 118.86 98.5401C118.806 98.4461 118.759 98.3484 118.718 98.2478C118.629 98.074 118.557 97.8917 118.503 97.7038C118.615 97.8642 118.713 98.034 118.796 98.2113C118.839 98.3035 118.887 98.393 118.942 98.4792C118.978 98.521 119.023 98.5549 119.074 98.5786C119.124 98.6024 119.178 98.6155 119.234 98.6173L119.64 98.6741C119.809 98.6864 119.975 98.7205 120.135 98.7756C120.205 98.8141 120.265 98.8684 120.31 98.9343C120.355 99.0002 120.384 99.0758 120.394 99.1549C120.404 99.234 120.396 99.3144 120.369 99.3895C120.343 99.4647 120.299 99.5326 120.241 99.5876L120.03 99.7906L119.815 100.006C119.741 100.067 119.674 100.137 119.616 100.213C119.574 100.287 119.559 100.373 119.575 100.456C119.595 100.566 119.612 100.676 119.632 100.785C119.652 100.895 119.668 101.005 119.689 101.118C119.73 101.25 119.73 101.392 119.689 101.524C119.663 101.594 119.623 101.657 119.571 101.71C119.519 101.763 119.457 101.804 119.388 101.831C119.319 101.859 119.245 101.871 119.171 101.868C119.097 101.864 119.024 101.846 118.958 101.813L118.304 101.463C118.263 101.432 118.216 101.41 118.165 101.398C118.115 101.386 118.063 101.385 118.012 101.394C117.901 101.436 117.794 101.487 117.691 101.545L117.35 101.719L117.176 101.808C117.103 101.841 117.024 101.857 116.944 101.853C116.867 101.849 116.792 101.829 116.724 101.794C116.656 101.758 116.596 101.709 116.549 101.648C116.502 101.588 116.468 101.518 116.45 101.443C116.432 101.369 116.43 101.291 116.445 101.216C116.489 100.976 116.534 100.741 116.575 100.513C116.608 100.423 116.608 100.324 116.575 100.233C116.523 100.146 116.456 100.068 116.376 100.006L115.893 99.4699C115.811 99.3749 115.766 99.254 115.766 99.1288C115.766 99.0037 115.811 98.8828 115.893 98.7878C115.972 98.7 116.08 98.6426 116.197 98.6254L116.477 98.5889L117.005 98.5239C117.074 98.5162 117.14 98.4898 117.195 98.4476C117.25 98.4054 117.292 98.3489 117.318 98.2844L117.517 97.9027C117.582 97.785 117.634 97.6794 117.699 97.5698C117.765 97.4731 117.865 97.4049 117.979 97.379C118.056 97.3606 118.135 97.3629 118.21 97.3857C118.285 97.4086 118.353 97.4511 118.406 97.5089C118.475 97.6023 118.487 97.6591 118.483 97.6632Z" fill="#263238"/>
<path d="M98.2519 92.7348C98.2503 92.9291 98.1911 93.1186 98.0818 93.2793C97.9725 93.4399 97.818 93.5646 97.6379 93.6375C97.4577 93.7103 97.26 93.7282 97.0697 93.6887C96.8795 93.6492 96.7052 93.5542 96.5689 93.4156C96.4327 93.2771 96.3405 93.1013 96.3042 92.9104C96.2679 92.7195 96.2889 92.5221 96.3648 92.3432C96.4406 92.1643 96.5678 92.0119 96.7303 91.9053C96.8927 91.7986 97.0832 91.7426 97.2775 91.7442C97.5377 91.7474 97.7862 91.8533 97.9687 92.0388C98.1512 92.2244 98.253 92.4745 98.2519 92.7348Z" fill="#B3E3C7"/>
<path d="M126.482 137.748L51.1921 137.131L50.9703 164.178L126.26 164.795L126.482 137.748Z" fill="#F5F5F5"/>
<path d="M64.8279 154.573C66.8717 152.529 66.8717 149.215 64.8279 147.172C62.7842 145.128 59.4706 145.128 57.4268 147.172C55.3831 149.215 55.3831 152.529 57.4268 154.573C59.4706 156.616 62.7842 156.616 64.8279 154.573Z" fill="#455A64"/>
<path d="M92.5192 146.887C92.5192 146.943 87.6472 146.952 81.679 146.887C75.7108 146.822 70.8347 146.753 70.8347 146.692C70.8347 146.631 75.7067 146.627 81.679 146.692C87.6512 146.757 92.5192 146.83 92.5192 146.887Z" fill="#263238"/>
<path d="M110.217 151.844C110.217 151.901 101.366 151.877 90.4488 151.787C79.5315 151.698 70.6807 151.576 70.6807 151.519C70.6807 151.463 79.5315 151.487 90.4488 151.576C101.366 151.666 110.217 151.791 110.217 151.844Z" fill="#E0E0E0"/>
<path d="M110.184 155.754C110.184 155.811 101.334 155.786 90.4162 155.697C79.4989 155.608 70.644 155.498 70.644 155.429C70.644 155.36 79.4948 155.397 90.4162 155.486C101.338 155.575 110.184 155.693 110.184 155.754Z" fill="#E0E0E0"/>
<path d="M121.853 146.136C121.853 146.197 119.936 146.225 117.578 146.209C115.219 146.193 113.306 146.124 113.306 146.067C113.306 146.01 115.219 145.977 117.582 145.998C119.944 146.018 121.853 146.079 121.853 146.136Z" fill="#263238"/>
<path d="M118.552 151.58C118.552 151.58 118.519 151.536 118.446 151.475C118.395 151.431 118.334 151.401 118.268 151.386C118.202 151.372 118.134 151.375 118.069 151.394C117.979 151.42 117.902 151.48 117.854 151.56C117.801 151.653 117.748 151.775 117.691 151.893C117.634 152.011 117.569 152.145 117.504 152.279C117.473 152.365 117.418 152.441 117.347 152.499C117.275 152.557 117.189 152.594 117.098 152.608L116.575 152.685L116.299 152.729C116.239 152.738 116.182 152.763 116.135 152.802C116.089 152.841 116.053 152.891 116.033 152.949C116.013 153.006 116.009 153.068 116.022 153.127C116.034 153.186 116.062 153.241 116.104 153.286L116.567 153.736L116.688 153.854C116.738 153.901 116.778 153.958 116.806 154.02C116.865 154.148 116.876 154.292 116.835 154.426C116.794 154.659 116.753 154.895 116.713 155.133C116.703 155.178 116.703 155.226 116.713 155.271C116.723 155.317 116.743 155.36 116.772 155.397C116.801 155.433 116.837 155.464 116.879 155.485C116.921 155.506 116.967 155.517 117.013 155.519C117.121 155.513 117.226 155.476 117.314 155.413L117.659 155.234C117.777 155.165 117.902 155.108 118.032 155.064C118.182 155.037 118.337 155.071 118.463 155.157L119.112 155.506C119.153 155.526 119.197 155.538 119.243 155.54C119.288 155.542 119.333 155.534 119.376 155.518C119.418 155.501 119.457 155.476 119.489 155.444C119.521 155.412 119.546 155.374 119.563 155.332C119.591 155.238 119.591 155.138 119.563 155.044C119.563 154.93 119.53 154.816 119.51 154.707L119.461 154.382C119.436 154.253 119.461 154.12 119.53 154.008C119.599 153.92 119.677 153.838 119.762 153.765L119.985 153.558L120.196 153.355C120.255 153.304 120.295 153.236 120.31 153.16C120.323 153.089 120.313 153.015 120.283 152.95C120.252 152.884 120.202 152.83 120.139 152.794C119.995 152.745 119.845 152.713 119.693 152.697L119.287 152.624C119.217 152.617 119.15 152.596 119.089 152.561C119.029 152.527 118.975 152.481 118.934 152.425C118.88 152.332 118.832 152.236 118.792 152.137C118.701 151.962 118.629 151.778 118.576 151.588C118.688 151.751 118.785 151.922 118.869 152.1C118.912 152.191 118.961 152.279 119.015 152.364C119.051 152.406 119.096 152.441 119.146 152.466C119.196 152.49 119.251 152.504 119.307 152.506L119.713 152.563C119.87 152.577 120.026 152.608 120.176 152.656C120.269 152.706 120.344 152.784 120.391 152.878C120.438 152.973 120.453 153.08 120.436 153.184C120.418 153.296 120.364 153.399 120.282 153.476L120.07 153.679L119.855 153.891C119.782 153.954 119.716 154.025 119.656 154.102C119.614 154.175 119.599 154.262 119.616 154.345C119.636 154.455 119.652 154.56 119.673 154.67C119.693 154.78 119.709 154.893 119.729 155.007C119.768 155.14 119.768 155.28 119.729 155.413C119.702 155.482 119.661 155.544 119.609 155.596C119.556 155.649 119.493 155.689 119.424 155.716C119.355 155.743 119.281 155.755 119.207 155.752C119.133 155.748 119.061 155.73 118.995 155.697C118.779 155.584 118.56 155.47 118.341 155.348C118.256 155.289 118.151 155.264 118.049 155.279C117.938 155.323 117.831 155.374 117.728 155.433L117.387 155.608L117.212 155.697C117.139 155.727 117.06 155.741 116.981 155.738C116.904 155.734 116.83 155.714 116.762 155.679C116.694 155.644 116.635 155.594 116.587 155.534C116.54 155.474 116.506 155.405 116.488 155.331C116.47 155.257 116.467 155.18 116.481 155.104C116.526 154.865 116.571 154.629 116.611 154.398C116.645 154.308 116.645 154.208 116.611 154.118C116.557 154.032 116.49 153.955 116.412 153.891L115.949 153.424C115.868 153.329 115.823 153.208 115.823 153.083C115.823 152.957 115.868 152.836 115.949 152.742C116.03 152.654 116.137 152.596 116.254 152.575L116.534 152.539L117.062 152.474C117.131 152.468 117.197 152.442 117.252 152.401C117.307 152.359 117.35 152.303 117.375 152.238L117.574 151.856C117.638 151.735 117.691 151.629 117.756 151.524C117.821 151.425 117.921 151.355 118.036 151.329C118.109 151.315 118.185 151.319 118.256 151.342C118.327 151.365 118.391 151.405 118.442 151.459C118.552 151.524 118.552 151.58 118.552 151.58Z" fill="#263238"/>
<path d="M98.3088 146.651C98.3071 146.846 98.2479 147.035 98.1386 147.196C98.0294 147.356 97.8749 147.481 97.6947 147.554C97.5146 147.627 97.3169 147.645 97.1266 147.605C96.9364 147.566 96.7621 147.471 96.6258 147.332C96.4895 147.194 96.3974 147.018 96.3611 146.827C96.3247 146.636 96.3458 146.439 96.4217 146.26C96.4975 146.081 96.6247 145.928 96.7872 145.822C96.9496 145.715 97.14 145.659 97.3344 145.661C97.4634 145.662 97.5909 145.688 97.7097 145.739C97.8285 145.789 97.9362 145.862 98.0267 145.954C98.1172 146.046 98.1887 146.155 98.2371 146.275C98.2855 146.394 98.3098 146.522 98.3088 146.651Z" fill="#B3E3C7"/>
<path d="M91.8365 46.7472L85.5275 46.6955C85.023 46.6913 84.6107 47.097 84.6065 47.6015L84.5676 52.3434C84.5635 52.8479 84.9691 53.2602 85.4736 53.2643L91.7826 53.3161C92.2871 53.3202 92.6994 52.9146 92.7036 52.4101L92.7425 47.6682C92.7466 47.1637 92.341 46.7514 91.8365 46.7472Z" fill="#B3E3C7"/>
<path d="M92.3041 46.9987C92.2362 47.1234 92.1515 47.2381 92.0524 47.3397C91.8819 47.5509 91.6464 47.8513 91.3094 48.2208L90.1889 49.5078L89.519 50.2629C89.4028 50.4045 89.2795 50.54 89.1495 50.6689C88.9849 50.8049 88.7734 50.8705 88.5608 50.8516C88.3501 50.8297 88.1563 50.7262 88.0208 50.5634L87.6595 50.1574L86.9815 49.4103L85.8447 48.1396C85.5199 47.7742 85.2641 47.4778 85.0895 47.2667C84.9899 47.166 84.9039 47.0527 84.8337 46.9297C84.8337 46.9297 84.9555 47.019 85.1504 47.2139C85.3453 47.4088 85.6173 47.6848 85.9624 48.0259L87.1317 49.2682L87.8219 50.0072L88.1832 50.4132C88.2325 50.4745 88.2934 50.5254 88.3625 50.5629C88.4315 50.6004 88.5074 50.6238 88.5856 50.6318C88.6638 50.6397 88.7428 50.632 88.818 50.6091C88.8932 50.5862 88.9631 50.5486 89.0237 50.4984C89.1333 50.401 89.2591 50.2426 89.3728 50.1208L90.0508 49.3738L91.2079 48.1152C91.5368 47.762 91.8088 47.4737 92.0199 47.3032C92.1016 47.1902 92.1971 47.0879 92.3041 46.9987Z" fill="white"/>
<path d="M87.416 49.9746C87.0226 50.5007 86.5868 50.9936 86.1127 51.4484C85.686 51.9532 85.1945 52.3996 84.6511 52.776C85.0455 52.2495 85.4827 51.7565 85.9584 51.3022C86.3844 50.7981 86.8744 50.3518 87.416 49.9746Z" fill="white"/>
<path d="M92.698 52.9301C92.146 52.4896 91.6412 51.993 91.1917 51.4482C90.6884 50.9519 90.2343 50.408 89.8357 49.8242C90.3885 50.2652 90.8946 50.7618 91.346 51.3061C91.8488 51.8019 92.3016 52.3458 92.698 52.9301Z" fill="white"/>
<path d="M62.4305 49.3858C62.4305 49.4223 61.042 49.4507 59.3286 49.4507C57.6153 49.4507 56.2268 49.4223 56.2268 49.3858C56.2268 49.3492 57.6153 49.3208 59.3286 49.3208C61.042 49.3208 62.4305 49.3492 62.4305 49.3858Z" fill="#263238"/>
<path d="M62.4305 50.9732C62.4305 51.0097 61.042 51.0381 59.3286 51.0381C57.6153 51.0381 56.2268 51.0097 56.2268 50.9732C56.2268 50.9366 57.6153 50.9082 59.3286 50.9082C61.042 50.9082 62.4305 50.9366 62.4305 50.9732Z" fill="#263238"/>
<path d="M62.4305 52.5611C62.4305 52.5976 61.042 52.6301 59.3286 52.6301C57.6153 52.6301 56.2268 52.5976 56.2268 52.5651C56.2268 52.5326 57.6153 52.4961 59.3286 52.4961C61.042 52.4961 62.4305 52.5286 62.4305 52.5611Z" fill="#263238"/>
<path d="M120.655 50.3967C120.635 50.3967 120.655 50.2424 120.566 49.9907C120.466 49.6313 120.248 49.3156 119.949 49.0935C119.709 48.9113 119.423 48.7995 119.123 48.7706C118.823 48.7417 118.521 48.7968 118.25 48.9297C117.98 49.0626 117.752 49.2682 117.592 49.5233C117.431 49.7785 117.345 50.0732 117.343 50.3744C117.341 50.6757 117.422 50.9717 117.578 51.2294C117.735 51.487 117.959 51.696 118.228 51.8332C118.496 51.9703 118.797 52.0301 119.097 52.0059C119.398 51.9816 119.685 51.8743 119.928 51.6959C120.23 51.4757 120.452 51.1638 120.562 50.8068C120.635 50.551 120.635 50.4008 120.655 50.4008C120.66 50.4371 120.66 50.4741 120.655 50.5104C120.657 50.6169 120.646 50.7233 120.623 50.8271C120.534 51.2161 120.313 51.5621 119.997 51.8055C119.731 52.005 119.414 52.126 119.082 52.1549C118.751 52.1838 118.417 52.1195 118.12 51.9692C117.823 51.8189 117.574 51.5886 117.401 51.3042C117.228 51.0199 117.138 50.6928 117.141 50.36C117.144 50.0271 117.239 49.7016 117.417 49.4203C117.595 49.139 117.848 48.9129 118.148 48.7677C118.447 48.6225 118.782 48.5639 119.113 48.5985C119.444 48.6331 119.759 48.7596 120.022 48.9635C120.334 49.2124 120.548 49.5631 120.627 49.9542C120.65 50.0581 120.659 50.1645 120.655 50.2709C120.665 50.3123 120.665 50.3553 120.655 50.3967Z" fill="#263238"/>
<path d="M121.568 53.3443C121.257 53.1358 120.982 52.8764 120.756 52.5769C120.479 52.3184 120.247 52.0151 120.07 51.6797C120.382 51.8882 120.657 52.1476 120.882 52.447C121.161 52.7046 121.393 53.0081 121.568 53.3443Z" fill="#263238"/>
<path d="M116.851 135.198L116.794 157.017L107.152 155.035L99.0317 153.338C99.0317 153.338 110.148 175.262 122.239 175.262C134.329 175.262 135.892 157.021 135.892 157.021L136.611 135.198H116.851Z" fill="#9B7564"/>
<path d="M166.939 78.9143C166.054 79.4177 164.836 78.7641 164.43 77.8221C164.024 76.8802 164.211 75.7921 164.52 74.8015C164.828 73.8109 165.258 72.8608 165.332 71.8336C165.368 70.896 165.101 69.9715 164.572 69.1966C164.043 68.4218 163.279 67.8375 162.392 67.53C164.138 66.1456 164.28 63.1777 162.676 61.6309C161.925 60.9082 160.926 60.5144 160.054 59.946C159.557 59.618 159.095 59.2413 158.673 58.8213C159.452 59.0133 160.263 59.0383 161.052 58.8944C161.685 58.7556 162.272 58.4597 162.761 58.0339C163.249 57.6082 163.622 57.0664 163.846 56.4584C164.052 55.8427 164.082 55.1817 163.933 54.5497C163.784 53.9178 163.461 53.3401 163.001 52.8816C162.527 52.4376 161.929 52.1485 161.286 52.0528C160.643 51.957 159.987 52.0592 159.404 52.3456C158.275 52.9425 157.658 54.1686 157.11 55.3216L156.598 56.3894C155.011 54.2863 153.517 52.1142 151.069 51.3753C148.848 50.7054 146.461 51.4524 144.146 51.286C142.462 51.1601 140.846 50.5552 139.165 50.3684C137.484 50.1817 135.572 50.543 134.581 51.9112C133.996 52.7232 133.814 53.7545 133.225 54.5543C132.007 56.2026 129.384 56.4259 128.385 58.2083C127.573 59.6618 128.199 61.4969 127.85 63.1249C127.472 64.8951 126.01 66.1902 124.817 67.5503C123.623 68.9104 122.58 70.778 123.25 72.4589C123.842 73.9408 125.568 74.7365 126.128 76.2266C126.534 77.3146 126.242 78.5205 126.222 79.6816C126.201 80.8428 126.664 82.2232 127.797 82.4871L140.679 85.8894C145.117 87.692 149.692 89.5434 154.483 89.519C159.274 89.4946 164.386 87.2129 166.257 82.8119C165.561 82.7856 164.9 82.4953 164.41 81.9999C165.035 81.7075 165.587 81.2785 166.025 80.7445C166.463 80.2105 166.775 79.585 166.939 78.9143Z" fill="#263238"/>
<path d="M156.379 82.954C157.443 79.706 158.49 76.397 158.974 72.9948C159.457 69.5925 159.355 66.0441 158.162 62.8448C157.983 62.3576 156.436 59.0812 155.916 59.1339C155.547 59.1705 156.497 62.2236 156.322 62.5484C154.536 65.6178 154.049 69.3083 154.337 72.8527C154.645 76.2926 155.335 79.6875 156.395 82.9742" fill="#263238"/>
<path d="M145.003 111.512C150.33 111.398 156.371 99.7381 156.371 99.7381L156.716 69.8322C156.992 61.2209 152.214 53.8804 143.598 53.8398L142.786 53.8804C138.922 54.0917 135.278 55.7475 132.578 58.5195C129.877 61.2915 128.317 64.9772 128.207 68.8456C128.008 76.3119 127.878 84.5659 128.142 88.5528C128.686 96.8028 137.013 97.6432 137.013 97.6432C137.013 97.6432 137.062 99.5595 137.086 101.987C137.143 107.436 142.847 111.683 144.983 111.5L145.003 111.512Z" fill="#9B7564"/>
<path d="M137.033 97.6554C137.033 97.6554 142.254 97.6838 147.614 93.8999C147.614 93.8999 145.316 100.047 137.037 99.7463L137.033 97.6554Z" fill="#7F6358"/>
<path d="M131.792 75.3373C131.806 75.6478 131.941 75.9404 132.169 76.1517C132.397 76.363 132.699 76.4759 133.01 76.466C133.16 76.4697 133.31 76.4435 133.45 76.3887C133.59 76.3339 133.717 76.2518 133.825 76.147C133.933 76.0423 134.019 75.917 134.077 75.7787C134.136 75.6403 134.167 75.4916 134.167 75.3413C134.154 75.0301 134.019 74.7365 133.791 74.5243C133.563 74.3122 133.26 74.1987 132.949 74.2086C132.798 74.2048 132.649 74.2312 132.508 74.2862C132.368 74.3412 132.24 74.4238 132.133 74.529C132.025 74.6342 131.939 74.7599 131.881 74.8987C131.822 75.0375 131.792 75.1866 131.792 75.3373Z" fill="#263238"/>
<path d="M130.176 72.1911C130.33 72.3372 131.187 71.6267 132.457 71.5618C133.728 71.4968 134.69 72.0855 134.82 71.9191C134.881 71.85 134.719 71.578 134.297 71.306C133.728 70.9537 133.064 70.7876 132.397 70.831C131.736 70.8637 131.104 71.1054 130.59 71.5212C130.216 71.8622 130.099 72.1261 130.176 72.1911Z" fill="#263238"/>
<path d="M143.221 75.0329C143.234 75.3434 143.37 75.636 143.598 75.8473C143.826 76.0586 144.128 76.1715 144.439 76.1616C144.589 76.1654 144.739 76.139 144.879 76.0839C145.02 76.0289 145.147 75.9464 145.255 75.8412C145.363 75.736 145.449 75.6103 145.507 75.4715C145.566 75.3326 145.596 75.1835 145.596 75.0329C145.582 74.7259 145.449 74.4364 145.226 74.2257C145.002 74.015 144.705 73.8997 144.398 73.9042C144.246 73.8982 144.094 73.9229 143.952 73.9769C143.809 74.0309 143.679 74.113 143.57 74.2184C143.46 74.3237 143.372 74.4501 143.312 74.5901C143.252 74.73 143.221 74.8806 143.221 75.0329Z" fill="#263238"/>
<path d="M142.632 72.0366C142.786 72.1828 143.647 71.4763 144.914 71.4114C146.18 71.3464 147.147 71.9311 147.277 71.7687C147.342 71.6956 147.179 71.4276 146.753 71.1515C146.183 70.8015 145.52 70.6356 144.853 70.6765C144.193 70.7101 143.56 70.9517 143.046 71.3667C142.677 71.6874 142.559 71.9716 142.632 72.0366Z" fill="#263238"/>
<path d="M138.604 82.0325C138.604 81.9594 137.792 81.866 136.522 81.7726C136.197 81.7726 135.888 81.7077 135.819 81.4884C135.773 81.1556 135.831 80.8165 135.986 80.5181C136.256 79.7061 136.527 78.8657 136.798 77.9968C137.943 74.4159 138.751 71.4724 138.604 71.4278C138.458 71.3831 137.415 74.2698 136.274 77.8385C136.002 78.7195 135.738 79.564 135.49 80.3679C135.306 80.7701 135.27 81.2246 135.389 81.6508C135.442 81.7624 135.521 81.8603 135.618 81.937C135.715 82.0137 135.828 82.0672 135.949 82.0934C136.13 82.1336 136.316 82.15 136.501 82.1421C137.805 82.1421 138.6 82.1056 138.604 82.0325Z" fill="#263238"/>
<path d="M142.384 82.7103C142.177 82.7103 142.25 84.0866 141.122 85.126C139.993 86.1653 138.523 86.0963 138.523 86.2871C138.523 86.3765 138.864 86.5389 139.481 86.5226C140.289 86.49 141.06 86.1737 141.658 85.6294C142.233 85.1048 142.581 84.3766 142.628 83.5994C142.652 83.031 142.478 82.6981 142.384 82.7103Z" fill="#263238"/>
<path d="M142.425 66.8842C142.571 67.2253 143.83 66.9938 145.328 67.0913C146.826 67.1887 148.052 67.5338 148.231 67.2131C148.312 67.0588 148.085 66.7462 147.581 66.4376C146.911 66.0638 146.165 65.8472 145.399 65.8043C144.633 65.7614 143.867 65.8933 143.16 66.19C142.624 66.4376 142.364 66.7259 142.425 66.8842Z" fill="#263238"/>
<path d="M130.472 67.944C130.712 68.2201 131.572 67.875 132.62 67.8059C133.667 67.7369 134.573 67.8953 134.759 67.5826C134.845 67.4324 134.686 67.1482 134.284 66.8965C133.744 66.5983 133.128 66.4669 132.513 66.5189C131.898 66.571 131.312 66.8041 130.829 67.1888C130.472 67.5055 130.367 67.8019 130.472 67.944Z" fill="#263238"/>
<path d="M156.371 75.9951C156.509 75.9261 161.953 74.0139 162.079 79.6492C162.205 85.2844 156.497 84.2573 156.485 84.1152C156.472 83.9731 156.371 75.9951 156.371 75.9951Z" fill="#9B7564"/>
<path d="M158.165 81.9391C158.19 81.9391 158.267 82.0041 158.433 82.0772C158.669 82.1722 158.933 82.1722 159.168 82.0772C159.761 81.8458 160.244 80.8835 160.252 79.8645C160.254 79.3793 160.148 78.8996 159.944 78.4597C159.887 78.2848 159.788 78.1262 159.657 77.9976C159.525 77.8689 159.365 77.7739 159.189 77.7208C159.074 77.6935 158.954 77.707 158.849 77.7589C158.744 77.8108 158.66 77.8979 158.612 78.005C158.539 78.1633 158.58 78.277 158.547 78.2851C158.515 78.2933 158.425 78.1918 158.466 77.9603C158.495 77.819 158.571 77.6916 158.681 77.599C158.756 77.5385 158.843 77.4938 158.935 77.4673C159.028 77.4408 159.125 77.4331 159.221 77.4447C159.454 77.4856 159.672 77.5854 159.856 77.7346C160.039 77.8839 160.181 78.0776 160.269 78.2973C160.522 78.7821 160.651 79.3217 160.646 79.8685C160.646 81.0094 160.074 82.0853 159.262 82.3411C159.111 82.389 158.951 82.4022 158.794 82.3797C158.637 82.3572 158.488 82.2996 158.356 82.2112C158.178 82.0731 158.145 81.9473 158.165 81.9391Z" fill="#7F6358"/>
<path d="M131.767 59.4425C130.846 58.9513 133.554 55.9509 135.791 54.8994C139.169 53.316 144.349 52.301 147.492 53.1495C151.28 54.1686 154.438 55.9915 156.379 59.4182C158.32 62.8448 159.083 66.8195 159.022 70.7415C159.002 71.9392 158.896 73.1775 158.267 74.2087C157.495 75.4673 155.989 76.2753 156.079 78.0008C156.104 78.3127 156.067 78.6265 155.97 78.9241C155.873 79.2217 155.718 79.4971 155.514 79.7344C154.491 80.8468 153.212 79.8278 152.619 78.8006C151.345 76.6001 151.174 73.957 151.032 71.4236C150.93 69.6209 150.833 67.7696 151.32 66.04C151.584 65.094 152.019 64.1968 152.23 63.2386C152.441 62.2804 152.4 61.2086 151.791 60.4169C151.651 60.25 151.496 60.0964 151.328 59.9581C150.53 59.2809 149.566 58.8279 148.535 58.6453C147.505 58.4627 146.444 58.557 145.462 58.9188C142.291 60.0881 136.875 61.842 135.442 60.7783C133.379 59.2476 132.876 58.2408 132.876 58.2408L131.767 59.4425Z" fill="#263238"/>
<path d="M147.187 52.3739C144.069 51.3751 140.529 51.4766 137.642 53.0235C136.108 53.8355 134.727 55.1428 134.281 56.8196C133.834 58.4963 134.573 60.5548 136.189 61.1881L136.303 61.2571C138.739 62.0367 140.289 61.6956 142.685 60.8308C144.715 60.1041 146.485 58.8333 148.503 58.1147C150.666 57.3537 153.007 57.2561 155.226 57.8346C153.034 55.4067 150.31 53.3848 147.187 52.3739Z" fill="#263238"/>
<path d="M157.934 57.9767C157.885 58.0173 157.431 57.4773 156.513 56.8399C155.979 56.467 155.403 56.159 154.796 55.9223C154.07 55.6164 153.284 55.4777 152.498 55.5163C151.057 55.6765 149.691 56.2394 148.555 57.1403C147.679 57.8346 147.273 58.4192 147.22 58.3786C147.167 58.338 147.281 58.2041 147.467 57.9442C147.734 57.5758 148.04 57.2382 148.381 56.9373C149.523 55.9284 150.95 55.2999 152.465 55.1388C153.308 55.0904 154.151 55.2405 154.926 55.5772C155.551 55.8391 156.139 56.1847 156.671 56.6044C157.585 57.3393 157.975 57.9523 157.934 57.9767Z" fill="#455A64"/>
<path d="M158.507 59.9784C158.459 60.5407 158.314 61.0905 158.076 61.6024C157.06 64.1371 155.194 66.2397 152.798 67.5503C152.322 67.8465 151.797 68.0555 151.247 68.1674C151.178 68.0578 153.622 67.1321 155.673 64.7854C157.723 62.4387 158.389 59.9256 158.507 59.9784Z" fill="#455A64"/>
<path d="M160.809 60.8999C160.853 61.1109 160.86 61.328 160.829 61.5414C160.799 62.1267 160.718 62.7082 160.585 63.2791C160.151 65.1819 159.253 66.9477 157.971 68.419C156.689 69.8904 155.062 71.0216 153.237 71.7117C152.689 71.9201 152.124 72.0804 151.548 72.1908C151.34 72.2511 151.122 72.2732 150.906 72.2557C150.906 72.1908 151.795 72.0365 153.135 71.4437C154.883 70.7075 156.44 69.5814 157.686 68.1516C158.932 66.7218 159.835 65.026 160.325 63.1938C160.707 61.8053 160.74 60.8999 160.809 60.8999Z" fill="#455A64"/>
<path d="M140.712 51.8667C140.712 51.9317 140.123 52.0697 139.213 52.431C136.827 53.3793 134.798 55.052 133.412 57.2137C133.155 57.6814 132.875 58.1354 132.571 58.5738C132.679 58.0409 132.886 57.5328 133.18 57.0757C133.829 55.9302 134.682 54.9134 135.697 54.0753C136.713 53.2379 137.875 52.5964 139.124 52.1834C139.63 51.9836 140.168 51.8764 140.712 51.8667Z" fill="#455A64"/>
<path d="M162.583 52.5768C162.676 52.5768 162.429 54.2008 161.15 55.7233C159.871 57.2458 158.308 57.7736 158.308 57.6802C158.308 57.5869 159.676 56.9251 160.869 55.4797C162.063 54.0344 162.469 52.5403 162.583 52.5768Z" fill="#455A64"/>
<path d="M102.499 153.521L105.852 151.463C106.421 151.116 107.074 150.933 107.74 150.931H114.236L120.943 157.041L122.945 158.04L122.198 168.596L117.838 168.06C117.838 168.06 108.528 168.466 107.627 167.861C106.725 167.256 105.422 165.356 105.422 165.356C105.422 165.356 100.319 163.703 99.8192 163.257C97.9232 161.556 98.6865 161.15 98.6865 161.15L97.8136 160.744C97.6512 161.052 96.3804 158.982 96.5144 157.942C96.5915 157.337 96.4129 157.341 96.4129 157.341C95.9898 157.098 95.6251 156.766 95.3445 156.367C95.0639 155.967 94.8743 155.512 94.7889 155.031C94.6955 154.414 97.2249 154.857 97.2249 154.857L103.53 154.942L102.499 153.521Z" fill="#9B7564"/>
<path d="M108.106 154.8L102.174 146.724C101.959 146.43 101.678 146.192 101.354 146.027C101.029 145.863 100.67 145.777 100.306 145.778H88.5811C88.355 145.778 88.1381 145.868 87.9782 146.028C87.8183 146.188 87.7285 146.405 87.7285 146.631C87.7305 146.835 87.8037 147.032 87.9356 147.187L94.6549 154.982L108.106 154.8Z" fill="#455A64"/>
<path d="M105.231 158.109C104.8 158.225 104.355 158.284 103.908 158.283C101.759 158.409 99.6043 158.223 97.5092 157.731C97.0685 157.652 96.64 157.515 96.2344 157.325C96.6776 157.355 97.1175 157.422 97.5498 157.524C98.3618 157.666 99.4702 157.841 100.713 157.93C101.955 158.019 103.084 158.06 103.9 158.056C104.344 158.034 104.79 158.052 105.231 158.109Z" fill="#7F6358"/>
<path d="M106.916 161.645C106.484 161.76 106.039 161.819 105.593 161.819C104.52 161.884 103.444 161.869 102.373 161.775C101.301 161.683 100.237 161.514 99.19 161.267C98.7504 161.188 98.3232 161.052 97.9192 160.861C98.3624 160.892 98.8023 160.958 99.2346 161.06C100.047 161.202 101.155 161.377 102.397 161.466C103.64 161.556 104.768 161.596 105.584 161.592C106.029 161.57 106.475 161.588 106.916 161.645Z" fill="#7F6358"/>
<path d="M94.8052 155.031C94.8542 155.281 94.9193 155.528 95.0001 155.77C95.2666 156.438 95.7818 156.977 96.4374 157.272L96.482 157.293V157.341C96.4678 158.056 96.6251 158.763 96.9408 159.404C97.3308 160.192 97.9762 160.824 98.7719 161.198L98.8815 161.247L98.8287 161.349C98.7679 161.475 98.7363 161.614 98.7363 161.755C98.7363 161.895 98.7679 162.034 98.8287 162.161C98.9669 162.434 99.1638 162.674 99.4052 162.863C99.9419 163.276 100.532 163.615 101.159 163.87C102.549 164.447 103.988 164.898 105.459 165.218H105.516L105.544 165.267C105.92 165.812 106.364 166.309 106.863 166.744C107.344 167.221 107.936 167.571 108.585 167.763C109.085 167.887 109.601 167.938 110.116 167.918L111.658 167.958L114.634 168.04L119.993 168.19H120.014L126.4 169.493L128.174 169.875L128.637 169.984C128.693 169.991 128.746 170.007 128.796 170.033C128.742 170.039 128.687 170.039 128.633 170.033L128.162 169.96L126.372 169.643L119.965 168.425H119.985L114.626 168.312L111.654 168.243L110.107 168.206C109.569 168.223 109.031 168.165 108.508 168.035C107.816 167.832 107.186 167.461 106.673 166.955C106.155 166.503 105.698 165.986 105.313 165.417L105.398 165.478C103.912 165.151 102.459 164.687 101.058 164.093C100.41 163.825 99.8024 163.47 99.2509 163.038C98.9799 162.818 98.762 162.541 98.6135 162.226C98.5431 162.069 98.5088 161.899 98.513 161.727C98.5172 161.556 98.5599 161.388 98.6379 161.235L98.6947 161.385C97.8568 160.983 97.181 160.307 96.7784 159.469C96.4611 158.797 96.312 158.059 96.344 157.317L96.3886 157.386C96.0492 157.228 95.7455 157.002 95.4957 156.723C95.2459 156.444 95.0552 156.117 94.9352 155.762C94.8473 155.529 94.8033 155.281 94.8052 155.031Z" fill="#7F6358"/>
<path d="M108.837 164.751C108.869 164.816 108.081 165.218 107.014 165.36C105.946 165.502 105.085 165.323 105.097 165.254C105.109 165.185 105.954 165.218 106.977 165.076C108 164.934 108.808 164.674 108.837 164.751Z" fill="#7F6358"/>
<path d="M111.849 154.787C111.849 154.865 110.562 154.974 108.962 155.035C107.363 155.096 106.068 155.076 106.068 154.994C106.068 154.913 107.355 154.808 108.954 154.747C110.554 154.686 111.849 154.706 111.849 154.787Z" fill="#7F6358"/>
<path d="M122.819 157.175C122.819 157.175 122.697 157.292 122.413 157.337C122.005 157.381 121.594 157.29 121.244 157.077C120.753 156.757 120.295 156.39 119.876 155.981L118.276 154.58L115.353 152.067C114.928 151.742 114.532 151.382 114.167 150.991C114.633 151.255 115.072 151.564 115.479 151.913C116.262 152.514 117.326 153.374 118.467 154.349C119.035 154.844 119.571 155.323 120.05 155.766C120.45 156.174 120.883 156.549 121.345 156.886C121.658 157.095 122.025 157.208 122.401 157.211C122.669 157.215 122.811 157.15 122.819 157.175Z" fill="#7F6358"/>
<path d="M106.855 154.974C106.796 154.922 106.743 154.863 106.697 154.8L106.291 154.28L104.748 152.335L102.523 149.436L101.216 147.723C100.985 147.442 100.682 147.23 100.339 147.11C100.163 147.049 99.9804 147.012 99.7949 147C99.6122 147 99.3889 147 99.2103 147L91.0903 146.968L88.6258 146.935H87.9559C87.8769 146.937 87.798 146.931 87.7205 146.915C87.7975 146.897 87.8769 146.89 87.9559 146.895L88.6258 146.875L91.0903 146.838L99.2103 146.81C99.4133 146.81 99.6163 146.81 99.8111 146.81C100.015 146.823 100.215 146.864 100.408 146.931C100.786 147.066 101.12 147.302 101.374 147.613L102.677 149.339L104.866 152.266C105.471 153.078 105.966 153.756 106.327 154.252C106.486 154.471 106.612 154.658 106.733 154.796C106.781 154.85 106.822 154.91 106.855 154.974Z" fill="#263238"/>
<path d="M94.1027 148.145C94.178 148.087 94.2688 148.053 94.3637 148.046C94.4585 148.039 94.5533 148.061 94.636 148.108C94.7187 148.155 94.7857 148.225 94.8286 148.31C94.8715 148.395 94.8885 148.49 94.8773 148.585C94.8661 148.679 94.8273 148.768 94.7658 148.841C94.7042 148.913 94.6227 148.966 94.5313 148.992C94.4399 149.019 94.3428 149.017 94.2521 148.989C94.1614 148.96 94.0812 148.905 94.0215 148.831C93.946 148.732 93.9107 148.608 93.9227 148.484C93.9348 148.36 93.9932 148.244 94.0865 148.162" fill="#F5F5F5"/>
<path d="M156.952 97.3872L173.468 107.095L176.505 160.687L180.451 191.007H121.094C121.094 191.007 121.747 154.105 121.95 142.944C122.097 135.121 121.885 119.957 124.533 110.631C125.661 106.656 136.713 101.52 136.713 101.52C142.766 106.867 149.534 105.272 156.952 97.3872Z" fill="#B3E3C7"/>
<path d="M178.705 177.609C178.705 177.666 165.892 177.715 150.082 177.715C134.272 177.715 121.459 177.666 121.459 177.609C121.459 177.552 134.272 177.503 150.082 177.503C165.892 177.503 178.705 177.548 178.705 177.609Z" fill="white"/>
<g opacity="0.3">
<path opacity="0.3" d="M121.422 168.49C126.018 172.343 133.16 174.43 139.039 175.62C144.918 176.809 150.922 177.244 156.817 178.324C160.938 179.091 165.262 180.175 169.237 178.835C171.216 178.132 172.951 176.876 174.237 175.216C175.522 173.555 176.304 171.56 176.488 169.469C176.518 169.328 176.517 169.183 176.486 169.044C176.455 168.904 176.395 168.772 176.31 168.657C176.191 168.567 176.055 168.502 175.911 168.467C175.766 168.432 175.616 168.428 175.469 168.454C157.723 169.241 138.929 169.132 121.422 168.478" fill="black"/>
</g>
<path d="M118.28 157.382H159.757L159.96 135.527L179.099 133.059C179.099 133.059 179.184 155.255 179.184 162.534C179.184 171.271 171.633 177.345 165.291 176.411C158.949 175.477 118.28 167.885 118.28 167.885V157.382Z" fill="#9B7564"/>
<path d="M180.426 137.597L158.121 139.915V113.745C158.121 113.745 160.313 104.902 168.019 105.272C175.725 105.641 180.264 113.976 180.426 121.621C180.589 129.266 180.426 137.597 180.426 137.597Z" fill="#B3E3C7"/>
<path d="M126.892 107.562C126.892 107.562 119.742 112.267 117.826 117.46C115.816 122.904 112.994 140.541 112.994 140.541H123.018L126.892 107.562Z" fill="#B3E3C7"/>
<path d="M157.934 114.784C157.961 115.102 157.961 115.421 157.934 115.738C157.914 116.4 157.885 117.277 157.853 118.341C157.788 120.533 157.719 123.566 157.727 126.915C157.735 130.265 157.824 133.298 157.91 135.49C157.95 136.554 157.983 137.431 158.007 138.093C158.032 138.41 158.032 138.729 158.007 139.047C157.943 138.734 157.905 138.416 157.893 138.097C157.837 137.488 157.768 136.599 157.703 135.502C157.569 133.306 157.451 130.273 157.439 126.915C157.427 123.558 157.528 120.525 157.65 118.329C157.707 117.232 157.768 116.347 157.82 115.734C157.834 115.415 157.872 115.097 157.934 114.784Z" fill="#263238"/>
<path d="M169.164 105.694C169.164 105.751 168.417 105.552 167.207 105.572C165.632 105.588 164.091 106.032 162.748 106.856C161.405 107.679 160.311 108.852 159.583 110.249C159.018 111.317 158.86 112.064 158.807 112.052C158.81 111.872 158.841 111.695 158.896 111.524C159.019 111.053 159.189 110.596 159.404 110.16C160.105 108.694 161.214 107.462 162.598 106.612C163.983 105.762 165.583 105.331 167.207 105.369C167.695 105.378 168.18 105.433 168.657 105.536C168.833 105.562 169.004 105.615 169.164 105.694Z" fill="#263238"/>
<path d="M122.3 119.888C122.319 119.986 122.328 120.085 122.328 120.185C122.328 120.412 122.328 120.692 122.352 121.033C122.352 121.768 122.377 122.832 122.377 124.147C122.377 126.778 122.336 130.412 122.259 134.423C122.182 138.434 122.105 142.027 122.052 144.695C122.028 145.978 122.007 147.033 121.991 147.809C121.991 148.15 121.967 148.43 121.959 148.657C121.964 148.756 121.954 148.854 121.93 148.95C121.909 148.854 121.899 148.756 121.902 148.657C121.902 148.43 121.902 148.15 121.877 147.809C121.877 147.074 121.853 146.01 121.853 144.695C121.853 142.064 121.894 138.43 121.971 134.415C122.048 130.4 122.121 126.81 122.174 124.147C122.202 122.86 122.222 121.809 122.239 121.033C122.239 120.692 122.263 120.412 122.267 120.185C122.264 120.085 122.275 119.985 122.3 119.888Z" fill="#263238"/>
<path d="M122.044 128.654C120.915 128.749 119.781 128.775 118.65 128.731C117.516 128.755 116.383 128.709 115.255 128.593C116.384 128.497 117.518 128.471 118.65 128.515C119.783 128.488 120.916 128.535 122.044 128.654Z" fill="white"/>
<path d="M157.553 122.612C157.553 122.669 149.839 122.717 140.358 122.717C130.878 122.717 123.156 122.669 123.156 122.612C123.156 122.555 130.87 122.506 140.358 122.506C149.847 122.506 157.553 122.543 157.553 122.612Z" fill="white"/>
<path d="M179.943 119.031C179.868 119.04 179.792 119.04 179.716 119.031L179.074 118.978L176.72 118.775C174.726 118.609 171.974 118.426 168.929 118.341C165.884 118.256 163.123 118.292 161.125 118.341L158.758 118.414H158.117C158.041 118.425 157.965 118.425 157.889 118.414C157.962 118.395 158.037 118.384 158.113 118.382L158.754 118.325C159.314 118.28 160.118 118.231 161.121 118.183C163.119 118.089 165.879 118.036 168.933 118.118C171.986 118.199 174.742 118.41 176.732 118.613C177.727 118.715 178.53 118.808 179.083 118.885L179.72 118.974C179.797 118.983 179.872 119.003 179.943 119.031Z" fill="white"/>
<path d="M180.155 134.536C180.155 134.597 175.116 134.536 168.908 134.39C162.701 134.244 157.658 134.086 157.662 134.029C157.666 133.972 162.697 134.029 168.912 134.179C175.128 134.329 180.155 134.48 180.155 134.536Z" fill="white"/>
<path d="M159.891 109.575C159.891 109.636 151.942 109.681 142.137 109.681C132.332 109.681 124.382 109.636 124.382 109.575C124.382 109.514 132.332 109.47 142.137 109.47C151.942 109.47 159.891 109.518 159.891 109.575Z" fill="white"/>
<path d="M157.666 139.075C157.666 139.132 149.692 139.181 139.855 139.181C130.018 139.181 122.044 139.132 122.044 139.075C122.044 139.018 130.018 138.97 139.855 138.97C149.692 138.97 157.666 139.014 157.666 139.075Z" fill="white"/>
<path d="M160.224 152.1C160.224 152.157 151.552 152.205 140.858 152.205C130.164 152.205 121.488 152.157 121.488 152.1C121.488 152.043 130.16 151.994 140.858 151.994C151.556 151.994 160.224 152.039 160.224 152.1Z" fill="white"/>
<path d="M179.83 189.655C179.83 189.712 166.752 189.76 150.626 189.76C134.5 189.76 121.422 189.712 121.422 189.655C121.422 189.598 134.496 189.549 150.626 189.549C166.756 189.549 179.83 189.602 179.83 189.655Z" fill="white"/>
<g opacity="0.3">
<path opacity="0.3" d="M157.849 140.163C157.589 134.991 157.776 130.151 157.512 124.983C155.751 132.568 154.919 140.339 155.035 148.125C155.064 149.972 155.153 151.852 155.75 153.602C156.347 155.352 157.999 156.85 159.688 157.597L159.851 139.94C159.091 139.997 158.612 140.127 157.849 140.163Z" fill="black"/>
</g>
<path d="M42.9222 171.933L39.9949 191.165H22.9876L19.0413 172.209L42.9222 171.933Z" fill="#B3E3C7"/>
<path d="M21.4204 184.259C21.4204 184.316 25.7768 184.361 31.1644 184.361C36.552 184.361 40.9084 184.316 40.9084 184.259C40.9084 184.202 36.552 184.162 31.1644 184.162C25.7768 184.162 21.4204 184.206 21.4204 184.259Z" fill="#FAFAFA"/>
<path d="M21.3555 183.313C21.3555 183.37 25.7403 183.415 31.1523 183.415C36.5642 183.415 40.949 183.37 40.949 183.313C40.949 183.256 36.5642 183.216 31.1523 183.216C25.7403 183.216 21.3555 183.26 21.3555 183.313Z" fill="#FAFAFA"/>
<path d="M21.3879 182.246C21.3879 182.302 25.7727 182.347 31.1847 182.347C36.5967 182.347 40.9815 182.302 40.9815 182.246C40.9815 182.189 36.5967 182.144 31.1847 182.144C25.7727 182.144 21.3879 182.189 21.3879 182.246Z" fill="#FAFAFA"/>
<path d="M38.042 190.069C38.2777 189.272 38.4515 188.457 38.5617 187.633C38.7356 186.824 38.8442 186.003 38.8865 185.177C38.6472 185.973 38.4734 186.788 38.3668 187.613C38.1905 188.421 38.0818 189.243 38.042 190.069Z" fill="#FAFAFA"/>
<path d="M36.8849 189.866C37.0005 189.083 37.071 188.294 37.096 187.503C37.1818 186.716 37.2184 185.924 37.2056 185.132C37.0202 185.904 36.9167 186.693 36.897 187.487C36.8065 188.277 36.8024 189.075 36.8849 189.866Z" fill="#FAFAFA"/>
<path d="M34.7739 189.866C35.1714 188.273 35.3637 186.636 35.3464 184.994C35.1917 185.799 35.0819 186.613 35.0175 187.43C34.8926 188.237 34.8113 189.05 34.7739 189.866Z" fill="#FAFAFA"/>
<path d="M33.292 189.968C33.553 188.335 33.6062 186.677 33.4503 185.031C33.3623 185.851 33.3217 186.675 33.3285 187.499C33.2674 188.321 33.2552 189.145 33.292 189.968Z" fill="#FAFAFA"/>
<path d="M30.6734 189.866C30.802 189.094 30.8631 188.311 30.8561 187.528C30.9146 186.748 30.9065 185.964 30.8317 185.185C30.7081 185.958 30.6484 186.741 30.6531 187.524C30.5969 188.304 30.6037 189.087 30.6734 189.866Z" fill="#FAFAFA"/>
<path d="M28.7611 189.967C28.8575 189.159 28.8847 188.344 28.8423 187.531C28.8689 186.724 28.8281 185.916 28.7205 185.116C28.6294 185.924 28.6036 186.739 28.6433 187.552C28.6167 188.359 28.6561 189.167 28.7611 189.967Z" fill="#FAFAFA"/>
<path d="M26.9665 189.708C26.9868 188.863 26.9379 188.019 26.8204 187.182C26.7714 186.34 26.6573 185.502 26.4793 184.677C26.459 185.522 26.5079 186.366 26.6255 187.203C26.6745 188.045 26.7885 188.883 26.9665 189.708Z" fill="#FAFAFA"/>
<path d="M24.6522 189.456C24.6492 188.731 24.5537 188.009 24.368 187.308C24.2457 186.594 24.0329 185.898 23.7346 185.238C23.8424 185.95 23.9887 186.656 24.1731 187.353C24.2918 188.063 24.4517 188.765 24.6522 189.456Z" fill="#FAFAFA"/>
<path d="M26.2923 133.98C26.2873 134.012 26.2873 134.045 26.2923 134.077C26.2923 134.15 26.337 134.24 26.3694 134.349C26.4506 134.601 26.5562 134.946 26.6942 135.385C26.8323 135.823 27.015 136.388 27.1936 137.033C27.3723 137.679 27.5996 138.405 27.8067 139.226C28.0137 140.046 28.2573 140.935 28.4685 141.905C28.6796 142.875 28.9029 143.907 29.1262 145.003C29.5322 147.195 29.9057 149.619 30.1655 152.177C30.4254 154.735 30.5309 157.191 30.5715 159.424C30.5715 160.536 30.5715 161.596 30.5431 162.591C30.5147 163.586 30.47 164.503 30.4213 165.348C30.3726 166.192 30.3076 166.947 30.2549 167.617C30.2021 168.287 30.1452 168.859 30.0884 169.33C30.0316 169.801 30.0031 170.142 29.9788 170.41C29.9788 170.524 29.9707 170.617 29.9544 170.691C29.9544 170.755 29.9544 170.788 29.9544 170.788C29.968 170.759 29.9763 170.727 29.9788 170.695C29.9788 170.621 30.0031 170.528 30.0234 170.414C30.0559 170.155 30.1087 169.793 30.1696 169.339C30.2305 168.884 30.3076 168.295 30.3685 167.629C30.4294 166.963 30.5188 166.2 30.5675 165.356C30.6162 164.511 30.6852 163.59 30.7096 162.595C30.7339 161.6 30.7542 160.541 30.7624 159.42C30.738 157.187 30.6284 154.727 30.3564 152.161C30.0843 149.595 29.7149 147.163 29.2967 144.966C29.0693 143.87 28.8663 142.831 28.6227 141.865C28.3791 140.898 28.1599 140.001 27.9366 139.189C27.7133 138.377 27.4859 137.642 27.2911 137.001C27.0962 136.359 26.9175 135.807 26.7592 135.377C26.6009 134.946 26.4872 134.601 26.4019 134.349C26.3613 134.244 26.3288 134.155 26.3045 134.086C26.3027 134.05 26.2987 134.015 26.2923 133.98Z" fill="#263238"/>
<path d="M29.3618 145.888C28.8935 144.501 27.9578 143.32 26.7147 142.547C26.3087 142.287 25.7646 142.076 25.318 142.291C24.7253 142.579 24.6765 143.412 24.8552 144.049C25.1636 145.129 25.8531 146.061 26.7959 146.672C27.6244 147.286 28.6621 147.547 29.6825 147.398" fill="#263238"/>
<path d="M30.3929 153.931C29.9545 152.271 28.6309 149.912 27.2546 148.881C27.0437 148.709 26.8008 148.58 26.54 148.503C26.4094 148.464 26.271 148.458 26.1376 148.487C26.0042 148.515 25.8801 148.576 25.7767 148.665C25.6594 148.821 25.5824 149.003 25.5527 149.196C25.5229 149.389 25.5413 149.586 25.6062 149.77C25.8884 150.981 26.5019 152.089 27.3781 152.971C28.2543 153.853 29.3586 154.474 30.5675 154.764" fill="#263238"/>
<path d="M30.6772 161.007C29.9944 159.423 28.9012 158.05 27.5104 157.029C27.3634 156.89 27.1897 156.782 26.9999 156.712C26.81 156.643 26.608 156.612 26.4061 156.623C25.8052 156.728 25.5332 157.463 25.5941 158.072C25.7037 159.323 26.6618 160.329 27.6484 161.105C28.554 161.733 29.5382 162.239 30.5757 162.611" fill="#263238"/>
<path d="M30.5188 166.099C29.8589 164.888 28.9381 163.84 27.823 163.029C27.5839 162.848 27.306 162.724 27.011 162.668C26.8611 162.636 26.7053 162.648 26.5616 162.701C26.4179 162.754 26.2922 162.847 26.199 162.968C25.927 163.374 26.199 163.902 26.4751 164.288C27.4257 165.611 28.7721 166.597 30.3199 167.105" fill="#263238"/>
<path d="M30.6529 164.024C31.8141 162.601 33.1054 161.29 34.5099 160.106C34.6035 159.998 34.7228 159.915 34.8568 159.864C34.9909 159.814 35.1354 159.798 35.2772 159.818C35.3797 159.86 35.4677 159.932 35.5304 160.023C35.5931 160.115 35.6279 160.223 35.6304 160.334C35.6305 160.557 35.5805 160.777 35.4843 160.979C35.0235 162.002 34.3382 162.908 33.4793 163.63C32.6204 164.352 31.6099 164.871 30.5229 165.149" fill="#263238"/>
<path d="M30.5271 157.41L33.5559 153.72C33.8223 153.35 34.1555 153.033 34.5384 152.786C34.7332 152.669 34.9564 152.606 35.1839 152.606C35.4114 152.606 35.6346 152.669 35.8295 152.786C36.0038 152.931 36.1342 153.122 36.206 153.337C36.2777 153.552 36.2879 153.783 36.2355 154.004C36.1272 154.448 35.9251 154.863 35.6427 155.222C35.0546 156.116 34.3106 156.897 33.4462 157.528C32.5571 158.141 31.7492 158.539 30.6814 158.381" fill="#263238"/>
<path d="M30.1089 149.952C30.7 148.185 31.751 146.607 33.1539 145.381C33.3776 145.155 33.6583 144.995 33.9659 144.918C34.2745 144.893 34.582 144.977 34.8354 145.155C35.0888 145.333 35.2723 145.594 35.3544 145.892C35.4517 146.226 35.4773 146.577 35.4298 146.922C35.3822 147.267 35.2624 147.598 35.0783 147.894C34.7098 148.485 34.2267 148.998 33.6573 149.4C32.6373 150.178 31.5016 150.792 30.2916 151.219" fill="#263238"/>
<path d="M28.8989 143.318C29.1912 141.179 30.3037 139.396 31.5948 137.667C31.8668 137.301 32.2484 136.916 32.695 136.985C32.8373 137.014 32.9699 137.08 33.0806 137.174C33.1912 137.268 33.2764 137.389 33.3284 137.525C33.4287 137.798 33.4689 138.091 33.4461 138.381C33.3908 139.678 32.9546 140.929 32.192 141.979C31.4295 143.029 30.3745 143.831 29.1588 144.285" fill="#263238"/>
<path d="M28.0505 139.908C28.1904 138.812 28.2271 137.706 28.1601 136.603C28.0913 135.493 27.7114 134.425 27.0639 133.521C26.7933 133.134 26.419 132.83 25.9839 132.644C25.7628 132.556 25.5226 132.526 25.2866 132.557C25.0505 132.589 24.8265 132.68 24.636 132.823C24.4748 132.974 24.3496 133.159 24.2695 133.365C24.1894 133.571 24.1565 133.792 24.1732 134.013C24.2137 134.451 24.3291 134.88 24.5142 135.279C25.3262 137.22 26.666 139.368 28.0708 139.908" fill="#263238"/>
<path d="M41.2374 142.458C41.2278 142.548 41.2278 142.639 41.2374 142.73C41.2374 142.928 41.2374 143.184 41.2374 143.505C41.2374 143.826 41.2374 144.256 41.2171 144.723C41.1968 145.19 41.2171 145.746 41.1603 146.347C41.1075 147.565 40.9897 148.978 40.807 150.561C40.6243 152.145 40.3158 153.874 39.9463 155.681C39.5769 157.488 39.1343 159.173 38.6593 160.699C38.1843 162.226 37.7214 163.574 37.287 164.698C37.084 165.263 36.881 165.766 36.6902 166.209C36.4994 166.651 36.3492 167.021 36.2111 167.341L35.9107 168.056C35.8711 168.138 35.8385 168.224 35.8132 168.312C35.8654 168.236 35.9103 168.156 35.9472 168.072C36.0325 167.893 36.1421 167.666 36.2842 167.374C36.4263 167.081 36.6049 166.696 36.7917 166.253C36.9785 165.811 37.1977 165.315 37.421 164.751C37.8717 163.63 38.3548 162.274 38.8339 160.752C39.313 159.229 39.7555 157.524 40.1412 155.722C40.5269 153.919 40.7786 152.181 40.9532 150.594C41.1278 149.006 41.2293 147.573 41.2618 146.363C41.2942 145.762 41.2861 145.214 41.2902 144.739C41.2942 144.264 41.2902 143.846 41.2902 143.521C41.2902 143.196 41.2902 142.945 41.2618 142.746C41.2653 142.649 41.2572 142.552 41.2374 142.458Z" fill="#263238"/>
<path d="M40.7624 151.227C40.7418 150.183 40.3602 149.179 39.6825 148.385C39.5828 148.239 39.449 148.119 39.2926 148.037C39.1363 147.954 38.9621 147.91 38.7852 147.91C38.3183 147.979 38.1072 148.535 38.091 149.006C38.0661 149.806 38.3315 150.588 38.838 151.207C39.27 151.802 39.9191 152.203 40.6447 152.323" fill="#263238"/>
<path d="M39.7352 156.927C39.792 155.709 39.3982 153.809 38.6837 152.814C38.5767 152.653 38.4387 152.515 38.2777 152.408C38.1961 152.355 38.1027 152.323 38.0056 152.314C37.9086 152.306 37.811 152.321 37.7214 152.359C37.6067 152.438 37.514 152.544 37.4521 152.669C37.3903 152.793 37.3614 152.931 37.3682 153.07C37.2999 153.955 37.479 154.841 37.8855 155.63C38.2921 156.418 38.91 157.078 39.6702 157.536" fill="#263238"/>
<path d="M38.4034 161.807C38.2812 160.581 37.8341 159.409 37.1083 158.413C37.0356 158.289 36.939 158.181 36.824 158.094C36.709 158.008 36.5779 157.945 36.4384 157.91C36.008 157.853 35.6629 158.295 35.5696 158.722C35.3747 159.595 35.8091 160.484 36.3125 161.227C36.795 161.849 37.3559 162.405 37.9812 162.883" fill="#263238"/>
<path d="M37.2019 165.242C37.0115 164.278 36.6109 163.367 36.0286 162.575C35.902 162.406 35.7398 162.267 35.5536 162.169C35.4589 162.119 35.3526 162.097 35.246 162.103C35.1395 162.11 35.0367 162.145 34.9486 162.205C34.6807 162.416 34.7416 162.835 34.8552 163.159C35.2212 164.269 35.9326 165.232 36.8852 165.908" fill="#263238"/>
<path d="M37.758 163.858C38.8542 163.138 40.0149 162.523 41.2252 162.018C41.3119 161.964 41.4111 161.932 41.5133 161.927C41.6156 161.921 41.7176 161.941 41.8099 161.986C41.867 162.035 41.9094 162.099 41.9324 162.17C41.9553 162.242 41.9579 162.319 41.9398 162.392C41.8922 162.544 41.8102 162.683 41.7002 162.798C41.167 163.396 40.5056 163.866 39.7654 164.174C39.0252 164.481 38.2252 164.617 37.425 164.572" fill="#263238"/>
<path d="M39.0775 159.323C40.0302 158.706 40.9775 158.086 41.9195 157.463C42.1821 157.274 42.4783 157.136 42.7924 157.057C42.9484 157.003 43.1175 157 43.2756 157.048C43.4337 157.096 43.5726 157.192 43.6726 157.324C43.7725 157.455 43.8284 157.615 43.8321 157.78C43.8359 157.945 43.7875 158.107 43.6937 158.243C43.5232 158.52 43.2963 158.758 43.0278 158.941C42.433 159.434 41.7534 159.813 41.0222 160.062C40.6961 160.2 40.3453 160.272 39.991 160.272C39.6366 160.272 39.2858 160.2 38.9597 160.062" fill="#263238"/>
<path d="M40.3968 154.158C41.1816 153.084 42.2362 152.235 43.454 151.698C43.6524 151.597 43.8731 151.549 44.0954 151.556C44.3107 151.606 44.5019 151.729 44.636 151.905C44.7701 152.08 44.8388 152.297 44.8303 152.518C44.8234 152.767 44.7646 153.011 44.6576 153.235C44.5506 153.46 44.3978 153.659 44.2091 153.821C43.8313 154.145 43.3923 154.39 42.918 154.54C42.0562 154.851 41.1504 155.024 40.2344 155.052" fill="#263238"/>
<path d="M41.0061 149.372C41.6638 147.979 42.8047 147.005 44.0552 146.104C44.1718 145.991 44.3161 145.91 44.4735 145.87C44.6309 145.83 44.796 145.832 44.9524 145.876C45.0431 145.927 45.1196 146 45.1749 146.088C45.2303 146.176 45.2626 146.276 45.2691 146.38C45.2788 146.588 45.2427 146.796 45.1635 146.989C44.8466 147.859 44.2802 148.618 43.5351 149.168C42.7899 149.719 41.8991 150.039 40.9736 150.086" fill="#263238"/>
<path d="M41.1601 146.879C41.491 146.162 41.7533 145.416 41.9437 144.65C42.1367 143.879 42.1086 143.07 41.8625 142.315C41.7541 141.998 41.5602 141.717 41.3022 141.503C41.1705 141.395 41.0132 141.323 40.8454 141.293C40.6777 141.263 40.505 141.277 40.3441 141.333C40.2022 141.401 40.0774 141.5 39.979 141.623C39.8807 141.746 39.8112 141.89 39.7757 142.043C39.7053 142.349 39.6915 142.666 39.7351 142.977C39.865 144.471 40.3197 146.225 41.1601 146.899" fill="#263238"/>
<path d="M19.7356 142.271C19.7295 142.361 19.7295 142.452 19.7356 142.543C19.7356 142.741 19.7153 142.997 19.7072 143.318C19.6991 143.639 19.6828 144.069 19.7072 144.536C19.7316 145.003 19.7072 145.563 19.7356 146.16C19.7722 147.378 19.8737 148.803 20.0442 150.391C20.2147 151.978 20.4989 153.716 20.8562 155.518C21.2135 157.321 21.6925 159.022 22.1594 160.549C22.6263 162.075 23.1217 163.427 23.5764 164.548C23.7916 165.112 24.0149 165.607 24.2057 166.05C24.3965 166.492 24.563 166.862 24.7132 167.171L25.0502 167.869C25.085 167.953 25.1285 168.033 25.1801 168.108C25.1554 168.021 25.1242 167.935 25.0867 167.853L24.766 167.154C24.6279 166.846 24.4655 166.468 24.2909 166.022C24.1164 165.575 23.8849 165.076 23.6901 164.511C23.2556 163.387 22.7887 162.031 22.3178 160.512C21.8468 158.994 21.4124 157.293 21.0308 155.498C20.6491 153.703 20.3893 151.97 20.1903 150.391C19.9914 148.811 19.894 147.378 19.8412 146.16C19.8006 145.559 19.7965 145.015 19.7803 144.536C19.764 144.057 19.7803 143.643 19.7803 143.318C19.7803 142.993 19.7803 142.741 19.7803 142.543C19.7769 142.45 19.7619 142.359 19.7356 142.271Z" fill="#455A64"/>
<path d="M20.2107 151.032C20.2311 149.988 20.6143 148.983 21.2947 148.19C21.3932 148.044 21.5262 147.924 21.682 147.841C21.8378 147.758 22.0115 147.715 22.1879 147.715C22.6548 147.784 22.8659 148.341 22.8822 148.812C22.9135 149.618 22.6493 150.407 22.1392 151.032C21.7059 151.628 21.0553 152.029 20.3284 152.149" fill="#455A64"/>
<path d="M21.2376 156.74C21.1807 155.522 21.5746 153.622 22.2891 152.628C22.3963 152.467 22.5343 152.329 22.6951 152.222C22.7759 152.169 22.8687 152.136 22.9651 152.128C23.0614 152.119 23.1584 152.135 23.2473 152.173C23.362 152.251 23.4547 152.358 23.5166 152.482C23.5784 152.607 23.6073 152.745 23.6005 152.883C23.6698 153.768 23.4911 154.655 23.0845 155.444C22.6778 156.233 22.0594 156.893 21.2985 157.349" fill="#455A64"/>
<path d="M22.5696 161.621C22.6951 160.394 23.1434 159.223 23.8688 158.227C23.9408 158.103 24.0368 157.994 24.1511 157.908C24.2654 157.822 24.3958 157.759 24.5346 157.723C24.969 157.666 25.3101 158.109 25.4075 158.535C25.6024 159.408 25.168 160.301 24.6605 161.04C24.1792 161.663 23.6182 162.22 22.9918 162.697" fill="#455A64"/>
<path d="M23.7751 165.051C23.9642 164.091 24.365 163.185 24.9485 162.4C25.0736 162.231 25.2344 162.093 25.4194 161.994C25.5141 161.945 25.6204 161.922 25.727 161.928C25.8335 161.935 25.9363 161.97 26.0244 162.03C26.2923 162.242 26.2355 162.664 26.1218 162.985C25.7541 164.093 25.0431 165.056 24.0918 165.733" fill="#455A64"/>
<path d="M23.2395 163.671C22.1419 162.952 20.9798 162.336 19.7682 161.832C19.6815 161.777 19.5824 161.746 19.4801 161.74C19.3778 161.735 19.2758 161.755 19.1836 161.799C19.1234 161.851 19.0795 161.918 19.0571 161.994C19.0348 162.07 19.035 162.15 19.0577 162.226C19.1038 162.377 19.1844 162.516 19.2932 162.632C19.8266 163.23 20.488 163.7 21.2282 164.007C21.9684 164.314 22.7683 164.451 23.5684 164.406" fill="#455A64"/>
<path d="M21.8956 159.152L19.0536 157.293C18.7919 157.104 18.4972 156.967 18.1848 156.887C18.0275 156.846 17.862 156.849 17.7065 156.897C17.551 156.944 17.4116 157.033 17.3037 157.155C17.2141 157.29 17.1647 157.448 17.1611 157.611C17.1575 157.773 17.1999 157.933 17.2834 158.072C17.4516 158.339 17.6727 158.568 17.933 158.746C18.5284 159.238 19.2079 159.618 19.9387 159.867C20.2655 160.006 20.6169 160.077 20.972 160.077C21.327 160.077 21.6784 160.006 22.0052 159.867" fill="#455A64"/>
<path d="M20.5759 153.971C19.7929 152.895 18.7378 152.046 17.5187 151.511C17.3217 151.41 17.1024 151.362 16.8813 151.369C16.6657 151.419 16.474 151.542 16.3392 151.717C16.2044 151.893 16.1348 152.11 16.1424 152.331C16.1493 152.58 16.2081 152.824 16.3151 153.048C16.4221 153.273 16.5749 153.472 16.7636 153.634C17.1414 153.958 17.5804 154.203 18.0547 154.353C18.9165 154.664 19.8223 154.837 20.7383 154.865" fill="#455A64"/>
<path d="M19.9711 149.185C19.3093 147.792 18.1684 146.818 16.918 145.917C16.8015 145.803 16.6573 145.723 16.4998 145.683C16.3423 145.643 16.177 145.645 16.0207 145.689C15.931 145.741 15.8555 145.814 15.8009 145.902C15.7464 145.989 15.7145 146.089 15.7081 146.193C15.697 146.401 15.7316 146.608 15.8096 146.802C16.127 147.672 16.6935 148.43 17.4385 148.981C18.1836 149.532 19.0742 149.851 19.9995 149.899" fill="#455A64"/>
<path d="M19.8168 146.692C19.4846 145.976 19.2209 145.229 19.0291 144.463C18.8374 143.693 18.867 142.883 19.1144 142.129C19.2149 141.8 19.4097 141.508 19.6747 141.288C19.8056 141.18 19.9622 141.108 20.1293 141.078C20.2965 141.048 20.4685 141.062 20.6288 141.118C20.7713 141.186 20.8967 141.285 20.9957 141.408C21.0948 141.531 21.165 141.675 21.2012 141.828C21.2676 142.135 21.2813 142.451 21.2418 142.762C21.1079 144.26 20.6572 146.01 19.8168 146.684" fill="#455A64"/>
<path d="M44.8711 168.125V171.738C44.8711 171.924 44.8345 172.108 44.7633 172.28C44.692 172.452 44.5877 172.608 44.4561 172.74C44.3245 172.871 44.1683 172.976 43.9964 173.047C43.8245 173.118 43.6402 173.155 43.4542 173.155H18.8303C18.6442 173.155 18.4599 173.118 18.288 173.047C18.1161 172.976 17.9599 172.871 17.8283 172.74C17.6968 172.608 17.5924 172.452 17.5212 172.28C17.45 172.108 17.4133 171.924 17.4133 171.738V168.125H44.8711Z" fill="#B3E3C7"/>
<g opacity="0.4">
<path opacity="0.4" d="M42.7356 173.139L42.5326 174.284L19.8128 175.904L19.2363 173.139H42.7356Z" fill="black"/>
</g>
<path d="M191.258 191.088C191.258 191.145 151.064 191.194 101.504 191.194C51.9436 191.194 11.7415 191.145 11.7415 191.088C11.7415 191.031 51.9355 190.982 101.504 190.982C151.073 190.982 191.258 191.027 191.258 191.088Z" fill="#263238"/>
</svg>
