<svg width="203" height="203" viewBox="0 0 203 203" fill="none" xmlns="http://www.w3.org/2000/svg">
<path d="M33.7429 139.944C24.9327 138.763 17.5638 130.683 17.1943 121.8C16.8248 112.917 23.5076 104.257 32.1919 102.357C38.2819 101.017 45.1312 102.633 50.5878 99.5755C57.9364 95.4627 59.4467 84.7362 66.775 80.591C71.31 78.025 77.2579 78.7559 81.5656 81.6831C85.8733 84.6104 88.6381 89.4418 89.8886 94.4965C92.3977 104.646 89.0766 115.73 82.3817 123.728C75.6867 131.727 66.8928 138.101 56.6981 140.346C46.5034 142.591 44.0593 141.564 33.7429 139.94" fill="#EBEBEB"/>
<path d="M117.028 74.6333C122.002 69.6595 122.002 61.5954 117.028 56.6216C112.054 51.6478 103.99 51.6478 99.0161 56.6216C94.0423 61.5954 94.0423 69.6595 99.0161 74.6333C103.99 79.6071 112.054 79.6071 117.028 74.6333Z" fill="#EBEBEB"/>
<path d="M179.785 98.4104C177.854 96.1725 175.361 94.4906 172.562 93.5384H172.587C169.209 92.1621 165.242 92.3569 161.921 93.5019C160.259 94.0864 158.733 95.003 157.436 96.1958C156.139 97.3886 155.099 98.8328 154.378 100.44C152.973 103.619 153.208 107.915 156.058 109.904C159.595 112.373 165.039 110.079 168.482 112.681C170.626 114.305 171.324 117.395 173.602 118.82C175.632 120.071 178.38 119.579 180.203 118.073C182.026 116.567 183.017 114.248 183.451 111.922C183.858 109.539 183.741 107.095 183.108 104.762C182.475 102.429 181.341 100.261 179.785 98.4104Z" fill="#EBEBEB"/>
<path d="M176.163 168.438H148.884V172.185H176.163V168.438Z" fill="#263238"/>
<path d="M176.204 172.233H148.839V168.389H176.204V172.233ZM148.933 172.144H176.114V168.49H148.933V172.144Z" fill="#263238"/>
<path d="M151.414 170.938L155.34 190.309H169.866L173.662 172.185L151.414 170.938Z" fill="#263238"/>
<path d="M151.414 188.478L153.509 191.356H171.165L173.662 188.478H151.414Z" fill="#455A64"/>
<path d="M161.498 171.503C161.445 171.503 161.376 162.53 161.344 151.463C161.311 140.395 161.344 131.418 161.384 131.418C161.425 131.418 161.506 140.391 161.539 151.463C161.571 162.534 161.551 171.503 161.498 171.503Z" fill="#263238"/>
<path d="M167.576 149.047C167.558 149.118 167.534 149.187 167.503 149.254L167.259 149.834L167.081 150.24L166.898 150.752C166.833 150.935 166.764 151.13 166.687 151.337C166.61 151.544 166.557 151.767 166.488 152.002C166.162 153.097 165.907 154.212 165.725 155.34C165.517 156.724 165.381 158.119 165.319 159.517C165.218 162.062 165.29 164.611 165.534 167.146C165.619 168.121 165.708 168.908 165.773 169.452C165.802 169.708 165.826 169.915 165.842 170.078C165.848 170.151 165.848 170.224 165.842 170.297C165.816 170.229 165.799 170.158 165.794 170.086C165.765 169.919 165.729 169.716 165.688 169.46C165.599 168.92 165.489 168.137 165.384 167.162C165.098 164.622 165.007 162.064 165.112 159.509C165.18 158.103 165.327 156.702 165.55 155.311C165.744 154.178 166.016 153.059 166.362 151.962C166.439 151.726 166.5 151.503 166.581 151.296C166.663 151.089 166.736 150.89 166.805 150.711L167.004 150.208C167.069 150.054 167.138 149.916 167.198 149.802C167.308 149.57 167.401 149.396 167.475 149.234C167.548 149.071 167.568 149.043 167.576 149.047Z" fill="#263238"/>
<path d="M166.866 141.788C166.847 141.889 166.818 141.988 166.781 142.084C166.708 142.291 166.614 142.571 166.497 142.92L166.285 143.521C166.22 143.745 166.147 143.984 166.066 144.244C165.908 144.764 165.721 145.352 165.559 146.018C165.469 146.351 165.38 146.696 165.283 147.053C165.185 147.411 165.116 147.796 165.031 148.19C164.84 148.97 164.702 149.814 164.523 150.707C164.223 152.49 163.959 154.459 163.776 156.538C163.594 158.616 163.529 160.598 163.504 162.412C163.48 164.227 163.504 165.851 163.594 167.215C163.618 167.901 163.663 168.519 163.699 169.059C163.736 169.599 163.764 170.07 163.797 170.451C163.829 170.833 163.849 171.109 163.866 171.328C163.875 171.431 163.875 171.534 163.866 171.637C163.866 171.637 163.845 171.531 163.817 171.332C163.788 171.133 163.756 170.825 163.715 170.455C163.675 170.086 163.622 169.611 163.581 169.067C163.541 168.523 163.484 167.91 163.451 167.223C163.358 165.855 163.322 164.223 163.318 162.412C163.313 160.602 163.403 158.608 163.573 156.521C163.744 154.434 164.028 152.461 164.341 150.675C164.523 149.786 164.665 148.937 164.864 148.154C164.958 147.748 165.047 147.382 165.132 147.021C165.218 146.66 165.327 146.314 165.417 145.982C165.591 145.32 165.786 144.731 165.957 144.211C166.038 143.956 166.119 143.712 166.192 143.489L166.415 142.892C166.549 142.551 166.655 142.275 166.736 142.08C166.77 141.979 166.814 141.881 166.866 141.788Z" fill="#263238"/>
<path d="M159.773 173.09C159.768 173.055 159.768 173.02 159.773 172.985C159.773 172.903 159.773 172.802 159.748 172.676C159.728 172.392 159.704 171.994 159.667 171.491C159.602 170.443 159.509 168.953 159.395 167.118C159.16 163.427 158.814 158.328 158.177 152.725C157.86 149.92 157.495 147.256 157.109 144.845C156.906 143.627 156.703 142.494 156.512 141.426C156.322 140.359 156.106 139.368 155.924 138.462C155.741 137.557 155.546 136.745 155.384 136.026C155.221 135.308 155.075 134.695 154.945 134.195C154.815 133.696 154.73 133.318 154.661 133.038C154.633 132.917 154.612 132.815 154.592 132.738C154.588 132.703 154.588 132.667 154.592 132.632C154.609 132.664 154.622 132.698 154.629 132.734L154.718 133.03L155.035 134.175C155.173 134.675 155.339 135.288 155.506 136.002C155.672 136.717 155.887 137.529 156.074 138.438C156.261 139.348 156.48 140.33 156.687 141.402C156.894 142.474 157.093 143.615 157.304 144.82C157.71 147.236 158.071 149.9 158.388 152.705C159.009 158.32 159.33 163.419 159.533 167.114C159.631 168.961 159.704 170.455 159.744 171.491C159.744 171.994 159.777 172.392 159.789 172.68C159.789 172.806 159.789 172.908 159.789 172.989C159.788 173.023 159.782 173.057 159.773 173.09Z" fill="#263238"/>
<path d="M161.275 135.734C161.157 134.463 159.874 133.501 158.596 133.489C157.956 133.517 157.331 133.691 156.769 133.996C156.206 134.301 155.72 134.73 155.348 135.251C154.614 136.3 154.083 137.477 153.784 138.722C152.924 141.718 152.457 144.865 152.822 147.959C153.188 151.052 154.446 154.101 156.667 156.286C157.028 156.643 157.479 156.996 157.991 156.891C158.257 156.811 158.498 156.663 158.689 156.46C160.863 154.47 162.586 152.038 163.743 149.328C164.899 146.617 165.463 143.69 165.396 140.744C165.364 139.567 165.209 138.34 164.556 137.362C163.902 136.384 162.388 135.332 161.275 135.738" fill="#FF725E"/>
<path d="M151.742 125.552L149.944 128.8C149.903 128.873 149.846 128.958 149.761 128.966C149.676 128.974 149.594 128.885 149.542 128.808L144.792 121.5L145.884 120.883L151.742 125.552Z" fill="#FF725E"/>
<g opacity="0.2">
<path opacity="0.2" d="M151.742 125.552L149.944 128.8C149.903 128.873 149.846 128.958 149.761 128.966C149.676 128.974 149.594 128.885 149.542 128.808L144.792 121.5L145.884 120.883L151.742 125.552Z" fill="black"/>
</g>
<path d="M161.385 131.418L145.169 121.849C145.078 121.812 144.995 121.757 144.925 121.687C144.855 121.617 144.8 121.534 144.763 121.443C144.698 121.203 144.877 120.972 145.051 120.793C146.166 119.636 147.517 118.733 149.012 118.145C150.507 117.557 152.111 117.299 153.715 117.387C155.319 117.502 156.87 118.006 158.235 118.855C159.6 119.704 160.738 120.872 161.551 122.259C163.118 125.056 163.175 128.755 161.373 131.41" fill="#FF725E"/>
<path d="M147.507 118.796C147.576 118.776 147.647 118.766 147.718 118.767C147.856 118.767 148.064 118.735 148.332 118.739C149.085 118.728 149.838 118.788 150.581 118.918C151.686 119.104 152.762 119.432 153.784 119.892C155.555 120.687 157.128 121.864 158.392 123.338C159.655 124.812 160.577 126.546 161.092 128.418C161.295 129.144 161.43 129.888 161.498 130.639C161.526 130.907 161.498 130.972 161.522 131.114C161.506 131.239 161.463 131.36 161.397 131.467C161.446 131.199 161.454 130.925 161.421 130.655C161.097 127.814 159.867 125.153 157.914 123.065C155.96 120.978 153.386 119.575 150.573 119.064C149.838 118.926 149.094 118.846 148.348 118.824C147.783 118.804 147.507 118.812 147.507 118.796Z" fill="#263238"/>
<path d="M159.192 124.813C158.937 124.968 158.664 125.093 158.38 125.187C157.861 125.39 157.142 125.649 156.35 125.905C155.559 126.161 154.799 126.368 154.263 126.498C153.976 126.588 153.679 126.646 153.378 126.668C153.648 126.537 153.931 126.436 154.223 126.368L156.289 125.722L158.34 125.048C158.615 124.942 158.901 124.863 159.192 124.813Z" fill="#263238"/>
<path d="M156.638 117.956C156.782 118.547 156.846 119.154 156.829 119.762C156.875 120.37 156.841 120.982 156.728 121.581C156.649 120.98 156.618 120.373 156.634 119.766C156.585 119.164 156.587 118.558 156.638 117.956Z" fill="#263238"/>
<path d="M145.027 121.666C145.407 121.498 145.801 121.363 146.204 121.26C146.943 121.033 147.966 120.745 149.111 120.469C150.256 120.193 151.3 119.986 152.059 119.852C152.466 119.758 152.88 119.702 153.297 119.685C152.898 119.813 152.491 119.913 152.079 119.985C151.328 120.152 150.289 120.391 149.148 120.659C148.007 120.927 146.972 121.191 146.241 121.394C145.843 121.515 145.438 121.606 145.027 121.666Z" fill="#263238"/>
<path d="M154.544 132.973C153.151 131.918 151.677 131.707 149.927 131.78C148.176 131.896 146.462 132.338 144.873 133.083C142.136 134.281 139.566 136.047 137.934 138.544C136.302 141.041 135.73 144.349 136.952 147.07C137.046 147.355 137.244 147.595 137.508 147.74C137.811 147.828 138.135 147.804 138.421 147.671C141.531 146.656 144.666 145.641 147.524 144.045C150.382 142.449 152.989 140.245 154.523 137.358C154.916 136.675 155.166 135.92 155.258 135.137C155.302 134.746 155.26 134.35 155.137 133.975C155.014 133.601 154.811 133.258 154.544 132.969" fill="#FF725E"/>
<path d="M154.572 132.645C154.502 132.687 154.427 132.718 154.349 132.738L153.699 132.961L153.224 133.12C153.053 133.18 152.871 133.258 152.676 133.335C152.27 133.493 151.823 133.651 151.344 133.887L150.581 134.232C150.317 134.354 150.053 134.504 149.769 134.638C149.205 134.918 148.632 135.271 148.027 135.629C145.419 137.254 143.102 139.305 141.17 141.694C140.735 142.25 140.313 142.77 139.952 143.294C139.777 143.554 139.594 143.797 139.44 144.045L138.998 144.756C138.705 145.202 138.49 145.637 138.279 146.006C138.178 146.193 138.08 146.363 137.999 146.526C137.918 146.688 137.849 146.838 137.78 146.972C137.658 147.228 137.556 147.431 137.475 147.589C137.444 147.664 137.405 147.735 137.357 147.801C137.377 147.724 137.405 147.649 137.439 147.577L137.715 146.94L137.914 146.485C137.991 146.319 138.088 146.144 138.186 145.957C138.385 145.58 138.592 145.145 138.88 144.686L139.314 143.964C139.465 143.712 139.647 143.464 139.822 143.205C140.163 142.673 140.585 142.145 141.015 141.581C142.947 139.167 145.282 137.107 147.917 135.491C148.531 135.137 149.107 134.784 149.675 134.512C149.96 134.37 150.228 134.224 150.487 134.106L151.259 133.769C151.746 133.542 152.209 133.392 152.607 133.241C152.81 133.168 152.992 133.095 153.167 133.038L153.646 132.896L154.308 132.709C154.393 132.679 154.482 132.657 154.572 132.645Z" fill="#263238"/>
<path d="M143.675 138.548C142.565 138.972 141.434 139.336 140.285 139.64C139.152 140.005 138 140.307 136.834 140.545C137.946 140.123 139.079 139.758 140.228 139.453C141.36 139.088 142.51 138.786 143.675 138.548Z" fill="#263238"/>
<path d="M143.537 146.034C143.477 145.685 143.452 145.33 143.464 144.975C143.444 144.321 143.44 143.42 143.464 142.421C143.488 141.422 143.545 140.521 143.602 139.871C143.61 139.517 143.655 139.165 143.736 138.82C143.764 139.172 143.764 139.527 143.736 139.879C143.716 140.594 143.687 141.467 143.659 142.429C143.631 143.391 143.614 144.26 143.594 144.975C143.607 145.329 143.587 145.684 143.537 146.034Z" fill="#263238"/>
<path d="M149.952 142.766C149.895 142.766 149.724 140.935 149.57 138.666C149.416 136.396 149.331 134.557 149.383 134.553C149.436 134.549 149.607 136.384 149.765 138.653C149.923 140.923 150.005 142.762 149.952 142.766Z" fill="#263238"/>
<path d="M141.966 134.386C142.327 134.343 142.691 134.332 143.054 134.354C143.724 134.354 144.649 134.378 145.673 134.411C146.696 134.443 147.621 134.488 148.287 134.529C148.651 134.531 149.014 134.565 149.371 134.63C149.012 134.677 148.649 134.688 148.287 134.663C147.617 134.663 146.688 134.638 145.664 134.606C144.641 134.573 143.716 134.533 143.05 134.492C142.686 134.49 142.323 134.455 141.966 134.386Z" fill="#263238"/>
<path d="M157.361 156.716C157.345 156.646 157.337 156.574 157.337 156.501C157.337 156.335 157.337 156.132 157.308 155.876C157.284 155.336 157.28 154.548 157.308 153.578C157.337 152.608 157.394 151.455 157.507 150.176C157.621 148.897 157.82 147.5 158.08 146.043C158.34 144.585 158.673 143.201 159.001 141.983C159.33 140.765 159.688 139.64 160.016 138.735C160.345 137.829 160.617 137.082 160.828 136.583L161.076 136.006C161.101 135.938 161.134 135.873 161.174 135.812C161.161 135.884 161.141 135.955 161.113 136.023C161.056 136.173 160.987 136.368 160.901 136.607C160.707 137.115 160.447 137.858 160.142 138.775C159.838 139.693 159.501 140.805 159.172 142.023C158.843 143.241 158.535 144.634 158.267 146.083C157.999 147.533 157.82 148.925 157.682 150.204C157.544 151.483 157.479 152.64 157.442 153.59C157.406 154.54 157.39 155.34 157.39 155.884C157.39 156.136 157.39 156.343 157.39 156.505C157.389 156.577 157.38 156.648 157.361 156.716Z" fill="#263238"/>
<path d="M158.218 146.095C158.027 146.354 157.809 146.592 157.568 146.806C157.162 147.212 156.553 147.784 155.875 148.381C155.197 148.978 154.56 149.493 154.089 149.855C153.847 150.066 153.583 150.25 153.301 150.403C153.514 150.163 153.749 149.944 154.004 149.749L155.745 148.235L157.475 146.704C157.702 146.478 157.951 146.274 158.218 146.095Z" fill="#263238"/>
<path d="M163.35 150.22C163.095 149.921 162.864 149.602 162.66 149.266L161.06 146.927C160.439 146.046 159.875 145.255 159.436 144.613C159.193 144.304 158.973 143.977 158.778 143.635C159.06 143.909 159.317 144.208 159.546 144.528C159.996 145.1 160.597 145.904 161.231 146.818C161.864 147.731 162.408 148.572 162.79 149.193C163.006 149.518 163.194 149.862 163.35 150.22Z" fill="#263238"/>
<path d="M160.662 137.228C160.69 137.273 158.985 138.422 156.854 139.794C154.722 141.166 152.968 142.23 152.94 142.194C152.911 142.157 154.617 141 156.748 139.628C158.88 138.255 160.634 137.179 160.662 137.228Z" fill="#263238"/>
<path d="M165.469 142.413C164.565 141.668 163.704 140.872 162.891 140.03C162.032 139.236 161.219 138.394 160.455 137.508C161.358 138.254 162.219 139.05 163.033 139.892C163.89 140.688 164.703 141.529 165.469 142.413Z" fill="#263238"/>
<path d="M166.679 142.311L168.141 142.189C169.181 142.104 170.191 141.795 171.101 141.284C171.543 141.023 172.003 140.793 172.477 140.594C174.288 139.867 176.305 139.997 178.254 139.9C181.443 139.735 184.566 138.936 187.442 137.549C187.612 137.472 187.754 137.344 187.848 137.183C188.148 136.635 187.588 136.148 187.109 135.852C184.645 134.333 182.132 132.795 179.334 132.039C176.537 131.284 173.366 131.414 170.979 133.054C168.177 134.983 167.158 138.941 166.683 142.311" fill="#FF725E"/>
<path d="M187.876 137.005C187.79 136.975 187.707 136.937 187.628 136.892L186.934 136.526C186.333 136.209 185.464 135.743 184.372 135.219C183.097 134.593 181.77 134.081 180.406 133.688C178.735 133.213 176.986 133.075 175.262 133.282C173.535 133.474 171.905 134.173 170.576 135.292C169.541 136.259 168.712 137.426 168.14 138.723C167.742 139.593 167.386 140.484 167.077 141.39C166.971 141.699 166.882 141.942 166.817 142.129C166.79 142.215 166.756 142.3 166.715 142.381C166.728 142.291 166.749 142.202 166.78 142.117C166.837 141.926 166.914 141.678 167.008 141.366C167.289 140.445 167.625 139.542 168.015 138.662C168.576 137.338 169.405 136.145 170.451 135.158C171.801 134.007 173.465 133.286 175.229 133.087C176.979 132.88 178.752 133.029 180.442 133.526C181.815 133.927 183.149 134.455 184.425 135.101C185.513 135.645 186.37 136.132 186.963 136.469L187.641 136.875C187.722 136.913 187.801 136.956 187.876 137.005Z" fill="#263238"/>
<path d="M184.36 138.893C184.332 138.937 182.415 137.699 180.085 136.128C177.755 134.556 175.887 133.245 175.915 133.2C175.944 133.156 177.86 134.394 180.195 135.965C182.529 137.536 184.389 138.852 184.36 138.893Z" fill="#263238"/>
<path d="M182.318 133.099C181.87 133.254 181.4 133.339 180.925 133.351C180.453 133.417 179.974 133.41 179.504 133.331C179.969 133.249 180.438 133.201 180.909 133.188C181.376 133.124 181.847 133.095 182.318 133.099Z" fill="#263238"/>
<path d="M173.938 132.007C173.781 132.365 173.569 132.697 173.309 132.989C173.085 133.329 172.812 133.633 172.497 133.891C172.655 133.534 172.867 133.204 173.126 132.912C173.352 132.573 173.626 132.268 173.938 132.007Z" fill="#263238"/>
<path d="M175.651 140.022C175.328 139.886 175.019 139.719 174.73 139.522C174.177 139.185 173.43 138.71 172.631 138.113C171.831 137.517 171.128 136.985 170.625 136.587C170.334 136.385 170.062 136.157 169.813 135.905C170.124 136.065 170.418 136.257 170.69 136.477L172.72 137.959C173.532 138.536 174.247 139.043 174.778 139.409C175.088 139.586 175.38 139.791 175.651 140.022Z" fill="#263238"/>
<path d="M168.835 148.531C167.438 148.162 165.774 149.518 165.485 150.935C165.197 152.352 165.729 153.797 166.35 155.1C167.685 158.024 169.666 160.608 172.144 162.656C174.636 164.704 177.749 165.849 180.974 165.904C180.381 163.163 181.128 160.297 180.8 157.512C180.51 155.058 179.396 152.775 177.64 151.036C175.884 149.298 173.59 148.207 171.133 147.942C170.24 147.845 169.208 147.707 168.855 148.531" fill="#FF725E"/>
<path d="M180.954 165.904C180.883 165.884 180.816 165.852 180.755 165.811C180.571 165.709 180.396 165.593 180.231 165.461C179.645 164.952 179.175 164.324 178.851 163.618C178.632 163.184 178.38 162.717 178.136 162.197L177.385 160.537C177.117 159.926 176.809 159.333 176.464 158.762C176.087 158.153 175.662 157.575 175.193 157.033C174.239 155.912 173.212 154.938 172.323 154.012C171.519 153.201 170.787 152.322 170.134 151.385C169.698 150.754 169.339 150.073 169.066 149.355C168.993 149.159 168.93 148.958 168.88 148.755C168.855 148.687 168.84 148.616 168.835 148.543C168.835 148.543 168.932 148.828 169.135 149.327C169.433 150.03 169.806 150.698 170.248 151.32C170.912 152.238 171.649 153.1 172.452 153.899C173.346 154.816 174.377 155.786 175.343 156.919C175.815 157.47 176.244 158.057 176.626 158.673C176.974 159.253 177.283 159.855 177.552 160.476C177.808 161.06 178.055 161.617 178.283 162.14C178.51 162.664 178.762 163.131 178.973 163.565C179.276 164.258 179.715 164.884 180.264 165.405C180.67 165.754 180.962 165.888 180.954 165.904Z" fill="#263238"/>
<path d="M173.731 163.618C173.74 163.301 173.783 162.985 173.861 162.676C173.971 162.104 174.149 161.312 174.389 160.456C174.628 159.599 174.892 158.832 175.099 158.279C175.193 157.976 175.321 157.685 175.481 157.411C175.425 157.722 175.341 158.028 175.229 158.324C175.055 158.88 174.823 159.652 174.579 160.508C174.336 161.365 174.137 162.132 173.995 162.709C173.935 163.019 173.846 163.324 173.731 163.618Z" fill="#263238"/>
<path d="M180.67 156.895C180.336 156.85 180.008 156.775 179.687 156.672C179.086 156.513 178.254 156.298 177.333 156.091C176.411 155.884 175.562 155.722 174.953 155.604C174.619 155.56 174.289 155.488 173.967 155.389C174.304 155.378 174.642 155.405 174.974 155.47C175.595 155.551 176.443 155.693 177.373 155.9C178.303 156.107 179.131 156.347 179.728 156.538C180.054 156.622 180.37 156.742 180.67 156.895Z" fill="#263238"/>
<path d="M168.55 158.851C168.566 158.485 168.616 158.121 168.701 157.763C168.826 157.098 169.021 156.18 169.281 155.181C169.541 154.182 169.821 153.285 170.04 152.644C170.141 152.29 170.277 151.947 170.446 151.621C170.386 151.982 170.297 152.338 170.178 152.684C169.992 153.334 169.736 154.231 169.476 155.23C169.216 156.229 169.001 157.134 168.843 157.792C168.776 158.153 168.678 158.507 168.55 158.851Z" fill="#263238"/>
<path d="M177.483 151.032C177.483 151.085 175.737 150.943 173.593 150.716C171.45 150.488 169.708 150.261 169.708 150.22C169.708 150.18 171.454 150.31 173.602 150.537C175.749 150.764 177.491 150.979 177.483 151.032Z" fill="#263238"/>
<path d="M176.203 172.169C176.203 172.222 170.077 172.266 162.521 172.266C154.966 172.266 148.835 172.222 148.835 172.169C148.835 172.116 154.961 172.071 162.521 172.071C170.081 172.071 176.203 172.116 176.203 172.169Z" fill="#455A64"/>
<path d="M171.944 180.053C171.944 180.106 167.815 180.15 162.724 180.15C157.633 180.15 153.504 180.106 153.504 180.053C153.504 180 157.633 179.956 162.724 179.956C167.815 179.956 171.944 180 171.944 180.053Z" fill="#455A64"/>
<path d="M171.782 181.182C171.782 181.235 167.722 181.279 162.724 181.279C157.727 181.279 153.667 181.235 153.667 181.182C153.667 181.129 157.727 181.084 162.724 181.084C167.722 181.084 171.782 181.129 171.782 181.182Z" fill="#455A64"/>
<path d="M172.107 179.123C172.107 179.18 167.836 179.221 162.57 179.221C157.304 179.221 153.033 179.18 153.033 179.123C153.033 179.066 157.3 179.026 162.57 179.026C167.84 179.026 172.107 179.071 172.107 179.123Z" fill="#455A64"/>
<path d="M142.701 56.2227C141.454 50.1936 135.311 30.6 108.82 31.7165C95.6615 32.2687 88.3941 38.4967 84.6101 43.6245C82.1478 46.9358 80.404 50.7248 79.4905 54.7489L79.4621 54.9154H64.7852V54.7124C64.7852 54.6515 64.7852 48.7036 65.4266 45.7195L65.8326 45.8007C65.2764 48.4356 65.2074 53.4416 65.1993 54.5094H79.1332C80.0796 50.4951 81.831 46.7147 84.2813 43.3971C88.1017 38.1922 95.4747 31.8708 108.808 31.3105C119.668 30.8558 128.361 33.8196 134.629 40.1248C140.293 45.8088 142.368 52.6052 143.098 56.1415L142.701 56.2227Z" fill="#FF725E"/>
<path d="M118.345 150.293H96.3762V87.7245L96.6157 87.7691C117.366 91.4231 126.371 82.2313 129.908 76.4255C134.065 69.5682 134.78 61.2939 131.857 54.2944C130.025 49.9746 124.321 39.9586 110.432 40.1941C103.635 40.3118 94.5045 42.4555 89.5798 52.0005C87.7751 55.5907 86.7564 59.5243 86.5916 63.5391V63.7421H59.0323V63.5431C59.008 61.2208 59.0323 53.3444 59.0323 53.2673V53.0399L62.4305 53.3972V58.4641L82.3245 58.4356C83.1828 54.2753 84.8372 50.32 87.1965 46.7875C90.7815 41.4689 97.6632 35.1597 110.026 35.1597H110.432C119.486 35.2571 126.956 38.4401 132.039 44.3677C137.516 50.7541 139.173 59.1867 138.381 64.7165C138.381 64.822 137.861 77.5461 128.3 86.0193C121.629 91.9347 112.239 94.4235 100.383 93.4166V112.868H104.476V97.3304L104.695 97.3507C108.402 97.5468 112.119 97.2657 115.755 96.5144C121.333 95.3695 129.031 92.5559 134.025 85.6417C142.977 73.21 143.074 66.1821 143.143 61.0503C143.143 60.6443 143.143 60.2383 143.143 59.8323L143.099 58.8092H149.189V58.9919C149.189 59.1218 150.163 71.7971 139.599 86.0193C133.026 94.866 125.324 100.566 117.914 102.06L117.837 101.654C125.145 100.181 132.758 94.5372 139.274 85.7676C149.047 72.6132 148.868 60.8148 148.795 59.207H143.517L143.541 59.8201C143.541 60.2261 143.541 60.6321 143.541 61.0381C143.468 66.2227 143.371 73.3277 134.349 85.8609C129.291 92.8847 121.487 95.7389 115.832 96.9001C112.227 97.6389 108.545 97.9253 104.87 97.7527V113.274H99.9815V92.9741L100.201 92.9944C112.04 94.0378 121.406 91.5896 128.032 85.7188C137.463 77.3634 137.979 64.8098 137.983 64.684C138.763 59.2233 137.13 50.9206 131.739 44.6316C126.733 38.8015 119.364 35.6672 110.432 35.5697C97.9839 35.4357 91.1104 41.7166 87.5294 47.0067C85.152 50.5384 83.4963 54.5053 82.6574 58.6792L82.629 58.8498L62.0002 58.8782V53.7585L59.414 53.4865C59.414 54.7573 59.414 61.0422 59.414 63.332H86.1775C86.3744 59.3272 87.4031 55.4073 89.1981 51.8219C91.9873 46.4505 97.9149 39.9992 110.432 39.7881H110.927C124.687 39.7881 130.391 49.8 132.214 54.1442C135.202 61.2655 134.463 69.6778 130.237 76.6447C127.224 81.6101 120.269 89.0156 105.605 89.0196C102.646 89.0015 99.6944 88.7299 96.7822 88.2076V149.887H118.345V150.293Z" fill="#FF725E"/>
<path d="M124.029 150.09H123.623V113.55L123.773 113.509C123.87 113.485 133.407 110.956 142.814 103.335C151.491 96.3032 161.831 83.3802 161.831 61.712C161.831 44.6884 154.929 31.0184 141.937 22.1676C131.182 14.8596 118.255 12.2652 110.456 12.2652C98.9461 12.2652 71.1919 15.1965 62.061 42.3295C61.3285 44.8073 60.7709 47.3334 60.3923 49.8892L59.9863 49.8324C60.3654 47.2603 60.9243 44.7179 61.659 42.224C70.8752 14.823 98.8446 11.8633 110.432 11.8633C118.288 11.8633 131.308 14.4779 142.144 21.8346C155.283 30.7666 162.229 44.5706 162.229 61.716C162.229 83.5466 151.799 96.5752 143.05 103.656C137.409 108.229 130.952 111.69 124.021 113.855L124.029 150.09Z" fill="#FF725E"/>
<path d="M121.008 126.595H120.602L120.631 110.261L120.801 110.233C120.846 110.233 125.405 109.494 131.316 106.303C136.773 103.355 144.528 97.6551 150.5 87.2209C159.026 72.3247 157.471 60.8593 157.455 60.7456C156.448 46.0403 150.662 34.5951 140.265 26.7066C129.404 18.4648 116.887 16.7149 110.395 16.4023C105.32 16.1587 96.4857 17.0113 88.3008 20.2227C77.2048 24.5751 69.84 31.948 66.4133 42.1467L66.0073 42.0168C69.4746 31.7085 76.9206 24.2543 88.1303 19.8573C96.3761 16.6093 105.28 15.7649 110.395 16.0085C116.932 16.3211 129.542 18.0912 140.492 26.398C150.987 34.3597 156.821 45.9063 157.836 60.7131C157.836 60.8146 159.424 72.41 150.829 87.432C144.808 97.9677 136.98 103.717 131.475 106.689C126.152 109.563 121.905 110.46 121.016 110.627L121.008 126.595Z" fill="#FF725E"/>
<path d="M120.976 146.603H104.683V146.197H120.57L120.59 133.574H120.996L120.976 146.603Z" fill="#FF725E"/>
<path d="M104.683 146.602H100.318V117.906H104.886V142.993H104.48V118.312H100.724V146.196H104.683V146.602Z" fill="#FF725E"/>
<path d="M76.4944 50.0677H69.2148V49.8565C69.4503 42.2116 72.6009 37.2015 75.2033 34.3473C76.7408 32.6245 78.5616 31.1772 80.5869 30.0681L76.734 26.7308L76.9979 26.4263L81.338 30.1655L81.0497 30.2955C80.9442 30.3482 70.1811 35.4435 69.6452 49.6617H76.328C76.6487 48.2407 79.2146 37.981 86.1856 35.2811L83.912 32.8857C83.0635 33.1456 77.3795 35.2446 74.2249 45.7194L73.8189 45.6017C77.3105 34.1037 83.6644 32.5366 83.9323 32.4797L84.046 32.4554L86.9164 35.4557L86.6201 35.5613C79.17 38.1637 76.734 49.7875 76.6934 49.9053L76.6609 50.0677H76.4944Z" fill="#FF725E"/>
<path d="M88.7312 32.9547L79.6733 24.5343L79.9494 24.2338L88.7271 32.3985C89.8713 31.4354 91.13 30.6173 92.4745 29.9625C96.2193 28.1499 100.286 27.0957 104.439 26.8606C115.401 26.0892 123.201 28.1598 126.664 30.2101L129.672 25.1717C127.35 24.1526 105.893 15.2369 88.3658 25.3869L88.1628 25.0336C106.81 14.2381 129.818 24.786 130.05 24.8956L130.253 24.989L126.802 30.7907L126.627 30.6811C123.31 28.6267 115.519 26.5074 104.468 27.2869C93.9442 28.0137 88.9139 32.772 88.8692 32.8207L88.7312 32.9547Z" fill="#FF725E"/>
<path d="M116.977 141.211H116.571L117.188 106.616H117.387C129.031 106.531 145.299 89.8968 149.956 76.8479C156.452 58.6388 151.174 45.8864 145.596 38.3957C141.926 33.5077 137.279 29.4371 131.95 26.443L128.994 31.8063C130.988 32.6508 146.083 39.5974 146.209 55.8983L152.615 55.947V56.353L145.807 56.3003V56.0973C145.807 38.8707 128.808 32.1636 128.637 32.0945L128.418 32.0133L131.788 25.9233L131.95 25.9842C137.408 28.9974 142.165 33.1351 145.904 38.1236C151.544 45.6955 156.891 58.582 150.33 76.9697C147.707 84.3183 142.271 91.9917 135.409 97.964C129.059 103.514 122.417 106.876 117.582 107.002L116.977 141.211Z" fill="#FF725E"/>
<path d="M113.57 141.41H108.028L108.032 141.203L108.678 105.475L108.662 103.096H113.664V136.903H113.258V103.502H109.068L109.084 105.479L108.442 141.004H113.57V141.41Z" fill="#FF725E"/>
<path d="M148.888 97.8459C148.543 97.4399 146.31 95.1704 145.754 94.5979L145.697 94.537L145.636 94.4802C145.606 94.4582 145.584 94.4264 145.574 94.3902C145.565 94.3539 145.568 94.3154 145.583 94.2813L145.738 94.1392C145.782 94.1392 145.811 94.1392 145.908 94.2082L146.022 94.3259C146.233 94.5208 146.619 94.9146 147.39 95.6982C148.413 96.7376 149.014 97.3709 149.193 97.5861L148.888 97.8459Z" fill="#FF725E"/>
<path d="M136.003 18.7304L133.506 21.896L133.825 22.1474L136.322 18.9818L136.003 18.7304Z" fill="#FF725E"/>
<path d="M134.686 61.915C134.361 61.915 134.049 61.915 133.777 61.915V61.509C134.422 61.5334 135.255 61.509 136.063 61.509C136.871 61.509 137.715 61.4887 138.369 61.509V61.915C137.723 61.8947 136.887 61.915 136.079 61.915H134.686Z" fill="#FF725E"/>
<path d="M71.8171 58.7114H71.4111V63.3561H71.8171V58.7114Z" fill="#FF725E"/>
<path d="M109.413 35.6753H109.007V39.6703H109.413V35.6753Z" fill="#FF725E"/>
<path d="M145.857 85.4972L145.694 85.8691L150.347 87.9058L150.51 87.5339L145.857 85.4972Z" fill="#FF725E"/>
<path d="M126.642 92.5758L126.319 92.8223L129.282 96.7001L129.605 96.4537L126.642 92.5758Z" fill="#FF725E"/>
<path d="M160.025 46.4065L155.261 47.7305L155.369 48.1216L160.134 46.7976L160.025 46.4065Z" fill="#FF725E"/>
<path d="M124.358 181.957H96.3032V160.614H96.7092V181.551H123.952V156.132H96.5062V155.726H124.358V181.957Z" fill="#FF725E"/>
<path d="M120.996 177.535H100.319V164.961H116.977V172.464H104.683V168.847H112.738V169.253H105.089V172.058H116.571V165.367H100.725V177.129H120.59V160.97H96.5063V160.564H120.996V177.535Z" fill="#FF725E"/>
<path d="M105.527 177.333H105.121V181.75H105.527V177.333Z" fill="#FF725E"/>
<path d="M124.155 167.605H120.793V168.011H124.155V167.605Z" fill="#FF725E"/>
<path d="M108.438 165.165H108.032V168.843H108.438V165.165Z" fill="#FF725E"/>
<path d="M100.522 171.178H96.5063V171.584H100.522V171.178Z" fill="#FF725E"/>
<path d="M76.5756 56.0527L75.1546 56.406L74.5659 56.9297L75.3495 57.1286L77.075 56.6333L76.5756 56.0527Z" fill="#455A64"/>
<path d="M81.728 56.7146L79.5762 54.0918H77.3838L75.9952 55.7158C76.0041 55.8076 76.0333 55.8964 76.0805 55.9756C75.826 55.9037 75.5535 55.9343 75.3213 56.0609L76.5839 59.4063L78.9875 61.8139L82.0284 60.9654L81.728 56.7146ZM78.415 57.9326L77.2904 57.4007C77.1239 56.9271 76.8453 56.5009 76.4784 56.1583C76.5162 56.1623 76.5543 56.1623 76.5921 56.1583C76.7413 56.1337 76.8854 56.0843 77.0184 56.0122C77.9806 55.5331 78.2364 55.4275 78.2364 55.4275L78.8494 56.5481L78.415 57.9326Z" fill="#FFBE9D"/>
<path d="M80.0554 55.9105C79.7627 55.686 79.5125 55.411 79.3164 55.0985C79.0688 54.8205 78.876 54.4981 78.748 54.1485C78.7927 54.112 79.1256 54.4814 79.487 54.9605C79.7364 55.2372 79.9294 55.5599 80.0554 55.9105Z" fill="#EB996E"/>
<path d="M78.4151 57.9407C77.9961 57.8759 77.5868 57.7586 77.1971 57.5915H77.1525V57.5387C77.087 57.3137 76.9986 57.096 76.8886 56.8891C76.7937 56.6878 76.6598 56.5073 76.4946 56.3582C76.3294 56.209 76.1363 56.0942 75.9263 56.0203C75.7402 56.0022 75.5523 56.0146 75.3701 56.0568C75.3701 56.0568 75.4026 56 75.5 55.9513C75.6382 55.8823 75.7931 55.8541 75.9466 55.8701C76.1915 55.9287 76.42 56.0416 76.6154 56.2004C76.8107 56.3592 76.9679 56.5599 77.0753 56.7876C77.1948 57.0091 77.2849 57.2452 77.3433 57.49L77.2824 57.421C77.6785 57.5506 78.0585 57.725 78.4151 57.9407Z" fill="#EB996E"/>
<path d="M76.9205 56.6741L81.9305 55.3464C81.9774 55.3338 82.0212 55.312 82.0594 55.2821C82.0976 55.2522 82.1294 55.2149 82.1529 55.1725C82.1764 55.13 82.1911 55.0833 82.1961 55.0351C82.2012 54.9868 82.1964 54.9381 82.1822 54.8917C82.156 54.8086 82.1002 54.7379 82.0254 54.693C81.9506 54.6481 81.862 54.6322 81.7762 54.6481L76.4414 56.0935C76.6314 56.2599 76.7931 56.456 76.9205 56.6741Z" fill="#455A64"/>
<path d="M38.5699 119.385L41.6068 117.74L41.7205 118.869L40.1939 124.61C39.7031 123.8 39.308 122.936 39.0165 122.036C39.0165 122.036 38.5293 119.9 38.5293 119.746C38.531 119.624 38.5474 119.503 38.578 119.385" fill="#FFBE9D"/>
<path d="M63.4336 179.128L63.9492 191.348L70.5467 191.202L70.0554 178.957L63.4336 179.128Z" fill="#455A64"/>
<path d="M67.1889 190.82C67.2458 190.82 67.1443 188.141 66.9616 184.844C66.7789 181.547 66.5881 178.876 66.5353 178.88C66.4825 178.884 66.5799 181.555 66.7626 184.856C66.9453 188.157 67.1362 190.82 67.1889 190.82Z" fill="#263238"/>
<path d="M63.9165 190.508L70.514 190.337L70.5465 191.202L63.949 191.348L63.9165 190.508Z" fill="#263238"/>
<path d="M70.3925 187.288C70.346 187.192 70.2843 187.105 70.2098 187.028C69.7419 186.482 69.1561 186.049 68.4964 185.762C68.0061 185.551 67.4746 185.454 66.9415 185.478C66.4591 185.499 65.9863 185.62 65.553 185.833C65.1198 186.046 64.7354 186.347 64.4243 186.716C64.2395 186.939 64.0878 187.188 63.9736 187.455C63.9235 187.549 63.8931 187.653 63.8843 187.759C64.0712 187.424 64.2872 187.106 64.5298 186.809C65.1603 186.125 66.0364 185.719 66.9658 185.681C67.8905 185.666 68.7921 185.97 69.5196 186.541C70.0798 186.964 70.364 187.313 70.3925 187.288Z" fill="#263238"/>
<g opacity="0.3">
<path opacity="0.3" d="M63.5918 184.064L63.6892 185.153H70.303L70.2624 184.064H63.5918Z" fill="black"/>
</g>
<path d="M41.1884 179.984L40.9529 187.313C40.9529 187.313 33.58 190.102 33.5312 191.482L47.9361 191.299L48.2731 179.858L41.1884 179.984Z" fill="#455A64"/>
<path d="M45.3097 186.61C45.4506 186.65 45.5719 186.74 45.6505 186.864C45.7291 186.987 45.7595 187.135 45.736 187.28C45.7012 187.422 45.6131 187.546 45.4901 187.625C45.367 187.704 45.2182 187.733 45.0743 187.706C44.925 187.664 44.7966 187.568 44.7141 187.437C44.6315 187.306 44.6007 187.148 44.6277 186.996C44.6794 186.852 44.7845 186.733 44.9213 186.664C45.0581 186.595 45.216 186.582 45.3625 186.626" fill="#E0E0E0"/>
<path d="M47.9365 191.299V190.374L33.9416 190.82C33.8156 190.902 33.7077 191.008 33.6246 191.133C33.5415 191.258 33.485 191.399 33.4585 191.547L47.9365 191.299Z" fill="#263238"/>
<path d="M40.8237 187.362C40.8237 187.435 41.185 187.459 41.5383 187.678C41.8915 187.897 42.0864 188.19 42.1513 188.161C42.2163 188.133 42.0985 187.723 41.6641 187.467C41.2297 187.211 40.8075 187.297 40.8237 187.362Z" fill="#263238"/>
<path d="M39.313 188.027C39.313 188.096 39.6094 188.21 39.857 188.506C40.1047 188.802 40.1818 189.115 40.263 189.111C40.3442 189.107 40.3726 188.705 40.056 188.344C39.7393 187.982 39.313 187.978 39.313 188.027Z" fill="#263238"/>
<path d="M38.4889 189.875C38.5539 189.875 38.6432 189.529 38.4524 189.148C38.2615 188.766 37.9246 188.616 37.8961 188.673C37.8677 188.73 38.0788 188.937 38.2331 189.257C38.3874 189.578 38.4199 189.87 38.4889 189.875Z" fill="#263238"/>
<path d="M40.9125 185.644C40.9409 185.709 41.2657 185.603 41.6676 185.62C42.0696 185.636 42.3862 185.758 42.4228 185.697C42.4593 185.636 42.1508 185.388 41.6757 185.376C41.2007 185.364 40.8759 185.591 40.9125 185.644Z" fill="#263238"/>
<path d="M40.6001 184.048C40.8396 184.109 41.0911 184.102 41.3268 184.028C41.588 183.976 41.8416 183.891 42.082 183.776C42.2223 183.708 42.3579 183.631 42.488 183.545C42.5695 183.498 42.6423 183.438 42.7032 183.366C42.7486 183.315 42.7756 183.25 42.78 183.182C42.7844 183.113 42.766 183.045 42.7275 182.989C42.6902 182.941 42.6427 182.903 42.5886 182.876C42.5346 182.85 42.4752 182.835 42.4149 182.834C42.3213 182.837 42.2285 182.852 42.1388 182.879C41.9851 182.92 41.8356 182.976 41.6922 183.046C41.448 183.16 41.2244 183.313 41.0305 183.5C40.7016 183.821 40.592 184.089 40.6245 184.101C40.6569 184.113 40.8153 183.898 41.1523 183.634C41.3486 183.48 41.5643 183.351 41.7937 183.253C41.9244 183.194 42.0603 183.148 42.1997 183.115C42.354 183.07 42.4839 183.066 42.5245 183.115C42.5651 183.163 42.5245 183.151 42.5245 183.2C42.4772 183.248 42.424 183.291 42.3662 183.326C42.2436 183.41 42.1162 183.488 41.9846 183.557C41.7615 183.674 41.5277 183.769 41.2862 183.841C41.0531 183.895 40.8238 183.964 40.6001 184.048Z" fill="#263238"/>
<g opacity="0.3">
<path opacity="0.3" d="M48.1477 184.154L48.099 185.843L40.998 185.952L41.063 184.422L48.1477 184.154Z" fill="black"/>
</g>
<path d="M45.1597 61.9759L48.6513 76.7543L56.958 75.65L56.349 70.9363C56.349 70.9363 59.3778 70.985 59.6417 68.1349C59.727 67.1849 58.988 62.9868 58.2613 59.1785C58.0948 58.3078 57.7572 57.4787 57.268 56.7394C56.7787 56.0001 56.1476 55.3652 55.4112 54.8716C54.6748 54.378 53.8477 54.0355 52.9779 53.864C52.1082 53.6924 51.213 53.6952 50.3443 53.8721C49.465 54.0509 48.6306 54.4046 47.8906 54.9121C47.1506 55.4196 46.5201 56.0706 46.0365 56.8265C45.553 57.5823 45.2262 58.4276 45.0755 59.3122C44.9249 60.1968 44.9535 61.1026 45.1597 61.9759Z" fill="#FFBE9D"/>
<path d="M52.8246 53.3446C53.5392 53.6045 53.3565 53.9577 53.5067 54.2785C53.6569 54.5992 54.2822 54.5748 54.8993 54.8184C55.5164 55.062 56.9293 56.1948 57.3069 56.9012C57.6845 57.6076 57.4571 57.6929 57.3881 58.0908C57.3191 58.4887 57.8875 60.4821 57.9687 60.8353C58.1229 61.5052 58.4193 63.4784 58.4193 63.4784L57.8225 63.791C57.8225 63.791 57.5099 61.6311 56.8075 61.6433C56.1051 61.6555 55.9305 62.3903 55.8981 62.5893C55.6894 62.8931 55.5355 63.2311 55.4433 63.588C55.2891 64.5299 55.3581 65.9063 55.2891 66.7711C55.1794 68.1068 53.7138 70.084 53.7138 70.084L47.2178 70.6849C47.2178 70.6849 44.2743 64.0265 44.0835 62.2888C43.8926 60.5511 44.5585 58.2288 45.5329 56.6617C46.0086 55.9894 46.5899 55.3985 47.2543 54.9118C47.7266 54.5853 48.2203 54.291 48.7322 54.0308C49.8538 53.4777 51.1019 53.2311 52.3496 53.3162L52.8246 53.3446Z" fill="#263238"/>
<path d="M57.863 65.9266C57.863 65.9266 57.863 66.0321 57.7209 66.1661C57.5363 66.3497 57.2869 66.4532 57.0266 66.4544C56.8332 66.4495 56.643 66.4035 56.4687 66.3195C56.2944 66.2355 56.14 66.1154 56.0157 65.9672C55.7257 65.6051 55.5479 65.1663 55.5041 64.7045C55.3797 63.8857 55.5086 63.0485 55.8736 62.3051C55.9901 62.0788 56.1654 61.888 56.3811 61.7529C56.4555 61.6983 56.5446 61.6672 56.6369 61.6636C56.3668 61.8404 56.1483 62.0856 56.0035 62.3741C55.6977 63.1003 55.5979 63.8968 55.7152 64.6761C55.7525 65.098 55.9088 65.5007 56.1659 65.8373C56.2692 65.9704 56.3991 66.0806 56.5473 66.161C56.6954 66.2414 56.8587 66.2901 57.0266 66.3042C57.257 66.3135 57.4835 66.2433 57.6681 66.1052C57.798 66.0037 57.8467 65.9185 57.863 65.9266Z" fill="#EB996E"/>
<path d="M57.0837 64.9602C57.104 64.9602 56.9457 65.082 56.7224 64.9602C56.6012 64.8687 56.504 64.7493 56.439 64.6122C56.374 64.4751 56.343 64.3242 56.3488 64.1726C56.3448 63.8775 56.4439 63.5904 56.629 63.3606C56.7711 63.186 56.901 63.1332 56.9172 63.1535C56.7124 63.455 56.5906 63.805 56.564 64.1685C56.5575 64.2902 56.5757 64.4119 56.6176 64.5264C56.6595 64.6408 56.7241 64.7456 56.8076 64.8343C56.9457 64.9358 57.0796 64.9155 57.0837 64.9602Z" fill="#EB996E"/>
<path d="M42.7763 113.417L39.7231 126.12V185.473L48.8744 185.745L49.6864 150.456L54.2864 128.617L58.5209 151.061L62.7718 184.844L70.9202 184.609C70.9202 184.609 69.5357 170.309 69.7793 166.314C70.0229 162.319 68.3543 149.729 68.3543 149.729C68.3543 149.729 68.6141 128.711 68.1797 126.181C67.6884 123.339 67.2743 114.115 67.2743 113.753L42.7763 113.417Z" fill="#263238"/>
<path d="M54.2742 128.743C53.7866 128.878 53.2919 128.987 52.7923 129.068C51.8788 129.254 50.6202 129.543 49.252 129.941C47.8838 130.338 46.6617 130.753 45.7888 131.102C44.9159 131.451 44.3759 131.65 44.3638 131.621C44.474 131.54 44.5941 131.473 44.7211 131.422C44.9525 131.305 45.3016 131.146 45.732 130.964C46.8606 130.491 48.0155 130.085 49.1911 129.746C50.3672 129.408 51.5614 129.137 52.768 128.934C53.2308 128.857 53.6084 128.808 53.8682 128.779C54.0009 128.747 54.1378 128.734 54.2742 128.743Z" fill="#455A64"/>
<path d="M63.4213 127.622C63.3182 127.69 63.2061 127.743 63.0884 127.78C62.8732 127.87 62.5484 127.983 62.1465 128.113C60.0458 128.764 57.8467 129.039 55.6505 128.925C55.2445 128.905 54.8913 128.873 54.6558 128.84C54.5323 128.835 54.4104 128.81 54.2944 128.767C54.7488 128.743 55.2042 128.743 55.6586 128.767C56.7442 128.776 57.8292 128.713 58.9066 128.58C59.9887 128.441 61.0602 128.229 62.114 127.947C62.5438 127.816 62.9802 127.708 63.4213 127.622Z" fill="#455A64"/>
<path d="M62.7513 137.33C62.7107 137.37 60.7822 135.511 58.4396 133.176C56.097 130.842 54.2335 128.913 54.2781 128.873C54.3228 128.832 56.2472 130.692 58.5898 133.026C60.9325 135.361 62.796 137.289 62.7513 137.33Z" fill="#455A64"/>
<path d="M42.228 115.686L46.1378 115.548L46.6169 113.469L42.7761 113.417L42.228 115.686Z" fill="#455A64"/>
<path d="M47.8594 113.485L47.498 115.686H61.229L61.2655 113.668L47.8594 113.485Z" fill="#455A64"/>
<path d="M62.4429 113.685V115.686H67.3514L67.2661 113.754L62.4429 113.685Z" fill="#455A64"/>
<path d="M45.6427 159.485C45.5859 159.485 44.8795 157.313 44.0675 154.613C43.2555 151.913 42.6343 149.68 42.6911 149.664C42.748 149.648 43.4544 151.836 44.2705 154.536C45.0865 157.236 45.6996 159.469 45.6427 159.485Z" fill="#455A64"/>
<path d="M64.6553 157.476C63.9366 156.569 63.2723 155.62 62.6659 154.634C62.0014 153.682 61.3953 152.691 60.8511 151.666C61.5731 152.572 62.2389 153.521 62.8445 154.508C63.5069 155.46 64.1116 156.451 64.6553 157.476Z" fill="#455A64"/>
<path d="M43.8479 78.6182C43.8479 78.6182 38.5455 80.8309 37.8716 83.1735C37.1286 85.7719 36.3653 91.4884 36.3653 91.4884V106.543C36.3653 106.543 35.2244 111.618 35.4396 113.753C35.6548 115.889 37.9649 119.677 37.9649 119.677L41.7042 117.862L42.8735 112.564L43.0927 96.401L42.6867 88.3906L43.8479 78.6182Z" fill="#FF725E"/>
<path d="M43.8481 78.6181L47.3722 75.8005L47.5427 73.401L56.6168 71.8623L57.6521 73.8923L61.7121 74.9926L64.4404 74.1806L65.1062 75.7355L68.5004 86.1413L65.9345 101.411C65.9345 101.411 67.457 109.531 67.2621 113.745L42.7722 113.408C42.1388 112.633 42.0414 111.248 42.1672 109.612L41.8384 89.0929L43.8481 78.6181Z" fill="#FF725E"/>
<path d="M64.1032 77.5868C64.0376 77.6164 63.9677 77.6355 63.8962 77.6437L63.2872 77.7736L61.0542 78.2161C59.1663 78.5937 56.5882 79.1378 53.7137 79.8077C50.8392 80.4776 48.2855 81.1515 46.4301 81.655L44.2539 82.2518L43.653 82.4061C43.5854 82.4312 43.514 82.4449 43.4419 82.4467C43.5053 82.413 43.5719 82.3857 43.6408 82.3655L44.2295 82.1706C44.7411 82.0041 45.4881 81.7646 46.4098 81.5088C48.2571 80.9688 50.823 80.2908 53.6853 79.6006C56.5476 78.9104 59.15 78.407 61.0461 78.07C61.992 77.8995 62.7594 77.7695 63.2953 77.6924L63.9084 77.6031C63.9725 77.5902 64.0379 77.5848 64.1032 77.5868Z" fill="#263238"/>
<path d="M48.1313 101.025C48.2967 100.851 48.4744 100.69 48.6632 100.542L50.137 99.2711C51.3753 98.1952 53.0602 96.6767 54.8425 94.9187C56.6249 93.1608 58.1717 91.4962 59.2639 90.2741L60.5549 88.8206C60.705 88.6337 60.8693 88.4586 61.0462 88.2969C60.9173 88.4985 60.7749 88.6911 60.6199 88.8734C60.3357 89.2347 59.9135 89.7463 59.3775 90.3715C58.3098 91.622 56.7791 93.3069 54.9927 95.069C53.2063 96.831 51.4971 98.3373 50.2304 99.3847C49.6011 99.9125 49.0814 100.327 48.7119 100.603C48.53 100.759 48.3359 100.9 48.1313 101.025Z" fill="#263238"/>
<path d="M64.485 95.4709C64.4484 95.5303 64.4063 95.586 64.3592 95.6374L63.9775 96.084C63.6406 96.49 63.1371 97.0219 62.5038 97.6836C59.1843 101.126 55.4881 104.183 51.4849 106.798C50.7176 107.298 50.0842 107.687 49.6417 107.947C49.4346 108.061 49.2682 108.158 49.1301 108.24C49.073 108.279 49.01 108.309 48.9434 108.329C48.9434 108.329 48.9961 108.28 49.1058 108.203L49.597 107.874C50.0274 107.598 50.6445 107.188 51.3997 106.677C52.914 105.649 54.9643 104.167 57.1161 102.389C59.2679 100.611 61.1031 98.8732 62.3941 97.5781C63.0397 96.9285 63.5594 96.4007 63.9126 96.0312L64.3186 95.6252C64.4241 95.5156 64.4769 95.4669 64.485 95.4709Z" fill="#263238"/>
<path d="M59.6455 111.61C60.2677 110.722 60.8319 109.794 61.3345 108.833C61.7706 107.841 62.1408 106.821 62.4429 105.78C62.4437 106.103 62.3972 106.424 62.3048 106.734C62.1235 107.49 61.8622 108.225 61.5253 108.926C61.1913 109.627 60.7829 110.29 60.3073 110.904C60.1221 111.17 59.8992 111.408 59.6455 111.61Z" fill="#263238"/>
<path d="M64.5542 74.8828L73.7217 74.5093L78.1877 72.3738L78.6871 66.1011L78.2811 61.6635L82.1381 60.5186C82.1381 60.5186 85.3414 68.7401 85.2358 71.7323C85.1993 72.7392 85.1384 73.7298 85.0775 74.6068C85.01 75.5111 84.7138 76.3835 84.2167 77.142C83.7196 77.9004 83.0378 78.5201 82.2355 78.9428L68.4843 86.1493L64.5542 74.8828Z" fill="#FF725E"/>
<path d="M42.6298 92.4061C42.3838 91.8234 42.2053 91.2145 42.0979 90.5912C41.9192 89.9829 41.8089 89.3565 41.769 88.7236C42.0153 89.3065 42.1951 89.9153 42.305 90.5385C42.4821 91.147 42.5911 91.7734 42.6298 92.4061Z" fill="#263238"/>
<path d="M42.5526 89.3936C42.5713 89.4734 42.5809 89.5551 42.5811 89.6372C42.5811 89.8239 42.6014 90.0432 42.6176 90.3436C42.642 90.9851 42.6704 91.862 42.711 92.9379C42.7678 95.1547 42.849 98.1672 42.9383 101.5C43.0259 103.075 42.9865 104.654 42.8206 106.222C42.7272 106.949 42.5202 107.619 42.4146 108.252C42.367 108.556 42.3453 108.863 42.3496 109.17C42.3496 109.466 42.309 109.754 42.2887 110.031C42.1972 110.886 42.2204 111.751 42.3578 112.601C42.4039 112.827 42.492 113.044 42.6176 113.238C42.715 113.36 42.78 113.417 42.7759 113.425C42.7719 113.433 42.7759 113.425 42.7232 113.388C42.6718 113.352 42.6254 113.31 42.5851 113.262C42.4383 113.073 42.3344 112.854 42.2806 112.621C42.1044 111.767 42.0565 110.891 42.1385 110.022C42.1385 109.746 42.171 109.462 42.1832 109.162C42.1767 108.848 42.1957 108.534 42.24 108.224C42.3456 107.574 42.5405 106.921 42.6257 106.194C42.78 104.634 42.8139 103.065 42.7272 101.5C42.6623 98.1672 42.6054 95.1547 42.5608 92.9379C42.5608 91.862 42.5608 90.981 42.5364 90.3436C42.5364 90.0553 42.5364 89.8199 42.5364 89.6372C42.5342 89.5556 42.5396 89.4741 42.5526 89.3936Z" fill="#263238"/>
<path d="M67.4207 82.7756C67.2469 82.4537 67.1028 82.1167 66.9903 81.7687C66.7508 81.1353 66.4422 80.2543 66.1256 79.2718C65.8089 78.2893 65.545 77.392 65.3704 76.7383C65.2553 76.3899 65.175 76.0308 65.1309 75.6665C65.2905 75.996 65.4183 76.3399 65.5125 76.6937C65.7439 77.4042 66.02 78.2608 66.3245 79.2068C66.629 80.1528 66.9051 81.0054 67.1365 81.7159C67.2658 82.0589 67.361 82.4139 67.4207 82.7756Z" fill="#263238"/>
<path d="M39.8773 109.328C39.2745 109.087 38.7426 108.697 38.3309 108.195C37.9192 107.694 37.6411 107.096 37.5225 106.458C37.7974 107.026 38.1221 107.57 38.4928 108.082C38.9176 108.536 39.3808 108.953 39.8773 109.328Z" fill="#263238"/>
<path d="M42.7724 115.564C42.6297 115.841 42.4354 116.087 42.1999 116.291C41.655 116.815 41.0053 117.217 40.2936 117.472C39.582 117.726 38.8245 117.828 38.0709 117.769C37.7589 117.76 37.4515 117.691 37.1655 117.566C37.1655 117.533 37.5187 117.606 38.079 117.618C39.5506 117.654 40.983 117.142 42.0984 116.181C42.5207 115.816 42.744 115.54 42.7724 115.564Z" fill="#263238"/>
<path d="M82.9418 62.8898C82.9418 62.9507 81.9349 63.1009 80.7453 63.5028C79.5557 63.9048 78.6585 64.3879 78.626 64.3148C79.8965 63.4303 81.3947 62.9299 82.9418 62.8735V62.8898Z" fill="#263238"/>
<path d="M81.7438 61.2414C81.7438 61.2698 81.6585 61.3064 81.626 61.4282C81.6134 61.459 81.6092 61.4926 81.6139 61.5256C81.6186 61.5586 81.6321 61.5897 81.6529 61.6157C81.6737 61.6418 81.7011 61.6618 81.7322 61.6736C81.7633 61.6855 81.797 61.6889 81.8299 61.6833C81.8627 61.6778 81.8935 61.6635 81.919 61.6421C81.9445 61.6207 81.9638 61.5928 81.9749 61.5614C81.986 61.53 81.9885 61.4962 81.9821 61.4635C81.9757 61.4308 81.9607 61.4004 81.9387 61.3754C81.8656 61.2739 81.7681 61.2658 81.7641 61.2374C81.76 61.2089 81.8859 61.144 82.0442 61.2739C82.0909 61.3114 82.1274 61.3601 82.1501 61.4155C82.1728 61.4709 82.1811 61.5311 82.1741 61.5906C82.1624 61.6674 82.1259 61.7383 82.0702 61.7925C82.0145 61.8467 81.9427 61.8813 81.8656 61.891C81.7983 61.9071 81.7278 61.9027 81.6629 61.8786C81.5981 61.8545 81.5419 61.8117 81.5015 61.7556C81.461 61.6994 81.4382 61.6326 81.4358 61.5635C81.4334 61.4943 81.4515 61.4261 81.488 61.3673C81.6057 61.1927 81.7478 61.213 81.7438 61.2414Z" fill="#263238"/>
<path d="M57.6761 73.892C57.5465 73.9465 57.4098 73.982 57.2701 73.9976L56.1698 74.2046L52.5402 74.8664L48.9106 75.5526L47.8103 75.7515C47.6774 75.7842 47.5411 75.8005 47.4043 75.8002C47.5327 75.7378 47.6695 75.694 47.8103 75.6703C48.0661 75.6013 48.4355 75.512 48.8984 75.4064C49.82 75.1912 51.0989 74.9233 52.5158 74.6594C53.9328 74.3955 55.2239 74.1884 56.1698 74.0585C56.6367 73.9935 57.0184 73.9448 57.2823 73.9164C57.4122 73.8933 57.5443 73.8851 57.6761 73.892Z" fill="#263238"/>
<path d="M41.2332 88.2238C41.1879 88.123 41.1565 88.0164 41.1399 87.9071C41.0828 87.6163 41.0448 87.322 41.0262 87.0261C40.9786 86.0506 41.0126 85.0728 41.1277 84.1029C41.2454 82.9702 41.3997 81.9471 41.5012 81.2122C41.5341 80.8103 41.5965 80.4113 41.688 80.0186C41.7185 80.4248 41.7049 80.8332 41.6474 81.2366C41.5865 81.9795 41.4565 83.0027 41.3388 84.1313C41.2263 85.0921 41.172 86.0588 41.1764 87.0261C41.1886 87.761 41.2698 88.2157 41.2332 88.2238Z" fill="#263238"/>
<path d="M51.2374 95.7757C51.1846 95.7473 52.4879 93.1732 54.1444 90.0186C55.8008 86.864 57.1894 84.3346 57.2421 84.363C57.2949 84.3915 55.9917 86.9655 54.3311 90.1201C52.6706 93.2747 51.2902 95.8163 51.2374 95.7757Z" fill="#263238"/>
<path d="M70.3274 81.2529C70.2384 81.5606 70.1215 81.8596 69.9783 82.1461C69.7509 82.6902 69.4505 83.4494 69.1663 84.306C68.8821 85.1627 68.6872 85.93 68.5532 86.5269C68.5001 86.8417 68.42 87.1514 68.3137 87.4525C68.3013 87.1304 68.3327 86.8081 68.4071 86.4944C68.5401 85.7313 68.726 84.9784 68.9633 84.2411C69.2006 83.5019 69.4924 82.7813 69.8362 82.0852C69.9629 81.7875 70.1281 81.5077 70.3274 81.2529Z" fill="#263238"/>
<path d="M40.4983 86.1572C40.3284 86.2162 40.1548 86.2637 39.9786 86.2993C39.6578 86.3805 39.2153 86.4942 38.7281 86.6404C38.2409 86.7865 37.8105 86.9286 37.5101 87.0464C37.3438 87.1141 37.1728 87.1697 36.9985 87.2128C37.1541 87.1216 37.3187 87.0467 37.4898 86.9895C37.7984 86.8677 38.2328 86.7094 38.7078 86.5835C39.1828 86.4577 39.6416 86.3318 39.9705 86.2668C40.1428 86.2149 40.3195 86.1782 40.4983 86.1572Z" fill="#E0E0E0"/>
<path d="M55.5529 86.9776C55.5529 86.9979 52.6743 87.8505 49.1096 88.8777C45.545 89.9048 42.6299 90.7209 42.6299 90.7006C42.6299 90.6803 45.5084 89.8236 49.0772 88.7965C52.6459 87.7693 55.5447 86.9532 55.5529 86.9776Z" fill="#E0E0E0"/>
<path d="M67.3066 83.5513C67.3066 83.5716 64.7325 84.5257 61.5454 85.6787C58.3583 86.8317 55.764 87.7493 55.7559 87.729C55.7478 87.7087 58.3259 86.7546 61.517 85.5975C64.7082 84.4404 67.2985 83.5269 67.3066 83.5513Z" fill="#E0E0E0"/>
<path d="M66.2306 79.3896L65.9788 79.4627L65.2521 79.6576L62.5725 80.3641C60.3111 80.9568 57.1808 81.7688 53.7136 82.6255C50.2463 83.4821 47.0998 84.2211 44.8181 84.7286L42.1101 85.3132L41.3712 85.4634C41.2006 85.5 41.1113 85.5121 41.1113 85.5121L41.3671 85.4472L42.102 85.2807L44.8019 84.6676C47.0836 84.148 50.2301 83.4009 53.6933 82.5443L62.5562 80.3072L65.244 79.6251L65.9748 79.4465L66.2306 79.3896Z" fill="#E0E0E0"/>
<path d="M61.1557 74.7046C61.1557 74.7289 57.3028 75.7074 52.5404 76.8888C47.778 78.0703 43.9088 79.0122 43.9048 78.9879C43.9007 78.9635 47.7537 77.9891 52.5201 76.8076C57.2866 75.6262 61.1517 74.6802 61.1557 74.7046Z" fill="#E0E0E0"/>
<path d="M69.8523 74.8667C69.8559 74.8923 69.8559 74.9183 69.8523 74.9438L69.8807 75.1631C69.901 75.3498 69.9253 75.6259 69.9456 75.9751C69.9984 76.8634 69.9984 77.7541 69.9456 78.6425C69.8862 79.531 69.7723 80.4151 69.6046 81.2896C69.5396 81.6266 69.4828 81.8946 69.4341 82.1016C69.4341 82.1747 69.3975 82.2478 69.3813 82.3168C69.3651 82.3858 69.3569 82.3899 69.3569 82.3858C69.3569 82.3818 69.3569 82.3615 69.3569 82.3127L69.3935 82.0935C69.4368 81.858 69.4855 81.5941 69.5396 81.3018C69.6533 80.6278 69.7832 79.6778 69.8523 78.6587C69.9081 77.7734 69.9189 76.8859 69.8847 75.9994C69.8847 75.699 69.8563 75.4351 69.8441 75.1874V74.9682C69.8423 74.9342 69.845 74.9 69.8523 74.8667Z" fill="#E0E0E0"/>
<path d="M76.1375 81.8902C76.1375 81.8902 76.1375 81.8658 76.1375 81.813L76.105 81.5938C76.0807 81.3989 76.0441 81.1228 75.9873 80.7818C75.8474 79.8905 75.6507 79.0091 75.3986 78.1428C75.1404 77.2776 74.8299 76.4289 74.4689 75.6012C74.3268 75.2846 74.209 75.0288 74.1238 74.8542L74.0304 74.6512C74.0193 74.6275 74.0098 74.6031 74.002 74.5781C74.002 74.5781 74.0223 74.5781 74.0466 74.6431C74.071 74.708 74.1156 74.773 74.1562 74.838C74.2496 75.0085 74.3755 75.244 74.5216 75.5769C74.9038 76.3991 75.224 77.2486 75.4798 78.1184C75.7327 78.9888 75.9226 79.8761 76.0482 80.7737C76.0969 81.1188 76.1253 81.3989 76.1375 81.5857C76.1375 81.6628 76.1375 81.7359 76.1375 81.809C76.1404 81.836 76.1404 81.8632 76.1375 81.8902Z" fill="#E0E0E0"/>
<path d="M81.3461 78.7645C81.3059 78.6786 81.2706 78.5905 81.2405 78.5006L80.9726 77.7738C80.7371 77.1608 80.392 76.3285 79.9454 75.4312C79.4988 74.534 79.04 73.7585 78.6908 73.2063C78.5406 72.9668 78.3985 72.7476 78.2848 72.5527C78.2307 72.4748 78.1819 72.3934 78.1387 72.3091C78.2016 72.3797 78.2599 72.4542 78.3132 72.5324C78.4229 72.6785 78.5731 72.8978 78.7558 73.1739C79.225 73.8886 79.6521 74.6301 80.0347 75.3947C80.4168 76.1603 80.753 76.948 81.0416 77.7535C81.1512 78.0621 81.2324 78.3138 81.2852 78.4884C81.3138 78.5784 81.3342 78.6708 81.3461 78.7645Z" fill="#E0E0E0"/>
<path d="M84.8542 70.4333C84.7693 70.4325 84.6848 70.4216 84.6025 70.4008L83.9245 70.279C83.352 70.1775 82.5603 70.0476 81.6833 69.9258C80.8064 69.804 80.0066 69.7228 79.43 69.6659L78.7439 69.601C78.6594 69.5957 78.5753 69.5849 78.4922 69.5685C78.5758 69.5579 78.6603 69.5579 78.7439 69.5685C78.9063 69.5685 79.1499 69.5685 79.4341 69.605C80.0147 69.6456 80.8145 69.7228 81.6955 69.8446C82.5765 69.9664 83.3683 70.1044 83.9367 70.2221C84.2209 70.279 84.4523 70.3277 84.6106 70.3683C84.6933 70.384 84.7747 70.4057 84.8542 70.4333Z" fill="#E0E0E0"/>
<path d="M83.8798 64.8957H83.6768C83.5469 64.8957 83.3601 64.8957 83.1287 64.8957C82.5246 64.8981 81.9218 64.9497 81.3261 65.05C80.7324 65.1508 80.1473 65.2974 79.5762 65.4885L79.0606 65.6671C78.9985 65.6965 78.9331 65.7183 78.8657 65.7321C78.9224 65.6933 78.9838 65.662 79.0484 65.6387C79.1662 65.5819 79.3407 65.5128 79.56 65.4316C80.1302 65.2217 80.7187 65.0654 81.318 64.9647C81.9177 64.8668 82.5252 64.8233 83.1328 64.8348C83.3173 64.8364 83.5015 64.8473 83.6849 64.8673C83.7509 64.8678 83.8165 64.8774 83.8798 64.8957Z" fill="#E0E0E0"/>
<path d="M51.7936 93.7861C51.7936 93.8105 49.792 94.2774 47.3276 94.8336C44.8631 95.3898 42.821 95.8161 42.8169 95.8161C42.8128 95.8161 44.8185 95.3249 47.2829 94.7687C49.7473 94.2124 51.7895 93.7861 51.7936 93.7861Z" fill="#E0E0E0"/>
<path d="M54.6353 94.8097C54.1611 94.8238 53.6864 94.8075 53.2143 94.761C52.7396 94.7466 52.2663 94.7019 51.7974 94.627C52.2716 94.6178 52.7459 94.6341 53.2184 94.6757C53.6927 94.6955 54.1657 94.7402 54.6353 94.8097Z" fill="#E0E0E0"/>
<path d="M67.7209 89.8118C67.7209 89.8118 65.4026 90.4532 62.5322 91.1962C59.6618 91.9392 57.3273 92.5238 57.3232 92.4995C57.3192 92.4751 59.6374 91.858 62.5119 91.115C65.3864 90.372 67.7128 89.7874 67.7209 89.8118Z" fill="#E0E0E0"/>
<path d="M48.2695 100.559C48.2695 100.583 47.1083 100.81 45.663 101.066C44.2176 101.322 43.0361 101.5 43.0361 101.5C43.0361 101.5 44.2014 101.253 45.6467 100.997C47.0921 100.741 48.2654 100.538 48.2695 100.559Z" fill="#E0E0E0"/>
<path d="M62.1181 97.4399C62.1181 97.4602 59.475 97.9028 56.2067 98.4225C52.9384 98.9421 50.2832 99.3481 50.2832 99.3238C50.2832 99.2994 52.9263 98.8609 56.1946 98.3413C59.4629 97.8216 62.1181 97.4399 62.1181 97.4399Z" fill="#E0E0E0"/>
<path d="M66.6772 97.8465C66.618 97.8649 66.5564 97.8745 66.4945 97.8749L66.0032 97.9196C65.5972 97.9561 65.0166 98.0089 64.3792 98.0901C63.7418 98.1713 63.1612 98.2565 62.7552 98.3215L62.268 98.4027C62.2088 98.4117 62.1486 98.4117 62.0894 98.4027L62.2639 98.354C62.3776 98.3256 62.54 98.289 62.7471 98.2484C63.1531 98.1672 63.7255 98.0698 64.3711 97.9886C65.0166 97.9074 65.5891 97.8627 65.9951 97.8424C66.2062 97.8424 66.3727 97.8424 66.4904 97.8424C66.5526 97.8366 66.6153 97.8379 66.6772 97.8465Z" fill="#E0E0E0"/>
<path d="M52.78 105.621C52.7489 105.639 52.7163 105.654 52.6825 105.666L52.3983 105.788C52.1507 105.889 51.7853 106.027 51.3346 106.194C48.9678 107.017 46.5021 107.522 44.0023 107.696C43.5232 107.728 43.1375 107.744 42.8655 107.749H42.4595H42.565H42.8736C43.1416 107.749 43.5273 107.708 44.0063 107.671C45.2497 107.565 46.4859 107.387 47.7091 107.14C48.9313 106.886 50.1378 106.562 51.3225 106.169C51.7772 106.019 52.1345 105.889 52.3943 105.796L52.6825 105.69L52.78 105.621Z" fill="#E0E0E0"/>
<path d="M66.661 103.319C66.6136 103.341 66.5648 103.36 66.5149 103.376L66.0886 103.522C65.7151 103.652 65.1751 103.826 64.5052 104.033C63.1613 104.439 61.2937 104.971 59.2272 105.458C57.1606 105.946 55.2281 106.291 53.8436 106.51C53.1494 106.624 52.585 106.705 52.1953 106.754L51.7487 106.81C51.6959 106.813 51.6431 106.813 51.5903 106.81L51.7446 106.782L52.1912 106.709L53.8152 106.441C55.1997 106.206 57.1038 105.848 59.1906 105.361C61.2775 104.874 63.1451 104.362 64.493 103.96L66.0805 103.481L66.5149 103.347L66.661 103.319Z" fill="#E0E0E0"/>
<path d="M60.3967 110.197L60.218 110.233L59.7024 110.323C59.2518 110.396 58.5981 110.497 57.7902 110.603C56.1662 110.822 53.9332 111.066 51.4484 111.2C48.9637 111.334 46.7064 111.338 45.0783 111.293C44.2663 111.273 43.6045 111.244 43.1498 111.216L42.622 111.187H42.4434H42.6301H43.1539C43.6086 111.187 44.2663 111.224 45.0824 111.236C46.7064 111.265 48.9637 111.236 51.4484 111.118C53.9332 111.001 56.1702 110.753 57.7861 110.55C58.5981 110.448 59.2477 110.359 59.6984 110.294L60.2221 110.221L60.3967 110.197Z" fill="#E0E0E0"/>
<path d="M66.9008 109.251C66.8266 109.259 66.7517 109.259 66.6775 109.251H66.0685C65.5529 109.251 64.8505 109.251 64.0588 109.251C63.2671 109.251 62.5647 109.291 62.0491 109.32L61.4401 109.348C61.3659 109.356 61.291 109.356 61.2168 109.348C61.2903 109.332 61.3649 109.321 61.4401 109.316L62.045 109.259C62.5607 109.218 63.263 109.178 64.075 109.166C64.887 109.153 65.5732 109.166 66.105 109.186L66.714 109.222L66.9008 109.251Z" fill="#E0E0E0"/>
<path d="M42.6708 93.0393C42.6708 93.0596 41.2214 93.3397 39.4228 93.6605C37.6242 93.9812 36.1748 94.2248 36.1748 94.2004C36.1748 94.1761 37.6242 93.9 39.4228 93.5793C41.2214 93.2585 42.6667 93.0149 42.6708 93.0393Z" fill="#E0E0E0"/>
<path d="M42.4512 99.4095C42.4512 99.4298 41.0992 99.5841 39.4265 99.7465C37.7538 99.9089 36.3896 100.023 36.3896 99.9982C36.3896 99.9739 37.7416 99.8237 39.4184 99.6613C41.0952 99.4989 42.4512 99.3852 42.4512 99.4095Z" fill="#E0E0E0"/>
<path d="M42.9997 104.529C42.9997 104.553 41.595 104.614 39.8573 104.667C38.1196 104.72 36.7148 104.744 36.7148 104.72C36.7148 104.695 38.1196 104.635 39.8573 104.582C41.595 104.529 42.9997 104.505 42.9997 104.529Z" fill="#E0E0E0"/>
<path d="M41.8181 110.838C41.7411 110.845 41.6636 110.845 41.5866 110.838C41.4405 110.838 41.2253 110.838 40.9614 110.798C39.5777 110.674 38.2224 110.331 36.9461 109.783C36.7025 109.677 36.5076 109.588 36.3777 109.519C36.3063 109.491 36.2393 109.452 36.1787 109.405C36.2514 109.427 36.3221 109.456 36.3898 109.491C36.5279 109.547 36.7227 109.633 36.9704 109.73C37.6085 109.984 38.2621 110.197 38.9273 110.367C39.5955 110.535 40.2735 110.659 40.9573 110.741L41.5785 110.806C41.6592 110.81 41.7393 110.821 41.8181 110.838Z" fill="#E0E0E0"/>
<path d="M42.1471 112.592C42.0825 112.653 42.0133 112.709 41.9401 112.759C41.802 112.864 41.599 113.006 41.3433 113.165C40.6765 113.606 39.9791 114 39.2564 114.342C38.5326 114.685 37.7849 114.975 37.0194 115.211C36.723 115.296 36.4834 115.365 36.317 115.402C36.2316 115.426 36.1448 115.445 36.0571 115.459C36.1382 115.422 36.2225 115.392 36.3089 115.369C36.4753 115.321 36.7148 115.248 36.999 115.15C38.5143 114.653 39.9624 113.971 41.3108 113.12C41.5706 112.958 41.7777 112.82 41.9198 112.714C41.9918 112.667 42.0678 112.626 42.1471 112.592Z" fill="#E0E0E0"/>
<path d="M46.4341 113.827C46.4341 113.827 46.4341 113.717 46.4341 113.506C46.4341 113.295 46.4544 112.962 46.4666 112.576C46.495 111.764 46.5316 110.587 46.5762 109.162C46.6574 106.279 46.7264 102.296 46.694 97.8952C46.6615 93.4941 46.5397 89.5113 46.4179 86.6287C46.3529 85.2036 46.2961 84.0465 46.2595 83.2183C46.2595 82.8326 46.2271 82.524 46.2149 82.2885C46.2027 82.053 46.2149 81.9678 46.2149 81.9678C46.2149 81.9678 46.2149 82.0774 46.2392 82.2885C46.2636 82.4996 46.2839 82.8244 46.2839 83.2304C46.3367 84.0424 46.4016 85.2036 46.4666 86.6449C46.6046 89.5234 46.7386 93.5104 46.7711 97.9114C46.8036 102.312 46.7224 106.299 46.629 109.182C46.5803 110.623 46.5316 111.788 46.491 112.592L46.4422 113.522C46.4463 113.717 46.4341 113.827 46.4341 113.827Z" fill="#E0E0E0"/>
<path d="M53.6166 91.1312C53.5922 91.1312 53.2755 88.7561 52.9101 85.8248C52.5447 82.8935 52.2686 80.5143 52.293 80.5103C52.3174 80.5062 52.63 82.8813 52.9954 85.8167C53.3608 88.7521 53.6369 91.1272 53.6166 91.1312Z" fill="#E0E0E0"/>
<path d="M52.9626 95.9384C52.8421 95.4132 52.7499 94.8819 52.6865 94.3469C52.5606 93.4658 52.4754 92.7472 52.4957 92.7432C52.6157 93.2684 52.7079 93.7997 52.7717 94.3347C52.8647 94.8653 52.9285 95.4007 52.9626 95.9384Z" fill="#E0E0E0"/>
<path d="M54.6233 104.667C54.5989 104.667 54.5624 102.617 54.5421 100.087C54.5218 97.5578 54.5218 95.5034 54.5421 95.5034C54.5624 95.5034 54.603 97.5537 54.6273 100.087C54.6517 102.621 54.6476 104.667 54.6233 104.667Z" fill="#E0E0E0"/>
<path d="M54.4932 113.7C54.4729 113.7 54.2009 111.845 53.8883 109.555C53.5756 107.265 53.3402 105.406 53.3645 105.402C53.3889 105.398 53.6609 107.253 53.9735 109.543C54.2861 111.833 54.5176 113.68 54.4932 113.7Z" fill="#E0E0E0"/>
<path d="M62.524 96.2223C62.4997 96.2223 61.8785 92.4181 61.1314 87.7247C60.3844 83.0314 59.7957 79.1987 59.8201 79.1987C59.8444 79.1987 60.4656 82.9989 61.2126 87.6963C61.9597 92.3937 62.524 96.2223 62.524 96.2223Z" fill="#E0E0E0"/>
<path d="M61.5088 107.29C61.4885 107.29 61.2774 105.601 61.0378 103.514C60.7983 101.427 60.6318 99.7261 60.6318 99.7261C60.6318 99.7261 60.8673 101.415 61.1069 103.502C61.3464 105.589 61.5332 107.29 61.5088 107.29Z" fill="#E0E0E0"/>
<path d="M79.4501 74.2656C78.9394 74.7332 78.3968 75.1646 77.8261 75.5567C77.2023 75.9882 76.5528 76.3813 75.8814 76.7341C75.0624 77.164 74.2161 77.5397 73.3479 77.8587C72.4757 78.1658 71.5848 78.4167 70.6805 78.6098C69.9408 78.764 69.1924 78.8725 68.4394 78.9346C67.7457 78.9986 67.0486 79.0163 66.3525 78.9874H66.4987H66.9047C67.262 78.9874 67.7857 78.959 68.4231 78.8981C69.1732 78.826 69.9187 78.7121 70.6561 78.5571C71.556 78.359 72.4428 78.1054 73.3114 77.7978C74.1756 77.4802 75.0191 77.1087 75.8367 76.6854C76.5033 76.3346 77.1499 75.947 77.7733 75.5242C78.3052 75.1629 78.7234 74.8503 78.9913 74.6229L79.3161 74.3671L79.4501 74.2656Z" fill="#E0E0E0"/>
<path d="M79.4866 74.2742C79.4804 74.2393 79.4804 74.2035 79.4866 74.1686C79.4866 74.0752 79.5069 73.9737 79.515 73.8641C79.5475 73.5515 79.5881 73.1739 79.6328 72.7395C79.7221 71.7895 79.8317 70.4781 79.8967 69.0246C79.9616 67.5711 79.9738 66.2557 79.9657 65.3016C79.9657 64.8631 79.9657 64.4896 79.9657 64.1729C79.9657 64.0633 79.9657 63.9618 79.9657 63.8684C79.9657 63.775 79.9657 63.7588 79.9657 63.7588C79.9708 63.7938 79.9708 63.8294 79.9657 63.8644C79.9657 63.9618 79.9657 64.0592 79.986 64.1729C79.986 64.4409 80.0144 64.8266 80.0266 65.3016C80.0266 66.2557 80.0266 67.5752 79.9819 69.0287C79.9373 70.4822 79.7992 71.7976 79.6896 72.7436C79.6368 73.2186 79.5881 73.6002 79.5475 73.8682C79.5475 73.9778 79.515 74.0752 79.5028 74.1686C79.4907 74.262 79.4866 74.2742 79.4866 74.2742Z" fill="#E0E0E0"/>
<path d="M82.8931 63.4741C82.8931 63.4741 82.9174 63.5716 82.954 63.7583C82.9905 63.9451 83.0514 64.2212 83.1367 64.5703C83.3031 65.2768 83.5955 66.2796 83.9284 67.5341C84.362 68.9964 84.5459 70.5213 84.4724 72.0448C84.4276 72.9842 84.1713 73.9014 83.7229 74.7281C83.2744 75.5547 82.6452 76.2696 81.8821 76.8193C81.105 77.4001 80.2913 77.9304 79.4461 78.4068C78.6341 78.8859 77.8709 79.3406 77.1279 79.7669C75.6419 80.6236 74.2859 81.3665 73.141 81.9755C71.996 82.5845 71.0622 83.0596 70.4167 83.3844L69.6697 83.7579L69.4058 83.8797L69.6615 83.7416L70.4005 83.3356C71.046 83.0027 71.9757 82.5236 73.1125 81.9025C74.2493 81.2813 75.6054 80.5383 77.0873 79.6816C77.8303 79.2513 78.6057 78.7966 79.4055 78.3134C80.2402 77.8361 81.0443 77.3073 81.8131 76.73C82.5662 76.1876 83.1875 75.4826 83.631 74.6673C84.0745 73.852 84.3288 72.9474 84.375 72.0204C84.4494 70.505 84.2724 68.9877 83.8512 67.5301C83.5264 66.2755 83.2422 65.2646 83.0839 64.5581C82.9256 63.8517 82.8931 63.4741 82.8931 63.4741Z" fill="#E0E0E0"/>
<path d="M37.937 106.506C37.937 106.506 37.937 106.417 37.937 106.255C37.937 106.092 37.9695 105.849 37.9939 105.536L38.209 102.897C38.3836 100.668 38.615 97.5865 38.8018 94.1801C38.9885 90.7738 39.1144 87.6841 39.2078 85.4471C39.2443 84.3509 39.2727 83.4536 39.293 82.7999C39.293 82.5076 39.3012 82.2681 39.3174 82.0813C39.3174 81.9148 39.3174 81.8296 39.3174 81.8296C39.3174 81.8296 39.3174 81.9148 39.3174 82.0813C39.3174 82.2478 39.3174 82.5076 39.3174 82.7999C39.3174 83.4536 39.2849 84.3509 39.2606 85.4511C39.2037 87.6841 39.086 90.7738 38.8952 94.1842C38.7043 97.5946 38.4892 100.68 38.278 102.901C38.1806 103.993 38.0954 104.89 38.0385 105.54C38.006 105.832 37.9817 106.072 37.9654 106.255C37.9492 106.437 37.937 106.506 37.937 106.506Z" fill="#E0E0E0"/>
<path d="M39.0043 118.146C39.0043 118.146 39.0043 118.114 38.9637 118.049C38.9231 117.984 38.9069 117.866 38.8744 117.761C38.7973 117.509 38.6917 117.144 38.578 116.689C38.2809 115.499 38.0571 114.292 37.9081 113.075C37.7626 111.863 37.6948 110.643 37.7051 109.421C37.7051 108.95 37.7051 108.569 37.7376 108.305C37.7376 108.195 37.7376 108.098 37.7376 108.004V107.899C37.7422 107.934 37.7422 107.969 37.7376 108.004V108.309C37.7376 108.569 37.7376 108.95 37.7376 109.421C37.7486 110.643 37.8259 111.863 37.969 113.075C38.1166 114.288 38.3308 115.492 38.6105 116.681C38.7201 117.139 38.8135 117.493 38.8825 117.761C38.9123 117.866 38.9367 117.964 38.9556 118.053L39.0043 118.146Z" fill="#E0E0E0"/>
<path d="M41.5985 116.928C41.5985 116.928 41.5985 116.831 41.5985 116.644C41.5985 116.457 41.5985 116.165 41.5985 115.832C41.5985 115.097 41.5985 114.078 41.627 112.828C41.627 110.294 41.6594 106.79 41.627 102.921C41.5945 99.052 41.5376 95.5442 41.4808 93.0108C41.4483 91.7603 41.428 90.7412 41.4077 90.0064C41.4077 89.6694 41.4077 89.3974 41.4077 89.1944C41.4077 88.9914 41.4077 88.9102 41.4077 88.9102C41.4077 88.9102 41.4077 89.0076 41.4077 89.1944C41.4077 89.3811 41.4077 89.6734 41.4443 90.0064C41.4443 90.7412 41.497 91.7603 41.5376 93.0108C41.6107 95.5442 41.6838 99.048 41.7122 102.921C41.7406 106.794 41.7122 110.294 41.6797 112.832C41.6797 114.078 41.6432 115.101 41.627 115.832C41.627 116.169 41.627 116.441 41.6067 116.644C41.5864 116.847 41.5985 116.928 41.5985 116.928Z" fill="#E0E0E0"/>
<path d="M46.6209 81.7159C46.5965 81.7159 46.5194 80.5709 46.4463 79.1581C46.3732 77.7452 46.3367 76.6003 46.361 76.5962C46.3854 76.5921 46.4625 77.7411 46.5315 79.154C46.6006 80.5669 46.6452 81.7118 46.6209 81.7159Z" fill="#E0E0E0"/>
<path d="M52.6338 80.0268C52.6094 80.0268 52.4957 78.8616 52.378 77.4203C52.2603 75.979 52.1872 74.8057 52.2075 74.8057C52.2278 74.8057 52.3455 75.9709 52.4633 77.4122C52.581 78.8535 52.6541 80.0228 52.6338 80.0268Z" fill="#E0E0E0"/>
<path d="M59.1747 78.5371C59.1503 78.5371 58.8215 77.4775 58.4398 76.158C58.0582 74.8385 57.7659 73.7626 57.7862 73.7544C57.8065 73.7463 58.1394 74.8141 58.521 76.1336C58.9027 77.4531 59.195 78.529 59.1747 78.5371Z" fill="#E0E0E0"/>
<path d="M57.0106 72.6053C56.9795 72.6183 56.9466 72.6265 56.9131 72.6296L56.6289 72.6824L55.5814 72.8651C54.7004 73.0194 53.4824 73.2467 52.1467 73.5269C50.8109 73.807 49.6011 74.0872 48.7322 74.2983L47.701 74.55L47.4208 74.615C47.3873 74.6212 47.3529 74.6212 47.3193 74.615L47.4168 74.5825L47.6929 74.5013L48.716 74.2252C49.5848 73.9978 50.7906 73.7055 52.1304 73.4132C53.4702 73.1209 54.6882 72.9179 55.5733 72.7758L56.6208 72.6215L56.9091 72.585C56.9437 72.5871 56.9778 72.5939 57.0106 72.6053Z" fill="#E0E0E0"/>
<path d="M49.0406 75.5409C49.0048 75.1549 48.9966 74.7669 49.0163 74.3798C49.0091 73.9932 49.028 73.6066 49.0731 73.2227C49.1116 73.6085 49.1211 73.9966 49.1015 74.3838C49.1091 74.7705 49.0887 75.1572 49.0406 75.5409Z" fill="#E0E0E0"/>
<path d="M54.9967 74.4893C54.8938 74.1475 54.8152 73.7988 54.7612 73.4459C54.6803 73.0976 54.6287 72.7431 54.6069 72.3862C54.7964 73.0757 54.9322 73.7788 55.0129 74.4893H54.9967Z" fill="#E0E0E0"/>
<path d="M192.196 191.356C192.196 191.413 152.132 191.462 102.722 191.462C53.3119 191.462 13.2397 191.413 13.2397 191.356C13.2397 191.299 53.2957 191.25 102.722 191.25C152.149 191.25 192.196 191.295 192.196 191.356Z" fill="#263238"/>
<path d="M27.3644 42.3135C27.3036 42.3089 27.2425 42.3089 27.1817 42.3135H26.6377C26.3408 42.3185 26.0449 42.347 25.7526 42.3987C25.5821 42.4272 25.3912 42.4434 25.1964 42.484L24.5671 42.6383C22.0436 43.2996 19.8663 44.8963 18.4771 47.1043C17.5024 48.6149 16.9423 50.3553 16.8531 52.1509C16.7308 54.2163 17.23 56.271 18.2862 58.0501C19.4486 60.0235 21.2213 61.5654 23.3369 62.443C24.4501 62.905 25.6363 63.1661 26.8407 63.2144C28.0764 63.2918 29.3156 63.1376 30.4947 62.7597L30.6002 62.7272H30.515L36.6415 64.8506L36.8892 64.9358L36.812 64.6841C36.2639 62.9221 35.7321 61.2169 35.2205 59.5847L35.1961 59.7065C36.2795 58.4882 37.0638 57.0341 37.4867 55.4596C37.9095 53.8851 37.9593 52.2336 37.6321 50.6365C37.3641 49.2848 36.827 48.0007 36.0528 46.8607C35.3877 45.8875 34.5643 45.0325 33.6168 44.3313C33.211 44.0338 32.7865 43.7625 32.346 43.5193C31.9513 43.3113 31.5446 43.1269 31.128 42.9671C30.7876 42.8331 30.4391 42.7206 30.0846 42.6302C29.7746 42.5416 29.4584 42.4765 29.1386 42.4353C28.8504 42.3947 28.5986 42.3541 28.3794 42.3338H27.8232H27.4821C27.443 42.3294 27.4035 42.3294 27.3644 42.3338C27.4034 42.3405 27.4432 42.3405 27.4821 42.3338L27.8191 42.3622L28.3713 42.4028C28.5905 42.4272 28.8422 42.4759 29.1224 42.5205C29.4382 42.5709 29.7502 42.6428 30.0562 42.7357C30.4255 42.8325 30.7877 42.9546 31.1402 43.1011C31.5564 43.2649 31.963 43.452 32.3582 43.6614C32.789 43.9057 33.2039 44.1769 33.6006 44.4734C34.52 45.1751 35.3182 46.0226 35.9635 46.9825C36.7142 48.1055 37.2332 49.3671 37.49 50.6933C37.7989 52.2577 37.7396 53.8725 37.3168 55.4101C36.894 56.9476 36.1193 58.3657 35.054 59.5523L35.0053 59.605V59.6741C35.5142 61.2981 36.0406 63.0005 36.5847 64.7815L36.7552 64.6151L30.6327 62.4876H30.5921H30.5474L30.45 62.5242C29.2968 62.8919 28.0853 63.0419 26.8772 62.9667C25.7042 62.9183 24.5487 62.6655 23.4627 62.2197C21.3989 61.3646 19.6671 59.8649 18.5258 57.9445C17.5648 56.3173 17.068 54.4579 17.0895 52.5683C17.1109 50.6786 17.6498 48.831 18.6476 47.2261C20.0052 45.0456 22.13 43.4524 24.6036 42.7601L25.2207 42.5977C25.4156 42.549 25.6024 42.5287 25.7769 42.5002C26.0643 42.4388 26.3563 42.4008 26.6498 42.3866L27.1898 42.346C27.2488 42.34 27.3072 42.3292 27.3644 42.3135Z" fill="#263238"/>
<path d="M31.169 52.6464C31.16 52.0114 30.9807 51.3905 30.6497 50.8486C30.3186 50.3067 29.8481 49.8636 29.2872 49.5658C28.7263 49.268 28.0957 49.1263 27.4614 49.1556C26.827 49.1849 26.2122 49.3841 25.6811 49.7324C25.1501 50.0807 24.7224 50.5652 24.4428 51.1354C24.1631 51.7055 24.0418 52.3403 24.0914 52.9734C24.1411 53.6065 24.3599 54.2146 24.7251 54.7342C25.0902 55.2538 25.5882 55.6657 26.1671 55.9269C26.1671 56.3329 26.1671 56.8201 26.1671 56.8201L29.273 56.7754C29.273 56.7754 29.273 56.272 29.273 55.8254C29.8512 55.5217 30.3343 55.0641 30.6689 54.5031C31.0035 53.9421 31.1765 53.2996 31.169 52.6464Z" fill="#FAFAFA"/>
<path d="M31.1687 52.6461C31.1816 52.7349 31.1816 52.8252 31.1687 52.914C31.1603 53.1744 31.1235 53.433 31.0591 53.6854C30.958 54.0874 30.7861 54.4682 30.5516 54.8101C30.2343 55.2623 29.8177 55.6359 29.3336 55.9022L29.3742 55.8332C29.3742 56.1336 29.3742 56.4503 29.3742 56.7832V56.8644H29.2889L26.1871 56.9294H26.0856V56.8401C26.0856 56.5559 26.0856 56.2554 26.0856 55.9469L26.1424 56.0362C25.6473 55.8129 25.2082 55.482 24.857 55.0676C24.5059 54.6533 24.2515 54.1658 24.1124 53.6408C23.8983 52.8289 23.9729 51.9678 24.3236 51.2048C24.6433 50.5014 25.1758 49.9163 25.8461 49.5321C26.1633 49.3626 26.502 49.237 26.8529 49.1585C27.1841 49.0917 27.5226 49.0685 27.8598 49.0895C28.4651 49.1325 29.05 49.3265 29.561 49.6539C30.3022 50.13 30.8392 50.8654 31.0672 51.7163C31.1561 52.0219 31.1904 52.3408 31.1687 52.6583C31.1304 52.3487 31.0707 52.0421 30.9901 51.7407C30.7812 51.0568 30.3682 50.4531 29.8066 50.0104C29.2449 49.5678 28.5614 49.3074 27.8476 49.2641C27.5263 49.248 27.2042 49.2739 26.8895 49.3412C26.5596 49.4195 26.2415 49.541 25.9435 49.7026C25.3056 50.067 24.7996 50.6242 24.4981 51.2941C24.1692 52.0116 24.1003 52.8212 24.3033 53.5839C24.4336 54.0783 24.672 54.5375 25.0013 54.9286C25.3305 55.3196 25.7425 55.6328 26.2074 55.8454L26.2683 55.8738V55.9387C26.2683 56.2473 26.2683 56.5518 26.2683 56.8319L26.1668 56.7345L29.2727 56.702L29.1874 56.7832C29.1874 56.4544 29.1874 56.1336 29.1874 55.8372V55.7885H29.228C30.0579 55.3452 30.6794 54.5924 30.9576 53.6936C31.0612 53.3519 31.1319 53.0012 31.1687 52.6461Z" fill="#263238"/>
<path d="M28.16 56.7751C28.1592 56.7602 28.1592 56.7453 28.16 56.7304V56.6046C28.16 56.4909 28.1884 56.3244 28.2168 56.1133C28.2453 55.9022 28.2859 55.6383 28.3468 55.3419C28.416 55.0022 28.5194 54.6703 28.6553 54.3513C28.7301 54.1635 28.824 53.9839 28.9355 53.8154C28.9966 53.7231 29.0787 53.6466 29.175 53.5921C29.227 53.565 29.2848 53.5509 29.3435 53.5509C29.4021 53.5509 29.4599 53.565 29.512 53.5921C29.5393 53.6062 29.5634 53.6257 29.583 53.6494C29.6025 53.6732 29.617 53.7006 29.6257 53.7301C29.6498 53.7886 29.6498 53.8543 29.6257 53.9128C29.5692 54.0231 29.4737 54.1085 29.3577 54.1523C29.2349 54.1953 29.1047 54.2132 28.9749 54.2048C28.8451 54.1965 28.7183 54.1622 28.602 54.1038C28.4857 54.0455 28.3824 53.9644 28.2981 53.8653C28.2138 53.7662 28.1502 53.6512 28.1113 53.5271C28.0633 53.3972 28.0535 53.2564 28.0829 53.1211C28.098 53.0488 28.1379 52.9841 28.1958 52.9381C28.2536 52.8921 28.3257 52.8678 28.3995 52.8694C28.438 52.8718 28.4752 52.8844 28.5072 52.9058C28.5393 52.9271 28.5652 52.9566 28.5822 52.9912C28.6192 53.0565 28.6308 53.1331 28.6147 53.2064C28.5739 53.3485 28.4885 53.4737 28.3711 53.5636C28.2608 53.6598 28.1315 53.7319 27.9917 53.7752C27.8519 53.8186 27.7045 53.8322 27.5591 53.8154C27.4114 53.7951 27.271 53.739 27.1499 53.6519C27.0289 53.5649 26.9311 53.4496 26.8649 53.316C26.8306 53.2502 26.8101 53.1781 26.8045 53.1041C26.7989 53.0302 26.8084 52.9558 26.8324 52.8856C26.8611 52.8147 26.9165 52.7578 26.9867 52.7273C27.0213 52.7123 27.0586 52.7046 27.0963 52.7046C27.134 52.7046 27.1713 52.7123 27.2059 52.7273C27.2703 52.7625 27.3227 52.8162 27.3561 52.8816C27.3904 52.944 27.4099 53.0134 27.413 53.0846C27.4305 53.2862 27.3892 53.4887 27.2941 53.6673C27.199 53.846 27.0541 53.9933 26.877 54.0914C26.6544 54.2142 26.3956 54.2544 26.1462 54.2051C26.0224 54.1874 25.9081 54.1288 25.8214 54.0387C25.7803 53.9925 25.7556 53.934 25.7512 53.8723C25.7468 53.8106 25.7629 53.7492 25.7971 53.6976C25.8384 53.6531 25.8949 53.6256 25.9554 53.6205C26.0138 53.6133 26.073 53.6232 26.1259 53.6489C26.2227 53.7033 26.2996 53.7872 26.3452 53.8884C26.4386 54.0793 26.5116 54.266 26.5888 54.4447C26.8811 55.1511 27.0922 55.7398 27.2343 56.1458C27.3033 56.3447 27.3561 56.5031 27.3927 56.6127L27.4292 56.7345V56.7792V56.7386L27.3845 56.6168C27.348 56.5071 27.2912 56.3488 27.2221 56.1499C27.076 55.7439 26.8608 55.1633 26.5644 54.4568C26.4873 54.2782 26.4101 54.0914 26.3208 53.9047C26.2779 53.8097 26.2052 53.7313 26.1138 53.6814C26.0684 53.6565 26.0161 53.6471 25.9649 53.6544C25.9137 53.6617 25.8662 53.6854 25.8296 53.722C25.801 53.7674 25.7879 53.8208 25.7923 53.8742C25.7967 53.9277 25.8183 53.9783 25.8539 54.0184C25.9373 54.099 26.0437 54.1515 26.1584 54.1686C26.3982 54.215 26.6466 54.1763 26.8608 54.059C27.0846 53.9308 27.2526 53.7238 27.3318 53.4784C27.3755 53.3478 27.3908 53.2094 27.3764 53.0724C27.3719 53.0135 27.3538 52.9564 27.3235 52.9057C27.2932 52.8549 27.2516 52.812 27.2018 52.7801C27.1734 52.7661 27.1422 52.7588 27.1105 52.7588C27.0788 52.7588 27.0476 52.7661 27.0191 52.7801C26.9891 52.7917 26.9619 52.8097 26.9395 52.8328C26.9171 52.856 26.8999 52.8837 26.8892 52.914C26.8645 52.9799 26.8546 53.0505 26.8602 53.1207C26.8658 53.1908 26.8868 53.2589 26.9217 53.32C26.9842 53.4473 27.0767 53.5574 27.1913 53.6409C27.3059 53.7244 27.4391 53.7787 27.5794 53.7991C27.7205 53.8164 27.8636 53.8036 27.9993 53.7616C28.1351 53.7197 28.2604 53.6494 28.3671 53.5555C28.4777 53.4721 28.5588 53.3554 28.5985 53.2226C28.6113 53.1589 28.6012 53.0928 28.5701 53.0358C28.556 53.0073 28.5348 52.9829 28.5084 52.9651C28.4821 52.9473 28.4515 52.9367 28.4198 52.9343C28.3561 52.9322 28.2938 52.9539 28.2453 52.9952C28.1973 53.0368 28.1633 53.092 28.1478 53.1536C28.1176 53.2885 28.126 53.4292 28.1722 53.5596C28.2118 53.6808 28.2754 53.7928 28.359 53.8891C28.4427 53.9853 28.5448 54.0638 28.6594 54.1199C28.8804 54.2255 29.1341 54.2401 29.3658 54.1605C29.4733 54.1199 29.5626 54.0421 29.6175 53.9412C29.6409 53.8936 29.645 53.8388 29.6292 53.7882C29.6133 53.7376 29.5786 53.695 29.5323 53.6692C29.4851 53.6453 29.4329 53.6328 29.38 53.6328C29.3271 53.6328 29.275 53.6453 29.2278 53.6692C29.1356 53.7195 29.0574 53.7921 29.0004 53.8803C28.8906 54.047 28.7968 54.2237 28.7203 54.4081C28.5833 54.7243 28.4786 55.0535 28.4077 55.3906C28.3427 55.687 28.3021 55.9469 28.2696 56.158C28.2371 56.3691 28.2209 56.5356 28.2047 56.6492C28.1884 56.7629 28.2047 56.7467 28.2047 56.7792C28.1897 56.7791 28.1747 56.7777 28.16 56.7751Z" fill="#263238"/>
<path d="M29.0535 57.3515L26.3902 57.3921C26.3639 57.3932 26.3377 57.389 26.3131 57.3797C26.2885 57.3704 26.2661 57.3562 26.2471 57.338C26.2281 57.3198 26.213 57.2979 26.2028 57.2738C26.1925 57.2496 26.1872 57.2236 26.1872 57.1973C26.1861 57.171 26.1903 57.1448 26.1996 57.1202C26.2089 57.0956 26.2231 57.0731 26.2413 57.0542C26.2595 57.0352 26.2814 57.0201 26.3056 57.0098C26.3297 56.9995 26.3558 56.9942 26.3821 56.9943L29.0495 56.9537C29.0756 56.9531 29.1016 56.9577 29.1259 56.9672C29.1503 56.9767 29.1725 56.9909 29.1914 57.009C29.2102 57.0271 29.2253 57.0488 29.2358 57.0727C29.2463 57.0966 29.252 57.1224 29.2525 57.1485C29.253 57.175 29.2483 57.2013 29.2385 57.2259C29.2288 57.2505 29.2142 57.2729 29.1957 57.2918C29.1771 57.3107 29.155 57.3258 29.1306 57.336C29.1062 57.3463 29.08 57.3515 29.0535 57.3515Z" fill="#263238"/>
<path d="M29.0572 57.5264L26.3897 57.567C26.3636 57.5675 26.3379 57.5732 26.3139 57.5837C26.29 57.5941 26.2684 57.6092 26.2503 57.6281C26.2322 57.6469 26.2179 57.6692 26.2084 57.6935C26.1989 57.7179 26.1943 57.7438 26.1949 57.77C26.1959 57.8231 26.2178 57.8737 26.2557 57.9109C26.2937 57.9481 26.3447 57.9689 26.3979 57.9689H26.6902L27.0962 58.6997C27.1183 58.7415 27.1517 58.7763 27.1926 58.8C27.2336 58.8237 27.2803 58.8354 27.3276 58.8337H28.2817C28.3288 58.8322 28.3745 58.8178 28.4139 58.792C28.4533 58.7663 28.4849 58.7301 28.505 58.6875L28.8704 57.9445H29.0734C29.1272 57.9445 29.1789 57.9232 29.217 57.8851C29.255 57.847 29.2764 57.7954 29.2764 57.7415C29.2764 57.6877 29.255 57.6361 29.217 57.598C29.1789 57.5599 29.1272 57.5385 29.0734 57.5385L29.0572 57.5264Z" fill="#263238"/>
<g opacity="0.2">
<path opacity="0.2" d="M25.3141 50.4743C25.5197 50.2764 25.7571 50.1144 26.0165 49.9952C26.1885 49.9121 26.3718 49.8546 26.5605 49.8247C26.6945 49.8247 26.7716 49.8247 26.7798 49.8491C26.7879 49.8734 26.528 50.0155 26.1708 50.2551C25.7073 50.5666 25.338 50.999 25.103 51.5055C24.886 52.0175 24.8103 52.5783 24.8837 53.1295C24.9406 53.564 25.0461 53.8279 24.9893 53.8563C24.9325 53.8847 24.9 53.8238 24.8228 53.7142C24.7179 53.5551 24.6372 53.3813 24.5833 53.1986C24.5029 52.9231 24.4659 52.6368 24.4737 52.35C24.4855 51.9961 24.564 51.6476 24.7051 51.3228" fill="white"/>
</g>
<g opacity="0.2">
<path opacity="0.2" d="M27.6324 49.9909C27.4091 49.9909 27.2264 49.934 27.1858 49.8163C27.1452 49.6985 27.2142 49.6904 27.2954 49.6417C27.3969 49.5843 27.5118 49.5549 27.6284 49.5564C27.7456 49.5506 27.8623 49.5773 27.9653 49.6336C28.0465 49.6823 28.0871 49.7473 28.079 49.8041" fill="white"/>
</g>
<path d="M28.4482 58.7359C28.4482 58.7359 28.3792 58.7116 28.2655 58.6832C28.1174 58.6433 27.964 58.6269 27.8108 58.6344C27.6583 58.6416 27.5077 58.6717 27.3642 58.7238C27.2546 58.7644 27.1896 58.7968 27.1855 58.7928C27.2353 58.7514 27.2915 58.7185 27.352 58.6954C27.4972 58.6324 27.6527 58.5967 27.8108 58.5898C27.9678 58.5824 28.1248 58.6044 28.2736 58.6547C28.3367 58.6698 28.396 58.6974 28.4482 58.7359Z" fill="#455A64"/>
<path d="M28.8706 57.9406C28.8706 57.9406 28.3874 57.969 27.7947 57.9772C27.2019 57.9853 26.7188 57.9772 26.7188 57.9772C26.7188 57.9772 27.1978 57.9487 27.7947 57.9366C28.3915 57.9244 28.8706 57.9284 28.8706 57.9406Z" fill="#455A64"/>
<path d="M28.7083 58.2573C28.6218 58.278 28.5333 58.2889 28.4443 58.2898C28.2819 58.2898 28.0383 58.3142 27.811 58.3223C27.5836 58.3304 27.336 58.3223 27.1736 58.3223C27.0858 58.3311 26.9974 58.3311 26.9097 58.3223H27.1736H27.811H28.4443C28.5309 58.2953 28.6191 58.2736 28.7083 58.2573Z" fill="#455A64"/>
<path d="M24.8555 49.1787C24.8067 49.2153 24.6159 49.0448 24.421 48.8012C24.2262 48.5576 24.1125 48.314 24.1571 48.314C24.2018 48.314 24.3967 48.4439 24.5875 48.6915C24.7783 48.9392 24.9001 49.126 24.8555 49.1787Z" fill="#263238"/>
<path d="M27.344 48.176C27.2108 47.8471 27.1419 47.4956 27.141 47.1407C27.0728 46.7908 27.0728 46.431 27.141 46.0811C27.2783 46.4102 27.3474 46.7638 27.344 47.1204C27.417 47.4685 27.417 47.8279 27.344 48.176Z" fill="#263238"/>
<path d="M30.0117 47.8839C30.0604 47.9164 29.9833 48.1194 29.8412 48.3305C29.6991 48.5416 29.5448 48.6918 29.4961 48.6594C29.4473 48.6269 29.5245 48.4279 29.6666 48.2128C29.8087 47.9976 29.963 47.8514 30.0117 47.8839Z" fill="#263238"/>
<path d="M150.577 57.9122C150.312 57.6891 150.004 57.5235 149.672 57.4256C149.341 57.3278 148.992 57.2999 148.649 57.3438L143.61 57.2707C142.827 57.3095 142.052 57.0976 141.397 56.6657C140.755 56.2385 140.268 55.6146 140.009 54.8875L139.806 54.2338C139.4 52.9184 138.97 51.5583 138.458 50.2672C138.166 49.5144 137.83 48.7796 137.451 48.0667C137.268 47.7134 137.045 47.3765 136.842 47.0314C136.639 46.6863 136.408 46.3452 136.193 46.0326C132.764 41.0051 127.852 37.1729 122.141 35.0706C117.05 33.2593 111.602 32.6859 106.246 33.3979C103.851 33.7081 101.491 34.252 99.2019 35.0219L97.5779 35.6025C97.2368 35.7364 96.8998 35.8745 96.571 36.0085L96.0269 36.2318C95.0311 36.6587 94.0665 37.1553 93.1403 37.7177C91.4212 38.7579 89.8633 40.0436 88.516 41.5341C87.8996 42.2171 87.3325 42.943 86.8189 43.7062C86.3885 44.3518 85.9663 45.0501 85.4913 45.9067C84.8863 46.9948 84.3544 48.022 83.8429 49.0167L83.3557 49.9586L83.0106 50.6163C82.5607 51.53 82.0465 52.4105 81.4718 53.2513C79.8844 55.468 78.1832 56.2151 77.5174 56.4343C77.339 56.5019 77.1558 56.5562 76.9693 56.5967L76.7947 56.6373L76.5593 56.6779C76.4559 56.6976 76.3516 56.7112 76.2466 56.7185L75.7838 56.7551C75.7447 56.7582 75.7083 56.7765 75.6825 56.8061C75.6567 56.8357 75.6435 56.8742 75.6458 56.9134C75.6468 56.9525 75.6631 56.9897 75.6912 57.017C75.7192 57.0443 75.7568 57.0596 75.796 57.0596H76.2629C76.3813 57.0507 76.4992 57.0358 76.6161 57.0149L76.8556 56.9784L77.0343 56.9378C77.2358 56.8975 77.434 56.8419 77.627 56.7713C78.3213 56.5521 80.1077 55.7888 81.7682 53.4908C82.3612 52.6363 82.8904 51.7394 83.3516 50.8072C83.4653 50.596 83.579 50.3768 83.6967 50.1535C83.8632 49.8409 84.0296 49.5201 84.2002 49.1953C84.7117 48.2088 85.2395 47.1938 85.8242 46.1219C86.2992 45.2774 86.7174 44.5872 87.1396 43.9539C87.6453 43.209 88.2029 42.5008 88.8083 41.8346C90.1376 40.3596 91.6782 39.09 93.3798 38.0669C94.2915 37.5156 95.2412 37.0299 96.2218 36.6134L96.7618 36.3901C97.0907 36.2521 97.4195 36.114 97.7524 35.9841L99.3521 35.4116C101.615 34.6619 103.946 34.1343 106.311 33.8364C111.593 33.1431 116.965 33.715 121.983 35.505C127.595 37.5838 132.42 41.3601 135.787 46.3087C135.985 46.601 136.213 46.938 136.42 47.2912C136.627 47.6444 136.826 47.957 137.017 48.2981C137.384 48.9957 137.711 49.7142 137.995 50.4499C138.499 51.7207 138.901 53.0117 139.327 54.38L139.538 55.0458C139.83 55.8757 140.385 56.5882 141.117 57.0758C141.855 57.5658 142.729 57.8089 143.614 57.7701L148.681 57.8431C148.956 57.8073 149.234 57.8274 149.501 57.902C149.767 57.9767 150.016 58.1044 150.232 58.2776C150.418 58.4862 150.556 58.7323 150.638 58.9992C150.72 59.2662 150.744 59.5476 150.707 59.8244L150.683 60.4943C150.683 60.9003 150.654 61.3063 150.63 61.7123C150.61 61.9397 150.593 62.1711 150.573 62.3985C150.541 62.8045 150.508 63.2105 150.463 63.6165C150.173 66.1892 149.671 68.7339 148.965 71.2249C147.49 76.3842 145.269 81.3001 142.372 85.8165C140.693 88.4842 138.756 90.9809 136.59 93.2707C135.525 94.3937 134.385 95.4423 133.176 96.4091C131.975 97.3569 130.712 98.2236 129.396 99.0034C126.78 100.501 124.017 101.725 121.15 102.657L120.566 102.848C120.062 103.015 119.542 103.185 119.027 103.335L117.963 103.656C117.586 103.764 117.225 103.924 116.891 104.131C116.222 104.553 115.698 105.169 115.389 105.897C115.236 106.259 115.14 106.643 115.105 107.034C115.085 107.306 115.085 107.566 115.105 107.818V108.147C115.105 116.445 114.914 124.273 114.727 131.845C114.654 134.825 114.581 137.736 114.524 140.562C114.514 141.197 114.578 141.832 114.715 142.454C114.83 143.109 115.155 143.708 115.641 144.163C115.915 144.373 116.243 144.501 116.587 144.533C116.932 144.565 117.278 144.498 117.586 144.341C117.883 144.195 118.144 143.984 118.349 143.724C118.549 143.473 118.705 143.191 118.812 142.888C119.118 141.896 119.262 140.861 119.238 139.823V139.38C119.262 138.284 119.238 137.2 119.238 136.132V135.669C119.238 134.654 119.238 133.692 119.238 132.73V132.58C119.232 131.593 119.314 130.608 119.482 129.636C119.522 129.416 119.603 129.205 119.721 129.015C119.87 128.851 120.053 128.722 120.257 128.637C120.444 128.539 120.651 128.485 120.863 128.48C121.074 128.475 121.284 128.519 121.475 128.609C121.64 128.746 121.772 128.918 121.862 129.112C121.952 129.307 121.997 129.519 121.995 129.734C122.013 130.065 122.013 130.397 121.995 130.728C121.995 130.87 121.995 131.017 121.995 131.159L121.759 150.046C121.709 150.492 121.709 150.943 121.759 151.39C121.787 151.84 121.952 152.272 122.23 152.628C122.395 152.807 122.615 152.924 122.855 152.961C123.062 152.985 123.261 153.01 123.432 153.014C123.797 153.034 124.151 153.042 124.516 153.042H124.764C125.953 153.042 126.98 153.01 127.817 152.981L130.119 152.884C130.598 152.859 130.846 152.839 130.846 152.839C130.885 152.836 130.921 152.818 130.947 152.788C130.973 152.758 130.986 152.72 130.984 152.681C130.979 152.642 130.961 152.606 130.933 152.58C130.905 152.553 130.868 152.537 130.829 152.535C130.829 152.535 130.586 152.535 130.107 152.559L127.723 152.632C126.85 152.656 125.766 152.685 124.516 152.673C124.147 152.673 123.81 152.673 123.46 152.64H123.29C123.151 152.652 123.011 152.636 122.878 152.593C122.746 152.55 122.623 152.48 122.518 152.388C122.289 152.092 122.158 151.732 122.145 151.357C122.101 150.93 122.108 150.5 122.165 150.074L122.453 131.175C122.453 131.033 122.453 130.891 122.453 130.749C122.474 130.4 122.474 130.05 122.453 129.701C122.431 129.435 122.369 129.174 122.271 128.926C122.17 128.647 121.98 128.408 121.731 128.248C121.479 128.086 121.181 128.011 120.882 128.032C120.602 128.054 120.327 128.124 120.07 128.239C119.798 128.352 119.556 128.527 119.364 128.751C119.199 128.996 119.087 129.272 119.035 129.563C118.861 130.552 118.774 131.555 118.775 132.559V132.762C118.755 133.749 118.775 134.723 118.775 135.759V136.165C118.775 137.212 118.775 138.296 118.775 139.38V139.786C118.797 140.783 118.66 141.776 118.369 142.73C118.29 142.984 118.16 143.219 117.987 143.421C117.814 143.622 117.601 143.787 117.362 143.903C117.135 144.021 116.88 144.073 116.625 144.052C116.37 144.031 116.126 143.939 115.921 143.785C115.523 143.393 115.258 142.886 115.162 142.336C115.035 141.753 114.976 141.158 114.987 140.562C115.044 137.797 115.117 134.955 115.19 132.036C115.385 124.403 115.596 116.51 115.596 108.13V107.801C115.596 107.554 115.596 107.298 115.596 107.063C115.627 106.724 115.71 106.393 115.844 106.08C116.111 105.446 116.568 104.91 117.151 104.545C117.445 104.365 117.764 104.228 118.097 104.139L119.161 103.819C119.681 103.664 120.208 103.494 120.716 103.327L121.296 103.136C124.199 102.203 126.999 100.974 129.652 99.4703C130.988 98.6756 132.271 97.794 133.493 96.8313C134.719 95.8494 135.877 94.786 136.96 93.6483C139.149 91.3348 141.106 88.8123 142.802 86.117C145.726 81.5558 147.967 76.5922 149.457 71.3832C150.17 68.8657 150.677 66.2939 150.971 63.6936C151.016 63.2876 151.048 62.8816 151.081 62.4756C151.081 62.2482 151.117 62.0209 151.137 61.7895C151.162 61.3835 151.178 60.9775 151.19 60.5715L151.215 59.8975C151.262 59.54 151.229 59.1765 151.119 58.8332C151.009 58.4899 150.824 58.1753 150.577 57.9122Z" fill="#455A64"/>
</svg>
