<svg width="204" height="204" viewBox="0 0 204 204" fill="none" xmlns="http://www.w3.org/2000/svg">
<path d="M112.42 177.252C121.355 177.305 138.646 174.31 146.86 170.797C160.36 165.032 167.223 160.691 171.956 155.379C181.96 144.142 184.008 136.611 187.488 127.268C194.118 109.503 194.061 88.6993 188.28 70.6412C182.498 52.5831 168.239 36.8221 149.956 31.7915C131.674 26.7608 109.972 34.0844 100.535 50.5187C94.9089 60.3107 93.2769 72.9301 84.3743 79.8702C76.655 85.8922 65.9286 85.6393 56.5854 88.5524C43.5906 92.5957 32.9582 103.506 29.2494 116.598C25.5407 129.691 28.8414 144.554 37.7766 154.824C46.7118 165.093 51.4487 170.928 67.7891 173.522C81.6774 175.795 94.1378 177.684 112.42 177.252Z" fill="#E0E0E0"/>
<path d="M30.649 159.014C32.3178 158.153 34.2843 158.043 36.1366 158.349C37.1322 158.512 38.1766 158.81 38.8498 159.573C39.523 160.336 39.6658 161.637 38.8784 162.282C38.376 162.62 37.7716 162.773 37.1689 162.714C35.7164 162.714 34.1089 162.441 32.9502 163.314C32.2851 163.812 31.8486 164.64 31.057 164.885C30.6639 164.974 30.2527 164.932 29.8849 164.768C29.5171 164.603 29.2127 164.323 29.017 163.971C28.6388 163.244 28.5555 162.4 28.7845 161.613C28.8739 161.065 29.0887 160.546 29.4121 160.095C29.7356 159.644 30.1589 159.274 30.649 159.014Z" fill="#42C3FC"/>
<path d="M26.8262 151.633C27.8462 153.09 29.8291 152.608 30.7512 151.719C31.6732 150.829 32.0568 149.536 32.4117 148.308C33.2277 145.497 34.0437 142.551 33.4358 139.687C33.2892 138.82 32.9083 138.01 32.3342 137.345C32.0433 137.017 31.6709 136.771 31.2547 136.633C30.8385 136.495 30.3932 136.469 29.9637 136.558C28.9641 136.819 28.3317 137.782 27.8911 138.732C26.5644 141.483 25.8675 144.495 25.8511 147.549C25.8511 148.969 26.0102 150.458 26.814 151.629" fill="#42C3FC"/>
<path d="M24.0232 153.722C25.1289 152.408 25.341 150.491 24.8392 148.826C24.2798 147.189 23.2804 145.738 21.9506 144.632C20.442 143.288 18.6863 142.25 16.7812 141.576C16.0426 141.275 15.2483 141.136 14.4515 141.168C14.0541 141.191 13.6684 141.311 13.3279 141.518C12.9873 141.724 12.7022 142.01 12.4972 142.351C11.9505 143.392 12.4727 144.652 13.0398 145.68C14.0357 147.492 15.1721 149.224 16.4385 150.858C17.4585 152.172 18.6254 153.469 20.1798 154.061C21.7343 154.652 23.3459 154.587 24.1701 153.51" fill="#42C3FC"/>
<path d="M26.7567 173.624C26.8108 173.407 26.8422 173.184 26.8506 172.959C26.8954 172.478 26.9566 171.874 27.026 171.152C27.1169 170.262 27.2531 169.376 27.434 168.5C27.6727 167.433 27.996 166.386 28.401 165.371C28.7958 164.356 29.333 163.403 29.9962 162.539C30.5428 161.834 31.2397 161.26 32.0362 160.858C32.5716 160.592 33.1459 160.413 33.7376 160.328C33.9594 160.322 34.1798 160.29 34.3945 160.234C34.1721 160.209 33.9477 160.209 33.7254 160.234C33.1107 160.279 32.5094 160.435 31.9506 160.695C31.1067 161.082 30.3649 161.66 29.7841 162.384C29.1028 163.261 28.553 164.233 28.1521 165.269C27.7424 166.3 27.4229 167.365 27.1974 168.451C27.0258 169.338 26.9073 170.234 26.8424 171.136C26.7853 171.903 26.7649 172.523 26.7567 172.955C26.7305 173.178 26.7305 173.402 26.7567 173.624Z" fill="#263238"/>
<path d="M26.8794 172.233C26.9003 172.131 26.9072 172.027 26.8998 171.923C26.8998 171.694 26.8998 171.401 26.8998 171.046C26.8998 170.283 26.8998 169.177 26.9406 167.814C27.0059 165.089 27.2425 162.155 27.6954 158.022C28.1034 154.134 28.7032 149.605 29.3274 146.664C29.458 145.995 29.5885 145.391 29.7109 144.864C29.8333 144.338 29.9313 143.881 30.0251 143.51C30.1189 143.139 30.1801 142.881 30.2332 142.657C30.2632 142.558 30.2811 142.455 30.2862 142.351C30.2411 142.444 30.2055 142.541 30.1801 142.641C30.1108 142.861 30.0292 143.143 29.9231 143.485C29.817 143.828 29.6946 144.301 29.5641 144.828C29.4335 145.354 29.2785 145.954 29.1561 146.623C28.4053 150.103 27.8387 153.621 27.4588 157.161C27.0059 161.307 26.8019 165.081 26.7815 167.814C26.7815 169.181 26.7815 170.287 26.8305 171.054C26.8549 171.409 26.8713 171.698 26.8835 171.931C26.8723 172.031 26.8709 172.132 26.8794 172.233Z" fill="#263238"/>
<path d="M26.8995 164.95C26.9254 164.645 26.9254 164.338 26.8995 164.032C26.8475 163.2 26.7535 162.371 26.618 161.548C26.4156 160.324 26.1432 159.113 25.802 157.921C25.4078 156.455 24.9018 155.021 24.2883 153.632C23.2363 151.07 21.7281 148.72 19.8371 146.696C19.508 146.351 19.1578 146.027 18.7885 145.725C18.6294 145.591 18.4866 145.452 18.3397 145.346L17.9317 145.069C17.6868 144.882 17.4276 144.716 17.1565 144.571C18.0478 145.27 18.894 146.025 19.6902 146.831C21.521 148.869 22.9893 151.205 24.0313 153.739C24.6331 155.119 25.1428 156.538 25.5572 157.986C25.9652 159.32 26.2182 160.544 26.4181 161.576C26.618 162.608 26.7159 163.453 26.7812 164.024C26.7956 164.336 26.8352 164.645 26.8995 164.95Z" fill="#263238"/>
<path d="M19.8618 177.794L20.5921 187.786H33.4319L34.1622 177.794H19.8618Z" fill="#263238"/>
<path d="M35.6921 173.853H18.6213V177.79H35.6921V173.853Z" fill="#263238"/>
<path d="M18.6252 187.403V188.496H19.4249H35.4104V187.403H18.6252Z" fill="#455A64"/>
<path d="M20.2125 190.418L19.425 188.496H34.7985L33.8805 190.418H20.2125Z" fill="#455A64"/>
<path d="M33.9214 181.058C33.9214 181.058 33.9214 181.095 33.8602 181.152C33.799 181.209 33.75 181.303 33.6684 181.405L32.9218 182.376L32.8892 182.416L32.8565 182.372L31.0083 179.818H31.1144L29.3151 182.376L29.2579 182.457L29.1967 182.38L27.0507 179.83H27.1731L27.0547 179.981L25.1372 182.376L25.076 182.457L25.0148 182.372C24.362 181.454 23.754 180.593 23.2073 179.813H23.3093L21.0816 182.376L21.0408 182.421L21.0123 182.376C20.7185 181.882 20.4819 181.49 20.3146 181.205L20.1351 180.891C20.1113 180.857 20.0934 180.82 20.082 180.78C20.1095 180.811 20.1341 180.843 20.1555 180.878C20.2085 180.956 20.2738 181.058 20.3513 181.18L21.0857 182.331H21.0164L23.2073 179.76L23.2644 179.699L23.3134 179.769L25.1412 182.314H25.0188L26.9283 179.879L27.0466 179.732L27.1078 179.654L27.169 179.732L29.3069 182.286H29.1886L31.0083 179.744L31.0613 179.671L31.1144 179.744L32.9136 182.314H32.8484L33.6236 181.38C33.7092 181.286 33.7786 181.205 33.8316 181.139L33.9214 181.058Z" fill="#E0E0E0"/>
<path d="M34.3375 177.729C34.3375 177.769 31.1224 177.806 27.1567 177.806C23.1909 177.806 19.9922 177.769 19.9922 177.729C19.9922 177.688 23.2072 177.647 27.1771 177.647C31.1469 177.647 34.3375 177.684 34.3375 177.729Z" fill="#455A64"/>
<path d="M34.986 188.602C34.986 188.647 31.4894 188.684 27.1809 188.684C22.8725 188.684 19.3718 188.647 19.3718 188.602C19.3718 188.557 22.8684 188.524 27.1809 188.524C31.4935 188.524 34.986 188.561 34.986 188.602Z" fill="#263238"/>
<path d="M67.8094 25.3248L60.5756 25.386C60.0998 25.4009 59.6492 25.6038 59.3227 25.9502C58.9962 26.2966 58.8202 26.7583 58.8334 27.2342V28.548C58.8478 29.0194 58.6762 29.4775 58.3555 29.8234C58.0348 30.1692 57.591 30.375 57.1198 30.3962L43.0193 30.5145C42.7832 30.5113 42.5501 30.4616 42.3332 30.3682C42.1164 30.2747 41.9201 30.1394 41.7556 29.97C41.5911 29.8006 41.4617 29.6004 41.3747 29.3809C41.2877 29.1614 41.2448 28.9269 41.2486 28.6908V27.3811C41.2552 26.9046 41.0724 26.4449 40.7404 26.103C40.4084 25.7611 39.9544 25.5648 39.4779 25.5573H36.932L30.5998 25.6308C29.0877 25.6426 27.642 26.2536 26.5797 27.3297C25.5174 28.4058 24.9251 29.8592 24.9327 31.3713L25.7038 122.657C25.7102 123.404 25.8638 124.143 26.1558 124.831C26.4478 125.519 26.8725 126.142 27.4056 126.666C27.9388 127.19 28.5699 127.603 29.2628 127.883C29.9558 128.162 30.6971 128.303 31.4444 128.296L68.6703 127.99C70.1788 127.973 71.6193 127.359 72.6772 126.284C73.7352 125.208 74.3247 123.758 74.317 122.249L73.5459 30.9674C73.5276 29.4603 72.9144 28.0215 71.8399 26.9645C70.7654 25.9076 69.3166 25.3182 67.8094 25.3248Z" fill="white"/>
<path d="M67.8095 25.3247H68.0013C68.1951 25.326 68.3886 25.3397 68.5807 25.3655C69.3377 25.4493 70.0681 25.6941 70.7226 26.0836C71.2085 26.3616 71.6488 26.7124 72.0282 27.124C72.4936 27.6165 72.8667 28.1887 73.1299 28.8131C73.4301 29.5442 73.5813 30.328 73.5746 31.1183C73.5746 31.9588 73.5746 32.8564 73.6031 33.8029C73.6725 41.3877 73.7745 52.3547 73.9051 65.9126C74.0356 79.4704 74.1703 95.6109 74.3335 113.534C74.3498 115.776 74.3688 118.044 74.3906 120.34C74.3906 120.911 74.3906 121.486 74.3906 122.066C74.4079 122.652 74.3392 123.237 74.1866 123.804C74.0324 124.372 73.793 124.914 73.4767 125.411C73.1508 125.907 72.755 126.354 72.3016 126.737C71.3765 127.502 70.2352 127.959 69.0376 128.043C67.8463 128.088 66.659 128.071 65.4635 128.092L58.2134 128.153L43.3377 128.275L35.7326 128.341L31.8892 128.369C30.575 128.456 29.2688 128.107 28.1723 127.378C27.0816 126.636 26.2758 125.546 25.8875 124.285C25.7042 123.66 25.6188 123.01 25.6346 122.359C25.6346 121.719 25.6346 121.078 25.6346 120.442C25.6155 117.888 25.5938 115.351 25.5693 112.833C25.5258 107.792 25.4836 102.832 25.4428 97.9528C25.3612 88.1975 25.2796 78.7768 25.2021 69.8253C25.1246 60.8738 25.0593 52.3425 24.9899 44.3742C24.9491 40.3921 24.9151 36.5474 24.8879 32.8401V31.461C24.8879 31.2325 24.8879 31 24.9165 30.7715C24.9451 30.543 24.9695 30.3145 25.0267 30.0901C25.2225 29.2025 25.6251 28.3735 26.2017 27.6707C26.7605 26.9909 27.4678 26.4483 28.2692 26.0847C29.0706 25.7212 29.9447 25.5463 30.8243 25.5736L35.7856 25.5328H38.1724H39.3434C39.7403 25.5084 40.1343 25.6144 40.4654 25.8347C40.7894 26.0563 41.0351 26.3748 41.1671 26.7445C41.2795 27.1073 41.3224 27.4879 41.2936 27.8665C41.2936 28.0501 41.2936 28.2378 41.2936 28.4214C41.2914 28.6026 41.2996 28.7838 41.3181 28.9641C41.3661 29.3152 41.5165 29.6445 41.7506 29.9106C41.9793 30.1748 42.2844 30.3616 42.6237 30.4451C42.7924 30.4824 42.9652 30.4975 43.1378 30.49H43.6559H45.6959L53.1991 30.4369L56.5079 30.4125C56.7691 30.4125 57.0383 30.4125 57.2831 30.4125C57.5317 30.3814 57.7701 30.295 57.9808 30.1595C58.1818 30.0286 58.3549 29.8592 58.4901 29.661C58.6252 29.4628 58.7198 29.2398 58.7682 29.0049C58.8051 28.777 58.8174 28.5458 58.805 28.3153C58.805 28.0869 58.805 27.8584 58.805 27.634C58.7915 27.3983 58.8011 27.1619 58.8335 26.9281C58.8663 26.7148 58.9367 26.5089 59.0416 26.3202C59.2378 25.9514 59.5568 25.6627 59.9433 25.5042C60.307 25.3833 60.6918 25.3389 61.0735 25.3737L64.7659 25.3492H67.0343H67.8095H67.0343L64.7659 25.3737L61.0735 25.4104C60.6985 25.3804 60.3214 25.4248 59.9637 25.5409C59.5897 25.6956 59.2811 25.9754 59.0906 26.3325C58.9908 26.5183 58.9232 26.7197 58.8907 26.9281C58.8618 27.1445 58.8536 27.3631 58.8662 27.5809C58.8662 27.8053 58.8662 28.0297 58.8662 28.2623C58.8782 28.4982 58.8659 28.7347 58.8295 28.9681C58.78 29.2117 58.6823 29.443 58.5422 29.6483C58.402 29.8536 58.2223 30.0288 58.0135 30.1636C57.7957 30.3043 57.5487 30.3936 57.2913 30.4247C57.0302 30.4533 56.7731 30.4247 56.512 30.4247L53.2031 30.4533L45.6959 30.5226H43.6559H43.1255C42.946 30.5305 42.7662 30.514 42.5911 30.4737C42.2314 30.389 41.9074 30.1935 41.6649 29.9147C41.4278 29.6477 41.2695 29.3199 41.2079 28.9681C41.1877 28.7839 41.1795 28.5986 41.1835 28.4133C41.1835 28.2297 41.1835 28.0461 41.1835 27.8584C41.2111 27.4908 41.1696 27.1213 41.0611 26.769C40.9366 26.4142 40.7022 26.1083 40.3919 25.8959C40.0775 25.6874 39.7036 25.5871 39.3271 25.6103H38.1561L35.7693 25.6307L30.808 25.7041C29.9567 25.6852 29.1115 25.8523 28.3315 26.1937C27.5425 26.5563 26.8453 27.0918 26.2915 27.7605C25.727 28.4508 25.3328 29.2642 25.1409 30.135C25.0838 30.3513 25.0715 30.5757 25.0348 30.8001C24.9981 31.0245 25.0103 31.2489 25.0103 31.4773V32.8564C25.043 36.5583 25.077 40.403 25.1123 44.3906C25.1858 52.3629 25.2592 60.8819 25.3408 69.8457C25.4224 78.8094 25.4999 88.2057 25.5856 97.9691C25.6291 102.849 25.6727 107.809 25.7162 112.849C25.7352 115.37 25.757 117.908 25.7815 120.462C25.7815 121.099 25.7815 121.739 25.7815 122.38C25.7679 123.014 25.8518 123.647 26.0303 124.257C26.4078 125.483 27.1903 126.544 28.2499 127.268C29.3196 127.976 30.5924 128.315 31.8729 128.23L35.7163 128.198L43.3255 128.137L58.2011 128.014L65.4472 127.957C66.6427 127.937 67.8422 127.957 69.0172 127.908C70.1861 127.83 71.3008 127.386 72.2037 126.639C72.6452 126.267 73.0301 125.833 73.3461 125.35C73.657 124.867 73.8909 124.338 74.0397 123.783C74.1877 123.23 74.255 122.658 74.2396 122.086C74.2396 121.511 74.2396 120.935 74.2396 120.36C74.2233 118.067 74.2043 115.8 74.1825 113.559C74.0356 95.6313 73.901 79.4908 73.7745 65.933C73.648 52.3751 73.5827 41.4081 73.5215 33.8233C73.5215 32.8768 73.5215 31.9792 73.5011 31.1387C73.5114 30.3545 73.3643 29.5762 73.0686 28.8498C72.8082 28.2315 72.4408 27.6638 71.9834 27.1729C71.6146 26.7559 71.1839 26.3982 70.7063 26.1121C70.0569 25.7191 69.3306 25.47 68.5766 25.3818C68.3862 25.3519 68.194 25.3356 68.0013 25.3329L67.8095 25.3247Z" fill="#263238"/>
<path d="M68.9885 34.5335C68.9885 34.5579 68.0501 34.5947 66.8914 34.611C65.7327 34.6273 64.7902 34.611 64.7861 34.611C64.7821 34.611 65.7286 34.5539 66.8874 34.5335C68.0461 34.5131 68.9885 34.509 68.9885 34.5335Z" fill="#263238"/>
<path d="M69.009 35.6062C69.009 35.6307 68.0666 35.6674 66.9078 35.6878C65.7491 35.7082 64.8066 35.6878 64.8066 35.6878C64.8066 35.6878 65.745 35.6266 66.9078 35.6062C68.0706 35.5858 69.009 35.5817 69.009 35.6062Z" fill="#263238"/>
<path d="M69.0254 36.6834C69.0254 36.7078 68.087 36.7446 66.9283 36.7609C65.7696 36.7772 64.8271 36.7609 64.823 36.7609C64.8189 36.7609 65.7655 36.7038 66.9242 36.6834C68.0829 36.663 69.0254 36.6589 69.0254 36.6834Z" fill="#263238"/>
<path d="M30.8039 38.2459H30.8896H31.1344L32.0279 38.2173L32.0034 38.2418C32.0034 38.0419 32.0034 37.8338 32.0034 37.5931C32.0034 37.4707 32.0034 37.3564 32.0034 37.2177C32.0173 37.1455 32.0535 37.0795 32.107 37.029C32.1604 36.9784 32.2284 36.946 32.3013 36.9362C32.4481 36.9362 32.5746 36.9362 32.7297 36.9362C32.8126 36.9472 32.8886 36.988 32.9435 37.0512C32.9983 37.1143 33.0282 37.1953 33.0275 37.2789C33.0275 37.5849 33.0275 37.8991 33.0275 38.2296L32.9826 38.1888H34.1169L34.072 38.2296C34.072 37.7767 34.072 37.3034 34.0475 36.822C34.0475 36.6996 34.0475 36.5812 34.0475 36.4629C34.0411 36.4095 34.0232 36.3582 33.995 36.3124C33.9669 36.2666 33.9291 36.2275 33.8843 36.1977L33.3865 35.7122L32.9051 35.2471C32.8276 35.1696 32.746 35.0961 32.6725 35.0186C32.5991 34.9411 32.5257 34.8636 32.4359 34.8472C32.3912 34.8355 32.3444 34.8342 32.2992 34.8434C32.2539 34.8526 32.2113 34.8721 32.1748 34.9003C32.1095 34.9574 32.0361 35.039 31.9667 35.1084C31.828 35.2512 31.6933 35.3858 31.5587 35.5164C31.3017 35.7856 31.0405 36.0304 30.8488 36.2589C30.7953 36.3878 30.777 36.5286 30.7957 36.6669V37.0749C30.7957 37.3197 30.7957 37.5319 30.7957 37.7155V38.1235C30.7957 38.2173 30.7957 38.2704 30.7957 38.2704C30.79 38.2257 30.79 38.1804 30.7957 38.1357C30.7957 38.0242 30.7957 37.8882 30.7957 37.7277C30.7957 37.54 30.7957 37.3197 30.7957 37.079C30.7957 36.9525 30.7957 36.8138 30.7957 36.671C30.7957 36.6016 30.7957 36.5241 30.7957 36.4507C30.7915 36.3674 30.8128 36.2848 30.8569 36.214C31.0609 35.9529 31.3098 35.7244 31.5669 35.4511L31.9749 35.0431C32.0483 34.9696 32.1054 34.8962 32.1911 34.8228C32.2376 34.7874 32.2915 34.7632 32.3488 34.7519C32.4061 34.7406 32.4652 34.7425 32.5216 34.7575C32.6288 34.7946 32.7235 34.8611 32.7949 34.9492L33.0275 35.1736L33.4559 35.6102L33.9537 36.0916C34.0008 36.1316 34.0432 36.1768 34.0801 36.2263C34.1202 36.2822 34.1417 36.3493 34.1413 36.418C34.1413 36.5364 34.1413 36.6588 34.1413 36.7771C34.1413 37.2626 34.1413 37.7318 34.1658 38.1888V38.2336H34.1209H32.9908H32.95V38.1928C32.95 37.8664 32.95 37.5482 32.95 37.2463C32.9517 37.1807 32.9295 37.1168 32.8874 37.0664C32.8453 37.0161 32.7863 36.9828 32.7215 36.9729C32.5909 36.9729 32.4359 36.9729 32.3135 36.9729C32.2544 36.9791 32.199 37.0044 32.1556 37.0448C32.1122 37.0853 32.0831 37.1389 32.0728 37.1973C32.0728 37.3116 32.0728 37.4421 32.0728 37.5564C32.0728 37.793 32.0728 38.0092 32.0728 38.2092V38.2336H30.8814C30.8284 38.25 30.7998 38.25 30.8039 38.2459Z" fill="#263238"/>
<path d="M65.8097 43.6152L32.2123 43.9143C30.5313 43.9293 29.1808 45.3041 29.1958 46.985L29.2059 48.1151C29.2208 49.796 30.5956 51.1465 32.2765 51.1316L65.874 50.8325C67.5549 50.8175 68.9054 49.4427 68.8904 47.7618L68.8804 46.6317C68.8654 44.9508 67.4906 43.6003 65.8097 43.6152Z" fill="#F5F5F5"/>
<path d="M65.8673 50.841L66.0958 50.8166C66.3171 50.7945 66.5358 50.7507 66.7486 50.686C67.0926 50.5724 67.4143 50.3998 67.6992 50.176C68.0892 49.8695 68.3975 49.4715 68.5968 49.0173C68.7155 48.7504 68.7926 48.467 68.8253 48.1768C68.8529 47.8525 68.8597 47.5268 68.8457 47.2017C68.8546 46.8485 68.8355 46.4951 68.7886 46.145C68.7228 45.7707 68.5842 45.4131 68.3806 45.0923C68.1592 44.7352 67.8655 44.4283 67.5183 44.1915C67.1712 43.9547 66.7784 43.7932 66.3651 43.7174C65.9073 43.6664 65.4461 43.6528 64.986 43.6766H63.5213L32.2318 43.9907C31.4864 43.9969 30.7706 44.283 30.2264 44.7924C29.6822 45.3019 29.3495 45.9973 29.2942 46.7406C29.2942 47.0997 29.2942 47.4791 29.2942 47.8463C29.281 48.2081 29.3223 48.5698 29.4166 48.9194C29.6127 49.6037 30.0467 50.1955 30.6406 50.5881C30.9343 50.7837 31.2624 50.9222 31.6075 50.9961C31.9517 51.0604 32.3023 51.0837 32.652 51.0654H34.7532L38.8332 51.0287L52.9133 50.9226L62.4034 50.8614H64.986H65.6552C65.8061 50.8614 65.8836 50.8614 65.8836 50.8614H65.6552H64.986L62.4034 50.8982L52.9133 51.0042L38.8373 51.147L34.7573 51.1838H32.6561C32.2954 51.2016 31.9339 51.1769 31.579 51.1103C31.2197 51.0371 30.8768 50.8988 30.5671 50.7023C29.9349 50.2975 29.4688 49.6794 29.2534 48.9602C29.1531 48.5977 29.1091 48.2221 29.1228 47.8463C29.1228 47.475 29.1228 47.1119 29.1228 46.7284C29.1811 45.9489 29.5301 45.2198 30.1006 44.6855C30.6712 44.1513 31.4216 43.8509 32.2032 43.8438L63.5213 43.5868H64.986C65.4529 43.5627 65.9211 43.5778 66.3855 43.6317C66.8103 43.7121 67.2137 43.8803 67.5699 44.1255C67.9261 44.3707 68.2272 44.6874 68.454 45.0556C68.6555 45.3892 68.7938 45.7571 68.862 46.1409C68.9081 46.4952 68.9245 46.8528 68.911 47.2098C68.9236 47.5378 68.9154 47.8662 68.8865 48.1931C68.8502 48.4898 68.7676 48.7789 68.6417 49.0499C68.4388 49.5099 68.1231 49.9113 67.7237 50.2168C67.4331 50.4401 67.1059 50.6113 66.7568 50.7227C66.5397 50.7846 66.3168 50.8243 66.0917 50.841H65.8673Z" fill="#263238"/>
<path d="M66.4469 47.0507C66.4469 47.0507 66.4469 46.9365 66.3775 46.7406C66.2934 46.4671 66.1231 46.2281 65.892 46.0593C65.7089 45.9291 65.4935 45.8518 65.2694 45.8359C65.0453 45.82 64.8211 45.8661 64.6215 45.9691C64.4218 46.0721 64.2544 46.2281 64.1375 46.42C64.0206 46.6118 63.9587 46.8322 63.9587 47.0568C63.9587 47.2815 64.0206 47.5019 64.1375 47.6937C64.2544 47.8856 64.4218 48.0416 64.6215 48.1446C64.8211 48.2476 65.0453 48.2937 65.2694 48.2778C65.4935 48.2619 65.7089 48.1846 65.892 48.0544C66.1215 47.8831 66.2879 47.6407 66.3653 47.3649C66.4183 47.169 66.4183 47.0507 66.4306 47.0507C66.4428 47.0507 66.4306 47.0793 66.4306 47.1364C66.441 47.2163 66.441 47.2972 66.4306 47.3771C66.3724 47.6783 66.2108 47.9497 65.9736 48.1442C65.7953 48.2878 65.5835 48.3837 65.3579 48.423C65.1324 48.4622 64.9006 48.4435 64.6843 48.3686C64.4169 48.2762 64.1846 48.1033 64.0194 47.8736C63.8541 47.644 63.764 47.3688 63.7613 47.0859C63.7586 46.803 63.8435 46.5262 64.0044 46.2934C64.1653 46.0607 64.3942 45.8834 64.6598 45.7859C64.8745 45.7071 65.1055 45.6837 65.3316 45.7179C65.5577 45.7522 65.7715 45.8429 65.9532 45.9818C66.1966 46.1672 66.3659 46.4334 66.4306 46.7325C66.4495 46.8127 66.4591 46.8949 66.4591 46.9773C66.455 47.0222 66.455 47.0507 66.4469 47.0507Z" fill="#263238"/>
<path d="M67.1895 49.2986C66.9418 49.1456 66.7223 48.951 66.5408 48.7234C66.3236 48.5298 66.1426 48.2991 66.0063 48.042C66.2519 48.198 66.4697 48.3938 66.651 48.6214C66.8656 48.8168 67.0475 49.0455 67.1895 49.2986Z" fill="#263238"/>
<path d="M34.5454 46.7856H33.8396V46.6021H35.4716V46.7897H34.7617V48.6217H34.5454V46.7856Z" fill="#E0E0E0"/>
<path d="M36.9321 47.8992H35.6673C35.6778 48.0479 35.7468 48.1864 35.8592 48.2843C35.9716 48.3822 36.1183 48.4316 36.2671 48.4215C36.3541 48.4227 36.4403 48.4051 36.5199 48.3699C36.5995 48.3347 36.6705 48.2827 36.7281 48.2175L36.8464 48.348C36.7361 48.4559 36.5974 48.5303 36.4464 48.5625C36.2955 48.5948 36.1385 48.5835 35.9937 48.5301C35.8489 48.4768 35.7222 48.3834 35.6283 48.2609C35.5344 48.1384 35.4772 47.9917 35.4633 47.838C35.4571 47.7381 35.4716 47.6379 35.5058 47.5438C35.54 47.4496 35.5932 47.3636 35.6621 47.2909C35.7309 47.2181 35.814 47.1604 35.9062 47.1212C35.9983 47.0819 36.0976 47.0621 36.1977 47.0628C36.2972 47.0598 36.3963 47.0776 36.4886 47.1149C36.5809 47.1523 36.6645 47.2084 36.7339 47.2798C36.8034 47.3512 36.8572 47.4362 36.892 47.5295C36.9268 47.6228 36.9419 47.7223 36.9362 47.8217C36.9362 47.8543 36.9321 47.8747 36.9321 47.8992ZM35.6673 47.7564H36.7403C36.7286 47.6222 36.667 47.4973 36.5677 47.4062C36.4684 47.3152 36.3385 47.2647 36.2038 47.2647C36.0691 47.2647 35.9393 47.3152 35.8399 47.4062C35.7406 47.4973 35.679 47.6222 35.6673 47.7564Z" fill="#E0E0E0"/>
<path d="M38.2826 48.5811L37.793 47.9527L37.3156 48.5892H37.0872L37.6788 47.8059L37.1035 47.0755H37.332L37.793 47.6631L38.2418 47.0674H38.4662L37.9032 47.8059L38.5152 48.5811H38.2826Z" fill="#E0E0E0"/>
<path d="M39.6494 48.4785C39.5591 48.5503 39.4464 48.5878 39.3311 48.5846C39.2717 48.5902 39.2117 48.5827 39.1555 48.5626C39.0993 48.5424 39.0482 48.5102 39.0058 48.4682C38.9634 48.4262 38.9307 48.3754 38.9101 48.3194C38.8894 48.2633 38.8814 48.2035 38.8864 48.144V47.23H38.613V47.0546H38.8823V46.7241H39.0904V47.0546H39.5514V47.23H39.0822V48.1317C39.0822 48.3112 39.1761 48.4092 39.3434 48.4051C39.4252 48.4083 39.5053 48.3807 39.5678 48.3276L39.6494 48.4785Z" fill="#E0E0E0"/>
<path d="M39.6462 57.0667L30.9602 57.144L31.0375 65.83L39.7235 65.7527L39.6462 57.0667Z" fill="#42C3FC"/>
<path d="M56.357 57.7976C56.357 57.8384 53.4562 57.8956 49.8739 57.9282C46.2917 57.9608 43.3867 57.9527 43.3867 57.9282C43.3867 57.9037 46.2876 57.8303 49.8698 57.7976C53.4521 57.765 56.357 57.7568 56.357 57.7976Z" fill="#42C3FC"/>
<path d="M66.7283 60.3842C66.7283 60.425 61.5059 60.5066 55.0676 60.5637C48.6294 60.6208 43.407 60.633 43.407 60.5922C43.407 60.5514 48.6253 60.4698 55.0676 60.4127C61.5099 60.3556 66.7283 60.327 66.7283 60.3842Z" fill="#263238"/>
<path d="M66.4713 62.273C66.4713 62.3138 61.3101 62.3914 54.9493 62.4485C48.5886 62.5056 43.4233 62.5178 43.4233 62.477C43.4233 62.4362 48.5805 62.3587 54.9453 62.3016C61.3101 62.2445 66.4713 62.2322 66.4713 62.273Z" fill="#263238"/>
<path d="M57.0463 64.1704C57.0463 64.2112 54.0026 64.2724 50.2449 64.305C46.4872 64.3376 43.4395 64.3295 43.4395 64.305C43.4395 64.2805 46.4872 64.2071 50.2449 64.1744C54.0026 64.1418 57.0463 64.1296 57.0463 64.1704Z" fill="#263238"/>
<path d="M39.8506 71.439L31.1643 71.5259L31.2512 80.2122L39.9375 80.1253L39.8506 71.439Z" fill="#42C3FC"/>
<path d="M56.4876 72.2689C56.4876 72.3097 53.5826 72.3709 50.0004 72.3995C46.4181 72.428 43.5132 72.4239 43.5132 72.3995C43.5132 72.375 46.4141 72.3015 50.0004 72.2689C53.5867 72.2363 56.4876 72.2159 56.4876 72.2689Z" fill="#42C3FC"/>
<path d="M66.8548 74.8395C66.8548 74.8803 61.6365 74.9619 55.1982 75.019C48.76 75.0761 43.5376 75.0884 43.5376 75.0476C43.5376 75.0068 48.7559 74.9252 55.1942 74.8721C61.6324 74.8191 66.8548 74.7987 66.8548 74.8395Z" fill="#263238"/>
<path d="M66.5978 76.7452C66.5978 76.786 61.4407 76.8635 55.0759 76.9207C48.7111 76.9778 43.554 76.99 43.554 76.9492C43.554 76.9084 48.7111 76.8309 55.0759 76.7738C61.4407 76.7167 66.5978 76.7044 66.5978 76.7452Z" fill="#263238"/>
<path d="M57.173 78.6424C57.173 78.6832 54.1294 78.7444 50.3717 78.777C46.614 78.8097 43.5703 78.8056 43.5703 78.777C43.5703 78.7485 46.614 78.675 50.3717 78.6424C54.1294 78.6097 57.173 78.6016 57.173 78.6424Z" fill="#263238"/>
<path d="M39.9033 85.9539L31.2173 86.0312L31.2946 94.7172L39.9806 94.6399L39.9033 85.9539Z" fill="#455A64"/>
<path d="M56.6141 86.741C56.6141 86.7818 53.7091 86.843 50.1269 86.8716C46.5446 86.9001 43.6396 86.896 43.6396 86.8716C43.6396 86.8471 46.5446 86.7736 50.1269 86.741C53.7091 86.7084 56.6141 86.7002 56.6141 86.741Z" fill="#42C3FC"/>
<path d="M66.9813 89.3155C66.9813 89.3563 61.7629 89.4339 55.3247 89.491C48.8865 89.5481 43.6641 89.5603 43.6641 89.5195C43.6641 89.4787 48.8824 89.4012 55.3247 89.3441C61.767 89.287 66.9813 89.2747 66.9813 89.3155Z" fill="#263238"/>
<path d="M66.7243 91.2169C66.7243 91.2577 61.5671 91.3352 55.2023 91.3923C48.8375 91.4494 43.6804 91.4617 43.6804 91.4209C43.6804 91.3801 48.8375 91.3026 55.2023 91.2455C61.5671 91.1883 66.7243 91.1761 66.7243 91.2169Z" fill="#263238"/>
<path d="M57.3036 93.1141C57.3036 93.1549 54.2558 93.2161 50.5022 93.2487C46.7486 93.2813 43.6968 93.2773 43.6968 93.2487C43.6968 93.2201 46.7405 93.1467 50.4981 93.1141C54.2558 93.0814 57.3036 93.0732 57.3036 93.1141Z" fill="#263238"/>
<path d="M40.0322 100.424L31.3462 100.501L31.4235 109.187L40.1095 109.11L40.0322 100.424Z" fill="#42C3FC"/>
<path d="M56.7405 101.213C56.7405 101.254 53.8396 101.315 50.2574 101.343C46.6752 101.372 43.7661 101.368 43.7661 101.343C43.7661 101.319 46.6711 101.246 50.2533 101.213C53.8356 101.18 56.7405 101.184 56.7405 101.213Z" fill="#455A64"/>
<path d="M67.1118 103.787C67.1118 103.828 61.8894 103.906 55.4512 103.963C49.0129 104.02 43.7905 104.032 43.7905 103.991C43.7905 103.95 49.0088 103.873 55.4512 103.816C61.8935 103.759 67.1118 103.746 67.1118 103.787Z" fill="#263238"/>
<path d="M66.8507 105.672C66.8507 105.713 61.6936 105.795 55.3329 105.848C48.9722 105.901 43.8069 105.917 43.8069 105.876C43.8069 105.835 48.964 105.758 55.3288 105.701C61.6936 105.644 66.8507 105.648 66.8507 105.672Z" fill="#263238"/>
<path d="M57.43 107.586C57.43 107.627 54.3864 107.688 50.6287 107.72C46.871 107.753 43.8232 107.749 43.8232 107.72C43.8232 107.692 46.8669 107.618 50.6246 107.586C54.3823 107.553 57.43 107.545 57.43 107.586Z" fill="#263238"/>
<path d="M40.2845 114.858L31.5981 114.945L31.685 123.632L40.3713 123.545L40.2845 114.858Z" fill="#E0E0E0"/>
<path d="M56.8711 115.684C56.8711 115.725 53.9662 115.786 50.3839 115.819C46.8017 115.852 43.8967 115.839 43.8967 115.799C43.8967 115.758 46.7976 115.701 50.3799 115.668C53.9621 115.635 56.867 115.644 56.8711 115.684Z" fill="#E0E0E0"/>
<path d="M67.2383 118.259C67.2383 118.3 62.0159 118.377 55.5776 118.434C49.1394 118.491 43.917 118.504 43.917 118.463C43.917 118.422 49.1394 118.345 55.5776 118.287C62.0159 118.23 67.2383 118.218 67.2383 118.259Z" fill="#EBEBEB"/>
<path d="M66.9813 120.16C66.9813 120.201 61.8201 120.283 55.4593 120.336C49.0986 120.389 43.9374 120.405 43.9334 120.364C43.9293 120.323 49.0945 120.246 55.4593 120.189C61.8241 120.132 66.9813 120.119 66.9813 120.16Z" fill="#EBEBEB"/>
<path d="M57.5563 122.057C57.5563 122.098 54.5126 122.159 50.7549 122.192C46.9972 122.225 43.9495 122.221 43.9495 122.192C43.9495 122.163 46.9972 122.09 50.7549 122.057C54.5126 122.025 57.5563 122.017 57.5563 122.057Z" fill="#EBEBEB"/>
<g opacity="0.3">
<path opacity="0.3" d="M40.0322 100.425L31.3462 100.502L31.4235 109.188L40.1095 109.111L40.0322 100.425Z" fill="black"/>
</g>
<path d="M169.471 124.583L164.64 124.55C164.482 124.553 164.327 124.587 164.182 124.65C164.037 124.713 163.906 124.804 163.796 124.917C163.687 125.031 163.601 125.165 163.543 125.312C163.486 125.459 163.458 125.616 163.461 125.774V126.647C163.465 126.805 163.437 126.963 163.38 127.11C163.323 127.257 163.237 127.392 163.127 127.505C163.017 127.619 162.886 127.71 162.741 127.773C162.596 127.836 162.44 127.869 162.282 127.871L152.873 127.806C152.557 127.797 152.256 127.664 152.038 127.435C151.819 127.205 151.7 126.899 151.707 126.582V125.709C151.707 125.394 151.586 125.091 151.369 124.863C151.151 124.635 150.854 124.5 150.54 124.485H148.842L144.62 124.452C144.121 124.448 143.626 124.542 143.164 124.729C142.702 124.916 142.281 125.192 141.926 125.542C141.57 125.892 141.287 126.308 141.093 126.767C140.898 127.226 140.796 127.719 140.793 128.218L140.442 167.386C140.439 167.884 140.533 168.378 140.721 168.839C140.909 169.301 141.186 169.721 141.536 170.075C141.886 170.429 142.303 170.711 142.762 170.904C143.221 171.097 143.714 171.198 144.212 171.201L169.063 171.372C169.561 171.377 170.056 171.284 170.518 171.097C170.98 170.911 171.401 170.635 171.757 170.285C172.112 169.936 172.395 169.52 172.59 169.061C172.784 168.602 172.886 168.109 172.89 167.611L173.241 128.443C173.249 127.941 173.159 127.442 172.973 126.976C172.788 126.51 172.512 126.085 172.161 125.726C171.811 125.367 171.393 125.081 170.931 124.885C170.469 124.689 169.973 124.586 169.471 124.583Z" fill="white"/>
<path d="M169.471 124.583H169.879C170.272 124.628 170.656 124.733 171.017 124.893C171.716 125.21 172.304 125.73 172.704 126.385C173.104 127.039 173.298 127.799 173.261 128.565C173.229 132.527 173.18 138.251 173.123 145.326C173.094 148.863 173.062 152.739 173.025 156.901C173.008 158.982 172.989 161.132 172.968 163.351C172.968 164.457 172.968 165.583 172.939 166.722C172.968 167.298 172.926 167.877 172.813 168.443C172.665 169.017 172.386 169.547 171.997 169.994C171.606 170.444 171.117 170.8 170.569 171.034C170.01 171.261 169.408 171.363 168.806 171.332L165.171 171.307L157.676 171.258L149.924 171.205L145.95 171.177C145.285 171.177 144.62 171.177 143.943 171.148C143.26 171.098 142.603 170.866 142.041 170.475C141.482 170.082 141.037 169.547 140.752 168.925C140.474 168.307 140.354 167.63 140.401 166.954C140.401 165.621 140.413 164.297 140.438 162.98C140.462 160.35 140.485 157.766 140.507 155.228C140.556 150.136 140.601 145.224 140.642 140.54C140.661 138.201 140.683 135.922 140.707 133.702C140.707 132.596 140.728 131.503 140.736 130.438C140.736 129.9 140.736 129.365 140.736 128.835C140.711 128.308 140.752 127.78 140.858 127.264C140.985 126.762 141.213 126.292 141.527 125.881C141.841 125.47 142.236 125.127 142.686 124.873C143.122 124.624 143.603 124.464 144.102 124.404C144.599 124.351 145.085 124.383 145.571 124.379L148.406 124.4H149.781H150.458C150.687 124.392 150.913 124.449 151.111 124.563C151.303 124.681 151.46 124.847 151.566 125.044C151.673 125.242 151.726 125.464 151.719 125.689C151.719 125.905 151.719 126.121 151.719 126.334C151.699 126.541 151.721 126.751 151.784 126.95C151.85 127.143 151.965 127.315 152.118 127.45C152.271 127.585 152.457 127.677 152.657 127.717C153.065 127.758 153.473 127.717 153.881 127.745L158.369 127.778L162.286 127.811C162.572 127.8 162.844 127.687 163.053 127.491C163.262 127.295 163.392 127.03 163.421 126.746C163.421 126.476 163.421 126.203 163.421 125.93C163.401 125.672 163.446 125.415 163.551 125.179C163.657 124.967 163.822 124.79 164.026 124.67C164.23 124.549 164.465 124.491 164.702 124.502H165.926H167.851L169.443 124.522H167.851H165.926H164.702C164.47 124.509 164.24 124.566 164.041 124.684C163.842 124.803 163.683 124.978 163.584 125.187C163.479 125.417 163.436 125.67 163.457 125.922C163.457 126.187 163.457 126.452 163.457 126.738C163.428 127.031 163.294 127.304 163.079 127.506C162.865 127.709 162.585 127.827 162.29 127.839L158.369 127.815L153.881 127.786C153.473 127.786 153.065 127.786 152.657 127.758C152.446 127.714 152.25 127.616 152.089 127.473C151.927 127.33 151.807 127.146 151.739 126.942C151.675 126.736 151.651 126.52 151.67 126.305C151.67 126.093 151.67 125.877 151.67 125.66C151.675 125.446 151.624 125.234 151.522 125.046C151.419 124.858 151.269 124.699 151.087 124.587C150.898 124.476 150.681 124.422 150.462 124.432H149.789H148.414L145.579 124.412C145.092 124.396 144.604 124.404 144.118 124.436C143.366 124.53 142.66 124.848 142.092 125.35C141.524 125.852 141.121 126.513 140.936 127.248C140.831 127.76 140.79 128.284 140.813 128.806C140.813 129.332 140.813 129.867 140.813 130.405C140.813 131.478 140.793 132.572 140.785 133.669C140.766 135.884 140.745 138.162 140.723 140.503C140.683 145.183 140.642 150.096 140.597 155.191C140.573 157.737 140.549 160.321 140.528 162.943C140.528 164.257 140.515 165.582 140.491 166.917C140.445 167.581 140.561 168.246 140.83 168.855C141.111 169.462 141.547 169.984 142.094 170.369C142.644 170.751 143.287 170.978 143.955 171.026C144.62 171.059 145.293 171.026 145.958 171.054L149.928 171.083L157.68 171.136L165.175 171.193L168.81 171.218C169.401 171.246 169.991 171.147 170.54 170.928C171.078 170.696 171.556 170.346 171.94 169.904C172.316 169.466 172.585 168.946 172.727 168.386C172.837 167.826 172.878 167.255 172.849 166.685C172.849 165.547 172.874 164.42 172.882 163.315C172.904 161.095 172.924 158.945 172.943 156.864C172.98 152.703 173.017 148.827 173.049 145.289C173.119 138.215 173.176 132.49 173.217 128.525C173.258 127.648 172.995 126.783 172.474 126.077C172.093 125.557 171.584 125.144 170.997 124.877C170.637 124.716 170.254 124.609 169.863 124.559L169.471 124.583Z" fill="#263238"/>
<path d="M169.991 135.79L143.732 135.726L143.688 153.959L169.947 154.023L169.991 135.79Z" fill="#42C3FC"/>
<path d="M157.599 148.567C159.663 148.154 161.001 146.146 160.587 144.082C160.174 142.018 158.166 140.681 156.102 141.094C154.038 141.508 152.701 143.516 153.114 145.579C153.528 147.643 155.536 148.981 157.599 148.567Z" fill="white"/>
<path d="M155.909 144.832L155.913 143.114L157.398 143.975L158.883 144.836L157.394 145.693L155.905 146.546L155.909 144.832Z" fill="#42C3FC"/>
<path d="M146.533 156.673V156.379C146.533 156.373 146.535 156.366 146.538 156.361C146.541 156.356 146.545 156.351 146.551 156.348C146.556 156.344 146.562 156.343 146.568 156.342C146.574 156.342 146.581 156.343 146.586 156.346L146.839 156.493L147.092 156.644C147.097 156.647 147.102 156.651 147.104 156.656C147.107 156.661 147.109 156.667 147.109 156.673C147.109 156.678 147.107 156.684 147.104 156.689C147.102 156.694 147.097 156.698 147.092 156.701L146.839 156.848L146.582 156.995C146.577 156.998 146.572 156.999 146.566 156.999C146.56 156.999 146.554 156.998 146.549 156.995C146.544 156.992 146.54 156.988 146.537 156.983C146.535 156.978 146.533 156.972 146.533 156.966V156.673Z" fill="#263238"/>
<path d="M148.92 156.464H148.7C148.695 156.464 148.69 156.465 148.686 156.467C148.682 156.469 148.678 156.471 148.675 156.475C148.672 156.478 148.67 156.482 148.668 156.487C148.667 156.491 148.666 156.496 148.667 156.501V156.909C148.668 156.918 148.672 156.926 148.679 156.932C148.686 156.938 148.695 156.941 148.704 156.941H148.92L149.259 157.284V156.142L148.92 156.464Z" fill="#263238"/>
<path d="M147.288 157.039C147.273 157.039 147.258 157.033 147.248 157.023C147.237 157.012 147.231 156.997 147.231 156.982V156.395C147.231 156.378 147.237 156.363 147.249 156.351C147.26 156.34 147.276 156.333 147.292 156.333C147.308 156.335 147.322 156.341 147.333 156.353C147.343 156.364 147.349 156.379 147.349 156.395V156.982C147.348 156.998 147.341 157.012 147.33 157.023C147.319 157.033 147.304 157.039 147.288 157.039Z" fill="#263238"/>
<path d="M149.397 156.337V157.051C149.469 157.021 149.53 156.972 149.574 156.908C149.618 156.844 149.643 156.77 149.646 156.692C149.646 156.615 149.622 156.539 149.578 156.476C149.533 156.412 149.47 156.364 149.397 156.337Z" fill="#263238"/>
<path d="M149.397 156.064V156.215C149.501 156.245 149.592 156.307 149.657 156.394C149.722 156.48 149.757 156.585 149.756 156.693C149.755 156.801 149.72 156.907 149.654 156.993C149.589 157.08 149.497 157.144 149.393 157.174V157.321C149.538 157.292 149.669 157.214 149.763 157.099C149.858 156.985 149.909 156.841 149.909 156.693C149.909 156.545 149.858 156.401 149.763 156.286C149.669 156.172 149.538 156.093 149.393 156.064H149.397Z" fill="#263238"/>
<path d="M151.237 156.464V157.154H151.139V156.55H150.984V156.464H151.237Z" fill="#263238"/>
<path d="M151.368 156.693C151.368 156.684 151.37 156.675 151.373 156.667C151.377 156.659 151.382 156.651 151.389 156.645C151.395 156.639 151.403 156.634 151.411 156.631C151.42 156.628 151.429 156.627 151.437 156.628C151.455 156.628 151.471 156.634 151.484 156.647C151.496 156.659 151.503 156.676 151.503 156.693C151.503 156.702 151.502 156.711 151.499 156.719C151.496 156.727 151.491 156.735 151.485 156.742C151.479 156.748 151.472 156.753 151.463 156.757C151.455 156.76 151.446 156.762 151.437 156.762C151.428 156.762 151.419 156.76 151.411 156.757C151.402 156.753 151.395 156.748 151.388 156.742C151.382 156.735 151.377 156.728 151.373 156.719C151.37 156.711 151.368 156.702 151.368 156.693ZM151.368 157.101C151.368 157.092 151.37 157.083 151.373 157.075C151.377 157.067 151.382 157.059 151.389 157.053C151.395 157.047 151.403 157.042 151.411 157.039C151.42 157.036 151.429 157.035 151.437 157.036C151.455 157.036 151.471 157.042 151.484 157.055C151.496 157.067 151.503 157.084 151.503 157.101C151.503 157.119 151.496 157.136 151.484 157.148C151.472 157.161 151.455 157.169 151.437 157.17C151.426 157.171 151.415 157.169 151.405 157.164C151.395 157.159 151.386 157.152 151.379 157.143C151.373 157.135 151.368 157.124 151.366 157.113C151.364 157.102 151.365 157.091 151.368 157.08V157.101Z" fill="#263238"/>
<path d="M151.613 156.811C151.613 156.583 151.731 156.456 151.894 156.456C152.058 156.456 152.176 156.587 152.176 156.811C152.176 157.035 152.053 157.166 151.894 157.166C151.735 157.166 151.613 157.035 151.613 156.811ZM152.078 156.811C152.078 156.636 152.004 156.546 151.894 156.546C151.784 156.546 151.711 156.631 151.711 156.811C151.711 156.991 151.784 157.076 151.894 157.076C152.004 157.076 152.078 156.986 152.078 156.811Z" fill="#263238"/>
<path d="M152.482 156.464V157.158H152.384V156.55H152.229V156.464H152.482Z" fill="#263238"/>
<path d="M153.151 156.325H153.236L152.91 157.255H152.82L153.151 156.325Z" fill="#263238"/>
<path d="M154.057 156.966C154.057 157.092 153.951 157.17 153.779 157.17C153.608 157.17 153.506 157.088 153.506 156.966C153.505 156.928 153.517 156.892 153.539 156.862C153.561 156.831 153.592 156.809 153.628 156.799C153.599 156.786 153.575 156.764 153.558 156.737C153.542 156.711 153.533 156.679 153.534 156.648C153.534 156.533 153.632 156.46 153.783 156.46C153.934 156.46 154.032 156.533 154.032 156.648C154.034 156.68 154.025 156.712 154.007 156.739C153.99 156.766 153.964 156.787 153.934 156.799C153.971 156.809 154.002 156.831 154.025 156.861C154.047 156.891 154.058 156.928 154.057 156.966ZM153.959 156.966C153.959 156.888 153.889 156.843 153.783 156.843C153.677 156.843 153.608 156.888 153.608 156.966C153.608 157.043 153.673 157.092 153.779 157.092C153.885 157.092 153.959 157.039 153.959 156.962V156.966ZM153.632 156.656C153.632 156.725 153.685 156.766 153.783 156.766C153.881 156.766 153.934 156.725 153.934 156.656C153.934 156.586 153.877 156.546 153.783 156.546C153.689 156.546 153.632 156.582 153.632 156.672V156.656Z" fill="#263238"/>
<path d="M154.146 156.701C154.146 156.683 154.153 156.666 154.165 156.653C154.177 156.64 154.194 156.632 154.212 156.631C154.23 156.631 154.248 156.639 154.261 156.652C154.274 156.665 154.281 156.682 154.281 156.701C154.281 156.719 154.274 156.737 154.261 156.75C154.248 156.763 154.23 156.77 154.212 156.77C154.194 156.769 154.177 156.761 154.165 156.748C154.153 156.735 154.146 156.718 154.146 156.701ZM154.146 157.109C154.146 157.091 154.153 157.075 154.166 157.063C154.178 157.05 154.194 157.043 154.212 157.043C154.229 157.043 154.246 157.05 154.258 157.063C154.27 157.075 154.277 157.091 154.277 157.109C154.277 157.126 154.27 157.143 154.258 157.155C154.246 157.167 154.229 157.174 154.212 157.174C154.194 157.174 154.178 157.167 154.166 157.155C154.153 157.143 154.146 157.126 154.146 157.109Z" fill="#263238"/>
<path d="M154.371 156.815C154.371 156.591 154.493 156.464 154.656 156.464C154.82 156.464 154.938 156.591 154.938 156.819C154.938 157.048 154.816 157.17 154.652 157.17C154.489 157.17 154.371 157.044 154.371 156.815ZM154.836 156.815C154.836 156.636 154.763 156.546 154.656 156.546C154.55 156.546 154.473 156.636 154.473 156.811C154.473 156.987 154.546 157.08 154.652 157.08C154.758 157.08 154.836 156.995 154.836 156.819V156.815Z" fill="#263238"/>
<path d="M155.04 156.819C155.04 156.591 155.162 156.464 155.322 156.464C155.481 156.464 155.603 156.595 155.603 156.819C155.603 157.044 155.481 157.174 155.322 157.174C155.162 157.174 155.04 157.044 155.04 156.819ZM155.505 156.819C155.505 156.644 155.432 156.554 155.322 156.554C155.211 156.554 155.138 156.64 155.138 156.819C155.138 156.999 155.211 157.085 155.322 157.085C155.432 157.085 155.497 156.995 155.497 156.819H155.505Z" fill="#263238"/>
<path d="M144.024 157.039C143.994 157.037 143.965 157.024 143.944 157.002C143.923 156.98 143.911 156.951 143.91 156.921V156.313C143.91 156.298 143.913 156.282 143.919 156.268C143.925 156.254 143.933 156.24 143.944 156.229C143.955 156.219 143.968 156.21 143.983 156.204C143.997 156.198 144.012 156.195 144.028 156.195C144.043 156.195 144.059 156.198 144.073 156.204C144.087 156.21 144.1 156.219 144.11 156.23C144.121 156.241 144.129 156.254 144.135 156.268C144.14 156.283 144.143 156.298 144.142 156.313V156.921C144.142 156.952 144.13 156.983 144.108 157.005C144.085 157.027 144.055 157.039 144.024 157.039Z" fill="#263238"/>
<path d="M144.538 157.039C144.523 157.039 144.507 157.036 144.493 157.03C144.479 157.024 144.466 157.016 144.456 157.005C144.445 156.993 144.437 156.98 144.431 156.966C144.426 156.952 144.423 156.936 144.424 156.921V156.313C144.424 156.282 144.436 156.252 144.458 156.229C144.481 156.207 144.511 156.195 144.542 156.195C144.573 156.196 144.602 156.209 144.623 156.231C144.644 156.253 144.656 156.282 144.656 156.313V156.921C144.656 156.952 144.644 156.983 144.622 157.005C144.599 157.027 144.569 157.039 144.538 157.039Z" fill="#263238"/>
<path d="M169.826 155.636L143.942 155.575C143.876 155.575 143.813 155.549 143.766 155.502C143.72 155.455 143.694 155.392 143.694 155.326C143.694 155.26 143.72 155.197 143.766 155.15C143.813 155.103 143.876 155.077 143.942 155.077L169.83 155.138C169.863 155.138 169.895 155.145 169.925 155.157C169.956 155.17 169.983 155.188 170.006 155.211C170.029 155.234 170.048 155.262 170.06 155.292C170.073 155.322 170.079 155.355 170.079 155.387C170.079 155.42 170.072 155.453 170.06 155.483C170.047 155.514 170.028 155.541 170.005 155.565C169.981 155.588 169.953 155.606 169.922 155.618C169.892 155.631 169.859 155.637 169.826 155.636Z" fill="#E0E0E0"/>
<path d="M153.457 155.595L143.942 155.575C143.876 155.575 143.813 155.549 143.766 155.502C143.72 155.455 143.694 155.392 143.694 155.326C143.694 155.26 143.72 155.197 143.766 155.15C143.813 155.103 143.876 155.077 143.942 155.077L153.457 155.098C153.514 155.098 153.569 155.12 153.61 155.161C153.651 155.201 153.673 155.256 153.673 155.314V155.383C153.673 155.411 153.668 155.439 153.657 155.465C153.646 155.491 153.63 155.515 153.61 155.535C153.59 155.554 153.566 155.57 153.539 155.58C153.513 155.591 153.485 155.596 153.457 155.595Z" fill="#42C3FC"/>
<path d="M153.926 155.35C153.924 155.476 153.873 155.595 153.784 155.684C153.695 155.772 153.574 155.822 153.449 155.823C153.354 155.823 153.262 155.795 153.183 155.743C153.105 155.69 153.043 155.615 153.007 155.528C152.971 155.44 152.962 155.344 152.981 155.251C153 155.159 153.046 155.074 153.113 155.007C153.18 154.94 153.265 154.895 153.358 154.877C153.451 154.859 153.547 154.869 153.634 154.906C153.721 154.943 153.796 155.005 153.848 155.084C153.9 155.163 153.927 155.256 153.926 155.35Z" fill="#42C3FC"/>
<path d="M169.871 160.222C169.871 160.283 164.085 160.315 156.953 160.299C149.822 160.283 144.024 160.222 144.024 160.16C144.024 160.099 149.809 160.071 156.945 160.087C164.081 160.103 169.871 160.165 169.871 160.222Z" fill="#263238"/>
<path d="M169.867 162.793C169.867 162.854 164.081 162.886 156.945 162.87C149.809 162.854 144.024 162.793 144.024 162.715C144.024 162.637 149.805 162.625 156.941 162.642C164.077 162.658 169.867 162.719 169.867 162.793Z" fill="#263238"/>
<path d="M169.858 165.33C169.858 165.391 164.073 165.424 156.941 165.408C149.809 165.391 144.02 165.33 144.02 165.269C144.02 165.208 149.805 165.179 156.941 165.195C164.077 165.212 169.858 165.273 169.858 165.33Z" fill="#263238"/>
<path d="M169.634 54.0846L164.803 54.0601C164.646 54.0633 164.49 54.0975 164.346 54.1607C164.202 54.224 164.071 54.315 163.962 54.4287C163.853 54.5424 163.767 54.6764 163.71 54.8232C163.653 54.97 163.625 55.1266 163.628 55.2841V56.1572C163.631 56.3151 163.604 56.4721 163.546 56.6191C163.488 56.7661 163.402 56.9004 163.293 57.0141C163.183 57.1278 163.052 57.2188 162.908 57.2818C162.763 57.3448 162.607 57.3786 162.449 57.3812L153.041 57.3364C152.884 57.3327 152.729 57.2981 152.585 57.2345C152.442 57.171 152.312 57.0798 152.204 56.9661C152.095 56.8525 152.01 56.7186 151.954 56.5721C151.897 56.4256 151.87 56.2694 151.874 56.1124V55.2392C151.874 54.9243 151.753 54.6213 151.536 54.3933C151.318 54.1654 151.022 54.0299 150.707 54.0152H149.006H144.783C144.284 54.0115 143.79 54.1061 143.328 54.2936C142.866 54.4811 142.446 54.7579 142.091 55.1081C141.737 55.4582 141.454 55.8749 141.261 56.3343C141.067 56.7937 140.967 57.2867 140.964 57.7852L140.707 118.553C140.705 119.558 141.102 120.524 141.811 121.237C142.52 121.95 143.483 122.352 144.489 122.355L169.34 122.469C169.838 122.473 170.332 122.378 170.794 122.19C171.255 122.002 171.675 121.725 172.029 121.375C172.383 121.025 172.665 120.609 172.858 120.149C173.052 119.69 173.152 119.198 173.155 118.7L173.4 57.8872C173.402 56.8843 173.007 55.9214 172.301 55.2089C171.596 54.4964 170.637 54.0921 169.634 54.0846Z" fill="white"/>
<path d="M169.634 54.0847H169.765C169.893 54.0866 170.021 54.0975 170.148 54.1173C170.651 54.1801 171.135 54.3483 171.568 54.611C172.28 55.0362 172.835 55.6802 173.151 56.447C173.345 56.9362 173.439 57.4591 173.428 57.9851C173.428 58.5441 173.428 59.1439 173.428 59.7722C173.408 64.8273 173.384 72.1346 173.351 81.1677C173.318 90.2008 173.273 100.952 173.224 112.894C173.224 114.387 173.224 115.897 173.204 117.427C173.184 118.186 173.273 118.973 173.041 119.728C172.924 120.102 172.755 120.457 172.539 120.785C172.31 121.108 172.035 121.396 171.723 121.641C171.095 122.139 170.325 122.424 169.524 122.457C168.732 122.457 167.941 122.457 167.145 122.457L162.314 122.433L152.408 122.4L147.341 122.38H144.779C143.91 122.423 143.051 122.183 142.331 121.694C141.61 121.194 141.082 120.463 140.833 119.622C140.715 119.207 140.663 118.776 140.678 118.345C140.678 117.916 140.678 117.492 140.678 117.064C140.678 115.364 140.686 113.674 140.703 111.996C140.703 108.637 140.716 105.332 140.744 102.082C140.772 95.5824 140.801 89.3155 140.825 83.3424C140.85 77.3692 140.878 71.6939 140.903 66.3859C140.903 63.7284 140.914 61.1662 140.935 58.6991C140.903 58.0873 140.943 57.4738 141.054 56.8713C141.196 56.2852 141.476 55.7413 141.87 55.2842C142.259 54.8387 142.745 54.4872 143.289 54.256C143.826 54.0432 144.402 53.9445 144.979 53.9663H148.283H149.87H150.65C150.914 53.9595 151.173 54.0383 151.388 54.1907C151.597 54.3464 151.753 54.5631 151.833 54.8109C151.895 55.0546 151.917 55.3068 151.898 55.5575C151.884 55.8008 151.884 56.0446 151.898 56.2879C151.932 56.5238 152.036 56.7441 152.196 56.9203C152.352 57.0952 152.559 57.2166 152.788 57.2671C153.017 57.2985 153.25 57.3094 153.481 57.2997H154.848L159.85 57.3283H162.053C162.229 57.3283 162.404 57.3283 162.572 57.3283C162.737 57.31 162.896 57.2542 163.037 57.1651C163.308 56.9894 163.498 56.7137 163.567 56.398C163.601 56.096 163.614 55.792 163.608 55.4882C163.58 55.1959 163.64 54.9021 163.779 54.6436C163.915 54.4029 164.132 54.218 164.391 54.1214C164.634 54.047 164.889 54.022 165.142 54.0479H167.59L169.63 54.0683H167.59H165.142C164.892 54.0441 164.64 54.069 164.399 54.1418C164.147 54.2384 163.936 54.4203 163.804 54.6559C163.669 54.9057 163.611 55.1894 163.636 55.4719C163.649 55.7795 163.639 56.0877 163.608 56.3939C163.575 56.556 163.509 56.7096 163.416 56.8457C163.322 56.9817 163.201 57.0973 163.061 57.1855C162.917 57.2771 162.754 57.3357 162.584 57.3568C162.408 57.3568 162.237 57.3568 162.062 57.3568H159.858H154.856H153.489C153.254 57.3661 153.018 57.3552 152.784 57.3242C152.545 57.2706 152.33 57.1436 152.168 56.9611C151.999 56.779 151.889 56.5499 151.853 56.3042C151.825 56.0553 151.853 55.8146 151.853 55.5657C151.872 55.3206 151.852 55.074 151.792 54.8354C151.718 54.6018 151.576 54.3957 151.384 54.2438C150.976 53.9215 150.413 54.0561 149.899 54.0235H148.312H145.003C144.435 54.0034 143.87 54.102 143.342 54.3131C142.807 54.5403 142.33 54.8863 141.947 55.325C141.552 55.7719 141.272 56.3082 141.131 56.8876C141.02 57.4846 140.98 58.0927 141.013 58.6991C141.013 61.1689 141.003 63.7311 140.984 66.3859C140.964 71.6899 140.939 77.3692 140.915 83.3424C140.89 89.3155 140.866 95.5824 140.837 102.082C140.837 105.329 140.824 108.634 140.797 111.996C140.797 113.674 140.79 115.364 140.776 117.064C140.776 117.492 140.776 117.916 140.776 118.345C140.759 118.768 140.81 119.191 140.927 119.597C141.168 120.424 141.685 121.144 142.392 121.637C143.101 122.118 143.948 122.353 144.803 122.306H147.365L152.433 122.331L162.343 122.376L167.174 122.4C167.969 122.4 168.765 122.4 169.548 122.4C170.332 122.368 171.085 122.091 171.703 121.609C172.004 121.367 172.269 121.084 172.49 120.768C172.704 120.45 172.87 120.102 172.984 119.736C173.212 118.997 173.122 118.218 173.147 117.455C173.147 115.925 173.147 114.416 173.167 112.922C173.22 100.98 173.269 90.2294 173.31 81.1963C173.351 72.1631 173.388 64.8763 173.412 59.8007C173.388 58.5482 173.559 57.3895 173.151 56.4837C172.839 55.7214 172.29 55.0803 171.584 54.6559C171.153 54.391 170.67 54.22 170.168 54.154C170.043 54.1354 169.916 54.1232 169.789 54.1173L169.634 54.0847Z" fill="#263238"/>
<path d="M169.165 62.8893C169.165 62.9464 163.918 62.9954 157.443 62.9954C150.968 62.9954 145.721 62.9464 145.721 62.8893C145.721 62.8322 150.968 62.7832 157.443 62.7832C163.918 62.7832 169.165 62.8322 169.165 62.8893Z" fill="#263238"/>
<path d="M168.116 102.013H146.811V116.807H168.116V102.013Z" fill="#42C3FC"/>
<path d="M125.338 68.9523H118.104C117.627 68.963 117.174 69.1624 116.845 69.5066C116.515 69.8508 116.335 70.3118 116.345 70.7883V72.1021C116.355 72.5775 116.176 73.0375 115.847 73.3809C115.518 73.7244 115.066 73.9233 114.591 73.934H100.49C100.255 73.9287 100.022 73.877 99.8064 73.7819C99.5906 73.6867 99.3957 73.55 99.2327 73.3795C99.0698 73.209 98.9421 73.0081 98.8568 72.7882C98.7716 72.5683 98.7305 72.3338 98.7359 72.098V70.7842C98.7458 70.3077 98.5661 69.8467 98.2364 69.5025C97.9067 69.1583 97.454 68.9589 96.9774 68.9482H88.1034C86.6005 68.9546 85.1607 69.5531 84.096 70.6139C83.0314 71.6748 82.4277 73.1125 82.4159 74.6154L82.3955 165.901C82.4009 167.408 83.0017 168.852 84.067 169.918C85.1324 170.985 86.5759 171.586 88.083 171.593L125.317 171.617C126.825 171.612 128.27 171.011 129.336 169.944C130.402 168.878 131.003 167.434 131.009 165.926L131.029 74.6358C131.022 73.1293 130.419 71.6869 129.353 70.6224C128.287 69.5579 126.844 68.9577 125.338 68.9523Z" fill="white"/>
<path d="M125.337 68.952H125.529C125.723 68.9531 125.917 68.9681 126.109 68.9969C126.864 69.0864 127.592 69.3368 128.242 69.7313C128.726 70.0145 129.163 70.3694 129.54 70.7839C130.001 71.2808 130.369 71.8573 130.625 72.4853C130.915 73.2199 131.053 74.0052 131.033 74.7946C131.033 75.635 131.033 76.5299 131.033 77.4792C131.033 85.0598 131.033 96.031 131.054 109.589C131.074 123.147 131.054 139.291 131.054 157.215V165.742C131.064 166.329 130.99 166.914 130.833 167.48C130.676 168.049 130.431 168.59 130.107 169.083C129.778 169.577 129.38 170.021 128.924 170.401C127.988 171.16 126.838 171.605 125.635 171.674C124.444 171.711 123.257 171.674 122.057 171.674H99.9598H92.3506H88.5073C87.1935 171.748 85.8917 171.389 84.8026 170.65C83.7181 169.898 82.9223 168.798 82.5464 167.533C82.3683 166.907 82.2885 166.258 82.3098 165.607V156.08C82.3098 151.04 82.3098 146.08 82.3098 141.201C82.3098 131.445 82.3098 122.025 82.3098 113.073C82.3098 104.122 82.3098 95.5903 82.3098 87.618C82.3098 83.6305 82.3098 79.7858 82.3098 76.0838C82.3098 75.6228 82.3098 75.1618 82.3098 74.7048C82.3098 74.4722 82.3098 74.2438 82.3383 74.0112C82.3669 73.7786 82.3995 73.5542 82.4566 73.3339C82.6618 72.448 83.0711 71.6223 83.6521 70.9226C84.2199 70.2519 84.9332 69.7195 85.7378 69.3659C86.5424 69.0124 87.417 68.8471 88.2951 68.8826H96.8101C97.2081 68.864 97.6016 68.9741 97.9321 69.1968C98.2532 69.4223 98.4969 69.7415 98.6298 70.1107C98.736 70.476 98.7747 70.8576 98.744 71.2368V71.7917C98.7316 71.9724 98.7316 72.1537 98.744 72.3343C98.7845 72.6842 98.9263 73.0146 99.152 73.285C99.3796 73.5493 99.683 73.7373 100.021 73.8235C100.189 73.8656 100.362 73.8834 100.535 73.8766H103.114H110.621H113.93C114.191 73.8766 114.456 73.8766 114.705 73.8766C114.952 73.8477 115.188 73.7641 115.399 73.6318C115.605 73.5057 115.784 73.3391 115.924 73.142C116.064 72.945 116.163 72.7216 116.215 72.4853C116.254 72.2577 116.269 72.0265 116.259 71.7958V71.1144C116.251 70.8923 116.26 70.6699 116.288 70.4494C116.325 70.236 116.399 70.0305 116.504 69.8414C116.703 69.4714 117.025 69.1827 117.414 69.0254C117.779 68.9093 118.163 68.8677 118.544 68.903H122.237H124.505H125.28C125.28 68.903 125.015 68.903 124.505 68.903H122.237H118.544C118.168 68.8688 117.79 68.9104 117.43 69.0254C117.056 69.1751 116.746 69.4507 116.553 69.8047C116.451 69.9902 116.38 70.1915 116.345 70.4004C116.319 70.617 116.309 70.8352 116.317 71.0532V71.808C116.326 72.0428 116.311 72.278 116.272 72.5098C116.222 72.7527 116.124 72.9833 115.984 73.1878C115.844 73.3924 115.664 73.5669 115.456 73.7011C115.235 73.8382 114.987 73.9259 114.729 73.9582C114.468 73.9826 114.211 73.9582 113.95 73.9582H100.609C100.429 73.9646 100.249 73.9468 100.074 73.9051C99.7156 73.8157 99.3935 73.6176 99.152 73.338C98.9082 73.054 98.7523 72.7053 98.7032 72.3343C98.6911 72.1496 98.6911 71.9642 98.7032 71.7794V71.2246C98.7315 70.8575 98.6928 70.4884 98.589 70.1352C98.466 69.7852 98.2362 69.4826 97.9321 69.2702C97.6193 69.0575 97.2449 68.9542 96.8672 68.9765H88.3359C87.472 68.9447 86.6123 69.1122 85.8234 69.4659C85.0345 69.8197 84.3377 70.3502 83.7867 71.0165C83.2175 71.7018 82.8165 72.5108 82.6158 73.3788C82.5586 73.595 82.5423 73.8194 82.5015 74.0398C82.4607 74.2601 82.473 74.4926 82.473 74.7211V87.6343C82.473 95.6066 82.473 104.126 82.473 113.089V141.217C82.473 146.094 82.473 151.054 82.473 156.097V165.607C82.4515 166.242 82.53 166.877 82.7055 167.488C83.0732 168.717 83.8453 169.785 84.8965 170.52C85.9606 171.237 87.2301 171.586 88.5114 171.515H99.9598H114.836H122.082C123.277 171.515 124.477 171.535 125.652 171.515C126.819 171.451 127.938 171.023 128.85 170.291C129.295 169.922 129.684 169.491 130.005 169.01C130.32 168.53 130.558 168.004 130.711 167.451C130.864 166.899 130.937 166.327 130.927 165.754V157.227C130.927 139.303 130.927 123.159 130.956 109.601C130.984 96.0432 130.98 85.0721 130.988 77.4914C130.988 76.5394 130.988 75.6446 130.988 74.8068C131.006 74.0229 130.868 73.2434 130.58 72.5138C130.326 71.8923 129.964 71.3206 129.511 70.8247C129.139 70.4107 128.705 70.0557 128.226 69.7721C127.58 69.3762 126.856 69.1218 126.104 69.0254C125.914 68.9927 125.722 68.975 125.529 68.9724L125.337 68.952Z" fill="#263238"/>
<path d="M126.48 78.773C126.48 78.7975 125.541 78.8261 124.379 78.8342C123.216 78.8424 122.277 78.8342 122.277 78.8057C122.277 78.7771 123.22 78.7567 124.379 78.7445C125.537 78.7322 126.48 78.7445 126.48 78.773Z" fill="#263238"/>
<path d="M126.505 79.8459C126.505 79.8704 125.562 79.8989 124.403 79.9112C123.245 79.9234 122.302 79.9112 122.302 79.8826C122.302 79.8541 123.241 79.8296 124.399 79.8214C125.558 79.8133 126.501 79.8214 126.505 79.8459Z" fill="#263238"/>
<path d="M126.513 80.9229C126.513 80.9473 125.57 80.9759 124.412 80.984C123.253 80.9922 122.31 80.984 122.31 80.9555C122.31 80.9269 123.249 80.9065 124.412 80.8943C125.574 80.8821 126.513 80.8984 126.513 80.9229Z" fill="#263238"/>
<path d="M86.4958 81.6003H86.5856H86.8263L87.7239 81.5799L87.7198 81.6003C87.7198 81.4044 87.7198 81.1923 87.7198 80.9515C87.7198 80.8291 87.7198 80.7149 87.7198 80.5762C87.7341 80.5038 87.7711 80.4379 87.8254 80.388C87.8797 80.3382 87.9485 80.3069 88.0218 80.2987C88.1646 80.2987 88.291 80.2987 88.4298 80.2987C88.5119 80.3123 88.5866 80.3546 88.6404 80.4181C88.6942 80.4817 88.7237 80.5623 88.7235 80.6455V81.5921L88.6786 81.5513H89.8129L89.768 81.5921C89.768 81.1392 89.768 80.6659 89.768 80.1845V79.8254C89.7641 79.7713 89.7477 79.7188 89.7201 79.6721C89.6925 79.6254 89.6544 79.5857 89.6089 79.5562L89.1152 79.0666L88.6378 78.5974L88.4053 78.3689C88.3461 78.2894 88.2654 78.2285 88.1727 78.1934C88.1283 78.1818 88.0818 78.1801 88.0367 78.1885C87.9915 78.197 87.9488 78.2154 87.9116 78.2424L87.7035 78.4505L87.2955 78.8585C87.0426 79.1237 86.7733 79.3644 86.5815 79.5929C86.5279 79.7218 86.5082 79.8622 86.5244 80.0009V80.4089C86.5244 80.6537 86.5244 80.8699 86.5244 81.0535C86.5244 81.2371 86.5244 81.3514 86.5244 81.4615C86.5276 81.5104 86.5276 81.5595 86.5244 81.6084C86.5244 81.6084 86.5244 81.5635 86.5244 81.4738V81.0658C86.5244 80.8822 86.5244 80.6578 86.5244 80.4211C86.5244 80.2906 86.5244 80.1559 86.5244 80.0131C86.5244 79.9397 86.5244 79.8662 86.5244 79.7887C86.5244 79.7054 86.5469 79.6236 86.5897 79.5521C86.7978 79.2991 87.0466 79.0707 87.3037 78.7973L87.7117 78.3893C87.7851 78.3159 87.8463 78.2465 87.932 78.1731C87.978 78.1383 88.0312 78.1145 88.0878 78.1031C88.1443 78.0918 88.2026 78.0934 88.2584 78.1078C88.3654 78.1453 88.46 78.2117 88.5318 78.2995L88.7643 78.528L89.2417 78.9972L89.7394 79.4868C89.7846 79.5288 89.8268 79.5738 89.8659 79.6214C89.9032 79.6785 89.923 79.7451 89.923 79.8132C89.923 79.9315 89.923 80.0539 89.923 80.1723C89.923 80.6578 89.923 81.127 89.923 81.5839V81.6288H89.8782H88.748H88.7031V81.6003C88.7031 81.2698 88.7031 80.9515 88.7031 80.6496C88.7049 80.584 88.6826 80.5201 88.6406 80.4697C88.5985 80.4194 88.5395 80.3862 88.4746 80.3763C88.3441 80.3763 88.1931 80.3763 88.0666 80.3763C88.0086 80.3834 87.9542 80.4085 87.9111 80.448C87.868 80.4875 87.8382 80.5394 87.8259 80.5966C87.8259 80.7108 87.8259 80.8454 87.8259 80.9597V81.637H87.7974H86.8875H86.4958V81.6003Z" fill="#263238"/>
<path d="M97.524 139.867H88.8376V148.553H97.524V139.867Z" fill="#42C3FC"/>
<path d="M114.24 140.805C114.24 140.846 111.335 140.878 107.753 140.878C104.17 140.878 101.265 140.846 101.265 140.805C101.265 140.764 104.166 140.728 107.753 140.728C111.339 140.728 114.24 140.76 114.24 140.805Z" fill="#42C3FC"/>
<path d="M124.579 143.465C124.579 143.506 119.36 143.538 112.922 143.538C106.484 143.538 101.261 143.506 101.261 143.465C101.261 143.424 106.48 143.392 112.922 143.392C119.364 143.392 124.579 143.424 124.579 143.465Z" fill="#263238"/>
<path d="M124.305 145.366C124.305 145.407 119.148 145.44 112.783 145.44C106.419 145.44 101.261 145.407 101.261 145.366C101.261 145.326 106.419 145.293 112.783 145.293C119.148 145.293 124.305 145.326 124.305 145.366Z" fill="#263238"/>
<path d="M114.868 147.182C114.868 147.223 111.821 147.255 108.063 147.255C104.305 147.255 101.261 147.223 101.261 147.182C101.261 147.141 104.305 147.108 108.063 147.108C111.821 147.108 114.868 147.141 114.868 147.182Z" fill="#263238"/>
<g opacity="0.3">
<path opacity="0.3" d="M97.524 139.867H88.8376V148.553H97.524V139.867Z" fill="black"/>
</g>
<path d="M97.524 154.008H88.8376V162.695H97.524V154.008Z" fill="#42C3FC"/>
<path d="M114.24 154.942C114.24 154.983 111.335 155.016 107.753 155.016C104.17 155.016 101.265 154.983 101.265 154.942C101.265 154.901 104.166 154.869 107.753 154.869C111.339 154.869 114.24 154.901 114.24 154.942Z" fill="#42C3FC"/>
<path d="M124.579 157.602C124.579 157.643 119.36 157.68 112.922 157.68C106.484 157.68 101.261 157.643 101.261 157.602C101.261 157.561 106.48 157.529 112.922 157.529C119.364 157.529 124.579 157.561 124.579 157.602Z" fill="#263238"/>
<path d="M124.305 159.528C124.305 159.569 119.148 159.602 112.783 159.602C106.419 159.602 101.261 159.569 101.261 159.528C101.261 159.487 106.419 159.451 112.783 159.451C119.148 159.451 124.305 159.467 124.305 159.528Z" fill="#263238"/>
<path d="M114.868 161.32C114.868 161.36 111.821 161.393 108.063 161.393C104.305 161.393 101.261 161.36 101.261 161.32C101.261 161.279 104.305 161.246 108.063 161.246C111.821 161.246 114.868 161.279 114.868 161.32Z" fill="#263238"/>
<g opacity="0.3">
<path opacity="0.3" d="M97.524 154.008H88.8376V162.695H97.524V154.008Z" fill="black"/>
</g>
<path d="M93.7214 93.932L93.6091 114.042L120.365 114.191L120.478 94.0814L93.7214 93.932Z" fill="#42C3FC"/>
<path d="M93.2605 114.041L102.677 101.588L108.422 109.442L112.371 105.285L120.021 114.187L93.2605 114.041Z" fill="#42C3FC"/>
<path d="M110.931 100.103C110.929 100.519 110.803 100.926 110.569 101.27C110.336 101.615 110.006 101.883 109.62 102.04C109.234 102.197 108.811 102.237 108.403 102.153C107.995 102.069 107.621 101.867 107.328 101.571C107.036 101.274 106.837 100.898 106.759 100.489C106.68 100.08 106.724 99.6574 106.885 99.2737C107.047 98.8899 107.319 98.5627 107.666 98.3334C108.014 98.1041 108.422 97.983 108.838 97.9854C109.114 97.987 109.388 98.043 109.643 98.1503C109.897 98.2576 110.129 98.414 110.323 98.6107C110.517 98.8073 110.671 99.0403 110.775 99.2963C110.88 99.5524 110.933 99.8264 110.931 100.103Z" fill="#42C3FC"/>
<g opacity="0.2">
<path opacity="0.2" d="M93.2605 114.041L102.677 101.588L108.422 109.442L112.371 105.285L120.021 114.187L93.2605 114.041Z" fill="black"/>
</g>
<g opacity="0.2">
<path opacity="0.2" d="M110.931 100.103C110.929 100.519 110.803 100.926 110.569 101.27C110.336 101.615 110.006 101.883 109.62 102.04C109.234 102.197 108.811 102.237 108.403 102.153C107.995 102.069 107.621 101.867 107.328 101.571C107.036 101.274 106.837 100.898 106.759 100.489C106.68 100.08 106.724 99.6574 106.885 99.2737C107.047 98.8899 107.319 98.5627 107.666 98.3334C108.014 98.1041 108.422 97.983 108.838 97.9854C109.114 97.987 109.388 98.043 109.643 98.1503C109.897 98.2576 110.129 98.414 110.323 98.6107C110.517 98.8073 110.671 99.0403 110.775 99.2963C110.88 99.5524 110.933 99.8264 110.931 100.103Z" fill="black"/>
</g>
<path d="M124.052 118.01C124.052 118.067 116.28 118.116 106.696 118.116C97.112 118.116 89.3396 118.067 89.3396 118.01C89.3396 117.953 97.1038 117.912 106.696 117.912C116.288 117.912 124.052 117.953 124.052 118.01Z" fill="#263238"/>
<path d="M124.052 120.271C124.052 120.328 116.28 120.377 106.696 120.377C97.112 120.377 89.3396 120.328 89.3396 120.271C89.3396 120.214 97.112 120.165 106.696 120.165C116.28 120.165 124.052 120.209 124.052 120.271Z" fill="#263238"/>
<path d="M112.355 131.099H101.037C100.25 131.099 99.4958 130.786 98.9396 130.23C98.3833 129.674 98.0708 128.919 98.0708 128.133C98.0708 127.346 98.3833 126.592 98.9396 126.035C99.4958 125.479 100.25 125.167 101.037 125.167H112.355C112.745 125.166 113.13 125.242 113.491 125.391C113.851 125.54 114.178 125.759 114.453 126.034C114.729 126.31 114.947 126.637 115.096 126.997C115.245 127.357 115.322 127.743 115.321 128.133C115.322 128.522 115.245 128.908 115.096 129.268C114.947 129.629 114.729 129.956 114.453 130.231C114.178 130.507 113.851 130.725 113.491 130.874C113.13 131.023 112.745 131.099 112.355 131.099Z" fill="#42C3FC"/>
<path d="M130.535 134.048C130.535 134.106 119.838 134.155 106.643 134.155C93.4482 134.155 82.7463 134.106 82.7463 134.048C82.7463 133.991 93.4441 133.942 106.643 133.942C119.842 133.942 130.535 133.987 130.535 134.048Z" fill="#E0E0E0"/>
<path d="M116.545 89.0299C116.545 89.0911 112.135 89.136 106.696 89.136C101.257 89.136 96.8511 89.0911 96.8511 89.0299C96.8511 88.9687 101.257 88.9238 106.696 88.9238C112.135 88.9238 116.545 88.9728 116.545 89.0299Z" fill="#42C3FC"/>
<path d="M118.516 128.133C118.516 128.26 118.478 128.385 118.407 128.491C118.336 128.597 118.236 128.68 118.118 128.729C118 128.777 117.87 128.79 117.745 128.765C117.62 128.74 117.506 128.679 117.415 128.589C117.325 128.499 117.264 128.384 117.239 128.259C117.214 128.134 117.227 128.004 117.276 127.886C117.324 127.768 117.407 127.668 117.513 127.597C117.619 127.526 117.744 127.488 117.871 127.488C118.042 127.488 118.206 127.556 118.327 127.677C118.448 127.798 118.516 127.962 118.516 128.133Z" fill="#42C3FC"/>
<path d="M144.624 85.6024C144.572 85.6086 144.52 85.6086 144.469 85.6024H144.004H142.212L135.538 85.6799L135.611 85.6106C135.611 91.8611 135.611 100.984 135.611 111.123C135.611 117.341 135.574 123.179 135.562 128.14V128.234H135.456L122.714 128.194L119.14 128.169H118.198H117.957H117.875H117.957H118.198H119.14L122.714 128.145L135.456 128.104L135.366 128.198C135.366 123.232 135.366 117.398 135.387 111.18C135.419 101.041 135.448 91.9182 135.468 85.6677V85.5942H135.538L142.212 85.6269H144.004H144.469L144.624 85.6024Z" fill="#42C3FC"/>
<path d="M157.463 112.474C159.172 112.474 160.556 111.089 160.556 109.381C160.556 107.673 159.172 106.289 157.463 106.289C155.755 106.289 154.371 107.673 154.371 109.381C154.371 111.089 155.755 112.474 157.463 112.474Z" fill="white"/>
<path d="M156.701 109.381V107.989L157.908 108.683L159.116 109.381L157.908 110.078L156.701 110.772V109.381Z" fill="#42C3FC"/>
<path d="M146.585 66.3613L146.496 82.2363L167.618 82.3543L167.707 66.4793L146.585 66.3613Z" fill="#455A64"/>
<path d="M146.223 82.2328L153.657 72.4082L158.194 78.6057L161.311 75.3213L167.349 82.3512L146.223 82.2328Z" fill="#263238"/>
<path d="M160.177 71.2329C160.175 71.5621 160.076 71.8835 159.892 72.1563C159.707 72.4292 159.446 72.6412 159.142 72.7657C158.837 72.8902 158.502 72.9215 158.179 72.8557C157.857 72.7899 157.561 72.6299 157.329 72.396C157.098 72.162 156.94 71.8647 156.878 71.5415C156.815 71.2182 156.85 70.8837 156.977 70.5801C157.105 70.2766 157.319 70.0177 157.594 69.8361C157.869 69.6545 158.191 69.5585 158.52 69.5601C158.961 69.5633 159.383 69.7411 159.694 70.0546C160.004 70.3681 160.178 70.7917 160.177 71.2329Z" fill="#263238"/>
<path d="M165.313 85.3823H148.961V86.4758H165.313V85.3823Z" fill="#455A64"/>
<path d="M168.863 89.6173C168.863 89.6785 163.612 89.7275 157.141 89.7275C150.67 89.7275 145.415 89.6785 145.415 89.6173C145.415 89.5561 150.662 89.5112 157.141 89.5112C163.62 89.5112 168.863 89.5602 168.863 89.6173Z" fill="#263238"/>
<path d="M168.863 92.6163C168.863 92.6775 163.612 92.7265 157.141 92.7265C150.67 92.7265 145.415 92.6775 145.415 92.6163C145.415 92.5551 150.662 92.5103 157.141 92.5103C163.62 92.5103 168.863 92.5551 168.863 92.6163Z" fill="#263238"/>
<path d="M168.863 95.6071C168.863 95.6683 163.612 95.7131 157.141 95.7131C150.67 95.7131 145.415 95.6683 145.415 95.6071C145.415 95.5459 150.662 95.501 157.141 95.501C163.62 95.501 168.863 95.5499 168.863 95.6071Z" fill="#263238"/>
<path d="M168.863 98.6012C168.863 98.6624 163.612 98.7073 157.141 98.7073C150.67 98.7073 145.415 98.6624 145.415 98.6012C145.415 98.54 150.662 98.4951 157.141 98.4951C163.62 98.4951 168.863 98.5441 168.863 98.6012Z" fill="#263238"/>
<path d="M145.268 85.6027C145.268 85.7302 145.23 85.8548 145.16 85.9608C145.089 86.0668 144.988 86.1494 144.87 86.1982C144.753 86.247 144.623 86.2598 144.498 86.2349C144.373 86.21 144.258 86.1486 144.168 86.0585C144.078 85.9683 144.016 85.8535 143.991 85.7284C143.967 85.6034 143.979 85.4738 144.028 85.356C144.077 85.2382 144.159 85.1375 144.265 85.0667C144.372 84.9958 144.496 84.958 144.624 84.958C144.795 84.958 144.959 85.0259 145.079 85.1468C145.2 85.2677 145.268 85.4317 145.268 85.6027Z" fill="#42C3FC"/>
<path d="M158.088 118.818C158.103 118.944 158.08 119.073 158.021 119.186C157.962 119.299 157.87 119.391 157.757 119.451C157.645 119.511 157.516 119.534 157.39 119.519C157.263 119.504 157.144 119.451 157.048 119.367C156.953 119.282 156.885 119.171 156.854 119.047C156.823 118.923 156.831 118.793 156.876 118.674C156.921 118.554 157.002 118.451 157.106 118.379C157.211 118.306 157.336 118.267 157.463 118.267C157.619 118.258 157.772 118.311 157.889 118.414C158.006 118.517 158.077 118.662 158.088 118.818Z" fill="#42C3FC"/>
<path d="M158.088 133.367C158.103 133.494 158.079 133.622 158.019 133.734C157.96 133.847 157.867 133.939 157.754 133.998C157.641 134.057 157.513 134.08 157.387 134.064C157.26 134.049 157.142 133.995 157.046 133.91C156.951 133.826 156.884 133.714 156.854 133.59C156.823 133.467 156.831 133.337 156.876 133.217C156.922 133.098 157.002 132.996 157.107 132.923C157.212 132.851 157.336 132.812 157.464 132.812C157.62 132.804 157.772 132.858 157.889 132.962C158.006 133.066 158.077 133.211 158.088 133.367Z" fill="#42C3FC"/>
<path d="M157.463 133.367C157.406 133.367 157.357 130.103 157.357 126.093C157.357 122.082 157.406 118.818 157.463 118.818C157.52 118.818 157.569 122.082 157.569 126.093C157.569 130.103 157.52 133.367 157.463 133.367Z" fill="#42C3FC"/>
<path d="M106.639 83.9216C106.639 83.9216 106.639 83.8808 106.639 83.8115C106.639 83.7421 106.639 83.6197 106.639 83.4851C106.639 83.1872 106.639 82.767 106.639 82.2284C106.639 81.1187 106.618 79.5275 106.606 77.5364C106.606 73.5258 106.606 67.9199 106.569 61.4694L106.671 61.5755H99.5232L78.6092 61.5469L72.2729 61.5143L70.5512 61.4939H70.1024C70.0522 61.4994 70.0016 61.4994 69.9514 61.4939H70.1024H70.5512L72.2729 61.4735L78.6092 61.4408L99.5232 61.4082H106.745V61.5102C106.745 67.9607 106.716 73.5666 106.708 77.5772C106.708 79.5683 106.684 81.1595 106.675 82.2692C106.675 82.8078 106.675 83.228 106.675 83.5259C106.675 83.6605 106.675 83.7666 106.675 83.8523C106.665 83.8765 106.653 83.8998 106.639 83.9216Z" fill="#42C3FC"/>
<path d="M107.304 83.922C107.305 84.0505 107.267 84.1763 107.197 84.2835C107.126 84.3907 107.025 84.4745 106.906 84.5242C106.788 84.574 106.657 84.5874 106.531 84.5628C106.405 84.5382 106.289 84.4768 106.198 84.3862C106.107 84.2957 106.045 84.1801 106.019 84.0541C105.994 83.9282 106.007 83.7975 106.056 83.6788C106.105 83.56 106.188 83.4584 106.294 83.387C106.401 83.3155 106.527 83.2773 106.655 83.2773C106.827 83.2773 106.991 83.3451 107.113 83.4659C107.234 83.5867 107.303 83.7506 107.304 83.922Z" fill="#42C3FC"/>
<path d="M70.584 61.4693C70.584 61.5968 70.5462 61.7215 70.4753 61.8275C70.4045 61.9335 70.3038 62.0161 70.186 62.0649C70.0682 62.1137 69.9386 62.1265 69.8136 62.1016C69.6885 62.0767 69.5736 62.0153 69.4835 61.9252C69.3933 61.835 69.3319 61.7202 69.3071 61.5951C69.2822 61.4701 69.295 61.3404 69.3437 61.2227C69.3925 61.1049 69.4752 61.0042 69.5812 60.9333C69.6872 60.8625 69.8118 60.8247 69.9393 60.8247C70.11 60.8258 70.2733 60.894 70.394 61.0147C70.5146 61.1354 70.5829 61.2987 70.584 61.4693Z" fill="#42C3FC"/>
<path d="M57.9646 62.5379L60.0046 65.1858C60.0046 65.1858 60.9919 66.7077 60.2249 67.0341C59.5476 67.3197 59.107 66.4669 59.107 66.4669C59.107 66.4669 58.6745 64.5249 57.834 64.9981C57.7157 65.0675 57.9197 66.4465 58.0339 67.1442C58.0736 67.4006 58.2111 67.6316 58.4174 67.7889L60.6533 69.5025C61.0686 69.8203 61.5619 70.0204 62.0813 70.0818L62.8769 70.1757L63.5338 71.4813L67.1486 70.0084L64.2926 66.2874L62.7463 63.921C62.632 63.8209 62.4948 63.7503 62.3469 63.7155C62.1989 63.6806 62.0447 63.6826 61.8977 63.7211L61.5427 63.8109L61.2734 63.5457C61.1968 63.4666 61.1001 63.41 60.9937 63.382C60.8873 63.3539 60.7752 63.3555 60.6696 63.3865L60.4493 63.4477L59.821 62.8317C59.621 62.6317 58.242 61.3465 57.985 61.4608C57.9073 61.5267 57.8445 61.6084 57.8008 61.7005C57.7571 61.7925 57.7335 61.8929 57.7316 61.9947C57.7296 62.0966 57.7494 62.1978 57.7896 62.2914C57.8298 62.3851 57.8894 62.4691 57.9646 62.5379Z" fill="#FFBE9D"/>
<path d="M62.0648 65.0514C62.0019 64.9478 61.9324 64.8484 61.8568 64.7536C61.6564 64.5389 61.3913 64.3956 61.102 64.3456C60.8764 64.1485 60.675 63.9252 60.5022 63.6805C60.4256 63.5841 60.3638 63.4769 60.3186 63.3623C60.3978 63.4558 60.4714 63.5539 60.5389 63.6561C60.7201 63.8826 60.9193 64.0941 61.1346 64.2885C61.208 64.3129 61.2896 64.3293 61.3712 64.3578C61.5757 64.4342 61.756 64.5638 61.8935 64.7332C61.9489 64.8034 61.9955 64.8801 62.0322 64.9617C62.0476 64.9897 62.0586 65.02 62.0648 65.0514Z" fill="#EB996E"/>
<path d="M62.4812 64.517C62.4505 64.4616 62.4089 64.413 62.3588 64.3742C62.3015 64.3304 62.2346 64.3009 62.1637 64.2881C62.0927 64.2753 62.0197 64.2797 61.9508 64.3008H61.9304L61.8855 64.2559C61.7067 64.0847 61.5454 63.8961 61.4041 63.6929C61.5939 63.8503 61.77 64.0236 61.9304 64.211L61.9753 64.2559H61.9426C62.0237 64.2293 62.1106 64.225 62.1939 64.2437C62.2772 64.2624 62.3539 64.3033 62.4159 64.362C62.4812 64.4273 62.4934 64.517 62.4812 64.517Z" fill="#EB996E"/>
<path d="M58.3439 177.925L57.0669 189.626L63.3664 190.442L64.672 178.724L58.3439 177.925Z" fill="#42C3FC"/>
<path d="M60.2248 189.589C60.2779 189.589 60.5716 187.035 60.8776 183.877C61.1836 180.719 61.3876 178.145 61.3346 178.141C61.2815 178.137 60.9919 180.695 60.6859 183.853C60.3799 187.011 60.1718 189.585 60.2248 189.589Z" fill="#263238"/>
<path d="M57.1567 188.822L63.4562 189.618L63.3664 190.442L57.0669 189.626L57.1567 188.822Z" fill="#263238"/>
<path d="M63.7826 186.696C63.7826 186.696 63.7499 186.594 63.6479 186.423C63.5018 186.189 63.3352 185.967 63.1502 185.762C62.8723 185.455 62.5523 185.188 62.1995 184.971C61.585 184.587 60.8637 184.411 60.1417 184.469C59.4197 184.526 58.7352 184.813 58.1889 185.289C57.9814 185.475 57.8015 185.689 57.6544 185.925C57.5524 186.093 57.5116 186.195 57.5238 186.203C57.7515 185.91 58.0041 185.637 58.2786 185.387C58.9686 184.835 59.8476 184.576 60.7266 184.665C61.6079 184.786 62.4213 185.205 63.0318 185.852C63.5337 186.346 63.754 186.717 63.7826 186.696Z" fill="#263238"/>
<g opacity="0.3">
<path opacity="0.3" d="M64.3005 182.058L64.1577 183.347L57.8459 182.502L57.952 181.531L64.3005 182.058Z" fill="black"/>
</g>
<path d="M49.2781 178.7L49.7758 190.462L56.1243 190.319L55.651 178.532L49.2781 178.7Z" fill="#42C3FC"/>
<path d="M52.8932 189.948C52.9462 189.948 52.8483 187.37 52.6729 184.196C52.4974 181.021 52.3138 178.451 52.2649 178.455C52.2159 178.459 52.3097 181.034 52.4852 184.208C52.6606 187.382 52.8402 189.948 52.8932 189.948Z" fill="#263238"/>
<path d="M49.7434 189.651L56.0919 189.487L56.1245 190.32L49.776 190.462L49.7434 189.651Z" fill="#263238"/>
<path d="M55.9733 186.554C55.9309 186.46 55.8714 186.376 55.7978 186.305C55.6211 186.092 55.4229 185.898 55.2062 185.725C54.8863 185.463 54.5305 185.247 54.1495 185.085C53.4845 184.798 52.7448 184.732 52.0395 184.897C51.3343 185.063 50.7009 185.45 50.2327 186.003C50.0544 186.217 49.9087 186.456 49.8002 186.713C49.752 186.804 49.7215 186.904 49.7104 187.007C49.8932 186.684 50.1019 186.377 50.3347 186.089C50.9382 185.434 51.7753 185.044 52.6644 185.003C53.5494 184.989 54.4127 185.277 55.1124 185.819C55.6754 186.239 55.9488 186.574 55.9733 186.554Z" fill="#263238"/>
<g opacity="0.3">
<path opacity="0.3" d="M55.7858 181.89L55.8389 183.183L49.47 183.298L49.4292 182.323L55.7858 181.89Z" fill="black"/>
</g>
<path d="M56.3894 152.837L56.1405 120.646H43.6312C43.6312 120.646 42.6438 128.634 43.113 131.857C43.5822 135.081 46.9197 152.882 46.9197 152.882C46.9197 152.882 48.0009 176.521 48.5517 182.592L56.3608 181.89L56.3894 152.837Z" fill="#263238"/>
<path d="M64.0561 113.856C66.576 116.23 68.2484 119.365 68.8175 122.779C69.6865 128.385 67.059 150.805 67.059 150.805L64.8435 181.89H57.1201L57.369 151.96L56.0348 129.671L55.1658 122.62L64.0561 113.856Z" fill="#263238"/>
<path d="M57.1934 150.352C57.1715 150.291 57.1605 150.226 57.1608 150.16C57.1608 150.01 57.1281 149.826 57.1077 149.606C57.071 149.087 57.022 148.382 56.9608 147.566C56.8466 145.836 56.7079 143.445 56.5855 140.805C56.4631 138.165 56.3815 135.77 56.3529 134.036C56.3529 133.167 56.3529 132.466 56.3529 131.996V131.441C56.3508 131.376 56.3577 131.31 56.3733 131.246C56.392 131.309 56.4003 131.375 56.3978 131.441C56.3978 131.592 56.3978 131.776 56.4223 131.996C56.4223 132.514 56.4672 133.22 56.4957 134.036C56.5732 135.799 56.6752 138.173 56.7895 140.797C56.9037 143.42 57.022 145.799 57.1036 147.562C57.1363 148.402 57.1648 149.096 57.1852 149.602C57.1852 149.822 57.1852 150.01 57.1852 150.156C57.1996 150.221 57.2024 150.287 57.1934 150.352Z" fill="#455A64"/>
<path d="M66.6345 152.184C66.2566 152.183 65.8792 152.158 65.5044 152.11C63.6936 151.984 61.8744 152.155 60.1188 152.616C59.7593 152.733 59.3927 152.825 59.0212 152.894C59.3558 152.716 59.7106 152.579 60.078 152.486C61.8368 151.938 63.691 151.766 65.5207 151.98C65.8992 152 66.2736 152.068 66.6345 152.184Z" fill="#455A64"/>
<path d="M54.264 152.469C54.264 152.506 53.8887 152.392 53.2889 152.302C52.5103 152.18 51.7174 152.18 50.9388 152.302C50.162 152.436 49.4106 152.689 48.7112 153.053C48.1726 153.334 47.8666 153.563 47.8462 153.534C48.072 153.285 48.3399 153.078 48.6377 152.922C49.3357 152.513 50.1035 152.236 50.9021 152.106C51.7027 151.968 52.522 151.982 53.3175 152.147C53.6489 152.2 53.9689 152.309 54.264 152.469Z" fill="#455A64"/>
<path d="M54.3415 152.878C53.6242 153.278 52.8494 153.566 52.0444 153.73C51.2502 153.965 50.4244 154.075 49.5964 154.057C49.5964 153.995 50.6776 153.853 51.9792 153.526C53.2807 153.2 54.3211 152.816 54.3415 152.878Z" fill="#455A64"/>
<path d="M56.7855 130.919C56.7048 131.038 56.6088 131.147 56.4999 131.241C56.4061 131.343 56.2796 131.457 56.1327 131.588C55.9859 131.719 55.8145 131.874 55.6146 132.025C55.1553 132.397 54.6638 132.727 54.1458 133.012C53.5052 133.377 52.8092 133.635 52.0854 133.775L51.71 133.865C50.3269 134.161 48.896 134.154 47.5158 133.844C47.099 133.753 46.6898 133.631 46.2918 133.477C46.1475 133.429 46.0103 133.362 45.8838 133.277C45.8838 133.24 46.5121 133.497 47.5566 133.685C48.9193 133.945 50.3201 133.931 51.6774 133.644L52.0446 133.555C52.743 133.416 53.4159 133.171 54.0397 132.828C54.5543 132.557 55.0468 132.246 55.5126 131.898C56.3245 131.319 56.7611 130.89 56.7855 130.919Z" fill="#455A64"/>
<path d="M59.4209 122.979C59.4209 122.979 59.4535 123.11 59.5025 123.334C59.5515 123.558 59.6127 123.905 59.6902 124.301C59.8452 125.154 60.0655 126.341 60.3267 127.732L60.2695 127.663L63.6478 128.928L63.5295 128.96L65.2227 126.765L65.6307 126.235L65.6103 126.312C65.4226 124.652 65.2431 123.089 65.088 121.718L65.2308 121.788C64.4967 122.143 63.7167 122.394 62.9134 122.534C62.2075 122.677 61.5833 122.767 61.0692 122.832C60.5551 122.897 60.1471 122.938 59.8697 122.959C59.7272 122.972 59.5838 122.972 59.4413 122.959C59.5753 122.925 59.7117 122.902 59.8493 122.889L61.0407 122.714C61.5507 122.632 62.1708 122.526 62.8685 122.371C63.6503 122.219 64.4089 121.965 65.1247 121.616L65.2471 121.547V121.686C65.4103 123.052 65.5939 124.615 65.7939 126.276V126.32L65.7653 126.353L65.3573 126.884L63.66 129.074L63.6151 129.136L63.5417 129.107C62.3177 128.634 61.1916 128.197 60.1961 127.806H60.1471V127.757C59.9227 126.32 59.7391 125.125 59.5963 124.256C59.5351 123.848 59.4903 123.546 59.4535 123.301C59.4325 123.195 59.4215 123.087 59.4209 122.979Z" fill="#455A64"/>
<path d="M52.5463 124.097C52.5547 124.206 52.5547 124.315 52.5463 124.424C52.5463 124.673 52.5463 124.991 52.5096 125.387C52.4688 126.268 52.4117 127.476 52.3423 128.928V128.977L52.2974 129.002L49.1109 130.662L49.0416 130.699L48.9885 130.642L47.0628 128.647L46.5977 128.169L46.5691 128.137V128.112C46.5691 126.435 46.5977 124.848 46.6058 123.485V123.347L46.7364 123.4C47.4841 123.671 48.2649 123.842 49.0579 123.906C49.7719 123.983 50.3961 124.02 50.9143 124.044L52.1138 124.089C52.2502 124.088 52.3866 124.096 52.5218 124.114C52.3871 124.137 52.2505 124.148 52.1138 124.146C51.8364 124.146 51.4284 124.146 50.9102 124.146C50.3921 124.146 49.7597 124.114 49.0416 124.048C48.2286 123.998 47.4266 123.835 46.6589 123.563L46.7894 123.477C46.7894 124.856 46.7894 126.431 46.7894 128.104L46.7609 128.031L47.2219 128.508L49.1477 130.507L49.0253 130.487L52.224 128.855L52.175 128.928C52.2811 127.5 52.3709 126.313 52.4321 125.448C52.4647 125.04 52.4933 124.718 52.5137 124.465C52.5162 124.342 52.5271 124.219 52.5463 124.097Z" fill="#455A64"/>
<path d="M56.1815 129.585C56.0604 129.297 55.9794 128.993 55.9407 128.683C55.7972 127.945 55.7031 127.198 55.6592 126.447C55.6107 125.697 55.6107 124.945 55.6592 124.195C55.6622 123.882 55.7075 123.57 55.7939 123.269C55.8591 123.269 55.749 124.693 55.8551 126.435C55.9611 128.177 56.2427 129.569 56.1815 129.585Z" fill="#455A64"/>
<path d="M66.6347 131.519C66.5389 131.583 66.4345 131.634 66.3246 131.67C66.0359 131.787 65.7402 131.887 65.4392 131.967C64.4423 132.241 63.4129 132.378 62.3792 132.375C61.3456 132.376 60.3166 132.239 59.3192 131.967C59.0186 131.884 58.723 131.783 58.4339 131.665C58.3229 131.632 58.2182 131.581 58.1238 131.514C58.1238 131.478 58.593 131.641 59.3478 131.82C61.3365 132.286 63.4056 132.286 65.3943 131.82C66.1614 131.645 66.6224 131.482 66.6347 131.519Z" fill="#455A64"/>
<path d="M47.1525 80.543C47.1525 80.543 41.5221 83.6193 39.8738 84.3414L42.1219 95.1004L45.6633 108.005L43.2887 121.616C43.2887 121.616 51.6364 123.093 55.7287 122.563C61.3305 121.837 68.4705 119.776 68.4705 119.776L62.9095 103.183L64.3334 91.7263L61.9466 82.0689L56.1285 81.3794L47.1525 80.543Z" fill="#42C3FC"/>
<g opacity="0.3">
<path opacity="0.3" d="M44.5085 91.3021C44.888 92.0569 45.757 92.42 46.573 92.6444C47.389 92.8688 48.2621 93.0524 48.9027 93.5869C50.0369 94.5742 50.0043 96.4429 51.0529 97.5078C51.393 97.8524 51.8226 98.0953 52.2933 98.2092C52.7639 98.3231 53.257 98.3034 53.7171 98.1524C54.2965 97.9525 54.8065 97.5486 55.4144 97.4914C55.8224 97.4506 56.2549 97.5853 56.6792 97.5526C57.8665 97.471 58.5641 96.2103 59.0374 95.1046C59.5107 93.999 60.0329 92.775 59.9105 91.5469C59.731 89.7068 58.201 88.2217 57.9644 86.3898C57.8787 85.7084 57.9644 85.0189 57.9032 84.3498C57.842 83.6806 57.5278 82.9462 56.9077 82.6606" fill="black"/>
</g>
<path d="M66.9405 79.2335L62.5872 70.5145L66.0837 68.2705C66.0837 68.2705 70.4616 72.783 71.2898 73.6602C71.2898 73.6602 76.3245 78.3032 75.0108 80.5432C74.2239 81.8086 73.25 82.9476 72.1221 83.9214L66.9405 79.2335Z" fill="#42C3FC"/>
<path d="M39.8737 84.3418C39.7962 84.5703 28.156 100.662 27.5317 102.379C27.4991 102.472 27.4665 102.57 27.4338 102.673C27.1053 103.775 27.0672 104.943 27.3231 106.064C27.579 107.185 28.1203 108.221 28.8945 109.071L38.4947 119.777L42.6889 114.925L36.0141 103.163L42.3911 96.1248L39.8737 84.3418Z" fill="#42C3FC"/>
<path d="M47.1688 115.643C46.7608 115.668 46.0713 116.206 45.7571 116.459C45.6539 116.544 45.5228 116.586 45.3899 116.578C45.2817 116.57 45.1783 116.53 45.0937 116.462C45.0091 116.394 44.9473 116.302 44.9166 116.198L44.5086 114.799C44.3014 114.816 44.1014 114.883 43.9253 114.994C43.7493 115.105 43.6023 115.256 43.4968 115.435L43.0358 116.227L42.2198 115.46L38.4866 119.723C38.4866 119.723 39.9554 121.311 40.8897 121.335C41.824 121.359 46.1937 117.757 46.1937 117.757L47.3565 116.737C47.3565 116.737 48.3112 115.574 47.1688 115.643Z" fill="#FFBE9D"/>
<path d="M59.2659 81.7505L62.5707 81.8974L67.2749 78.2988L73.9335 81.9708C73.9335 81.9708 70.9347 85.1777 68.1113 88.4621C65.8306 91.1182 64.2067 92.7787 64.2067 92.7787L59.2659 81.7505Z" fill="#42C3FC"/>
<path d="M62.3666 110.099C62.2219 110.278 62.0637 110.446 61.8933 110.6C61.5832 110.915 61.1099 111.351 60.5102 111.873C57.3692 114.585 53.7794 116.728 49.9022 118.206C49.1596 118.483 48.5517 118.691 48.1274 118.818C47.9098 118.895 47.6859 118.954 47.4583 118.993C47.6654 118.893 47.8795 118.809 48.0988 118.74C48.5068 118.589 49.1147 118.361 49.8451 118.063C51.7532 117.288 53.5999 116.37 55.3694 115.317C57.1355 114.259 58.8198 113.069 60.4082 111.759C61.0161 111.253 61.5016 110.837 61.828 110.535C61.9939 110.374 62.1742 110.228 62.3666 110.099Z" fill="#263238"/>
<path d="M50.8082 108.197C50.8571 108.226 49.6821 110.131 48.1888 112.444C46.6955 114.758 45.4389 116.606 45.3899 116.578C45.3409 116.549 46.5119 114.644 48.0093 112.326C49.5066 110.009 50.7592 108.165 50.8082 108.197Z" fill="#263238"/>
<path d="M63.8069 91.8736C63.7783 91.8736 63.8069 91.4003 63.7538 90.6496C63.7008 89.8988 63.6641 88.838 63.558 87.6793C63.4519 86.5206 63.3132 85.4761 63.1704 84.7295C63.0276 83.9828 62.8766 83.5381 62.9093 83.5259C63.1119 83.8897 63.2499 84.2859 63.3173 84.6968C63.5354 85.6728 63.6867 86.6624 63.7702 87.6589C63.8762 88.8258 63.913 89.8825 63.9048 90.6496C63.9228 91.06 63.8899 91.4712 63.8069 91.8736Z" fill="#263238"/>
<path d="M71.808 78.6338C71.5453 78.5472 71.289 78.4422 71.041 78.3197C70.4325 78.0709 69.7845 77.9327 69.1275 77.9117C68.4734 77.8796 67.8234 78.0308 67.2507 78.3482C66.8223 78.6053 66.6101 78.8542 66.5815 78.8297C66.7206 78.5789 66.9232 78.3693 67.1691 78.2218C67.7519 77.8453 68.4387 77.6625 69.1315 77.6995C69.816 77.7224 70.4878 77.8907 71.1022 78.1932C71.3632 78.2942 71.6027 78.4437 71.808 78.6338Z" fill="#263238"/>
<path d="M69.6987 76.7734C69.6987 76.855 68.7725 76.7489 67.8709 77.3323C66.9692 77.9158 66.6673 78.8134 66.5979 78.7726C66.6195 78.5737 66.6865 78.3825 66.7937 78.2136C67.0216 77.7879 67.351 77.425 67.7525 77.1569C68.1591 76.8938 68.6276 76.7419 69.1112 76.7163C69.3087 76.6871 69.5105 76.7067 69.6987 76.7734Z" fill="#263238"/>
<g opacity="0.3">
<path opacity="0.3" d="M51.1752 106.239C51.1099 105.859 50.8651 105.447 50.4775 105.423C50.0899 105.398 49.7635 105.876 49.5922 106.284L45.5122 115.941L45.3694 116.569C47.0014 113.97 48.6334 111.473 50.2654 108.874C50.7999 108.079 51.3262 107.177 51.1752 106.239Z" fill="black"/>
</g>
<g opacity="0.3">
<path opacity="0.3" d="M66.5979 78.6499C67.1038 77.9115 67.5363 77.071 68.4135 76.8874C69.3003 76.705 70.2234 76.87 70.9921 77.3484C71.1593 77.4504 71.3389 77.6259 71.2777 77.8135C71.2476 77.8809 71.1999 77.9388 71.1396 77.9812C71.0792 78.0236 71.0085 78.0488 70.9349 78.0543C70.1638 78.246 69.3641 78.0216 68.5767 77.9196C68.2136 77.8759 67.8454 77.9282 67.5089 78.0714C67.1724 78.2146 66.8793 78.4436 66.6591 78.7356" fill="black"/>
</g>
<path d="M41.7056 94.4069C41.5076 94.0516 41.3463 93.677 41.2242 93.289C40.5503 91.444 40.0917 89.5273 39.8574 87.577C39.7912 87.1726 39.7666 86.7625 39.784 86.353C39.889 86.7452 39.9641 87.1449 40.0084 87.5485C40.1308 88.2869 40.3184 89.3069 40.5836 90.4045C40.8488 91.502 41.1426 92.5057 41.367 93.2237C41.5118 93.6083 41.625 94.004 41.7056 94.4069Z" fill="#263238"/>
<path d="M47.8053 83.7986L56.0673 83.921L55.2921 76.4546C55.2921 76.4546 55.9041 76.7606 56.0224 73.7006C56.1407 70.6406 56.4304 65.4509 56.4304 65.4509C54.7097 64.6534 52.8072 64.3305 50.9198 64.5156C49.0324 64.7007 47.2289 65.387 45.6959 66.5035L45.2349 66.8421L47.8053 83.7986Z" fill="#FFBE9D"/>
<path d="M46.1038 70.6288C46.0508 70.6043 44.019 69.9474 44.0271 72.0405C44.0353 74.1335 46.1365 73.6929 46.1406 73.6317C46.1446 73.5705 46.1038 70.6288 46.1038 70.6288Z" fill="#FFBE9D"/>
<path d="M55.9366 70.4574C55.9856 70.437 57.8664 69.9841 57.74 72.0894C57.6135 74.1947 55.5449 73.6194 55.5449 73.5623C55.5449 73.5052 55.9366 70.4574 55.9366 70.4574Z" fill="#FFBE9D"/>
<path d="M51.0284 61.7874C51.0284 61.7874 48.1724 61.6813 47.1565 62.1954C45.4633 63.0603 44.1496 65.4594 44.1251 68.4541C44.1006 71.4488 45.4511 75.4758 47.638 77.475C49.8248 79.4742 51.5548 79.8373 51.5548 79.8373C51.5548 79.8373 56.1856 77.3118 56.7037 73.6153C57.2219 69.9188 57.5728 66.361 56.1285 64.5699C54.6841 62.7788 52.077 61.8323 51.0284 61.7874Z" fill="#263238"/>
<path d="M44.5085 70.3839C44.3412 68.4908 44.1821 66.5324 44.7777 64.729C45.3734 62.9257 46.9238 61.2896 48.8251 61.2162C49.4323 61.259 50.0417 61.259 50.6489 61.2162C51.1582 61.0853 51.653 60.9035 52.1258 60.6735C52.9585 60.3075 53.8942 60.2496 54.7656 60.5103C55.196 60.6472 55.5765 60.9079 55.8595 61.2599C56.1425 61.6118 56.3155 62.0394 56.3568 62.4891C56.3121 62.855 56.3273 63.2257 56.4017 63.5867C56.5949 63.914 56.837 64.2098 57.1198 64.4638C57.469 64.9561 57.6151 65.564 57.5278 66.1611C57.4408 66.7544 57.279 67.3343 57.0463 67.887L55.4878 72.0649" fill="#263238"/>
<path d="M49.2822 71.4446C49.8254 71.178 50.4249 71.0464 51.0297 71.061C51.6346 71.0755 52.2271 71.2357 52.7568 71.528C53.2866 71.8203 53.738 72.2361 54.0728 72.7401C54.4077 73.244 54.616 73.8214 54.6801 74.423C54.8147 75.647 54.8147 75.8592 55.6144 76.8139C56.1081 77.4055 56.5854 77.3688 57.1648 77.8706C57.5341 78.2069 57.7848 78.6535 57.8796 79.1439C57.9745 79.6343 57.9084 80.1422 57.6911 80.592C59.1885 80.5185 60.592 80.4206 61.102 81.816C58.8661 81.3549 56.614 83.448 54.3904 82.9788C53.6718 82.8863 52.9831 82.634 52.3749 82.2403C51.7139 81.7425 51.3549 80.951 51.0203 80.2003L49.221 76.1203C48.813 75.2023 48.405 74.2476 48.405 73.2439C48.405 72.2402 48.9966 71.1753 49.9677 70.9224" fill="#263238"/>
<path d="M48.3805 72.8118C48.178 72.1902 48.1736 71.521 48.368 70.8968C48.5625 70.2725 48.9461 69.7242 49.4658 69.3275C50.0188 68.9721 50.6675 68.7952 51.3243 68.8208C51.9811 68.8463 52.6142 69.0731 53.1378 69.4703C53.5447 69.7657 53.872 70.1573 54.0906 70.6101C54.3092 71.0629 54.4122 71.5629 54.3904 72.0652C54.3553 72.5412 54.1501 72.9887 53.8122 73.3258C53.4743 73.663 53.0264 73.8672 52.5503 73.9012" fill="#42C3FC"/>
<path d="M53.2848 70.7835C52.6543 70.292 51.8683 70.0435 51.0699 70.0832C50.2716 70.1229 49.5141 70.4482 48.9355 70.9997C47.8706 72.0687 47.7605 74.2637 48.0869 75.7447C48.4337 77.3319 49.4047 78.87 49.0824 80.4612C48.8865 81.4323 48.2215 82.4155 48.605 83.3172C48.9192 84.0557 49.7923 84.378 50.2656 85.0227C50.9633 85.9733 50.6165 87.3075 50.1513 88.3887C49.6862 89.4699 49.1069 90.6367 49.4333 91.771C49.6862 92.6482 50.4247 93.2806 51.0163 93.9783C51.6079 94.6759 52.0812 95.6551 51.6854 96.4793C52.0647 96.7619 52.521 96.9223 52.9937 96.9393C53.4663 96.9563 53.933 96.829 54.3315 96.5743C54.7301 96.3197 55.0417 95.9497 55.225 95.5137C55.4082 95.0777 55.4544 94.5962 55.3574 94.1333C55.8259 94.6164 56.1042 95.2525 56.1408 95.9244C56.7857 95.8706 57.4058 95.6512 57.941 95.2874C58.4762 94.9236 58.9083 94.4277 59.1956 93.8478C59.4829 93.2679 59.6155 92.6237 59.5807 91.9775C59.5458 91.3313 59.3447 90.705 58.9968 90.1594C58.4909 89.3679 57.6749 88.7273 57.5035 87.8052C57.2995 86.7036 58.0951 85.6265 57.9931 84.5127C57.8993 83.5131 57.1118 82.7256 56.304 82.1299C55.4961 81.5343 54.5945 80.9957 54.0722 80.1389C53.2277 78.7517 53.6193 76.9851 53.9457 75.3939C54.2721 73.8027 54.4313 71.9259 53.2889 70.7712" fill="#263238"/>
<path d="M48.462 71.7549C47.3319 72.5178 47.238 74.1376 47.4135 75.4922C47.5889 76.8467 47.7888 78.3686 46.9565 79.4498C46.3935 80.176 45.4102 80.5962 45.1246 81.4898C44.7737 82.5546 45.6468 83.6236 45.7488 84.7538C45.7628 85.569 45.5342 86.3699 45.092 87.0549C44.6547 87.7355 44.309 88.4708 44.0638 89.2418C43.9457 89.6307 43.9369 90.0447 44.0384 90.4383C44.1399 90.832 44.3477 91.1901 44.6391 91.4735C45.0587 91.7665 45.5488 91.9425 46.0589 91.9835C47.8645 92.2603 49.7023 92.2534 51.5057 91.9631C52.0443 89.7477 52.5828 87.5078 52.5828 85.2311C52.5828 80.7023 50.4408 76.3898 50.3837 71.865" fill="#263238"/>
<path d="M51.6322 94.9703C51.5645 94.9084 51.503 94.8401 51.4486 94.7663L50.9427 94.1583C50.3096 93.4229 49.7171 92.6533 49.1679 91.8531C48.7865 91.2922 48.4909 90.6775 48.2907 90.0294C48.053 89.274 48.0688 88.4616 48.3356 87.716C48.6572 86.9241 49.0434 86.1599 49.4902 85.4312C49.8982 84.6723 50.3062 83.8196 50.2042 82.9098C50.1022 82 49.5147 81.2574 49.2454 80.3924C49.1741 80.1747 49.133 79.9482 49.123 79.7192C49.1209 79.4918 49.1567 79.2657 49.2291 79.0501C49.3973 78.6564 49.6382 78.298 49.939 77.9934C50.2085 77.713 50.4516 77.4085 50.6653 77.0835C50.8464 76.7732 50.9474 76.4227 50.959 76.0635C50.9521 75.403 50.8306 74.7487 50.6 74.1296C50.4154 73.6026 50.2989 73.0542 50.2532 72.4976C50.2343 72.0749 50.3213 71.6542 50.5062 71.2736C50.6262 71.0315 50.8025 70.8217 51.0202 70.6616C51.0966 70.6075 51.1804 70.5649 51.2691 70.5352C50.9701 70.7214 50.7319 70.9908 50.5837 71.3104C50.4132 71.6831 50.3402 72.093 50.3715 72.5017C50.4308 73.0451 50.5555 73.5794 50.7428 74.0929C50.9942 74.7248 51.1323 75.396 51.1508 76.0758C51.1432 76.4655 51.038 76.8471 50.8448 77.1855C50.6289 77.5234 50.3802 77.8391 50.1022 78.128C49.8216 78.418 49.5962 78.7568 49.4372 79.1276C49.373 79.3196 49.3413 79.5209 49.3434 79.7233C49.3573 79.9311 49.3956 80.1365 49.4576 80.3353C49.7106 81.1513 50.3348 81.9061 50.4327 82.8975C50.4799 83.374 50.42 83.8549 50.2573 84.3052C50.1002 84.7279 49.9092 85.1372 49.6861 85.5292C49.2431 86.2445 48.8597 86.995 48.5396 87.7732C48.2781 88.4824 48.2566 89.2578 48.4784 89.9804C48.6618 90.6127 48.9367 91.2148 49.2944 91.7675C49.9513 92.7956 50.5959 93.5545 51.008 94.1012C51.2161 94.3746 51.3793 94.5867 51.4813 94.7336C51.5398 94.807 51.5904 94.8863 51.6322 94.9703Z" fill="#455A64"/>
<path d="M47.1853 79.2333C47.3923 78.7429 47.5389 78.2291 47.6219 77.7033C47.6933 77.131 47.7165 76.5537 47.6912 75.9775C47.6912 75.3247 47.6259 74.5985 47.6667 73.8314C47.6877 73.1024 47.8673 72.3868 48.1931 71.7343C48.4742 71.2061 48.8984 70.7678 49.4171 70.4695C49.7743 70.2655 50.1809 70.1639 50.5921 70.1757C50.7012 70.1816 50.8092 70.1994 50.9144 70.2288C50.9518 70.2365 50.9876 70.2503 51.0205 70.2696C50.8846 70.2761 50.7484 70.2761 50.6125 70.2696C50.2281 70.2864 49.8544 70.4016 49.5272 70.6041C49.0439 70.9027 48.6494 71.3254 48.3848 71.8281C48.0823 72.4668 47.9169 73.1617 47.8993 73.8681C47.8585 74.6189 47.8993 75.3369 47.8993 75.9979C47.9157 76.585 47.8775 77.1723 47.7851 77.7523C47.7193 78.1449 47.5999 78.5265 47.4301 78.8865C47.3687 79.0151 47.2859 79.1324 47.1853 79.2333Z" fill="#455A64"/>
<path d="M59.1926 93.84C59.1953 93.7524 59.2049 93.6651 59.2212 93.5789C59.2412 93.3304 59.2412 93.0807 59.2212 92.8323C59.1375 91.9188 58.9203 91.0226 58.5765 90.1721C58.344 89.6539 57.9768 89.1113 57.7034 88.4748C57.5507 88.1441 57.4436 87.7941 57.3852 87.4344C57.3241 87.0533 57.3241 86.665 57.3852 86.2839C57.4423 85.8759 57.5321 85.5087 57.581 85.117C57.6381 84.7171 57.6298 84.3106 57.5565 83.9134C57.4068 83.075 56.9938 82.3061 56.3774 81.7183C55.7573 81.1145 54.8882 80.8371 54.2477 80.2332C53.6566 79.6415 53.2694 78.877 53.142 78.0504C53.017 77.3215 52.9923 76.5788 53.0685 75.8432C53.1216 75.1536 53.2032 74.5172 53.244 73.9378C53.2892 73.4189 53.2824 72.8968 53.2236 72.3792C53.1787 71.9916 53.0292 71.6235 52.7911 71.3144C52.5837 71.0588 52.2962 70.8806 51.9751 70.8084C52.0637 70.8042 52.1523 70.8166 52.2362 70.8452C52.4823 70.919 52.7028 71.0604 52.8727 71.2532C53.1373 71.5648 53.3072 71.9456 53.3623 72.3507C53.4329 72.8766 53.4507 73.4083 53.4153 73.9378C53.3827 74.5253 53.3093 75.1618 53.2644 75.8472C53.1977 76.5674 53.2279 77.2934 53.3541 78.0056C53.4799 78.7891 53.8497 79.513 54.4109 80.0741C55.0025 80.6371 55.8715 80.9105 56.5447 81.5552C57.1883 82.1765 57.6171 82.9869 57.7687 83.8685C57.8419 84.2863 57.8502 84.713 57.7932 85.1333C57.7361 85.5413 57.6463 85.9289 57.5892 86.3043C57.5209 86.6662 57.5112 87.0368 57.5606 87.4018C57.6175 87.7444 57.7162 88.0787 57.8544 88.3973C58.1155 89.0256 58.4705 89.556 58.7071 90.1068C59.0452 90.9745 59.2435 91.8902 59.2946 92.82C59.3101 93.0721 59.2992 93.3251 59.262 93.5748C59.262 93.6605 59.2253 93.7258 59.2171 93.7666C59.2089 93.8074 59.1967 93.84 59.1926 93.84Z" fill="#455A64"/>
<path d="M57.573 82.3219C57.6417 82.1569 57.7003 81.988 57.7484 81.8159C57.8472 81.3397 57.8191 80.8458 57.6668 80.3839C57.4091 79.7105 56.9063 79.1596 56.2592 78.8416C55.8374 78.69 55.4573 78.4412 55.1495 78.1154C54.8673 77.7304 54.633 77.3126 54.4518 76.871C54.161 76.0035 54.0472 75.0864 54.1172 74.1741C54.1623 73.4491 54.0752 72.7219 53.8602 72.028C53.7031 71.5679 53.4204 71.1609 53.0442 70.853C52.8982 70.7501 52.747 70.6548 52.5913 70.5674C52.5913 70.5674 52.6403 70.5674 52.73 70.6C52.8585 70.6471 52.9805 70.7102 53.0932 70.7877C53.5111 71.0817 53.8298 71.4958 54.0071 71.975C54.25 72.6815 54.3566 73.4278 54.3212 74.1741C54.2638 75.0593 54.3774 75.9472 54.6558 76.7894C54.8298 77.2105 55.0516 77.6102 55.3167 77.9807C55.4528 78.1416 55.614 78.2794 55.7941 78.3887C55.9736 78.4989 56.1654 78.5723 56.3571 78.6703C57.0417 79.0164 57.5654 79.6146 57.8178 80.339C57.9661 80.8275 57.9732 81.348 57.8382 81.8404C57.7997 81.9726 57.7435 82.0988 57.6709 82.2158C57.6097 82.2892 57.5771 82.3259 57.573 82.3219Z" fill="#455A64"/>
<path d="M47.8054 71.2776C47.5057 71.1584 47.2294 70.9871 46.9893 70.7717C46.369 70.2715 45.8614 69.6458 45.5 68.9356C45.1386 68.2254 44.9315 67.4468 44.8922 66.6509C44.8578 66.3234 44.8868 65.9923 44.9779 65.6758C45.0146 65.6758 44.9779 66.0511 45.0391 66.6387C45.1965 68.1851 45.9236 69.6177 47.0791 70.6575C47.5075 71.0532 47.8258 71.245 47.8054 71.2776Z" fill="#455A64"/>
<path d="M47.4257 71.8322C46.9026 71.6822 46.4144 71.4298 45.9896 71.0897C45.5228 70.8095 45.1154 70.4408 44.79 70.0044C45.2502 70.2763 45.6905 70.5803 46.1079 70.9142C46.5672 71.1904 47.0075 71.4971 47.4257 71.8322Z" fill="#455A64"/>
<path d="M56.361 66.4756C56.2875 67.3228 56.0375 68.1452 55.6272 68.8901C55.2168 69.6349 54.6551 70.2856 53.9783 70.8004C54.5183 70.1692 55.008 69.4966 55.443 68.789C55.8113 68.0441 56.1184 67.2704 56.361 66.4756Z" fill="#455A64"/>
<path d="M57.0262 68.0993C56.7782 69.4643 56.184 70.7427 55.3003 71.8121C55.2473 71.7754 55.7369 70.9961 56.2102 69.9761C56.6835 68.9561 56.965 68.083 57.0262 68.0993Z" fill="#455A64"/>
<path d="M56.0632 62.8316C55.9116 62.5817 55.7753 62.3229 55.6552 62.0564C55.5161 61.7848 55.3296 61.5402 55.1044 61.3343C54.8336 61.0876 54.4791 60.9534 54.1129 60.9589C53.4305 61.0163 52.7951 61.3297 52.3341 61.8361C52.141 62.0539 51.9294 62.2546 51.7017 62.4359C51.8386 62.1742 52.0163 61.936 52.228 61.73C52.4429 61.488 52.69 61.2766 52.9624 61.1017C53.306 60.88 53.7041 60.7572 54.1129 60.7467C54.5303 60.7408 54.9332 60.899 55.2349 61.1874C55.472 61.42 55.6606 61.6974 55.7898 62.0034C55.9305 62.2606 56.0232 62.5412 56.0632 62.8316Z" fill="#455A64"/>
<path d="M55.2433 94.6969C55.1726 94.6478 55.107 94.5918 55.0474 94.5297C54.925 94.4113 54.7496 94.24 54.5334 94.0033C54.2693 93.7156 54.0305 93.4058 53.8194 93.0772C53.5342 92.637 53.3592 92.1346 53.3094 91.6125C53.2931 91.3045 53.3332 90.9962 53.4277 90.7026C53.533 90.3943 53.6697 90.0976 53.8357 89.8173C54.1662 89.2379 54.5742 88.63 54.5946 87.8956C54.5923 87.122 54.3702 86.3649 53.954 85.7128C53.546 85.0192 52.9952 84.3705 52.5097 83.6442C52.0113 82.939 51.6793 82.1299 51.5386 81.2778C51.4238 80.4885 51.4101 79.6878 51.4978 78.8951C51.6488 77.3896 51.9466 76.0677 51.9915 74.9334C52.0663 74.0425 51.9792 73.1454 51.7345 72.2855C51.5427 71.6857 51.351 71.3838 51.3714 71.3716C51.4265 71.4376 51.4731 71.5102 51.5101 71.5878C51.6314 71.8023 51.7325 72.0277 51.812 72.261C52.0921 73.1253 52.2043 74.0352 52.1425 74.9416C52.1139 76.0881 51.8324 77.4263 51.6937 78.9155C51.6126 79.6897 51.629 80.471 51.7426 81.2411C51.8818 82.0636 52.2039 82.8444 52.6851 83.5259C53.1625 84.2399 53.7174 84.8886 54.1376 85.6108C54.5694 86.2972 54.796 87.0928 54.7904 87.9037C54.7618 88.7197 54.3171 89.3399 53.9744 89.9029C53.811 90.1732 53.6743 90.4588 53.5664 90.7557C53.4728 91.0284 53.4313 91.3163 53.444 91.6043C53.4833 92.1048 53.6413 92.5888 53.905 93.016C54.1044 93.3447 54.3296 93.6571 54.5783 93.9503C54.7823 94.1951 54.9495 94.3583 55.0638 94.497C55.1306 94.5571 55.1907 94.6241 55.2433 94.6969Z" fill="#455A64"/>
<path d="M193.833 190.442C193.833 190.504 152.715 190.549 102.004 190.549C51.2939 190.549 10.1675 190.504 10.1675 190.442C10.1675 190.381 51.2776 190.336 102.004 190.336C152.731 190.336 193.833 190.385 193.833 190.442Z" fill="#263238"/>
</svg>
