<?xml version="1.0" encoding="UTF-8"?>
<svg width="2201px" height="7450px" viewBox="0 0 2201 7450" version="1.1" xmlns="http://www.w3.org/2000/svg" xmlns:xlink="http://www.w3.org/1999/xlink">
    <!-- Generator: Sketch 56.3 (81716) - https://sketch.com -->
    <title>Group</title>
    <desc>Created with Sketch.</desc>
    <defs>
        <linearGradient x1="72.9079484%" y1="-4.21069549%" x2="72.9079484%" y2="-4.32920403%" id="linearGradient-1">
            <stop stop-color="#F7B500" offset="0%"></stop>
            <stop stop-color="#F459A5" offset="100%"></stop>
        </linearGradient>
        <linearGradient x1="72.9079484%" y1="-4.21069549%" x2="72.9079484%" y2="-4.32920403%" id="linearGradient-2">
            <stop stop-color="#32C5FF" offset="0%"></stop>
            <stop stop-color="#F459A5" offset="100%"></stop>
        </linearGradient>
        <linearGradient x1="72.9079484%" y1="-4.21069549%" x2="72.9079484%" y2="-4.32920403%" id="linearGradient-3">
            <stop stop-color="#F7B500" offset="0%"></stop>
            <stop stop-color="#F459A5" offset="100%"></stop>
        </linearGradient>
    </defs>
    <g id="Page-1" stroke="none" stroke-width="1" fill="none" fill-rule="evenodd">
        <g id="Group">
            <g id="animated">
                <path d="M1237.44372,3393.78257 C1253.14223,3337.71723 1261.04148,3231.52869 1188.76833,3207.07258 C1116.49518,3182.61648 1009.58532,3251.56155 993.886808,3307.64741 C978.188296,3363.73327 1028.31354,3446.8204 1100.59669,3471.26624 C1172.87984,3495.71208 1221.74521,3449.86843 1237.43372,3393.78257" id="Shape" fill="#EFEFFF" fill-rule="nonzero"></path>
                <path d="M162.944103,2713.11717 C112.846511,2696.24761 12.1497358,2705.27074 1.26799533,2743.95817 C-9.6137452,2782.64559 51.721625,2878.49265 101.826149,2895.35512 C151.930673,2912.2176 185.802689,2880.59515 196.677499,2841.90772 C207.56617,2803.23445 213.041696,2729.98673 162.944103,2713.11717 Z" id="Shape" fill="#0091FF" fill-rule="nonzero"></path>
                <circle id="Oval" fill="#E02020" cx="420" cy="1169" r="25"></circle>
                <path d="M2100.82936,2269.90728 C1999.21887,2235.27655 1796.0732,2250.4855 1775.08022,2326.63564 C1754.08723,2402.78577 1880.40454,2593.74093 1982.02885,2628.35786 C2083.65316,2662.97478 2151.25897,2601.38023 2172.23796,2525.2299 C2193.2453,2449.10791 2202.43984,2304.53802 2100.82936,2269.90728 Z" id="Shape" fill="#F9A463" fill-rule="nonzero" transform="translate(1979.243090, 2445.269905) rotate(46.000000) translate(-1979.243090, -2445.269905) "></path>
                <path d="M1908.76208,3308.9114 C1916.17898,3328.85218 1935.50909,3346.12461 1956.54539,3337.90404 C1977.58169,3329.68347 1984.54695,3302.68183 1977.12002,3282.74105 C1969.69308,3262.80026 1951.12573,3258.79774 1930.0794,3267.00805 C1909.03306,3275.21835 1901.33514,3288.97062 1908.76208,3308.9114 Z" id="Shape" fill="#01A5E5" fill-rule="nonzero" style="mix-blend-mode: multiply;"></path>
                <path d="M206.167042,857.716894 C210.731393,866.487042 220.705346,873.32305 230.032931,868.288146 C239.360516,863.253242 241.160401,850.369209 236.59605,841.609294 C232.031699,832.84938 223.141655,832.081864 213.724573,837.116768 C204.307492,842.151672 201.602691,848.95698 206.167042,857.716894 Z" id="Shape" fill="#74D9D7" fill-rule="nonzero"></path>
                <path d="M1475.31056,1861.44913 C1478.82037,1872.06705 1487.95988,1881.26036 1497.90935,1876.88406 C1507.85881,1872.50776 1511.14863,1858.12847 1507.63882,1847.51055 C1504.12901,1836.89264 1495.34948,1834.76085 1485.39002,1839.13716 C1475.43055,1843.51346 1471.79075,1850.83122 1475.31056,1861.44913 Z" id="Shape" fill="#01A5E5" fill-rule="nonzero"></path>
                <path d="M84.9911344,1611.10823 C101.035986,1659.79525 142.816596,1701.94996 188.299865,1681.883 C233.783135,1661.81606 248.822325,1595.88177 232.777473,1547.19473 C216.732623,1498.50771 176.597637,1488.7327 131.068656,1508.79965 C85.5396764,1528.86661 68.9005704,1562.42119 84.9911344,1611.10823 Z" id="Shape" fill="url(#linearGradient-1)" fill-rule="nonzero"></path>
                <path d="M1170.99557,1222.91666 C1179.01799,1242.85763 1199.9083,1260.12312 1222.64993,1251.90421 C1245.39157,1243.68529 1252.91116,1216.6803 1244.88874,1196.73934 C1236.86631,1176.79837 1216.79882,1172.79477 1194.03433,1181.01369 C1171.26984,1189.2326 1162.95029,1202.9757 1170.99557,1222.91666 Z" id="Shape" fill="url(#linearGradient-2)" fill-rule="nonzero" transform="translate(1208.000000, 1215.500000) scale(1, -1) translate(-1208.000000, -1215.500000) "></path>
                <path d="M2055.75094,1348.92396 C2063.169,1368.85669 2082.50214,1386.12214 2103.54172,1377.90489 C2124.58131,1369.68764 2131.54767,1342.69691 2124.11957,1322.76418 C2116.69147,1302.83146 2098.1413,1298.78951 2077.09167,1306.9965 C2056.04204,1315.20349 2048.34292,1328.99123 2055.75094,1348.92396 Z" id="Shape" fill="#74D9D7" fill-rule="nonzero"></path>
                <path d="M224.75094,2169.92396 C232.169001,2189.85669 251.502135,2207.12214 272.541724,2198.90489 C293.581313,2190.68764 300.547666,2163.69691 293.119566,2143.76418 C285.691467,2123.83146 267.141295,2119.78951 246.091668,2127.9965 C225.042041,2136.20349 217.342917,2149.99123 224.75094,2169.92396 Z" id="Shape-Copy-3" fill="#44D7B6" fill-rule="nonzero"></path>
                <path d="M2102.10272,1903.70725 C2114.87273,1901.88679 2127.72244,1892.24664 2125.80992,1877.93121 C2123.89741,1863.61579 2108.96585,1855.45475 2096.19584,1857.24418 C2083.42582,1859.03361 2078.48517,1870.11151 2080.39768,1884.42694 C2082.31019,1898.74236 2089.38251,1905.53805 2102.10272,1903.70725 Z" id="Shape" fill="#B86CFF" fill-rule="nonzero" style="mix-blend-mode: multiply;"></path>
                <path d="M1086.28166,779.93393 C1089.33178,779.510619 1092.41172,777.252963 1091.9547,773.886637 C1091.49768,770.520311 1087.93091,768.635571 1084.87085,769.058882 C1081.81078,769.482192 1080.63842,772.082528 1081.09544,775.408539 C1081.55246,778.73455 1083.22159,780.35724 1086.28166,779.93393 Z" id="Shape" fill="#9C7EF0" fill-rule="nonzero"></path>
                <path d="M1836.35797,918.429047 C1850.80293,957.28252 1888.448,990.926817 1929.34869,974.919883 C1970.24938,958.91295 1983.84287,906.298233 1969.41794,867.455015 C1954.99301,828.611797 1918.84052,820.808289 1877.87973,836.815222 C1836.91894,852.822155 1821.93304,879.58583 1836.35797,918.429047 Z" id="Shape" fill="#F7F7FF" fill-rule="nonzero"></path>
                <path d="M1652.97665,49.4840729 C1661.00163,70.9829941 1681.91555,89.5995052 1704.63816,80.7423355 C1727.36076,71.8851658 1734.91271,42.7716887 1726.89885,21.2784415 C1718.885,-0.214805653 1698.80029,-4.53274681 1676.04429,4.3244229 C1653.2883,13.1815926 1644.9628,27.9908257 1652.97665,49.4840729 Z" id="Shape-Copy" fill="#32C5FF" fill-rule="nonzero"></path>
                <path d="M880.353741,379.68703 C894.787312,418.652585 972.261451,440.771709 1013.12988,424.7186 C1053.99831,408.66549 1027.72231,367.52122 1013.30875,328.565949 C998.895201,289.610677 962.771235,281.784658 921.842752,297.837767 C880.914268,313.890877 865.940188,340.731758 880.353741,379.68703 Z" id="Shape-Copy-2" fill="#E7E7E8" fill-rule="nonzero"></path>
                <path d="M1068.52996,2465.94427 C1075.41198,2465.41972 1082.17184,2461.41215 1080.82801,2454.96017 C1079.48419,2448.50819 1071.21761,2444.5216 1064.33559,2445.04616 C1057.45357,2445.57071 1055.01025,2450.39658 1056.35407,2456.83806 C1057.6979,2463.27955 1061.64794,2466.46882 1068.52996,2465.94427 Z" id="Shape" fill="#F459A5" fill-rule="nonzero"></path>
                <path d="M134.52996,52.9442695 C141.411983,52.4197184 148.171839,48.4121485 146.828012,41.9601706 C145.484185,35.5081928 137.217614,31.5216049 130.335591,32.0461559 C123.453568,32.570707 121.010247,37.3965766 122.354073,43.8380634 C123.6979,50.2795502 127.647937,53.4688205 134.52996,52.9442695 Z" id="Shape" fill="#0091FF" fill-rule="nonzero"></path>
            </g>
            <g id="animated-copy" transform="translate(54.000000, 3562.000000)">
                <path d="M776.443717,3602.78257 C792.142229,3546.71723 800.04148,3440.52869 727.768331,3416.07258 C655.495183,3391.61648 548.58532,3460.56155 532.886808,3516.64741 C517.188296,3572.73327 567.313545,3655.8204 639.59669,3680.26624 C711.879838,3704.71208 760.745205,3658.86843 776.433718,3602.78257" id="Shape" fill="#F9A463" fill-rule="nonzero"></path>
                <path d="M1984.05937,2824.60674 C1882.44888,2789.97602 1679.30321,2805.18496 1658.31023,2881.3351 C1637.31724,2957.48524 1763.63455,3148.44039 1865.25886,3183.05732 C1966.88316,3217.67424 2034.48898,3156.07969 2055.46796,3079.92936 C2076.47531,3003.80738 2085.66985,2859.23748 1984.05937,2824.60674 Z" id="Shape" fill="#EFEFFF" fill-rule="nonzero" transform="translate(1862.473098, 2999.969366) rotate(46.000000) translate(-1862.473098, -2999.969366) "></path>
                <path d="M379.279639,2529.06242 C309.843107,2491.47999 255.885163,2508.22854 264.007625,2605.90414 C272.130086,2703.57974 330.409458,2788.17912 394.478615,2811.80201 C458.547771,2835.4249 501.169934,2793.39224 514.396157,2741.4266 C527.640262,2689.48029 466.353285,2620.07828 379.279639,2529.06242 Z" id="Shape-Copy-4" fill="#EFEFFF" fill-rule="nonzero" transform="translate(389.697028, 2664.545173) rotate(46.000000) translate(-389.697028, -2664.545173) "></path>
                <path d="M1637.76208,3856.9114 C1645.17898,3876.85218 1664.50909,3894.12461 1685.54539,3885.90404 C1706.58169,3877.68347 1713.54695,3850.68183 1706.12002,3830.74105 C1698.69308,3810.80026 1680.12573,3806.79774 1659.0794,3815.00805 C1638.03306,3823.21835 1630.33514,3836.97062 1637.76208,3856.9114 Z" id="Shape" fill="#01A5E5" fill-rule="nonzero" style="mix-blend-mode: multiply;"></path>
                <path d="M84.1670421,1330.71689 C88.7313933,1339.48704 98.7053459,1346.32305 108.032931,1341.28815 C117.360516,1336.25324 119.160401,1323.36921 114.59605,1314.60929 C110.031699,1305.84938 101.141655,1305.08186 91.7245735,1310.11677 C82.3074916,1315.15167 79.6026909,1321.95698 84.1670421,1330.71689 Z" id="Shape" fill="#74D9D7" fill-rule="nonzero"></path>
                <path d="M1353.31056,2334.44913 C1356.82037,2345.06705 1365.95988,2354.26036 1375.90935,2349.88406 C1385.85881,2345.50776 1389.14863,2331.12847 1385.63882,2320.51055 C1382.12901,2309.89264 1373.34948,2307.76085 1363.39002,2312.13716 C1353.43055,2316.51346 1349.79075,2323.83122 1353.31056,2334.44913 Z" id="Shape" fill="#01A5E5" fill-rule="nonzero"></path>
                <path d="M267.995567,1612.05411 C276.017993,1636.39763 296.908298,1657.47498 319.649932,1647.4415 C342.391567,1637.40803 349.911162,1604.44089 341.888736,1580.09736 C333.866311,1555.75385 313.798818,1550.86635 291.034328,1560.89982 C268.269838,1570.93331 259.950285,1587.71059 267.995567,1612.05411 Z" id="Shape" fill="url(#linearGradient-3)" fill-rule="nonzero"></path>
                <path d="M1048.99557,1695.91666 C1057.01799,1715.85763 1077.9083,1733.12312 1100.64993,1724.90421 C1123.39157,1716.68529 1130.91116,1689.6803 1122.88874,1669.73934 C1114.86631,1649.79837 1094.79882,1645.79477 1072.03433,1654.01369 C1049.26984,1662.2326 1040.95029,1675.9757 1048.99557,1695.91666 Z" id="Shape" fill="url(#linearGradient-2)" fill-rule="nonzero" transform="translate(1086.000000, 1688.500000) scale(1, -1) translate(-1086.000000, -1688.500000) "></path>
                <path d="M1933.75094,1821.92396 C1941.169,1841.85669 1960.50214,1859.12214 1981.54172,1850.90489 C2002.58131,1842.68764 2009.54767,1815.69691 2002.11957,1795.76418 C1994.69147,1775.83146 1976.1413,1771.78951 1955.09167,1779.9965 C1934.04204,1788.20349 1926.34292,1801.99123 1933.75094,1821.92396 Z" id="Shape" fill="#74D9D7" fill-rule="nonzero"></path>
                <path d="M1980.10272,2376.70725 C1992.87273,2374.88679 2005.72244,2365.24664 2003.80992,2350.93121 C2001.89741,2336.61579 1986.96585,2328.45475 1974.19584,2330.24418 C1961.42582,2332.03361 1956.48517,2343.11151 1958.39768,2357.42694 C1960.31019,2371.74236 1967.38251,2378.53805 1980.10272,2376.70725 Z" id="Shape" fill="#B86CFF" fill-rule="nonzero" style="mix-blend-mode: multiply;"></path>
                <path d="M964.281655,1252.93393 C967.331785,1252.51062 970.41172,1250.25296 969.954698,1246.88664 C969.497675,1243.52031 965.930911,1241.63557 962.870846,1242.05888 C959.810781,1242.48219 958.638418,1245.08253 959.095441,1248.40854 C959.552464,1251.73455 961.22159,1253.35724 964.281655,1252.93393 Z" id="Shape" fill="#9C7EF0" fill-rule="nonzero"></path>
                <path d="M1714.35797,1391.42905 C1728.80293,1430.28252 1766.448,1463.92682 1807.34869,1447.91988 C1848.24938,1431.91295 1861.84287,1379.29823 1847.41794,1340.45501 C1832.99301,1301.6118 1796.84052,1293.80829 1755.87973,1309.81522 C1714.91894,1325.82216 1699.93304,1352.58583 1714.35797,1391.42905 Z" id="Shape" fill="#F7F7FF" fill-rule="nonzero"></path>
                <path d="M1530.97665,522.484073 C1539.00163,543.982994 1559.91555,562.599505 1582.63816,553.742336 C1605.36076,544.885166 1612.91271,515.771689 1604.89885,494.278442 C1596.885,472.785194 1576.80029,468.467253 1554.04429,477.324423 C1531.2883,486.181593 1522.9628,500.990826 1530.97665,522.484073 Z" id="Shape-Copy" fill="#32C5FF" fill-rule="nonzero"></path>
                <path d="M758.353741,852.68703 C772.787312,891.652585 850.261451,913.771709 891.129879,897.7186 C931.998306,881.66549 905.722306,840.52122 891.308754,801.565949 C876.895201,762.610677 840.771235,754.784658 799.842752,770.837767 C758.914268,786.890877 743.940188,813.731758 758.353741,852.68703 Z" id="Shape-Copy-2" fill="#E7E7E8" fill-rule="nonzero"></path>
                <path d="M946.52996,2938.94427 C953.411983,2938.41972 960.171839,2934.41215 958.828012,2927.96017 C957.484185,2921.50819 949.217614,2917.5216 942.335591,2918.04616 C935.453568,2918.57071 933.010247,2923.39658 934.354073,2929.83806 C935.6979,2936.27955 939.647937,2939.46882 946.52996,2938.94427 Z" id="Shape" fill="#F459A5" fill-rule="nonzero"></path>
                <path d="M12.5299596,525.944269 C19.4119827,525.419718 26.1718392,521.412148 24.8280123,514.960171 C23.4841854,508.508193 15.2176139,504.521605 8.33559076,505.046156 C1.45356818,505.570707 -0.98975345,510.396577 0.354073446,516.838063 C1.69790034,523.27955 5.64793697,526.468821 12.5299596,525.944269 Z" id="Shape" fill="#0091FF" fill-rule="nonzero"></path>
                <rect id="Rectangle" fill="#E02020" x="449" y="2058" width="80" height="80"></rect>
                <rect id="Rectangle-Copy" fill="#32C5FF" x="0" y="0" width="80" height="80"></rect>
                <rect id="Rectangle-Copy-2" fill="#F9A463" x="1911" y="674" width="80" height="80"></rect>
            </g>
        </g>
    </g>
</svg>